<?xml version="1.0" standalone="no"?>
<!DOCTYPE svg PUBLIC "-//W3C//DTD SVG 20010904//EN"
 "http://www.w3.org/TR/2001/REC-SVG-20010904/DTD/svg10.dtd">
<svg version="1.0" xmlns="http://www.w3.org/2000/svg"
 width="600.000000pt" height="600.000000pt" viewBox="0 0 600.000000 600.000000"
 preserveAspectRatio="xMidYMid meet">
<metadata>
Created by potrace 1.14, written by Peter Selinger 2001-2017
</metadata>
<g transform="translate(0.000000,600.000000) scale(0.100000,-0.100000)"
fill="#000000" stroke="none">
<path d="M2735 5989 c-1356 -118 -2471 -1152 -2694 -2501 -239 -1439 602
-2849 1980 -3323 1089 -375 2286 -98 3099 715 1013 1013 1169 2592 375 3785
-606 909 -1667 1418 -2760 1324z m-121 -1212 c82 -47 90 -102 43 -284 -15 -56
-31 -132 -37 -170 -14 -101 -12 -319 5 -415 42 -240 169 -480 358 -675 95 -98
311 -253 352 -253 16 0 63 7 107 16 139 28 255 -5 382 -109 l69 -57 92 0 c107
0 236 20 351 55 124 38 178 31 230 -27 38 -41 47 -88 28 -144 -45 -135 -143
-308 -252 -443 -29 -35 -52 -69 -52 -74 0 -6 18 -38 40 -72 154 -236 119 -545
-84 -748 -96 -95 -204 -146 -359 -167 -125 -16 -1822 -13 -1917 4 -162 29
-268 84 -375 192 -110 111 -169 227 -196 387 -16 93 -4 196 35 308 36 103 81
173 169 261 l78 78 -65 132 c-149 305 -196 605 -146 930 61 398 201 681 457
929 123 119 247 206 408 286 181 92 213 98 279 60z"/>
<path d="M2250 4314 c-246 -191 -405 -451 -472 -769 -33 -153 -31 -391 4 -540
29 -121 69 -237 85 -242 5 -2 22 27 36 64 64 162 194 308 342 385 82 42 124
58 241 87 l41 11 -58 117 c-124 250 -190 552 -176 811 4 61 5 112 4 111 -1 0
-22 -16 -47 -35z"/>
<path d="M2450 3027 c-165 -56 -283 -181 -325 -344 -10 -38 -15 -106 -15 -200
0 -163 10 -145 -111 -186 -43 -14 -94 -34 -115 -45 -291 -149 -314 -547 -42
-722 114 -74 70 -71 1128 -68 l945 3 57 28 c76 38 134 96 170 174 28 59 30 71
26 147 -5 101 -37 174 -102 234 -75 69 -98 77 -346 128 -68 13 -125 26 -126
27 -1 1 26 72 59 157 70 181 75 223 33 293 -42 73 -114 106 -202 92 -32 -4
-80 -30 -174 -92 -72 -47 -132 -84 -134 -82 -2 2 -36 62 -77 133 -115 202
-206 285 -358 330 -81 24 -211 21 -291 -7z"/>
<path d="M4004 2523 c-30 -4 -33 -8 -47 -66 -18 -69 -14 -77 40 -77 27 0 41
11 90 66 32 36 60 70 61 75 4 9 -80 10 -144 2z"/>
</g>
</svg>
