<svg xmlns:xlink="http://www.w3.org/1999/xlink" xmlns="http://www.w3.org/2000/svg" viewBox="0 0 1400.1 1000">
    <defs>
        <linearGradient id="Dégradé_sans_nom" data-name="Dégradé sans nom" x1="700.08" y1="2544.99" x2="700.08"
                        y2="2082.79" gradientTransform="translate(0 -2094.79)" gradientUnits="userSpaceOnUse">
            <stop offset="0.25" stop-color="#fff"/>
            <stop offset="0.6" stop-color="#8fc4ff"/>
            <stop offset="1" stop-color="#1f94d6"/>
        </linearGradient>
        <linearGradient id="Dégradé_sans_nom_209" data-name="Dégradé sans nom 209" x1="422.68" y1="2450.19" x2="646.28"
                        y2="2450.19" gradientTransform="translate(0 -2094.79)" gradientUnits="userSpaceOnUse">
            <stop offset="0" stop-color="#fffae3" stop-opacity="0"/>
            <stop offset="0.01" stop-color="#fffae3" stop-opacity="0.07"/>
            <stop offset="0.05" stop-color="#fffae3" stop-opacity="0.26"/>
            <stop offset="0.09" stop-color="#fffae3" stop-opacity="0.44"/>
            <stop offset="0.13" stop-color="#fffae3" stop-opacity="0.59"/>
            <stop offset="0.17" stop-color="#fffae3" stop-opacity="0.72"/>
            <stop offset="0.21" stop-color="#fffae3" stop-opacity="0.82"/>
            <stop offset="0.26" stop-color="#fffae3" stop-opacity="0.9"/>
            <stop offset="0.32" stop-color="#fffae3" stop-opacity="0.96"/>
            <stop offset="0.39" stop-color="#fffae3" stop-opacity="0.99"/>
            <stop offset="0.5" stop-color="#fffae3"/>
            <stop offset="0.61" stop-color="#fffae3" stop-opacity="0.99"/>
            <stop offset="0.68" stop-color="#fffae4" stop-opacity="0.96"/>
            <stop offset="0.74" stop-color="#fffae6" stop-opacity="0.9"/>
            <stop offset="0.79" stop-color="#fffbe8" stop-opacity="0.82"/>
            <stop offset="0.83" stop-color="#fffbeb" stop-opacity="0.72"/>
            <stop offset="0.87" stop-color="#fffcee" stop-opacity="0.59"/>
            <stop offset="0.91" stop-color="#fffdf3" stop-opacity="0.44"/>
            <stop offset="0.95" stop-color="#fffef8" stop-opacity="0.26"/>
            <stop offset="0.99" stop-color="#fffffd" stop-opacity="0.07"/>
            <stop offset="1" stop-color="#fff" stop-opacity="0"/>
        </linearGradient>
        <linearGradient id="Dégradé_sans_nom_209-2" x1="482.34" y1="630.95" x2="521.91" y2="630.95"
                        gradientTransform="matrix(1, 0, 0, 1, 0, 0)" xlink:href="#Dégradé_sans_nom_209"/>
        <linearGradient id="Dégradé_sans_nom_209-3" x1="508" y1="637.6" x2="547.57" y2="637.6"
                        gradientTransform="matrix(1, 0, 0, 1, 0, 0)" xlink:href="#Dégradé_sans_nom_209"/>
        <linearGradient id="Dégradé_sans_nom_209-4" x1="536.13" y1="635.37" x2="575.7" y2="635.37"
                        gradientTransform="matrix(1, 0, 0, 1, 0, 0)" xlink:href="#Dégradé_sans_nom_209"/>
        <linearGradient id="Dégradé_sans_nom_209-5" x1="536.13" y1="638.14" x2="575.7" y2="638.14"
                        gradientTransform="matrix(1, 0, 0, 1, 0, 0)" xlink:href="#Dégradé_sans_nom_209"/>
        <linearGradient id="Dégradé_sans_nom_209-6" x1="516.34" y1="639.79" x2="555.91" y2="639.79"
                        gradientTransform="matrix(1, 0, 0, 1, 0, 0)" xlink:href="#Dégradé_sans_nom_209"/>
        <linearGradient id="Dégradé_sans_nom_209-7" x1="486.51" y1="643.09" x2="526.08" y2="643.09"
                        gradientTransform="matrix(1, 0, 0, 1, 0, 0)" xlink:href="#Dégradé_sans_nom_209"/>
        <linearGradient id="Dégradé_sans_nom_209-8" x1="495.13" y1="645.73" x2="534.7" y2="645.73"
                        gradientTransform="matrix(1, 0, 0, 1, 0, 0)" xlink:href="#Dégradé_sans_nom_209"/>
        <linearGradient id="Dégradé_sans_nom_209-9" x1="540.13" y1="644.08" x2="579.7" y2="644.08"
                        gradientTransform="matrix(1, 0, 0, 1, 0, 0)" xlink:href="#Dégradé_sans_nom_209"/>
        <linearGradient id="Dégradé_sans_nom_209-10" x1="530.24" y1="646.55" x2="561.49" y2="646.55"
                        gradientTransform="matrix(1, 0, 0, 1, 0, 0)" xlink:href="#Dégradé_sans_nom_209"/>
        <linearGradient id="Dégradé_sans_nom_209-11" x1="529.68" y1="660.29" x2="562.66" y2="660.29"
                        gradientTransform="matrix(1, 0, 0, 1, 0, 0)" xlink:href="#Dégradé_sans_nom_209"/>
        <linearGradient id="Dégradé_sans_nom_209-12" x1="496.43" y1="656.78" x2="529.41" y2="656.78"
                        gradientTransform="matrix(1, 0, 0, 1, 0, 0)" xlink:href="#Dégradé_sans_nom_209"/>
        <linearGradient id="Dégradé_sans_nom_209-13" x1="531.37" y1="653.21" x2="564.35" y2="653.21"
                        gradientTransform="matrix(1, 0, 0, 1, 0, 0)" xlink:href="#Dégradé_sans_nom_209"/>
        <linearGradient id="Dégradé_sans_nom_209-14" x1="561.49" y1="650.09" x2="579.7" y2="650.09"
                        gradientTransform="matrix(1, 0, 0, 1, 0, 0)" xlink:href="#Dégradé_sans_nom_209"/>
        <linearGradient id="Dégradé_sans_nom_209-15" x1="483.92" y1="653.21" x2="502.13" y2="653.21"
                        gradientTransform="matrix(1, 0, 0, 1, 0, 0)" xlink:href="#Dégradé_sans_nom_209"/>
        <linearGradient id="Dégradé_sans_nom_209-16" x1="479.91" y1="648.29" x2="498.12" y2="648.29"
                        gradientTransform="matrix(1, 0, 0, 1, 0, 0)" xlink:href="#Dégradé_sans_nom_209"/>
        <linearGradient id="Dégradé_sans_nom_209-17" x1="509.17" y1="664.96" x2="527.38" y2="664.96"
                        gradientTransform="matrix(1, 0, 0, 1, 0, 0)" xlink:href="#Dégradé_sans_nom_209"/>
        <linearGradient id="Dégradé_sans_nom_209-18" x1="564.77" y1="659.68" x2="582.98" y2="659.68"
                        gradientTransform="matrix(1, 0, 0, 1, 0, 0)" xlink:href="#Dégradé_sans_nom_209"/>
        <linearGradient id="Dégradé_sans_nom_209-19" x1="505.12" y1="649.61" x2="538.1" y2="649.61"
                        gradientTransform="matrix(1, 0, 0, 1, 0, 0)" xlink:href="#Dégradé_sans_nom_209"/>
        <linearGradient id="Dégradé_sans_nom_209-20" x1="486.51" y1="646.9" x2="519.48" y2="646.9"
                        gradientTransform="matrix(1, 0, 0, 1, 0, 0)" xlink:href="#Dégradé_sans_nom_209"/>
        <linearGradient id="Dégradé_sans_nom_209-21" x1="499.13" y1="634.55" x2="538.7" y2="634.55"
                        gradientTransform="matrix(1, 0, 0, 1, 0, 0)" xlink:href="#Dégradé_sans_nom_209"/>
        <linearGradient id="Dégradé_sans_nom_209-22" x1="485.17" y1="639.25" x2="524.75" y2="639.25"
                        gradientTransform="matrix(1, 0, 0, 1, 0, 0)" xlink:href="#Dégradé_sans_nom_209"/>
        <linearGradient id="Dégradé_sans_nom_209-23" x1="523.41" y1="644.08" x2="562.98" y2="644.08"
                        gradientTransform="matrix(1, 0, 0, 1, 0, 0)" xlink:href="#Dégradé_sans_nom_209"/>
        <linearGradient id="Dégradé_sans_nom_209-24" x1="544.98" y1="630.95" x2="584.56" y2="630.95"
                        gradientTransform="matrix(1, 0, 0, 1, 0, 0)" xlink:href="#Dégradé_sans_nom_209"/>
        <linearGradient id="Dégradé_sans_nom_209-25" x1="553.65" y1="634.84" x2="593.22" y2="634.84"
                        gradientTransform="matrix(1, 0, 0, 1, 0, 0)" xlink:href="#Dégradé_sans_nom_209"/>
        <linearGradient id="Dégradé_sans_nom_209-26" x1="549.32" y1="640.9" x2="588.89" y2="640.9"
                        gradientTransform="matrix(1, 0, 0, 1, 0, 0)" xlink:href="#Dégradé_sans_nom_209"/>
        <linearGradient id="Dégradé_sans_nom_209-27" x1="480.88" y1="635.95" x2="520.46" y2="635.95"
                        gradientTransform="matrix(1, 0, 0, 1, 0, 0)" xlink:href="#Dégradé_sans_nom_209"/>
        <linearGradient id="Dégradé_sans_nom_209-28" x1="503.63" y1="630.34" x2="543.2" y2="630.34"
                        gradientTransform="matrix(1, 0, 0, 1, 0, 0)" xlink:href="#Dégradé_sans_nom_209"/>
        <linearGradient id="Dégradé_sans_nom_209-29" x1="514.91" y1="628.69" x2="554.48" y2="628.69"
                        gradientTransform="matrix(1, 0, 0, 1, 0, 0)" xlink:href="#Dégradé_sans_nom_209"/>
        <linearGradient id="Dégradé_sans_nom_209-30" x1="524" y1="631.99" x2="563.57" y2="631.99"
                        gradientTransform="matrix(1, 0, 0, 1, 0, 0)" xlink:href="#Dégradé_sans_nom_209"/>
    </defs>
    <g id="Calque_11" data-name="Calque 11">
        <rect id="Sky-2" x="0.08" width="1400" height="462.2" style="fill: url(#Dégradé_sans_nom)"/>
        <circle id="Sun_ray" data-name="Sun ray" cx="534.48" cy="355.4" r="135.4"
                style="fill: #fff;opacity: 0.300000011920929;isolation: isolate"/>
        <circle id="Sun-2" cx="534.48" cy="355.4" r="111.8" style="fill: url(#Dégradé_sans_nom_209)"/>
    </g>
    <g id="Calque_27" data-name="Calque 27">
        <path d="M1400.08,282.78l-23.58-12.46-28.5-18.5-28.39-10.5-21.61-27h-14s-16,15-17.5,17-15.5,11.5-15.5,11.5l-32.5,19.5,90.79,106,90.83-5.95Z"
              style="fill: #607c85"/>
    </g>
    <g id="Calque_17" data-name="Calque 17">
        <path d="M0,337.73,36.58,330s25-4.93,30.7-4.4,27-20.59,32.7-19.7,28.81-5.56,35.91-12,33.48-35.78,39.29-37.11,57.82-30,65.15-25,21,23.65,31.85,25.65,27.06-8.66,39.6,9.34,50.72,41.22,59.3,49.61,48.65,31.51,51.6,45.05-2.29,24.43,16,37.45,66.69,25.82,74.9,29.89,33.21,12,40.64,9.33,70-17.52,80.3-20,25-40.87,32.08-50.44S699,335,699,335s13.44-.46,18.06,7.37,6.84,11.1,6.84,11.1,27.49-48.49,32.2-48.9,5.28-14.48,23.15-25.4S837,227.8,840,225.63s53.26-15.59,59.8-13.2S926.51,225.61,929,225s34.57-12.33,45.28-25.6,34.05-53.13,34.05-55.2,22.67-29.19,25.34-30.3,34.3-25.43,40.81-26.6,26-17.76,26-17.76,51,43.1,45,52,16.75,32.75,16.75,32.75,38,31.32,41.73,38.91,3,12.07,15,29.5,66,88.09,69.33,88.75,35.7,2.67,46.18,6,65.61,26.75,65.61,26.75V829.84H0Z"
              style="fill: #93b0bf"/>
        <path d="M1052.33,110.48c3,2,7.67,11.34,13,14s13,4,17.34,2.34,9-6.67,16.66-2,19,14.33,21,14,0-11,3-10.34,10,11.34,12.67,12.34,17.4,3.27,14.51-1.18c-5.93-9.16-7.11-14.12-5-18.07,5.22-9.81-44.87-52.09-45-52s-19.5,16.58-26,17.76-38.15,25.49-40.81,26.6C1039.67,116.15,1049.33,108.48,1052.33,110.48Z"
              style="fill: #edf8ff;opacity: 0.9"/>
        <path d="M261.87,278.15c6.46.67,31.8,4.29,35.13,7.48s64.24,69.19,62.12,68.52-57.7-18.67-59.91-18.67-1.54,4.67-6.21,6-39.33-23.33-49.33-26-21.34,10-21.34,10,22,.67,24,1.34,40,32.66,47.34,39.33,50.66,16.67,50.66,16.67,63.34,24,66.67,32.66,57.33,38,70.67,40S539,458.82,539,458.82s46.67,2,55.33,0,46.57-20,51.95-20.67,40.05-21.33,43.39-26-2.67-29.33,0-45.33,13.88-31.75,16.11-31.21h0A32.92,32.92,0,0,0,699,335s-25.31,23.19-32.37,32.75-21.82,48-32.08,50.44-72.86,17.33-80.3,20-32.43-5.27-40.64-9.33-56.61-16.88-74.9-29.89-13.05-23.91-16-37.45-43-36.66-51.6-45.05-46.75-31.61-59.3-49.61-28.78-7.34-39.6-9.34-24.51-20.66-31.85-25.65C246.33,244.82,255.41,277.48,261.87,278.15Z"
              style="fill: #fff;opacity: 0.4"/>
        <path d="M802.33,279.48c2-1.33,40.67-18,44-26.66s22.67-26.67,29.34-28,6.9-12.12,24.11-12.39c-6.54-2.39-56.81,11-59.8,13.2s-42.87,42.58-60.75,53.5-18.43,25-23.15,25.4-32.2,48.9-32.2,48.9,55.79-39.28,60.45-41.95S800.33,280.82,802.33,279.48Z"
              style="fill: #fff;opacity: 0.4"/>
        <path d="M962.33,225c2-2.88,44-24.21,44-24.21s18-36,18.67-39.34,20.67-31.33,20.67-31.33,3.33-14.67,6.66-19.67,29-14.33,29-14.33l19.14-26.58s-19.5,16.58-26,17.76-38.15,25.49-40.81,26.6-25.34,28.22-25.34,30.3-23.33,41.92-34.05,55.2S931.5,224.44,929,225C929,225,960.33,227.9,962.33,225Z"
              style="fill: #fff;opacity: 0.4"/>
        <path d="M1184.3,296.15l-62.36,30.78s-45.61,29.89-48.27,30.55-54.67,3.34-54.67,3.34l-52,56s-8,16-9.33,18-52.67,64-52.67,64l76.67-60,60.66-47.34h48.9l22.64-22,83.8-55.33L1216,266.82l11-12L1210.33,262Z"
              style="fill: #fff;opacity: 0.4"/>
        <path d="M98.33,326.19s27.34-6.71,31.34-6.71S163,285.63,163,285.63s39.33-30.81,41.33-32.15,36-21.65,36-21.65c-7.33-5-59.33,23.65-65.15,25S143,287.48,135.89,293.93s-30.22,12.89-35.91,12-27,20.22-32.7,19.7-30.7,4.4-30.7,4.4L0,337.73V391.2c2.68-1.66,17.39-10.18,33-14.38C50.33,372.15,98.33,326.19,98.33,326.19Z"
              style="opacity: 0.1"/>
        <path d="M1128,116.15l-6,14,6,28.67s24.66,22.66,25.66,28.66S1187,217.82,1187,217.82s29.67,20,30.67,22.33L1255,282.78l21.33,44.7,45.85,12,47.49,20.67s16,8.87,30.44,17.22V344.23s-55.11-23.41-65.6-26.75-42.84-5.33-46.18-6S1231,240.15,1219,222.73s-11.33-21.91-15-29.5-41.73-38.91-41.73-38.91-21.89-23.17-16.83-32.63c5.47-10.23-44.92-52.12-44.92-52.12s15.92,33.91,16.25,37.25S1128,116.15,1128,116.15Z"
              style="opacity: 0.1"/>
        <path d="M171,358.82l-40,48.66L84.33,436.15l-30,82,63.34-5.06,14.66-53.38s1.34,1.74,8.67-8.58,19.33-13.65,28-25,12-27.45,23.33-28.72A47.59,47.59,0,0,0,211,391.48l14-30.66-2.67-35.34Z"
              style="opacity: 0.1"/>
        <path d="M1388,414.32l-111.5-76-16.44-25-7.56-30.54-25.5-28s23.33,37.66,23.33,40-7.66,21-7,25,23,39.66,23,39.66l53.28,54L1349,509.23l51.11,44.58V414.32Z"
              style="opacity: 0.1"/>
        <path d="M695,535s36.67-65.11,43.33-65,16-2.78,18.67-10.33,6.67-34.89,6.67-34.89,9.33-31.34,26-39.34,27.33-24,27.33-24,24.67-38.66,40-36.66,28.67-19.34,28.67-19.34,32.66-20.73,37.33-22.7c0,0-33.72,24-33.19,29.37s-8.14,15.33-14.14,17.33-23.34,1.34-28,7.34S831,372.6,825,377.37s-13.33,4.78-19.33,10.78-24,18-27.34,26.67-4,36-4,42S757.67,470,757.67,470s-16.67,9.44-18,14.78-15.79,48-15.79,48Z"
              style="fill: #fff;opacity: 0.4"/>
        <path d="M889.81,525.94,905,498.82l52.67-64,9.33-18,52-56,54.67-3.34,48.27-30.55,62.36-30.78,26-34.12,16.67-7.21-7.33,24-19.34,62-101.74,68.09-74.09,38.57s-24.83,52.67-27.5,55.34-23.3,76-23.3,76Z"
              style="fill: #fff;opacity: 0.1"/>
        <path d="M1074.48,87.33c-6.51,1.17-38.15,25.49-40.81,26.6s-25.34,28.22-25.34,30.3-23.33,41.92-34.05,55.2S931.5,224.44,929,225s-22.67-10.21-29.22-12.6-56.81,11-59.8,13.2-42.87,42.58-60.75,53.5-18.43,25-23.15,25.4-32.2,48.9-32.2,48.9-2.21-3.28-6.84-11.1S699,335,699,335s-25.31,23.19-32.37,32.75-21.82,48-32.08,50.44-72.86,17.33-80.3,20-32.43-5.27-40.64-9.33-56.61-16.88-74.9-29.89-13.05-23.91-16-37.45-43-36.66-51.6-45.05-46.75-31.61-59.3-49.61-28.78-7.34-39.6-9.34-24.51-20.66-31.85-25.65l-16.58,41.3L229,291.07l-6.67,34.41,23.34,27.95S259,390.82,257.3,391.2s20.37,50.95,22.37,53.62,18,22,24.66,25.22S339,532.83,339,532.83h6.21c-1.59-1.3-2.54-2.25-2.54-2.68,0-2.68-4-45-4-45l-13.34-34-2-11-16.66-21c12,0,30.33,17.33,30.33,17.33s4.33,15,4.67,16.67S350,465.82,350,465.82l14.33,10,12.67,27,1.41,30H809l3.55-10L832,457.32l2.5-28,29.5-52.5,28-27.2,19.5-29.3L923,282.78s44-16.63,50.7-20.75S985,250.15,985,250.15l36.67-8,18-15.85,13.6-27.63,11.06-29.85,10.11-41.54s15.56-14.8,18.23-16.13,7.83-41.58,7.83-41.58S1081,86.15,1074.48,87.33Z"
              style="fill: #fff;opacity: 0.1"/>
    </g>
    <g id="Calque_16" data-name="Calque 16">
        <rect x="497.19" y="501.15" width="15.1" height="8.5" style="fill: #e4dbcf"/>
        <polygon points="497.19 501.15 504.74 498.88 512.29 501.15 497.19 501.15" style="fill: #0c1e30"/>
        <rect x="497.19" y="501.15" width="15.1" height="8.5" style="opacity: 0.1"/>
        <rect x="501.67" y="495.48" width="6.17" height="15" style="fill: #e4dbcf"/>
        <polygon points="504.74 485.28 501.42 496.22 508.06 496.22 504.74 485.28" style="fill: #0c1e30"/>
        <polygon id="Wall-2"
                 points="487.26 504.63 490.49 501.48 493.71 504.63 493.71 508.95 487.26 508.95 487.26 504.63"
                 style="fill: #e4c093"/>
        <polygon id="Roof-2"
                 points="490.49 500.71 494.48 504.71 493.75 504.71 490.49 501.52 487.21 504.71 486.49 504.71 490.49 500.71"
                 style="fill: #a64c36"/>
        <polygon id="Wall-2-2" data-name="Wall-2"
                 points="517.44 509.45 520.67 506.3 523.9 509.45 523.9 513.77 517.44 513.77 517.44 509.45"
                 style="fill: #e4c093"/>
        <polygon id="Roof-2-2" data-name="Roof-2"
                 points="520.67 505.53 524.67 509.53 523.94 509.53 520.67 506.34 517.4 509.53 516.68 509.53 520.67 505.53"
                 style="fill: #a64c36"/>
        <polygon
                points="524.67 509.53 520.67 505.53 516.68 509.53 517.4 509.53 517.44 509.49 517.44 513.77 523.9 513.77 523.9 509.49 523.94 509.53 524.67 509.53"
                style="opacity: 0.1"/>
        <polygon
                points="494.48 504.71 490.49 500.71 486.49 504.71 487.21 504.71 487.26 504.67 487.26 508.95 493.71 508.95 493.71 504.67 493.75 504.71 494.48 504.71"
                style="opacity: 0.1"/>
        <rect x="500.23" y="502.23" width="9.01" height="9.01" style="fill: #e4dbcf"/>
        <path d="M1063,626.6c-13.33-1.78-41.33-27.12-55.33-30.45-6.74-1.61-23.51-16.63-45.34-32.87,13-4.37,62-20.93,50-17.62-13.8,3.8-58.48,11.35-75.53,0-17.77-11.09-37.2-20.53-56.47-23.86-56-9.68-168.66,7-223.33,6.32s-127-23-178.52-19.52-184.81-43.15-280.81-40.48S.18,526.15.18,526.15V743.34l584.66,65.48,555.51-140.66C1109.58,668.22,1076.33,628.38,1063,626.6Z"
              style="fill: #91bfa9"/>
        <polygon id="Wall-2-3" data-name="Wall-2"
                 points="522.47 511.04 525.7 507.89 528.93 511.04 528.93 515.36 522.47 515.36 522.47 511.04"
                 style="fill: #e4c093"/>
        <polygon id="Roof-2-3" data-name="Roof-2"
                 points="525.7 507.12 529.7 511.12 528.97 511.12 525.7 507.93 522.43 511.12 521.7 511.12 525.7 507.12"
                 style="fill: #a64c36"/>
        <g id="Sapin2">
            <path d="M522.72,517.25a2.7,2.7,0,0,1-.05.84c-.1.34-.48.55-.45.59s.33-.13.43-.06a1.59,1.59,0,0,0,.51.27c.05,0-.1-.2,0-.19s.47.14.51.06-.29-.24-.37-.43a9.51,9.51,0,0,1-.12-1.34Z"
                  style="fill: #423d32"/>
            <path d="M525.47,517.62a3.06,3.06,0,0,1-2.1-1.44,5.25,5.25,0,0,0,1.46.68,2.83,2.83,0,0,1-1.34-1.34,2.2,2.2,0,0,0,1,.32,3.07,3.07,0,0,1-1.09-1.35,3.19,3.19,0,0,0,.57.25,4,4,0,0,1-.87-1.14c.18.06.66.14.66.14a5,5,0,0,1-1-1c.2.92-.82,2-.82,2a5.44,5.44,0,0,0,.7-.36,5.08,5.08,0,0,1-.74,1.16,2.36,2.36,0,0,0,.69-.3c0,.32-1.16,1-1.16,1a2.46,2.46,0,0,0,1.11-.23c0,.32-1.45,1-1.45,1a3.16,3.16,0,0,0,1.32-.18c0,.27-1.51.8-1.51.8a3.78,3.78,0,0,0,1.86-.27,5.54,5.54,0,0,0,1,.73,3.72,3.72,0,0,1-.61-.79A5.47,5.47,0,0,0,525.47,517.62Z"
                  style="fill: #466e44"/>
        </g>
        <polygon id="Wall-2-4" data-name="Wall-2"
                 points="516.05 517.58 519.45 514.27 522.84 517.58 522.84 522.12 516.05 522.12 516.05 517.58"
                 style="fill: #e4c093"/>
        <polygon id="Roof-2-4" data-name="Roof-2"
                 points="519.45 513.47 523.65 517.67 522.88 517.67 519.45 514.31 516.01 517.67 515.25 517.67 519.45 513.47"
                 style="fill: #a64c36"/>
        <polygon id="Wall-2-5" data-name="Wall-2"
                 points="494.98 514.06 498.37 510.75 501.77 514.06 501.77 518.6 494.98 518.6 494.98 514.06"
                 style="fill: #e4c093"/>
        <polygon id="Roof-2-5" data-name="Roof-2"
                 points="498.37 509.94 502.57 514.14 501.81 514.14 498.37 510.79 494.94 514.14 494.17 514.14 498.37 509.94"
                 style="fill: #a64c36"/>
        <polygon id="Wall-2-6" data-name="Wall-2"
                 points="481.42 509.31 484.81 506.01 488.2 509.31 488.2 513.86 481.42 513.86 481.42 509.31"
                 style="fill: #e4c093"/>
        <polygon id="Roof-2-6" data-name="Roof-2"
                 points="484.81 505.2 489.01 509.4 488.25 509.4 484.81 506.05 481.37 509.4 480.61 509.4 484.81 505.2"
                 style="fill: #a64c36"/>
        <path d="M515.6,507.21a.92.92,0,0,1,.46.06c.09.06.25.05.3.08s.26.07.39.23.18.14.24.3.28.13.26.22a1.69,1.69,0,0,1-.15.41c-.17.41,0,.59-.33.8s-.49.21-.52.37,0,.4-.09.46-.15.32-.23.35-.07.18-.14.19a5,5,0,0,1-.65-.31s-.34,0-.39-.08-.29,0-.4-.15-.48-.93-.27-1.27S515.6,507.21,515.6,507.21Z"
              style="fill: #51914e"/>
        <path d="M514.83,512.79c-.1,0,0,0,.17-.3a5.86,5.86,0,0,0,.26-1.85,5,5,0,0,0-.79-1.23c-.11-.09-.6-.4-.56-.43s.54.29.6.28.12-.26.15-.25,0,.43,0,.51a4.76,4.76,0,0,0,.63.59c.05,0,.08-.3.09-.48a2.31,2.31,0,0,0-.36-.88c-.11-.15-.9-.64-1-.73l.62.37s-.49-1-.49-1,.61.94.64.95.1-.56.13-.56,0,.18,0,.18l.16.05s-.17,0-.17,0a2.11,2.11,0,0,0,0,.36,4.41,4.41,0,0,1,.55.71,3.08,3.08,0,0,0,.15.45,4,4,0,0,0,.33-.75c0-.06,0-.49,0-.49a3.73,3.73,0,0,1,.09.46l.24-.09a1.6,1.6,0,0,0-.24.22,6.62,6.62,0,0,0-.17.71s.87-.58.89-.57-.3.29-.26.3.28,0,.3,0a4.35,4.35,0,0,1-.42.15,1.35,1.35,0,0,0-.5.62,5,5,0,0,0-.15,1.18,2.52,2.52,0,0,0,.15,1.24c.17.17.38.23.37.27s-.42-.07-.59-.06-.15.12-.24.12-.06-.1-.17-.13S515,512.81,514.83,512.79Z"
              style="fill: #6b5a30"/>
        <path d="M513.76,508.15c-.12.05-.26.21-.25.25s-.14.11-.14.2,0,.24,0,.3,0,.2.06.32.22.17.22.21a1.24,1.24,0,0,0,.08.32c0,.09.12.21.19.21s.09.07.16.08.23.11.3.09a2.13,2.13,0,0,0,.25,0c.07,0,.29-.31.31-.28s.32.16.39.13a.8.8,0,0,1,.4-.06.81.81,0,0,0,.35.14c.09,0,.1-.07.25-.11a1.6,1.6,0,0,0,.23-.1.71.71,0,0,0,.26-.26c.06-.06,0-.11.14-.13l.13,0s.07,0,.21-.11.13-.07.17-.18.11,0,.08-.23,0-.2-.07-.33,0-.13-.17-.28-.24-.12-.32-.21-.12-.21-.2-.29a1.08,1.08,0,0,0-.17-.14s0,0-.2-.13a2,2,0,0,0-.43-.12s-.27,0-.31-.05-.21-.25-.21-.25,0-.17-.12-.17a1.35,1.35,0,0,0-.3.08,1.09,1.09,0,0,0-.4.08c-.13.07-.29,0-.39,0s-.2,0-.26.1-.25.1-.3.2a.68.68,0,0,0,0,.47C513.75,508,513.69,508.1,513.76,508.15Z"
              style="fill: #51914e"/>
        <path d="M503.43,513.71a1.09,1.09,0,0,1,.56.07c.11.08.31.06.37.11a1.06,1.06,0,0,1,.47.27c.15.18.23.17.31.36s.34.17.3.28,0,0-.18.5,0,.73-.4,1-.59.26-.64.46,0,.49-.1.55-.18.41-.29.44-.08.22-.17.23a5.85,5.85,0,0,1-.79-.38s-.42,0-.48-.09-.36,0-.49-.2-.59-1.13-.33-1.54S503.43,513.71,503.43,513.71Z"
              style="fill: #51914e"/>
        <path d="M502.48,520.54c-.12,0,0,0,.22-.36a7.42,7.42,0,0,0,.31-2.27,5.62,5.62,0,0,0-1-1.5c-.13-.11-.73-.49-.69-.53s.67.35.74.34.15-.32.18-.31,0,.54,0,.63a5.52,5.52,0,0,0,.76.72c.07,0,.1-.36.11-.59a2.68,2.68,0,0,0-.44-1.07c-.14-.19-1.1-.79-1.18-.9s.73.44.77.45-.61-1.19-.61-1.19.75,1.16.79,1.17.12-.69.16-.68,0,.22,0,.22l.2.06s-.21,0-.21,0a2.13,2.13,0,0,0,0,.44,5.2,5.2,0,0,1,.67.87,2.77,2.77,0,0,0,.19.55,4.56,4.56,0,0,0,.4-.92c0-.07-.05-.59,0-.59s.1.55.1.55l.3-.1a2.32,2.32,0,0,0-.3.26,6,6,0,0,0-.2.87s1.06-.7,1.09-.7-.37.37-.32.37.34-.05.36,0-.4.13-.51.19a1.6,1.6,0,0,0-.61.75,6.21,6.21,0,0,0-.19,1.45,3.14,3.14,0,0,0,.19,1.52c.21.21.47.28.45.32a5.45,5.45,0,0,1-.73-.07c-.2,0-.18.15-.29.15s-.07-.13-.21-.15S502.71,520.57,502.48,520.54Z"
              style="fill: #6b5a30"/>
        <path d="M501.17,514.86a.68.68,0,0,0-.31.3s-.16.14-.16.25,0,.3,0,.36,0,.26.07.4.28.22.28.26a1.55,1.55,0,0,0,.09.4c.05.1.16.25.23.25s.12.09.2.09.28.14.37.12l.31,0c.08,0,.35-.37.38-.35s.39.2.48.16a1,1,0,0,1,.48-.06,1.23,1.23,0,0,0,.44.16c.11,0,.12-.08.3-.13a1.08,1.08,0,0,0,.29-.13.76.76,0,0,0,.31-.31c.07-.08.06-.14.17-.16l.17,0s.07.06.25-.13.16-.09.21-.22.13,0,.09-.29,0-.24-.08-.4,0-.15-.2-.34-.31-.15-.4-.26-.14-.25-.25-.36a1.4,1.4,0,0,0-.21-.17s.05,0-.24-.15a2.65,2.65,0,0,0-.53-.15s-.33,0-.38-.06l-.25-.31s-.07-.2-.15-.21-.27.08-.37.1-.34,0-.49.09-.35,0-.47.06-.25,0-.32.13-.31.11-.38.23a.88.88,0,0,0,0,.58C501.16,514.69,501.09,514.8,501.17,514.86Z"
              style="fill: #51914e"/>
        <path d="M495.09,504.4a.88.88,0,0,1,.39.05c.09.06.22.05.27.08s.23.06.33.19.17.12.22.26.24.12.22.2a3.36,3.36,0,0,1-.13.35c-.15.35,0,.51-.29.69s-.42.19-.45.33,0,.35-.07.39-.13.29-.21.31-.06.16-.12.17a5.92,5.92,0,0,1-.56-.27s-.29,0-.34-.07-.25,0-.35-.14-.42-.8-.23-1.09S495.09,504.4,495.09,504.4Z"
              style="fill: #51914e"/>
        <path d="M494.42,509.25c-.09,0,0,0,.15-.26a5.2,5.2,0,0,0,.22-1.61,4.11,4.11,0,0,0-.69-1.07c-.09-.07-.51-.34-.48-.37s.47.25.52.24.1-.22.13-.22,0,.38,0,.45a3.61,3.61,0,0,0,.55.51s.06-.26.07-.42a2.07,2.07,0,0,0-.31-.76c-.1-.13-.78-.56-.83-.64l.54.32s-.43-.84-.43-.84.53.82.56.83.08-.49.11-.48,0,.15,0,.15l.14.05s-.15,0-.15,0a1.42,1.42,0,0,0,0,.3,3.63,3.63,0,0,1,.48.62c.06.16.1.39.13.39a3.54,3.54,0,0,0,.29-.65,3.58,3.58,0,0,1,0-.42s.08.39.08.39l.21-.07a1.74,1.74,0,0,0-.22.18,5.94,5.94,0,0,0-.14.62s.75-.5.77-.49-.26.25-.22.26a1.18,1.18,0,0,1,.26,0s-.29.09-.36.13a1.12,1.12,0,0,0-.44.53,5.52,5.52,0,0,0-.14,1,2.29,2.29,0,0,0,.14,1.08c.15.14.33.19.32.23s-.37-.06-.52-.05-.13.1-.2.1-.06-.09-.15-.11S494.58,509.26,494.42,509.25Z"
              style="fill: #6b5a30"/>
        <path d="M493.49,505.22c-.11,0-.23.18-.22.21s-.12.1-.12.18,0,.21,0,.26,0,.17.05.27.19.16.19.19a.94.94,0,0,0,.07.28c0,.07.11.18.16.18s.08.06.14.07.2.09.26.08a1.46,1.46,0,0,0,.22,0c.06,0,.25-.26.27-.24s.28.14.34.11a.66.66,0,0,1,.34,0,.8.8,0,0,0,.31.12c.08,0,.09-.06.22-.1a1.67,1.67,0,0,0,.2-.08.57.57,0,0,0,.22-.22c.05-.06,0-.11.12-.12l.12,0s.06,0,.18-.09.11-.07.15-.16.09,0,.06-.2,0-.18-.05-.29,0-.11-.15-.24-.21-.1-.28-.18-.1-.18-.17-.26l-.15-.12s0,0-.18-.11a2,2,0,0,0-.37-.1s-.23,0-.27-.05a2.55,2.55,0,0,0-.18-.21s-.05-.15-.1-.15a1,1,0,0,0-.27.07c-.06,0-.23,0-.34.07s-.25,0-.34,0-.17,0-.22.08-.22.09-.27.17a.63.63,0,0,0,0,.41C493.48,505.09,493.43,505.17,493.49,505.22Z"
              style="fill: #51914e"/>
        <path d="M475.42,508.83s-3.85.12-4.91.82-1.76,3.19-1.76,3.19,1.27,1.31,1.63,1.56,9.33,1.66,9.33,1.66l.5-.52v2.26l-.74.77s-6.67-.41-9.37-1.35-3.86-1.64-3.86-3.07V510.3s3.45-3.56,3.57-3.6,1.76.21,1.76.21Z"
              style="fill: #6e6e6e"/>
        <path d="M475.42,508.83c0-.57-2.49-2.14-3.44-2.34a6.2,6.2,0,0,0-3.23.17,11.27,11.27,0,0,0-2.46,3.4c-.49,1.31,2.58,5.65,6.71,6.14a44.45,44.45,0,0,0,6.18.41l1-1.07a50.28,50.28,0,0,1-8.43-1.06c-2.58-.78-4-3.15-3.48-4.22a11.21,11.21,0,0,1,2.53-3.15C471.12,507.07,475.42,508.83,475.42,508.83Z"
              style="fill: gray"/>
        <path d="M533.54,511.78s3.85.12,4.91.82,1.76,3.19,1.76,3.19-1.27,1.31-1.64,1.56-9.32,1.66-9.32,1.66l-.5-.52v2.26l.74.77s6.67-.41,9.37-1.35,3.86-1.64,3.86-3.07v-3.85s-3.45-3.56-3.57-3.6-1.76.21-1.76.21Z"
              style="fill: #6e6e6e"/>
        <path d="M533.54,511.78c0-.57,2.49-2.14,3.43-2.34a6.23,6.23,0,0,1,3.24.17,11.14,11.14,0,0,1,2.46,3.4c.49,1.31-2.58,5.65-6.72,6.14a44.39,44.39,0,0,1-6.18.41l-1-1.07a50.4,50.4,0,0,0,8.43-1.06c2.58-.78,4-3.15,3.48-4.22a11,11,0,0,0-2.54-3.15C537.84,510,533.54,511.78,533.54,511.78Z"
              style="fill: gray"/>
        <g id="Sapin2-2" data-name="Sapin2">
            <path d="M488.55,513a2.91,2.91,0,0,1,0,.84c-.1.34-.49.55-.46.59s.34-.13.43-.06a1.82,1.82,0,0,0,.51.27c.05,0-.1-.2,0-.2s.48.15.51.07-.29-.24-.37-.43a9.51,9.51,0,0,1-.12-1.34Z"
                  style="fill: #423d32"/>
            <path d="M491.31,513.39A3,3,0,0,1,489.2,512a5.41,5.41,0,0,0,1.47.68,2.82,2.82,0,0,1-1.34-1.34,2.14,2.14,0,0,0,1,.32,3.07,3.07,0,0,1-1.09-1.35,3.19,3.19,0,0,0,.57.25,4.24,4.24,0,0,1-.87-1.15,5.19,5.19,0,0,0,.67.15,5.1,5.1,0,0,1-1-1c.2.92-.81,2-.81,2a5.2,5.2,0,0,0,.69-.36,5.09,5.09,0,0,1-.73,1.16,2.38,2.38,0,0,0,.68-.3c0,.32-1.16,1-1.16,1a2.52,2.52,0,0,0,1.12-.23c0,.32-1.46,1-1.46,1a3.18,3.18,0,0,0,1.33-.18c0,.27-1.52.8-1.52.8a3.78,3.78,0,0,0,1.86-.27,5.54,5.54,0,0,0,1,.73,3.72,3.72,0,0,1-.61-.79A5.46,5.46,0,0,0,491.31,513.39Z"
                  style="fill: #466e44"/>
        </g>
        <g>
            <path d="M1063,626.6c-13.33-1.78-41.33-27.12-55.33-30.45-3.38-.8-9.27-5-17-11C974,578,959.7,572.17,947,567.6l22-9.38c-8.43,2.52-28.32,5.09-49.49.79q-3.59-.91-7.06-1.68h0c-23.11-5.09-42.78-5.15-67.94-2.18-48,5.67-144,26.69-189.5,21.68s-93-39-138-46-60.63,10-94.32,5.49-39.68-23-110.68-43-182.64-15.11-226.82-3.1a580.1,580.1,0,0,0-85,35.93L0,743.34l584.84,65.48,555.51-140.66C1109.58,668.22,1076.33,628.38,1063,626.6Z"
                  style="opacity: 0.1"/>
            <path d="M969.14,558.18l.59-.18Z" style="opacity: 0.1"/>
            <path d="M970.18,557.87l.38-.12Z" style="opacity: 0.1"/>
            <path d="M969.73,558l.45-.13Z" style="opacity: 0.1"/>
            <path d="M969,558.22h0Z" style="opacity: 0.1"/>
            <path d="M970.56,557.75l.4-.11Z" style="opacity: 0.1"/>
            <path d="M969,558.21l.1,0Z" style="opacity: 0.1"/>
            <path d="M972.55,557.16l.35-.1Z" style="opacity: 0.1"/>
            <path d="M972.9,557.06l.15,0Z" style="opacity: 0.1"/>
            <path d="M973.05,557Z" style="opacity: 0.1"/>
            <path d="M971.42,557.5l1-.31Z" style="opacity: 0.1"/>
            <path d="M972.46,557.19l.09,0Z" style="opacity: 0.1"/>
            <path d="M971,557.64l.46-.14Z" style="opacity: 0.1"/>
        </g>
    </g>
    <g id="Calque_20" data-name="Calque 20">
        <path d="M389.64,674.65c31.36-13.83,141.23-39.79,180.63-43.81s228.8-13.41,314.8-45,281.93-87,353.93-81.67,161.08,33.45,161.08,33.45V782H389.64Z"
              style="fill: #7fb59a"/>
        <path d="M1064,541.12C989.33,552.6,856,605.66,826,613S659,632.43,576.33,636c-60.75,2.65-150.86,31-191.7,48.28l5,78H1400.08V537.58C1242.5,464.73,1138.67,529.65,1064,541.12Z"
              style="opacity: 0.1"/>
    </g>
    <g id="Calque_24" data-name="Calque 24">
        <path d="M795.94,607.2c4,2.52,5.74,1.49,8.56-5.74.17-.5-18.5,4.33-21,3s-78.58,9-81.83,7.83-55.84,2.42-64.17,4-62.5,6.39-71.5,4-31.67-3.16-37.25-2.82-50.61,2.58-57.42,2.82c-9.16.34-51-3.76-56.66-1.32s-49.84.78-60.84-.67-73.16,3.7-87.83,2-42.17.74-47.5,1-19.67-2.08-26.67-1-57.79-1.9-67.46-1.16S88,621.46,72,620.12s-72,.34-72,.34l.16,83.67L674,693.05s56.29-14.5,115-30.18V610.12C789.08,610.12,795.94,607.2,795.94,607.2Z"
              style="fill: #8a8a8a"/>
        <path d="M919.5,624.62c-.67-5-28.33-3.66-29.7-4.66s-3.3-.84-5.63-.84-8.67-.66-9.11-1.65-21.39.65-25.56,0-4-6.51-3.5-8.18-4.83-2.83-9.67-2.09-14,.26-12.66-1.41-3-3-5.62-2.55-13.72-1.28-13.55-1.78c-9.21,3.2-8.56,5.74-8.56,5.74s-6.86,2.92-7,2.92v52.75C853,645.75,919.85,627.23,919.5,624.62Z"
              style="fill: #8a8a8a"/>
        <path d="M833.5,622.89c-49-7.65-37.56-15.69-37.56-15.69S635.5,620,600.25,622.89H.18v75.82s52.82,10.08,323.2,5.42C506.9,701,645.84,680.38,721,662c.71,0,164.09-32.94,179.36-36C895.64,626.87,875.7,629.48,833.5,622.89Z"
              style="fill: #8fdbe3"/>
        <path d="M900.36,626a86.82,86.82,0,0,1-11.29,1.09l1.4.9Z" style="fill: #8fd9e0"/>
        <path d="M890.47,628l-35.2,7.1c21-2.14,39.59-4.27,39.59-4.27Z" style="fill: #f0f0e4"/>
        <path d="M890.47,628l-1.4-.9c-10.61.45-28.5,0-55.57-4.22-49-7.65-37.56-15.69-37.56-15.69S635.5,620,600.25,622.89H.18L0,637.46c43.63,8.73,158.33,16.21,209,18.83,69,3.56,174.5-4.68,201-4,9.19.24,34.9.23,66.47-.08l-1,.08c33-.49,60,10,63.5,9.49s41.5-4,52,0,36.5,0,48,4,196-9.51,196-9.51L811.83,639c11.73-.76,28.22-2.31,43.44-3.86Z"
              style="fill: #4f695d;opacity: 0.2"/>
        <ellipse cx="502.13" cy="630.95" rx="19.79" ry="1.65" style="opacity: 0.8;fill: url(#Dégradé_sans_nom_209-2)"/>
        <ellipse cx="527.79" cy="637.6" rx="19.79" ry="1.65" style="opacity: 0.8;fill: url(#Dégradé_sans_nom_209-3)"/>
        <ellipse cx="555.91" cy="635.37" rx="19.79" ry="1.65" style="opacity: 0.8;fill: url(#Dégradé_sans_nom_209-4)"/>
        <ellipse cx="555.91" cy="638.14" rx="19.79" ry="1.65" style="opacity: 0.8;fill: url(#Dégradé_sans_nom_209-5)"/>
        <ellipse cx="536.13" cy="639.79" rx="19.79" ry="1.65" style="opacity: 0.8;fill: url(#Dégradé_sans_nom_209-6)"/>
        <ellipse cx="506.29" cy="643.09" rx="19.79" ry="1.65" style="opacity: 0.8;fill: url(#Dégradé_sans_nom_209-7)"/>
        <ellipse cx="514.91" cy="645.73" rx="19.79" ry="1.65" style="opacity: 0.8;fill: url(#Dégradé_sans_nom_209-8)"/>
        <ellipse cx="559.91" cy="644.08" rx="19.79" ry="1.65" style="opacity: 0.8;fill: url(#Dégradé_sans_nom_209-9)"/>
        <ellipse cx="545.87" cy="646.55" rx="15.63" ry="1.3" style="opacity: 0.8;fill: url(#Dégradé_sans_nom_209-10)"/>
        <ellipse cx="546.17" cy="660.29" rx="16.49" ry="1.37"
                 style="opacity: 0.7000000000000001;fill: url(#Dégradé_sans_nom_209-11)"/>
        <ellipse cx="512.92" cy="656.78" rx="16.49" ry="1.37"
                 style="opacity: 0.7000000000000001;fill: url(#Dégradé_sans_nom_209-12)"/>
        <ellipse cx="547.86" cy="653.21" rx="16.49" ry="1.37" style="opacity: 0.8;fill: url(#Dégradé_sans_nom_209-13)"/>
        <ellipse cx="570.59" cy="650.09" rx="9.1" ry="0.76"
                 style="opacity: 0.7000000000000001;fill: url(#Dégradé_sans_nom_209-14)"/>
        <ellipse cx="493.02" cy="653.21" rx="9.1" ry="0.76"
                 style="opacity: 0.7000000000000001;fill: url(#Dégradé_sans_nom_209-15)"/>
        <ellipse cx="489.02" cy="648.29" rx="9.1" ry="0.76"
                 style="opacity: 0.7000000000000001;fill: url(#Dégradé_sans_nom_209-16)"/>
        <ellipse cx="518.27" cy="664.96" rx="9.1" ry="0.76"
                 style="opacity: 0.7000000000000001;fill: url(#Dégradé_sans_nom_209-17)"/>
        <ellipse cx="573.87" cy="659.68" rx="9.1" ry="0.76"
                 style="opacity: 0.7000000000000001;fill: url(#Dégradé_sans_nom_209-18)"/>
        <ellipse cx="521.61" cy="649.61" rx="16.49" ry="1.37" style="opacity: 0.8;fill: url(#Dégradé_sans_nom_209-19)"/>
        <ellipse cx="502.99" cy="646.9" rx="16.49" ry="1.37" style="opacity: 0.8;fill: url(#Dégradé_sans_nom_209-20)"/>
        <ellipse cx="518.91" cy="634.55" rx="19.79" ry="1.65" style="opacity: 0.8;fill: url(#Dégradé_sans_nom_209-21)"/>
        <ellipse cx="504.96" cy="639.25" rx="19.79" ry="1.65" style="opacity: 0.8;fill: url(#Dégradé_sans_nom_209-22)"/>
        <ellipse cx="543.2" cy="644.08" rx="19.79" ry="1.65" style="opacity: 0.8;fill: url(#Dégradé_sans_nom_209-23)"/>
        <ellipse cx="564.77" cy="630.95" rx="19.79" ry="1.65" style="opacity: 0.8;fill: url(#Dégradé_sans_nom_209-24)"/>
        <ellipse cx="573.44" cy="634.84" rx="19.79" ry="1.65" style="opacity: 0.8;fill: url(#Dégradé_sans_nom_209-25)"/>
        <ellipse cx="569.1" cy="640.9" rx="19.79" ry="1.65" style="opacity: 0.8;fill: url(#Dégradé_sans_nom_209-26)"/>
        <ellipse cx="500.67" cy="635.95" rx="19.79" ry="1.65" style="opacity: 0.8;fill: url(#Dégradé_sans_nom_209-27)"/>
        <ellipse cx="523.41" cy="630.34" rx="19.79" ry="1.65" style="opacity: 0.8;fill: url(#Dégradé_sans_nom_209-28)"/>
        <ellipse cx="534.7" cy="628.69" rx="19.79" ry="1.65" style="opacity: 0.8;fill: url(#Dégradé_sans_nom_209-29)"/>
        <ellipse cx="543.79" cy="631.99" rx="19.79" ry="1.65" style="opacity: 0.8;fill: url(#Dégradé_sans_nom_209-30)"/>
    </g>
    <g id="Calque_15" data-name="Calque 15">
        <g id="Sapin3">
            <path d="M1123.53,493.47s4.08,27,3,33.33-5.9,22.89-5.22,34.68,1.36,21.09-1.58,26.75-4.31,10-4.77,18.14-.22,20.4-5,23.12-11.11,5.22-11.34,7.26,18.59-4.31,18.59-3.18,7.88,6.13,9.5,5.67-1.17-5.89,0-6.35,12.72,2.5,14.53,1.59-9.07-5-9.29-7.48-1.82-19-2-22.44,2-19.27,2-23.13-4.54-21.53-3.63-25.62,4.53-27.88,3.4-30.37S1125.57,493.24,1123.53,493.47Z"
                  style="fill: #423d32"/>
            <path d="M1148.29,501.25c-10.12-.81-19.44-2.47-24.86-8.23,0,0,1.28,11.41-14.89,16.25,0,0,14.24-2.28,15.66-10.82,0,0-1.76,11.87-12,18.83,0,0,13.57-8.83,14-16.58,0,0,7.82,10.23,15.1,9.77,0,0-9.35-5.89-10.71-9.06C1130.6,501.41,1144.66,503.22,1148.29,501.25Z"
                  style="fill: #466e44"/>
            <path d="M1155.83,526.52s-11.45.9-24-7.27c3.08,1.91,12.22,6.53,21.81,1.09,0,0-8.77,4.09-24.33-5.21l0,1.69-1.48-1.42-.62,1.88-1.07-2.15s-13.1,12.8-30.44,10.19a46.39,46.39,0,0,0,18-.34c7.51-1.68,10.41-3.91,11.32-4.81-2.07,2.31-12.8,13.84-23,16.49,0,0,19.77-4.65,24.56-13.6,0,0-2.46,11.1-9.94,14.85,0,0,13.51-4.65,11.68-18.37,0,0,3.17,13.15,8.5,15.08a97.51,97.51,0,0,1-6.37-13.76S1138.49,530.54,1155.83,526.52Z"
                  style="fill: #466e44"/>
            <path d="M1162.52,555.59s-4.87,6-18,2.95-15.25-8.16-15.25-8.16l-1.61,3.11-2.3-3.94-2.52,3.91-.93-3.55c-12.19,7.49-40.53,6-40.53,6s26.64,4.76,39.22-1.93a85.22,85.22,0,0,1-27.2,15.76s17.51-1.45,27.85-12.57c0,0-3.82,10.53-10.17,15.4,0,0,12-6,14.06-17,0,0,1.13,11.9,6.34,15,0,0-3.47-10.67-3-14.17,0,0,7.36,13.72,16,16.21,0,0-10.55-9.63-12.36-14.51,0,0,13.15,11,26.07,8.84a44.36,44.36,0,0,1-21.88-8.38S1157.42,564.09,1162.52,555.59Z"
                  style="fill: #466e44"/>
            <path d="M1147.9,607.05c-15.53-6.8-15.53-9.86-15.53-9.86s14.4,10.09,28.79,1.93a33.32,33.32,0,0,1-30.06-8.52l-1.41,6.85-3.18-5.51-3.28,5.44-1-6.54-3.51,6.73.24-8A64.78,64.78,0,0,1,1098.59,601c-12.16,4.09-31.51,0-31.51,0s19.5,5,32.34,3.33c8.28-1.07,12.75-3.39,14.89-4.91-4.59,3.81-18.38,14.09-36.5,17.15,0,0,24.64-3.37,39.3-13.47,0,0-16.25,18.69-25.21,22.77,0,0,23.35-10.21,28.68-20.29,0,0,.34,15.19,4.31,20.29,0,0-.68-15.53,0-21.31,0,0,9.52,19.49,29.92,23.57,0,0-22-13.7-23-24.14,0,0,10,8.73,23,9.63s16.55-6.8,16.55-6.8S1163.43,613.85,1147.9,607.05Z"
                  style="fill: #466e44"/>
            <path d="M1147.9,607.05c-15.53-6.8-15.53-9.86-15.53-9.86s14.4,10.09,28.79,1.93a33.32,33.32,0,0,1-30.06-8.52c.43-4,.82-7.58.82-9.17,0-1.86-1.07-7-2.06-12.21a7.12,7.12,0,0,0,1.6,1.33s-3.47-10.67-3-14.17c0,0,7.36,13.72,16,16.21,0,0-10.55-9.63-12.36-14.51,0,0,13.15,11,26.07,8.84a44.36,44.36,0,0,1-21.88-8.38s21.2,5.55,26.3-2.95c0,0-4.87,6-18,2.95s-15.25-8.16-15.25-8.16c1-6.33,2.37-16.09,2.62-21.4,1.34,2.6,3,4.91,5,5.64a97.51,97.51,0,0,1-6.37-13.76h0s8,9.68,25.29,5.66c0,0-11.45.9-24-7.27,3.08,1.91,12.22,6.53,21.81,1.09,0,0-8.77,4.09-24.33-5.21-1-4.72-2.1-10.16-3.14-14.41v0s7.82,10.23,15.1,9.77c0,0-9.35-5.89-10.71-9.06,0,0,14.06,1.81,17.69-.16-10.12-.81-19.44-2.47-24.86-8.23l2.37,7.29a10.2,10.2,0,0,1-.15,2.87s1.77,9.18,2.24,12.22,1,8,1,8c.76,5.06-3.28,23.14-3.59,26.15s-.49,16.92-.22,20.4,1.21,11.07.45,16.21a95.27,95.27,0,0,1-2.34,11.22c-.57,2-2,6.08-2.65,8.2s-.64,26,.19,26.22,4.84,2.15,5.37,3.51,1,3.52.54,3.93c1.61-.45-1.17-5.89,0-6.35s12.72,2.5,14.53,1.59-9.07-5-9.29-7.48c-.14-1.51-.78-8.22-1.31-14,4.85,5.81,12.83,12.87,24.2,15.14,0,0-22-13.7-23-24.14,0,0,10,8.73,23,9.63s16.55-6.8,16.55-6.8S1163.43,613.85,1147.9,607.05Z"
                  style="opacity: 0.1"/>
        </g>
        <g id="Sapin2-3" data-name="Sapin2">
            <path d="M929,609.54s.85,8.31-.76,13.74-7.8,8.82-7.38,9.58,5.43-2.2,6.95-1,7.47,4.75,8.32,4.42-1.62-3.31,0-3.23,7.71,2.29,8.31,1.1-4.75-4-6-7-2-21.8-2-21.8Z"
                  style="fill: #423d32"/>
            <path d="M938.42,627.1c-1.28-3.06-2-21.8-2-21.8L929,609.54s.2,1.91.22,4.49l1-.45c.68-.28,2,1.47,2,1.47s-.51,15.55,0,15.66,4.58,4.81,3.82,5.55c.84-.34-1.62-3.31,0-3.23s7.71,2.29,8.31,1.1S939.69,630.15,938.42,627.1Z"
                  style="opacity: 0.1"/>
            <path d="M973.7,615.5c-23.32-3.39-34.14-23.29-34.14-23.29,4,4.75,23.77,11,23.77,11-14.17-5.2-21.79-21.71-21.79-21.71,6.1,4.52,16,5.2,16,5.2-11-5.88-17.67-21.83-17.67-21.83a53.16,53.16,0,0,0,9.29,4c-5.79-3.28-14.17-18.54-14.17-18.54,2.89,1.13,10.82,2.37,10.82,2.37-4.73-1.58-16.46-15.83-16.46-15.83,3.2,14.93-13.26,32.34-13.26,32.34,2.29-.45,11.28-5.88,11.28-5.88-.31,4.3-12,18.89-12,18.89,5.11-1,11.19-4.87,11.19-4.87-.46,5.2-18.9,15.83-18.9,15.83,7.47,1.25,18.14-3.61,18.14-3.61,0,5.2-23.63,15.8-23.63,15.8,6.4,2.12,21.49-2.91,21.49-2.91.31,4.41-24.53,13-24.53,13,16,2.15,30.17-4.41,30.17-4.41,3.9,4.3,11.69,9.45,15.59,11.91-4.77-3.85-10-12.81-10-12.81C948.25,617.43,973.7,615.5,973.7,615.5Z"
                  style="fill: #466e44"/>
            <path d="M939.56,592.21c4,4.75,23.77,11,23.77,11-14.17-5.2-21.79-21.71-21.79-21.71,6.1,4.52,16,5.2,16,5.2-11-5.88-17.67-21.83-17.67-21.83a53.16,53.16,0,0,0,9.29,4c-5.79-3.28-14.17-18.54-14.17-18.54,2.89,1.13,10.82,2.37,10.82,2.37-4.73-1.58-16.46-15.83-16.46-15.83,0,.23.1.47.14.7.66,3.37,3.61,17.78,6.38,21.07a11.36,11.36,0,0,1-4.24-2s4.16,15.94,8.57,18.83c0,0-7.55,0-9.08-2.21,0,0,7.3,15.78,13,19,0,0-11.37-1.61-12.89-4.24,0,0,6.34,16.74,17,22.13,0,0-11,0-14.84-3.3a18,18,0,0,0,1.58,3.25c13.26,7.35,38.71,5.42,38.71,5.42C950.38,612.11,939.56,592.21,939.56,592.21Z"
                  style="opacity: 0.1"/>
        </g>
        <path d="M1390.58,550.66l1.13,1.33-12.08-.66,1.71,1.42-12.8.75,1.22.7h-8.22l1.23,1.16h-9.83l3.55,1.21-8.28.55,2.13.78-7.94.72,2.67.52-9.67.75,3.78.76-9.72,1,3.94.57-13.52,1.37,6.34.73-18.47,3.9,4.82.46L1298.81,572l2.62.53L1286.81,576H1292L1274.69,581l4.87-.12L1260.44,586h6.39L1246.19,592l5.18.33-19.18,5h7.13L1223.06,602l5.9-.25h0l-17.83,5.06h5.45l-19,5,6.81-.19h0l-16.43,4.31-5,3.28h0l.84-5.4-1.56,4.5-4.19-7.25,2.82,6.87-4.75-1.5,5,3.37h0L1161,622.85l4.19.81s-17.19,1.32-17,1.32,6.37.68,6.37.68l-17.43.94,5,.69-7.13.31-6,1.55h0l2.67-4.8-4.23,3.78-1-6.09v6.09l-6.22-2.84,3.47,3.25-6.88-.41,3,1-9.68-.74,1.12.74-10.69-.67,2.13,1.31-9.94-.63-9.11,1.34h0l1.87-1.84-14.45,1.53,3-1.78-14.63,1.72h0l4.88-2.4-14.31,1.56,3.12-1.5-17.68,1.06,4.25-1.31-17.69,1.2h0l3.26-1.51-15.13.9,3.13-1.22-17.13.55h0l6.13-1.3-15.81.8,3.31-4.07-3.88,3.27L984,621.35l.44,4.19-3.75-1.06,2.62,1.75-9.06-1.82,1.56,2-11.72-1.63-7.25.74,1.85-1.55-8.83,1.28.55-2.19-3.69,2.08-4.66-1.2-4.16.95,2.35-3.7-3,2.87-.84-4.84v5.47l-5.72-2.57,2.4,2.68-4.37-1-2,.91,1.22-2.94-1.47,2.75s-2.4-5.34-2.4-5.22,1.78,5.28,1.78,5.28l-7.28-.43.87.66-7.91-.41,1.22.73-10.28-.3,1.29,1-7.57-.43,2.19.9h-.1l-8.4-.06,1.47.73L885,627l.81.54-6.37,0,1.44.5-6-.09,1.13.62-3.85-.22-2,.9.73-3L869.75,629l-.75-3.88.28,3.88-1.75-.66,1.45,1.1-7.14,0,.91.63-6.41.06,1.81.65-7.31.09,1.76.6-8.88.26,1.58.66h-5.77l1.19.59h-5.16l1.06.53h-5.78l1.26.59-4.94-.19,1.14.69-5.55-.12,1.41.67h-6.38l2.07.58-5.63.15,1.52.41-6-.22-2,1.3L809,634.5l-1.83,2.37-.34-5.62-.37,5.62-3.83-1.46,3.23,2.2-9.23.43,2.32.53h-7.74l2.46.74H786l2.38.73-8,.29,2.36.51h-8.49l2.17.9-4.79-.28-2.92,1.38-.21-1.59-.6,1.71-3.44-3.13,1.58,3.4-5.58-.33,1.9.86H754l2.35.87-8.56.37,1.6.65-7.68.26,2.3.53-8.8.47,2.71.42H726.69l1.83,1.4h-9.58l2,1.13-8.09-.38-5.21,2.37.89-1.69-1.81,1.38V646.1l-.94,5.44-2.87-1.94,2.25,2.62-9.56.55,1.91.61-10.66.47,1.63.89-9.82.49,1.47.79-8.35.27.68.9h-8.24l1.66,1h-7.78L654.38,660h0l2.18-2.93L653.25,660v-5.74l-1.16,6.09h-9.46l2.31,1.11-11.75.45,3,.9h0l-9.51.45,1.95.72-7.76.53,1.57.44h0l-11.36.74,2.77.6h-6.27l2.17.63h0l-11,.81,2,.61-6.29.2,1.74.51h0l-7.43.27,1.58.64h0l-9.74.3,2.39.85h0l-7.17.3,1.74.54h0l-5.64-.13,1.46.77h0l-4.81-.15-2.21,1.17h0l1.81-1.92-2.57,1.92.32-3.38-1.14,3.58h0l-.8-2v2h-6.63l1.42.67h-6.6l-1.53.77h0l.47-1.83-.91,1.83L549,672.39l.65,2.91h0l-7.07-.16,1,.67h0l-4-.37.88.61h0l-4.51-.22.7.51h-5.18l.82.31h0l-3-.28-1.5.59h0l1.14-1.23L527.21,677v-2.69l-.4,2.69-1-.73.4.83h0l-2.51-.15.35.3h0l-3.33-.25.66.42h0l-3.25-.25.48.43h0l-3.59-.25.56.44h0l-3.49-.27.61.44h0l-2.88-.21-1.92.5h0l.89-1-1.23.92-.45-1.65.05,1.75h0L503,678l.64.47h0l-3.46-.32s1.11.45,1.12.45h0l-3.51-.21.77.36h0l-2.42-.23.8.32h0l-2.63-.24.89.34h0l-2.73-.2.89.3h0l-3.41-.18,1,.31h0l-3.25-.18,1.19.29h0l-5.11-.17,1.49.36h0l-4.9-.22,1.81.38h0l-4.82-.19,1.84.34h0l-2.59-.17-.78.34h0l.83-1.23-1.37,1.08.2-1.73-.52,1.67-.36-.66.24.92h0l-2.58-.28.7.37h0l-2.61-.31a8.76,8.76,0,0,1,.81.4h0l-2.93-.32.61.43h0l-2.5-.24.73.33h0l-2.9-.25.58.36h0l-2.19-.16.7.23h0l-1.73-.12.23.19c-43.37,2-82.25,3.38-82.25,3.38V999.5H1400l.12-447.71Z"
              style="fill: #2b5842"/>
        <path d="M1320.67,589.62c-38.34,3.5-142,38.5-190.67,43.5s-148.66-6.42-212.43-4.66-286.9,43.33-342.9,50.66c-45.86,6-156.56,12.46-195.17,14.6V999.5H1400l.11-410.4C1384,588.28,1349.13,587,1320.67,589.62Z"
              style="opacity: 0.05"/>
    </g>
    <g id="Calque_14" data-name="Calque 14">
        <g>
            <path d="M373.41,584.4c1.75-.13,6.61-.23,8.36,1s4.68,1,5.65,1.66,4.86,1.26,7.1,4.09,3.51,2.62,4.58,5.54,5.17,2.48,4.67,4.19.39.11-2.73,7.6.1,10.89-6.13,14.69-9,4-9.63,7,0,7.35-1.56,8.35-2.73,6.06-4.28,6.64-1.34,3.31-2.57,3.46-12-5.76-12-5.76-6.27.06-7.24-1.4-5.45-.44-7.4-2.94-8.95-17.2-5-23.33S373.41,584.4,373.41,584.4Z"
                  style="fill: #437040"/>
            <path d="M373.41,584.4c1.75-.13,6.61-.23,8.36,1s4.68,1,5.65,1.66,4.86,1.26,7.1,4.09,3.51,2.62,4.58,5.54,5.17,2.48,4.67,4.19.39.11-2.73,7.6.1,10.89-6.13,14.69-9,4-9.63,7,0,7.35-1.56,8.35-2.73,6.06-4.28,6.64-1.34,3.31-2.57,3.46-12-5.76-12-5.76-6.27.06-7.24-1.4-5.45-.44-7.4-2.94-8.95-17.2-5-23.33S373.41,584.4,373.41,584.4Z"
                  style="opacity: 0.2"/>
            <path d="M359,687.63c-1.82-.2-.1-.2,3.31-5.55s5.16-30,4.67-34.26-12.56-21-14.6-22.68-11-7.39-10.41-8,10.12,5.36,11.19,5.16,2.14-4.77,2.72-4.67-.77,8.08.49,9.54,10.61,11,11.58,10.9,1.46-5.55,1.66-9S365.13,615.9,363,613s-16.74-12-17.81-13.63c0,0,11,6.62,11.58,6.81s-9.25-17.9-9.25-17.9,11.39,17.52,12,17.61,1.84-10.41,2.33-10.31.39,3.31.39,3.31l3,1s-3.21-.2-3.21.19-.78,5.94-.3,6.52,8.86,9.83,10.13,13.24,2.23,8.27,2.82,8.27,6.23-12.84,6.13-13.91-.88-9-.58-9,1.65,8.45,1.65,8.45l4.48-1.64s-4.58,3.51-4.58,4-3.7,13-3,13.14,16-10.6,16.44-10.51-5.54,5.45-4.86,5.55,5.25-.78,5.55-.49-6.14,2-7.69,2.83A24.27,24.27,0,0,0,379,637.94c-2.24,6.28-2.43,16-2.92,21.85s-.19,19.86,2.92,23,7,4.19,6.72,4.87-7.79-1.17-10.9-1.07-2.83,2.24-4.38,2.24-1.17-1.95-3.22-2.34S362.5,688,359,687.63Z"
                  style="fill: #6b5a30"/>
            <path d="M367,648.15h0c0-4-5.87-12.94-5-13.82a1.23,1.23,0,0,1,1-.38c-2.84-2.74-6-6-6.65-6.76-1.26-1.46.1-9.44-.49-9.54s-1.65,4.48-2.72,4.67-10.61-5.74-11.19-5.16,8.37,6.33,10.41,8,14.11,18.4,14.6,22.68Q367,648,367,648.15Z"
                  style="opacity: 0.1"/>
            <path d="M395.89,623.68c-.3-.29-4.87.59-5.55.49s5.35-5.45,4.86-5.55-15.76,10.61-16.44,10.51,3-12.65,3-13.14,4.58-4,4.58-4l-4.48,1.64s-1.36-8.45-1.65-8.45.48,7.88.58,9-5.55,13.91-6.13,13.91-1.56-4.86-2.82-8.27-9.64-12.65-10.13-13.24.3-6.13.3-6.52,3.21-.19,3.21-.19l-3-1s.1-3.22-.39-3.31-1.75,10.41-2.33,10.31-12-17.61-12-17.61,9.83,18.1,9.25,17.9-11.58-6.81-11.58-6.81C346.25,601,360.85,610.06,363,613s6.81,12.75,6.62,16.15a56.18,56.18,0,0,1-.75,7c1.18-.45,3-1.08,3.33-.79.53.44-1.43,5.7-1.43,7.11v46.34c1.16-.32,1.16-2.1,4-2.19,3.11-.1,10.6,1.75,10.9,1.07s-3.6-1.75-6.72-4.87-3.41-17.13-2.92-23,.68-15.57,2.92-21.85a24.27,24.27,0,0,1,9.25-11.43C389.75,625.63,396.18,624,395.89,623.68Z"
                  style="opacity: 0.1"/>
            <path d="M339.24,601.75c-2.24.91-4.77,4-4.67,4.61s-2.43,2-2.43,3.7-.59,4.57.48,5.55.49,3.79,1.07,5.93,4.19,3.29,4.19,4a21.68,21.68,0,0,0,1.36,6c.78,1.56,2.34,3.8,3.51,3.8s1.75,1.36,3,1.46,4.19,2,5.55,1.8,3.41-.34,4.67-.64,5.27-5.67,5.72-5.23,5.84,3,7.22,2.41,5.85-1.75,7.31-1,5,2.63,6.61,2.43,1.76-1.17,4.58-2,1.56-.59,4.28-1.85,3.7-3.41,4.77-4.67.88-2.16,2.53-2.45,2.53-.47,2.53-.47,1.17.87,3.89-1.95,2.34-1.36,3.12-3.41,1.94-.58,1.36-4.28.2-3.7-1.17-6,.59-2.34-3.11-5.16-4.58-2.24-6-3.89-2.12-3.9-3.69-5.46a19.24,19.24,0,0,0-3.22-2.55s.69-.66-3.69-2.31a44.35,44.35,0,0,0-7.89-2.34c-.29,0-5,.2-5.74-.87s-3.8-4.58-3.8-4.58-1.07-3.11-2.23-3.21-4.19,1.17-5.65,1.56-5.06-.1-7.4,1.36-5.25.1-7.1.88-3.7.39-4.87,1.85-4.57,1.75-5.64,3.6-1.36,6.42-.49,8.66S338,600.85,339.24,601.75Z"
                  style="fill: #437040"/>
            <path d="M409.9,615.41c-.58-3.7.2-3.7-1.17-6s.59-2.34-3.11-5.16-4.58-2.24-6-3.89-2.12-3.9-3.69-5.46a19.24,19.24,0,0,0-3.22-2.55s.5-.48-2.08-1.65h0c2.5,2-7.16,1.09-6.77,2.06s1.75,6.33.58,8.28-1.07,3.79-1.56,7.77-5,11.89-8.17,14.51-8.37,1-12,1.56-4.09,2.34-9.15,2.92a45.54,45.54,0,0,0-8.57,1.66c-1,.29-6.52-3.51-7.1-3.91a21.68,21.68,0,0,0,1.36,6c.78,1.56,2.34,3.8,3.51,3.8s1.75,1.36,3,1.46,4.19,2,5.55,1.8,3.41-.34,4.67-.64,5.27-5.67,5.72-5.23,5.84,3,7.22,2.41,5.85-1.75,7.31-1,5,2.63,6.61,2.43,1.76-1.17,4.58-2,1.56-.59,4.28-1.85,3.7-3.41,4.77-4.67.88-2.16,2.53-2.45,2.53-.47,2.53-.47,1.17.87,3.89-1.95,2.34-1.36,3.12-3.41S410.48,619.11,409.9,615.41Z"
                  style="opacity: 0.1"/>
        </g>
        <g>
            <path d="M330.13,523.79c2.58-.21,9.79-.35,12.38,1.52s6.91,1.44,8.35,2.45,7.2,1.87,10.52,6,5.18,3.89,6.77,8.21,7.66,3.66,6.91,6.19.58.17-4,11.25.14,16.12-9.08,21.74-13.25,5.9-14.26,10.37,0,10.86-2.3,12.35-4,9-6.34,9.83-2,4.9-3.8,5.11-17.74-8.52-17.74-8.52-9.28.1-10.72-2.06-8.07-.66-11-4.36-13.25-25.46-7.35-34.53S330.13,523.79,330.13,523.79Z"
                  style="fill: #437040"/>
            <path d="M330.13,523.79c2.58-.21,9.79-.35,12.38,1.52s6.91,1.44,8.35,2.45,7.2,1.87,10.52,6,5.18,3.89,6.77,8.21,7.66,3.66,6.91,6.19.58.17-4,11.25.14,16.12-9.08,21.74-13.25,5.9-14.26,10.37,0,10.86-2.3,12.35-4,9-6.34,9.83-2,4.9-3.8,5.11-17.74-8.52-17.74-8.52-9.28.1-10.72-2.06-8.07-.66-11-4.36-13.25-25.46-7.35-34.53S330.13,523.79,330.13,523.79Z"
                  style="opacity: 0.2"/>
            <path d="M308.8,676.55c-2.69-.3-.14-.29,4.9-8.21s7.63-44.36,6.91-50.7S302,586.53,299,584.08s-16.28-11-15.41-11.81,15,7.92,16.56,7.63,3.17-7.06,4-6.91-1.15,12,.72,14.11,15.7,16.28,17.14,16.14S324.21,595,324.5,590s-6.62-19.58-9.79-23.91-24.78-17.71-26.36-20.16c0,0,16.28,9.79,17.14,10.08s-13.68-26.5-13.68-26.5,16.85,25.93,17.71,26.07,2.74-15.41,3.46-15.27.58,4.9.58,4.9l4.46,1.44s-4.75-.29-4.75.29-1.15,8.78-.43,9.65,13.1,14.55,15,19.59,3.31,12.24,4.17,12.24,9.22-19,9.08-20.6-1.3-13.25-.87-13.25,2.45,12.5,2.45,12.5l6.63-2.42s-6.77,5.19-6.77,5.91S337,589.84,338,590s23.62-15.7,24.34-15.55-8.2,8.06-7.2,8.21,7.78-1.15,8.21-.72-9.07,2.88-11.38,4.18-10.37,7.63-13.68,16.92-3.6,23.69-4.32,32.34-.29,29.38,4.32,34,10.37,6.19,9.94,7.2-11.52-1.73-16.13-1.58-4.18,3.31-6.48,3.31-1.73-2.88-4.76-3.46S314,677.13,308.8,676.55Z"
                  style="fill: #6b5a30"/>
            <path d="M320.66,618.13h0c0-5.91-8.69-19.16-7.46-20.46a1.84,1.84,0,0,1,1.55-.56c-4.2-4.05-8.81-8.82-9.84-10-1.87-2.16.15-14-.72-14.11s-2.45,6.62-4,6.91-15.7-8.5-16.56-7.63S296,581.63,299,584.08s20.88,27.22,21.6,33.56C320.63,617.79,320.65,618,320.66,618.13Z"
                  style="opacity: 0.1"/>
            <path d="M363.39,581.92c-.43-.43-7.2.86-8.21.72s7.92-8.07,7.2-8.21S339.05,590.13,338,590s4.47-18.72,4.47-19.44,6.77-5.91,6.77-5.91l-6.63,2.42s-2-12.5-2.45-12.5.72,11.67.87,13.25-8.21,20.6-9.08,20.6-2.3-7.2-4.17-12.24-14.26-18.73-15-19.59.43-9.08.43-9.65,4.75-.29,4.75-.29l-4.46-1.44s.14-4.75-.58-4.9-2.59,15.41-3.46,15.27-17.71-26.07-17.71-26.07,14.54,26.79,13.68,26.5-17.14-10.08-17.14-10.08c1.58,2.45,23.19,15.84,26.36,20.16s10.08,18.87,9.79,23.91a81.56,81.56,0,0,1-1.11,10.31c1.75-.68,4.41-1.6,4.93-1.18.79.65-2.12,8.43-2.12,10.52v68.58c1.72-.46,1.73-3.11,5.94-3.24,4.61-.15,15.7,2.59,16.13,1.58s-5.33-2.59-9.94-7.2-5-25.35-4.32-34,1-23.05,4.32-32.34S349.71,587.39,352,586.1,363.82,582.35,363.39,581.92Z"
                  style="opacity: 0.1"/>
            <path d="M279.56,549.47c-3.31,1.34-7.05,5.95-6.91,6.81s-3.6,3-3.6,5.47-.87,6.77.72,8.21.72,5.62,1.58,8.79,6.2,4.87,6.2,5.89.86,6.5,2,8.8,3.46,5.62,5.19,5.62,2.59,2,4.46,2.16,6.2,3,8.21,2.66,5.05-.5,6.92-.93,7.8-8.4,8.46-7.75,8.65,4.43,10.68,3.57,8.66-2.59,10.82-1.44,7.34,3.89,9.79,3.6,2.6-1.73,6.77-3,2.31-.87,6.34-2.74,5.47-5,7.06-6.91,1.29-3.2,3.74-3.62,3.75-.71,3.75-.71,1.73,1.3,5.76-2.88,3.46-2,4.61-5,2.88-.86,2-6.33.28-5.48-1.73-8.94.86-3.45-4.61-7.63-6.77-3.31-8.93-5.76-3.15-5.76-5.46-8.07a28.76,28.76,0,0,0-4.77-3.78s1-1-5.47-3.42a66.08,66.08,0,0,0-11.67-3.46c-.43,0-7.35.29-8.5-1.29s-5.62-6.77-5.62-6.77-1.58-4.61-3.31-4.76-6.19,1.73-8.35,2.31-7.49-.14-11,2-7.78.14-10.51,1.29-5.48.58-7.21,2.74-6.77,2.59-8.35,5.33-2,9.51-.72,12.82S277.69,548.12,279.56,549.47Z"
                  style="fill: #437040"/>
            <path d="M384.14,569.68c-.87-5.48.28-5.48-1.73-8.94s.86-3.45-4.61-7.63-6.77-3.31-8.93-5.76-3.15-5.76-5.46-8.07a28.76,28.76,0,0,0-4.77-3.78s.73-.71-3.08-2.44h0c3.69,3-10.6,1.61-10,3.05s2.6,9.37.87,12.25-1.59,5.61-2.31,11.5-7.34,17.59-12.1,21.48-12.38,1.44-17.71,2.31-6,3.45-13.54,4.32a66.54,66.54,0,0,0-12.68,2.45c-1.44.43-9.65-5.19-10.51-5.78,0,1,.86,6.5,2,8.8s3.46,5.62,5.19,5.62,2.59,2,4.46,2.16,6.2,3,8.21,2.66,5.05-.5,6.92-.93,7.8-8.4,8.46-7.75,8.65,4.43,10.68,3.57,8.66-2.59,10.82-1.44,7.34,3.89,9.79,3.6,2.6-1.73,6.77-3,2.31-.87,6.34-2.74,5.47-5,7.06-6.91,1.29-3.2,3.74-3.62,3.75-.71,3.75-.71,1.73,1.3,5.76-2.88,3.46-2,4.61-5S385,575.15,384.14,569.68Z"
                  style="opacity: 0.1"/>
        </g>
        <path d="M923.21,760.2h0l2.1-.82-2.23-.29.64-1-5-1.33,2.2-.45-6.78-1.89,1.87-.58-6.88-1.92,2.32-.2c.09,0-6.36-1.78-6.36-1.78l2.36-.6L900,747.48l1.73-.38-6.54-1.89,1.45-.42-6.43-1.92,1.33-.55-8-2.53,1.8-.38-8.25-2.56,1.56-.28-8.5-3.06h2l-7.78-2.6h3.25l-9.53-2.84h2.28l-10.75-3.62,1.69-.32-9.94-2.9,1.83-.2-4-.79,1.18-.18-3.85-.87,1.83-.22-3.91-.64,1.36-.19-4.26-1.06,1.17-.11-4.28-1.11,1.38-.08-3.86-.93,1-.23-3.62-.82,1.34-.2-4-.87,1-.26-3.42-.8h1l-3.58-.91,1.08-.22-4.27-1.09,1.22-.21-4.62-1.08,1.42-.11-3.93-.87,1.76-.2-4.78-1,1.51-.39-5.43-1.08,1.29-.38L795,703s.76-.15.78-.18-4-.77-4-.77l.59-.32-3.1-.78a4.46,4.46,0,0,0,.52-.08c.06,0-2.72-.51-2.72-.51l.63-.24-3.46-.8.57-.28-4.9-.87.41-.31-4.23-.57.93-.39L773,696l.72-.39-5.25-.37.81-.69-8,.13L762,694l-7.9.31.37-4.44-1.37,5-1.91-4.06,1.34,4.22-6.31-1.35,1.81,1.53-8.18-.62,2.75,1.09-7.79-.94,1.79,1.5-5-.18-3.62.93v-4l-1.51,4.26-2.06-1.83,1,1.92-5.25-.42,1.87.92-4-.09-6.35,1.19.81-1.21-7.21,2-.35-3.77-.15,3.65-2.27-2,1.9,2.31-4.17-.37-6,1.29.83-1.17-15.58,3.25a5.62,5.62,0,0,0,.79-1.87c-.5.58-10.71,2.58-10.71,2.58v-6.83l-1.75,6.66-3.5-4.33,2.84,5.09-16.84.62,5.17,1.39-20.17.15,4.3,1.83-17.32,0,5.52,1.5-16.58.25,4.72,1.35-12.16-.41,2.6,1-11.19-.41,2.84.88-14-1.34,2.19-4.25-4,4.09-.94-3.47-.34,3.47-7.34-2-13.25-1.66,2.06-.53-15.31-2.18,3.87-.79-19.5-3.06,4.53-1.22-22.5-2.81,7.57-1.22L500.72,693l2.22-1.84-19-2.54,4.08-2.81-22.76-2,3.95-1.43-5.49-.85,1.55-.71-6.38-.6,2.19-1-6.5.56h0l6.5-7.12-7.87,5.87-2-4.75.92,5.77-9.33-.88,5.41-1.58-10.93-1.45,6-1.5-19.67-.65,1.3-1.83-20.95,1.19,5.13-1.88-13.95-.1,4.47-2.57-26.71,2.42h0l.69-1.5L343,673.5c-1.29-.55-.11-2-.11-2-1.25-.23-10,2.19-10,2.19a2.23,2.23,0,0,0,0-1.55c-.93,1.25-12.87,1.8-12.87,1.8l-1.25-.76-2.82.7.7-3.44-1.36,3.32c-.24-2-1.21-1.8-1.21-1.8.82.22.61,1.93.61,1.93s-2.33-.84-2.33-.87-5,.89-5,.89l2-2.1L306,673.48c.27-1.27-1.27-1.69-1.27-1.69,1.23.92-.67,2.08-.67,2.08l-3-.52-3.2.84-.61-1.44c-1,1.41-3.94,1.5-3.94,1.5l1.32-1-12.88,1.56h0l2.11-.94-12.69,1,1.41-.87-9.78,1.08-2-.51-3.71.63c-.12-1,1.08-1.61,1.08-1.61-.66-.11-2,1.54-2,1.54l.37-2.49-.87,2.56s.06-.11-.27-1.08a.91.91,0,0,0-1.2-.63c1.11-.17,1.12,1.83,1.12,1.83l-1.31-.5-2.38.71h0a2.07,2.07,0,0,0,.67-1.85c-.27.85-4.59,1.93-4.6,1.94h0a3.72,3.72,0,0,0,1.64-1.92c-.61.93-9.29,2.08-9.32,2.08h0c.07-.53,2.16-1.82,2.16-1.82-1.17,0-7.28,1.93-7.29,1.93h0c.49-.48.46-1.79.46-1.79-.55,1.17-5.94,1.9-6,1.9h0l.89-1.23-8.69,1.37h0a2.75,2.75,0,0,0,1.64-3.16c-.6,2.77-5,3.2-5.1,3.21h0a2,2,0,0,0,.83-1c-1.22.82-6.74,1-9.43,1.08l-1.49,0,.47-1.51c-1.63,1.06-16.53,1.58-16.53,1.58l2-1.39c-1.62,0-20.34,1.38-20.49,1.39h0l1.41-1.61L156.33,676l1.38-5.64-2.52,4.19a2.57,2.57,0,0,0-1.88-2.5c1.29.6.72,3.93.71,4h0c-2.08-.38-5.34-2.62-5.34-2.62-1.45.92-11.56,1.62-11.94,1.65h0c.35-.38,6.78-2.91,6.78-2.91-.76-.06-17.55,1.61-18,1.65h0a58.9,58.9,0,0,0,5.67-1.92c-1,.37-14.7.29-14.79.28h0c.61-.71,5.35-1.36,5.35-1.36-.66-.23-18.59-1.65-18.73-1.66h0a31.41,31.41,0,0,1,3.28-1.06l-15-2.08h0l2.94-1.15c-1.23-.61-13.81-1.92-13.81-1.92.36-.22,4-1.19,4-1.19C82.67,661,69.76,660,69.76,660a45.78,45.78,0,0,1,4.62-1.27c-1.54-.24-10,0-10,0a3.26,3.26,0,0,0,1.85-3.09s0,.54-.86,1-9.31.42-9.31.42c.16-3.28,3.18-5.18,3.18-5.18-2.33.63-6.58,4.58-6.58,4.58,1-1.51.7-4.91.7-4.91s-.5,2.33-1.25,2.79-12.58.25-12.58.25l1.13-1.81c-.88.2-19.33.25-19.33.25a1.68,1.68,0,0,0,.53-1.48c-2,.75-21.85.76-21.85.76V916.22h941.4Z"
              style="fill: #254a38"/>
        <path d="M771,704.13c-8.75-1.91-51,3.66-108.75,10.41S597,720.79,522.5,704.13s-114.75-20.59-136-22.34-179.75,1.5-224,0S80,669,63.48,663.54,0,656.29,0,656.29V916.22h941.4L924.6,772.13C871.1,747.86,777.23,705.49,771,704.13Z"
              style="opacity: 0.05"/>
    </g>
    <g id="Calque_13" data-name="Calque 13">
        <g id="Sapin2-4" data-name="Sapin2">
            <path d="M1215.1,678.2s2.15,21-1.93,34.74-19.73,22.3-18.65,24.23,13.72-5.57,17.58-2.57,18.87,12,21,11.15-4.08-8.36,0-8.15,19.51,5.79,21,2.79-12-10.08-15.22-17.8-4.94-55.11-4.94-55.11Z"
                  style="fill: #423d32"/>
            <path d="M1238.91,722.59c-3.22-7.72-4.94-55.11-4.94-55.11L1215.1,678.2s.49,4.82.56,11.35l2.66-1.13c1.71-.71,5.15,3.72,5.15,3.72s-1.29,39.31,0,39.6,11.58,12.15,9.65,14c2.14-.86-4.08-8.36,0-8.15s19.51,5.79,21,2.79S1242.12,730.31,1238.91,722.59Z"
                  style="opacity: 0.1"/>
            <path d="M1328.12,693.28c-59-8.58-86.32-58.9-86.32-58.9,10,12,60.11,27.73,60.11,27.73-35.83-13.15-55.1-54.89-55.1-54.89,15.41,11.43,40.46,13.15,40.46,13.15-27.74-14.87-44.7-55.19-44.7-55.19a135,135,0,0,0,23.51,10c-14.64-8.29-35.84-46.89-35.84-46.89,7.32,2.86,27.36,6,27.36,6-11.94-4-41.62-40-41.62-40,8.1,37.74-33.52,81.78-33.52,81.78,5.78-1.15,28.51-14.87,28.51-14.87-.77,10.87-30.22,47.75-30.22,47.75,12.94-2.57,28.3-12.29,28.3-12.29-1.16,13.15-47.78,40-47.78,40,18.88,3.14,45.85-9.15,45.85-9.15,0,13.15-59.73,40-59.73,40,16.19,5.36,54.34-7.37,54.34-7.37.77,11.15-62,32.89-62,32.89,40.46,5.43,76.29-11.16,76.29-11.16,9.87,10.88,29.57,23.91,39.43,30.11-12.07-9.73-25.17-32.39-25.17-32.39C1263.77,698.14,1328.12,693.28,1328.12,693.28Z"
                  style="fill: #466e44"/>
            <path d="M1241.8,634.38c10,12,60.11,27.73,60.11,27.73-35.83-13.15-55.1-54.89-55.1-54.89,15.41,11.43,40.46,13.15,40.46,13.15-27.74-14.87-44.7-55.19-44.7-55.19a135,135,0,0,0,23.51,10c-14.64-8.29-35.84-46.89-35.84-46.89,7.32,2.86,27.36,6,27.36,6-11.94-4-41.62-40-41.62-40,.13.59.25,1.19.35,1.78,1.67,8.5,9.15,44.94,16.14,53.26a28.55,28.55,0,0,1-10.72-4.93s10.51,40.32,21.66,47.61c0,0-19.09,0-23-5.58,0,0,18.45,39.89,32.81,48,0,0-28.73-4.07-32.59-10.72,0,0,16,42.33,43.1,56,0,0-27.88,0-37.53-8.36a45.38,45.38,0,0,0,4,8.22c33.53,18.58,97.88,13.72,97.88,13.72C1269.16,684.7,1241.8,634.38,1241.8,634.38Z"
                  style="opacity: 0.1"/>
        </g>
        <g>
            <path d="M900.19,727.76s2-6,3.65-6.49,3.91-4.54,6.3-5.17,3.28-4.29,5.93-4.67,8.2-1.89,11.23-.88,52.86,8.07,54.5,10.34,9.71,3.1,11.6,6,6.81,2.55,8,6.33a21.55,21.55,0,0,1,1.14,5.68c.18,1.43-62,41.3-63.36,41.59s-5.78,2.56-8,1.55-7.44-2.27-8.57-2.77-16.45-1.38-17.44-4.35S900.19,727.76,900.19,727.76Z"
                  style="fill: #51914e"/>
            <path d="M900.19,727.76s2-6,3.65-6.49,3.91-4.54,6.3-5.17,3.28-4.29,5.93-4.67,8.2-1.89,11.23-.88,52.86,8.07,54.5,10.34,9.71,3.1,11.6,6,6.81,2.55,8,6.33a21.55,21.55,0,0,1,1.14,5.68c.18,1.43-62,41.3-63.36,41.59s-5.78,2.56-8,1.55-7.44-2.27-8.57-2.77-16.45-1.38-17.44-4.35S900.19,727.76,900.19,727.76Z"
                  style="opacity: 0.2"/>
            <path d="M933.87,787.2s5.56-.68,5.39-5.22-1.85-5.38-5.39-6.73-19.84-4.37-22-4.2a27.48,27.48,0,0,0-5.77,1.71.37.37,0,0,1-.39-.6l2-1.95-11.27-5.4a.36.36,0,0,1,.23-.68,44.66,44.66,0,0,0,6.07,1.12c.44-.1,1.05-.85,1.48-1.46a.37.37,0,0,1,.66.17l.22,2a157.94,157.94,0,0,0,16.73,3.61c8,1.18,11.11,2.44,11.27.93s-20.85-7.82-26.82-16.4l-2.94.41a.36.36,0,0,1-.15-.71l2.58-.71-4.18-7.17a.36.36,0,0,1,.59-.41c2.64,3.18,6.29,7.48,7.38,8.25l3.64-.2a.36.36,0,0,1,.28.61l-1.65,1.78s11.43,7.23,17.07,8.66,7,1.18,7.32,1.68a16.6,16.6,0,0,0,1.93,1.85,83.87,83.87,0,0,0,.5-10.09c-.13-3.25-8.71-14.33-13.51-21a.36.36,0,0,1,.56-.46c4.87,5.23,13.76,15,15.39,18.73a33.57,33.57,0,0,1,2.53,10.6s1.8.21,3.82-2.06,13.25-21.07,13.25-21.07l.81-15.53a.36.36,0,0,1,.72,0l.86,13.27,16.44-10.12a.36.36,0,0,1,.42.59l-16.22,13.57s-13.88,21.57-13,24.72,19.68-5.93,22-6.94,18.8-2.52,20.19-3.15c1-.43,2.62-7.6,3.57-12a.36.36,0,0,1,.71.07v11l5.21,2.31a.37.37,0,0,1-.15.7A55.12,55.12,0,0,0,988.88,763c-8.08,2.15-16.28,3.79-16.4,4.8a47.93,47.93,0,0,0,.79,6.17.36.36,0,0,1-.67.25c-1.37-2.24-3.92-5.69-6.18-4.91-3.28,1.14-7.19,7.32-6.18,11.86s6.94,6.06,6.94,6.06H956.46s4.79,3,3.91,3.15S948.76,788,945,788,931,789.59,933.87,787.2Z"
                  style="fill: #6b5a30"/>
            <path d="M938.58,758a83.87,83.87,0,0,1-.5,10.09c1.38,3.38,3,9.56,4,9.24s.19-10.47,1.43-11.42a33.57,33.57,0,0,0-2.53-10.6c-1.63-3.69-10.52-13.5-15.39-18.73a.36.36,0,0,0-.56.46C929.87,743.68,938.45,754.76,938.58,758Z"
                  style="opacity: 0.1"/>
            <path d="M950.76,763.78c-1.38,2.84-3.21,4,0,5.77h0a.59.59,0,0,1-.15-.27c-.88-3.15,13-24.72,13-24.72L979.87,731a.36.36,0,0,0-.42-.59L963,740.52S952.15,760.94,950.76,763.78Z"
                  style="opacity: 0.1"/>
            <path d="M905.7,753.05l-2.58.71a.36.36,0,0,0,.15.71l2.94-.41c5.62,8.08,24.6,14.14,26.64,16.09h0c1.52-.13,8-1.26.25-2.9s-22.2-10.47-22.2-10.47a5.15,5.15,0,0,1,.86-.87l1.65-1.78a.35.35,0,0,0,.08-.36l-4,1.62s-7-7.81-7.81-10h0a.36.36,0,0,0-.18.52Z"
                  style="opacity: 0.1"/>
            <path d="M1002.28,760.49l-5.21-2.31v-11a.35.35,0,0,0-.27-.35c-.28,4-1,13-1.25,13.38s-20.06,3.15-20.94,3.53-23.72,9.59-25.28,9.84c-1.18.19-.59,9.94-.22,14.76,4.62.72,10.61,2.06,11.26,2,.88-.13-3.91-3.15-3.91-3.15h10.72s-5.93-1.52-6.94-6.06,2.9-10.72,6.18-11.86c2.26-.78,4.81,2.67,6.18,4.91a.36.36,0,0,0,.67-.25,47.93,47.93,0,0,1-.79-6.17c.12-1,8.32-2.65,16.4-4.8a55.12,55.12,0,0,1,13.25-1.78A.37.37,0,0,0,1002.28,760.49Z"
                  style="opacity: 0.1"/>
            <path d="M939,779.75h0a12,12,0,0,0-2.92-6.38c-.57-.38-26.37-5.62-28.45-5.87s-2.71-.94-2.59-1.58l-.22-2a.39.39,0,0,0-.2-.28l-.46.11a2.76,2.76,0,0,1-.12,2c-.44,1.25-4.84-.37-7.85-1.38a.36.36,0,0,0,.19.45l11.27,5.4-2,1.95a.37.37,0,0,0,.39.6,27.48,27.48,0,0,1,5.77-1.71c2.19-.17,18.5,2.86,22,4.2C936.73,776.34,938.38,777.1,939,779.75Z"
                  style="opacity: 0.1"/>
            <path d="M949.33,693.05c.23,0,4.71-.16,5.89,3s9.08,6.39,9.08,7.57,4.38,4.37,4.54,6.39,8.25,6.9,8.58,8.41,2.86,7.51,1.68,8.47,10.6,1.29,11.61,4.15,9.76,6.56,10.09,7.9,11.61,5.22,11.61,8.92-.51,9.58-2.69,12.44-2,6.06-5.89,7.57-10.6,7.57-10.6,7.57-6.89,4.88-13.62,5-11.77-4.38-16.32-3.2-12.11-1.85-12.11-1.85S946,778,942.1,775.3s-11.44,1.52-15.64.34-13.63,2.19-16,.34-11.49,0-14.32-3.37-11.25-10.09-11.08-11.77-1.68-2.53,2-8.24,3-13.12,5.72-14.3-.45-3.2,5.07-8.58,11.24-5.55,13.26-8.41,5.72,0,7.07-.5,4.2-10.94,5.88-11.61,6.06-7.23,10.1-8.58,8.74-6.56,9.92-6.56S948,693,949.33,693.05Z"
                  style="fill: #51914e"/>
            <path d="M974.08,715.24c1.95,1.6-4.65,3.51-3.76,5.15s-1.26,5.17-2.65,5.55-2.78,3.15-4.54,4.79-4.42,4.67-5,4.79-11,6.82-13.62,7.07S932.72,743,932.6,744c0,0,8.32,1.26,9.71,1.38s3.79,1,5.3.76,6.69-1.39,7.32-1.39,2.68-1.1,5.69-1.94,5.91-1.59,8.06-3.86,4,.13,5.76-4.29a52.8,52.8,0,0,1,3.45-7.06,1.45,1.45,0,0,0,1.13-.52.17.17,0,0,1,.08-.14l0,0c1.09-1-1.38-6.93-1.72-8.43-.14-.63-1.63-1.86-3.34-3.21Z"
                  style="opacity: 0.1"/>
            <path d="M1005.69,742h0c1.66.92,3.61,6.79,2.72,7.29s-1,5.3-3,5.68-5.81,4.29-8.46,5-5.55,6.93-7.82,7.44-2.52,1.39-8.7,1.26-7.07-.13-11.23.63-7.82.88-10.47,0a45.41,45.41,0,0,0-9.38-1.26c-1,0-2,.76-8.66-.13s-15.77-1-16.15-1-9.46-.37-10.59,0-7.19,1.52-7.95,1-2.52.26-5.93-.75c-3.07-.91-13.1-4.65-15-6.9a2.52,2.52,0,0,1,0,.55c-.17,1.68,8.24,8.41,11.08,11.77s12,1.51,14.32,3.37,11.77-1.52,16-.34,11.77-3,15.64-.34,9.08.17,9.08.17,7.57,3,12.11,1.85,9.59,3.36,16.32,3.2,13.62-5,13.62-5,6.73-6.05,10.6-7.57,3.7-4.71,5.89-7.57,2.69-8.74,2.69-12.44C1012.41,745.81,1008.87,743.68,1005.69,742Z"
                  style="opacity: 0.1"/>
        </g>
        <g id="Sapin3-2" data-name="Sapin3">
            <path d="M180.47,552.45s9.91,65.54,7.16,81S173.3,689.05,175,717.69s3.3,51.23-3.86,65-10.46,24.24-11.57,44.06-.55,49.58-12.11,56.19-27,12.67-27.54,17.62S165,890.1,165,892.85s19.15,14.87,23.07,13.77-2.82-14.32,0-15.42,30.91,6.06,35.32,3.86-22-12.12-22.58-18.18-4.41-46.27-5-54.53,5-46.82,5-56.19-11-52.32-8.82-62.24,11-67.75,8.26-73.81S185.42,551.9,180.47,552.45Z"
                  style="fill: #423d32"/>
            <path d="M240.62,571.36c-24.59-2-47.24-6-60.41-20,0,0,3.12,27.72-36.17,39.47,0,0,34.61-5.54,38.05-26.27,0,0-4.26,28.84-29.23,45.73,0,0,33-21.44,34.11-40.28,0,0,19,24.86,36.7,23.76,0,0-22.71-14.32-26-22C197.66,571.73,231.81,576.13,240.62,571.36Z"
                  style="fill: #466e44"/>
            <path d="M259,632.73s-27.84,2.21-58.22-17.64c7.46,4.64,29.68,15.85,53,2.63,0,0-21.3,9.94-59.12-12.66l.05,4.12-3.58-3.44-1.52,4.54-2.6-5.22s-31.82,31.11-74,24.78a113.21,113.21,0,0,0,43.79-.83c18.25-4.08,25.28-9.5,27.5-11.69-5,5.6-31.11,33.62-55.87,40.06,0,0,48.05-11.3,59.69-33,0,0-6,27-24.16,36.08,0,0,32.82-11.29,28.39-44.62,0,0,7.69,32,20.63,36.63,0,0-10.81-19.22-15.45-33.43C197.51,619,216.82,642.52,259,632.73Z"
                  style="fill: #466e44"/>
            <path d="M275.21,703.37s-11.85,14.6-43.79,7.16-37-19.8-37-19.8l-3.92,7.55-5.58-9.57-6.13,9.5-2.27-8.63C146.87,707.78,78,704.2,78,704.2s64.72,11.56,95.29-4.68c0,0-28.09,25.61-66.09,38.28,0,0,42.54-3.53,67.68-30.54,0,0-9.3,25.58-24.72,37.42,0,0,29.19-14.59,34.15-41.31,0,0,2.76,28.92,15.42,36.36,0,0-8.45-25.93-7.41-34.43,0,0,17.88,33.32,38.81,39.38,0,0-25.61-23.41-30-35.25,0,0,31.95,26.72,63.35,21.48,0,0-26.44-1.1-53.16-20.38C211.31,710.53,262.81,724,275.21,703.37Z"
                  style="fill: #466e44"/>
            <path d="M239.68,828.41c-37.73-16.53-37.73-24-37.73-24s35,24.51,69.95,4.68c0,0-39.52,10.94-73-20.7l-3.42,16.66-7.71-13.4-8,13.22L177.34,789l-8.53,16.34.59-19.3a157.4,157.4,0,0,1-49.53,27.66c-29.55,9.91-76.56,0-76.56,0s47.37,12.12,78.59,8.08c20.11-2.61,31-8.24,36.16-11.92-11.15,9.24-44.66,34.23-88.68,41.66,0,0,59.86-8.2,95.48-32.74,0,0-39.48,45.41-61.23,55.32,0,0,56.73-24.78,69.67-49.29,0,0,.83,36.9,10.47,49.29,0,0-1.65-37.73,0-51.77,0,0,23.13,47.37,72.71,57.28,0,0-53.4-33.29-55.91-58.66,0,0,24.24,21.21,55.91,23.41s40.21-16.52,40.21-16.52S277.41,844.93,239.68,828.41Z"
                  style="fill: #466e44"/>
            <path d="M239.68,828.41c-37.73-16.53-37.73-24-37.73-24s35,24.51,69.95,4.68c0,0-39.52,10.94-73-20.7,1.06-9.6,2-18.41,2-22.27,0-4.53-2.59-16.95-5-29.68a16.74,16.74,0,0,0,3.89,3.25s-8.45-25.93-7.41-34.43c0,0,17.88,33.32,38.81,39.38,0,0-25.61-23.41-30-35.25,0,0,31.95,26.72,63.35,21.48,0,0-26.44-1.1-53.16-20.38,0,0,51.5,13.5,63.9-7.16,0,0-11.85,14.6-43.79,7.16s-37-19.8-37-19.8c2.47-15.39,5.75-39.1,6.35-52,3.26,6.32,7.38,11.93,12.24,13.69,0,0-10.81-19.22-15.45-33.43h0s19.31,23.53,61.45,13.74c0,0-27.84,2.21-58.22-17.64,7.47,4.64,29.68,15.85,53,2.63,0,0-21.3,9.94-59.12-12.66-2.36-11.45-5.09-24.68-7.63-35v0s19,24.86,36.7,23.76c0,0-22.71-14.32-26-22,0,0,34.15,4.4,43-.37-24.59-2-47.24-6-60.41-20L186,569.06s.37,5.15-.36,7c0,0,4.31,22.31,5.46,29.7s2.52,19.42,2.52,19.42c1.84,12.3-8,56.22-8.72,63.55s-1.19,41.1-.55,49.55,2.94,26.89,1.1,39.38a222.45,222.45,0,0,1-5.69,27.27c-1.38,4.86-5,14.78-6.43,19.92s-1.56,63.25.46,63.71,11.75,5.23,13,8.54,2.34,8.53,1.31,9.54c3.92-1.1-2.82-14.32,0-15.42s30.91,6.06,35.32,3.86-22-12.12-22.58-18.18c-.34-3.68-1.89-20-3.19-34,11.78,14.11,31.19,31.27,58.82,36.79,0,0-53.4-33.29-55.91-58.66,0,0,24.24,21.21,55.91,23.41s40.21-16.52,40.21-16.52S277.41,844.93,239.68,828.41Z"
                  style="opacity: 0.1"/>
        </g>
        <path d="M1400,697.14V693.6l-9.11-6.37s8.93,7.53,8.22,10.17h0c-.36,0-12.81,1.59-19-.81l-6.27-2.44s9.27,5.59,12.79,6.61h0c-.35,0-17,1.47-21-.54-2.66-1.37-2.88-2.64-2.73-3.34-.6,1.6-1.8,6.32,3.83,8.25h0c-.14,0-11-1.49-11.92-3.79a7.11,7.11,0,0,0,4.48,5.2h0c-.12,0-8.65-.63-10.1-2.59l1.85,4h0s-6.33-4.79-5-8.87c0,0-1.89,4.54-.19,7.63,0,0-7.35-6.25-10.06-6.88a20.68,20.68,0,0,1,6.92,9.46h0c-.09,0-9.92-.87-12.41-.71a11.33,11.33,0,0,0-3.66.71s5.77.25,5.14,1.61h0s-15.73-.05-18.93-.94c1.41.68,5.13,2.42,6.65,2.55h0c-.69.05-11.5.69-10.37-3.53a4.23,4.23,0,0,0,.62,4.68h0s-6.49-6.62-7.74-7c0,0,3.88,4,4.79,7.28h0s-3.16-3.91-4.79-4.24c0,0,2.51,2.11,2.78,4.45h0c-.1,0-10-3.07-13.19-2,0,0,5.81.49,6.72,2.62h0c-.24,0-10.17-.31-10.79-2.25,0,0-2.4,3.25-4.48,3.63h0a15.23,15.23,0,0,0,3.16-8.58s-1.21,5.7-3.38,6.87a9.27,9.27,0,0,1-.91-4.54,16.55,16.55,0,0,0-1.05,5s-1.5-8.58-3.75-10.63c0,0,2,5.92,1.88,10.59s-27.25-2.91-32.75-2.64c0,0,9.83,3,10.75,4.16,0,0-13.17-1-16.42-1.94a43.27,43.27,0,0,0,3.54,2.75s-14.58.58-17.2-1.5c0,0-6.51,3.24-8,3.56h0c.05,0,4.23-2,3.71-4.69s-2.4-2.74-2.4-2.74,3.59,4.33-1.31,5.62c0,0-1-5.79.72-7.71,1.52-1.66,2.56-1.8,2.8-1.81-.59,0-5.79.34-4.92,9.1,0,0-6.75-14.08-7.42-14.87,0,0,4.29,12.6,4.63,14.87a6.62,6.62,0,0,1-6,1.5,4.36,4.36,0,0,1-3.59-4.29s-.79,2.71.3,4c0,0-9.63-4.7-7.75-10.24,0,0-2.34,5.08,1.25,9.45,0,0-6.87-.62-8-2s-.94-1.86-1-1.83-1.68,3.83-4,4.37a10.4,10.4,0,0,1-1.21-4.87s-.7,4.12-.66,5a18.11,18.11,0,0,1-1.09-7.71s-3,5.54-3.21,7.92c0,0-5.33-6.46-4-10.71,0,0-2.91,3.21-1.08,9.87,0,0-17.12-4.08-21.37-3.89,0,0,4.62,1.31,3.62,3.12,0,0-9.51-1.39-10-7,0,0-1,4.41-.36,6.66,0,0-9.14-2.82-9.32-6s5.07-7.75,5.07-7.75-9.82,4.37-6,12.25c0,0-4.94-9.94-3.94-14.75,0,0-2.19,9.44,1.37,15.44,0,0-14.27-3.36-14.12-5.74,0,0-3.75,3.8-2.75,6l-11-3s4.69,3.5,4.75,3.87c0,0-11.83-1-12.5-3.81,0,0-.13,3.23,1.25,4.25l-16.69-2.62,6.74,4.34-11.86-3-2.55,4.25s-.77-12.56,2.92-16.31a22.85,22.85,0,0,0-6.5,16.31s-5.37-11.25-3.31-17.87c0,0-4.57,7.1-.47,18.71,0,0-12.13-2.61-15.78-4.84,0,0,1.84,5.24,4.73,6.34,0,0-16.23-.09-18.29-1.59s-2.19-2-2.19-2,1.08,6,5.45,6.12l-16.08-.49-5.7,5.19s-7.48-3.38-8.3-5.44a16.81,16.81,0,0,1-.66-5.48s-1.72,10.75,3.81,12.21l-19,1.14,6.9,2.13S981.5,737,978.94,736.1c0,0,5.78,3,8,3.07-2.67.27-15.7,1.62-19,2.68l6.71,1.57-45,9.2,9.5,2.09-30.08,8.16,6.5,1.17-33.84,6.67,3.67,1.66-20.83,4.5,1.41.92s-4.33,2.33-6.83-2.58c0,0-.17,3.41-6.33,4.75,0,0,2.86-3.15,4.41-11.75,0,0-5.91,11.66-10.25,13.66,0,0-1.41-16.16-6.83-20.58,0,0,4.68,13.21,2.8,21.77h0l-22.16-4.83L827,784s-11.3,1-13.19-4.44c-1.16-3.35-.89-5-.51-5.72-1.4,1.76-5,7.23-1.36,13.28,0,0-9.44,1.38-12.19-1.31s-2.54-4.39-2.54-4.39-1.28,5,2.16,8.12h0c-.34,0-19.2-1.24-23.11-5.48,0,0,1.37,5.31,5.5,7.41h0c-.08,0-16-1-14.61-10,0,0-2.75,4.62,4.24,11h0l-17.43-4.25s3.11,3.48,1.62,5.49h0c-.08,0-7.95-2.47-7-7.76.78-4.3,1.53-5.39,1.78-5.65-.73.61-5.72,5.16-2.47,13.92h0l-17.81-8.5s6.5,5.94,4,8.75L719.5,783.29s4.5,8.94,2.81,11.5l-17.56-3.5,6.31,3-12.81-3.81,2.44,3.87s-3.44.81-5.44-1.25-2.19-3.5-2.19-3.5.69,4.75,1.07,5.19c0,0-8.55-6.92-6.38-11.33,0,0-3.79,6.16-.35,11.66L665,789.31l5.06,3.4s-20.58-.42-23-4.25c0,0-.25,3,4.59,4.91l-14.59-2.08L630,793.87s-.62-10.37,3-12.85c0,0-7.38,4-6.38,11.44,0,0-7.34-13.49-10.25-15.87,0,0,3.67,9.95,3.75,16.62,0,0-27.15-2.72-26.24-2s3.91,1.53,3.08,2.36-12.75-1.41-12.75-1.41l1.75,2.58s-30.27,1-33.17-1.87c0,0,3.13,3.62,3.94,3.74,0,0-14.44-.56-17.5-1.56a17.77,17.77,0,0,1-9.13,5.31s5.13-9.56,2.69-17.31c0,0,.63,11.81-4.75,16.5a68,68,0,0,0,2.51-7.81s-3,8-4.75,9.57c0,0-2-11.45,2.87-18.45,0,0-7.38,5.71-5.19,18.45,0,0-6.56-10.45-6.5-10.13s3.69,9.81,3.69,9.81-10.13-1.5-16.88-2.19c0,0,5.21,2.52,3,4.79,0,0-11.94-1.75-12.35-5.93,0,0,.14,6.6,2.74,7.21l-11-1.76-1.3,3.53s-7.46-.94-8.34-3.61c0,0-.53,4.2.82,4.77,0,0-14-4.29-14-4.12s5.51,4.12,5.51,4.12l-9.68.44,3.37,1.19h-7.19l-1.59-7.33s.29,9.08,0,8.76-7.72-9.37-7.72-9.37l5.75,8.5-8.25-3,5.81,3.88s-4.18,2.49-8.12,2.06a13.1,13.1,0,0,1-6.38-2.44l2.63,4s-14.21-.52-15.75.23c0,0,5.65.35,6.31,1.18l-16.88,2.65h4.57s-8.81,2.81-11.81,1.69a5.72,5.72,0,0,0,2.73,1.49l-11.89-.62s6.25,1.08,6.08,2c0,0-11.92,1.78-13.33-.32,0,0,.68,2.71,2.45,3.14l-16,1.83,3.79,1.55-15,3.08,2.87.56-10,2.5,1.36.28A425.24,425.24,0,0,0,312,853.29V999.5H1400.08Z"
              style="fill: #1f3d2e"/>
        <path d="M1284.33,720.78c-36.44,4.66-82.33.68-158,0s-191,41.33-254,65-80,6.33-280,15.33-280,62-280,62l-.33.15V999.5H1400.08L1400,704.13C1384.69,704.3,1320.51,716.16,1284.33,720.78Z"
              style="opacity: 0.05"/>
    </g>
    <g id="Calque_12" data-name="Calque 12">
        <path d="M1334.94,336.41c9.31-.74,35.28-1.26,44.62,5.49s24.93,5.19,30.12,8.83,26,6.75,37.91,21.81,18.7,14,24.41,29.6,27.61,13.2,24.93,22.33,2.07.59-14.54,40.54.52,58.13-32.72,78.38-47.78,21.29-51.41,37.39,0,39.17-8.31,44.51-14.54,32.35-22.85,35.46-7.12,17.66-13.69,18.44-64-30.74-64-30.74-33.47.36-38.66-7.43-29.09-2.37-39.47-15.73-47.78-91.77-26.49-124.48S1334.94,336.41,1334.94,336.41Z"
              style="fill: #51914e"/>
        <path d="M1334.94,336.41c9.31-.74,35.28-1.26,44.62,5.49s24.93,5.19,30.12,8.83,26,6.75,37.91,21.81,18.7,14,24.41,29.6,27.61,13.2,24.93,22.33,2.07.59-14.54,40.54.52,58.13-32.72,78.38-47.78,21.29-51.41,37.39,0,39.17-8.31,44.51-14.54,32.35-22.85,35.46-7.12,17.66-13.69,18.44-64-30.74-64-30.74-33.47.36-38.66-7.43-29.09-2.37-39.47-15.73-47.78-91.77-26.49-124.48S1334.94,336.41,1334.94,336.41Z"
              style="opacity: 0.2"/>
        <path d="M1258.05,887.17c-9.7-1.08-.52-1,17.65-29.6s27.52-160,24.93-182.8-67-112.17-77.9-121-58.68-39.47-55.57-42.59,54,28.57,59.72,27.53,11.43-25.45,14.54-24.93-4.15,43.1,2.6,50.89,56.61,58.68,61.8,58.16,7.79-29.6,8.83-47.77-23.89-70.63-35.32-86.21-89.32-63.87-95-72.7c0,0,58.68,35.31,61.8,36.35S1196.76,357,1196.76,357s60.76,93.47,63.88,94,9.87-55.56,12.46-55,2.08,17.65,2.08,17.65l16.1,5.2s-17.14-1-17.14,1-4.15,31.67-1.56,34.79,47.26,52.45,54,70.62,11.94,44.15,15.06,44.15,33.24-68.55,32.72-74.27-4.68-47.77-3.12-47.77,8.83,45.07,8.83,45.07l23.89-8.72s-24.41,18.7-24.41,21.29-19.73,69.59-16.1,70.11,85.17-56.61,87.76-56.09-29.59,29.08-26,29.6,28-4.15,29.6-2.59-32.72,10.38-41,15.06-37.39,27.52-49.33,61-13,85.42-15.58,116.58-1,105.94,15.58,122.56,37.39,22.33,35.84,26-41.55-6.23-58.17-5.71-15.06,11.94-23.37,11.94-6.23-10.38-17.13-12.46S1276.74,889.25,1258.05,887.17Z"
              style="fill: #6b5a30"/>
        <path d="M1300.79,676.54h0c-.06-21.29-31.32-69.07-26.91-73.75a6.71,6.71,0,0,1,5.61-2c-15.14-14.59-31.77-31.79-35.47-36.06-6.75-7.79.52-50.37-2.6-50.89s-8.82,23.89-14.54,24.93-56.6-30.64-59.72-27.53,44.66,33.76,55.57,42.59,75.3,98.15,77.9,121C1300.69,675.31,1300.74,675.9,1300.79,676.54Z"
              style="opacity: 0.1"/>
        <path d="M1454.86,546c-1.56-1.56-26,3.11-29.6,2.59s28.56-29.08,26-29.6-84.12,56.61-87.76,56.09,16.1-67.51,16.1-70.11S1404,483.67,1404,483.67l-23.89,8.72s-7.27-45.07-8.83-45.07,2.6,42.06,3.12,47.77-29.6,74.27-32.72,74.27-8.31-26-15.06-44.15-51.41-67.51-54-70.62,1.56-32.72,1.56-34.79,17.14-1,17.14-1l-16.1-5.2s.52-17.13-2.08-17.65-9.35,55.56-12.46,55-63.88-94-63.88-94,52.45,96.59,49.34,95.55-61.8-36.35-61.8-36.35c5.71,8.83,83.61,57.12,95,72.7s36.36,68,35.32,86.21c-.65,11.33-1.9,26.9-4,37.14,6.29-2.44,15.88-5.77,17.77-4.22,2.86,2.33-7.63,30.38-7.63,37.91V893.15c6.2-1.67,6.23-11.22,21.39-11.69,16.62-.52,56.61,9.35,58.17,5.71s-19.22-9.35-35.84-26-18.17-91.4-15.58-122.56,3.64-83.09,15.58-116.58,41-56.35,49.33-61S1456.42,547.54,1454.86,546Z"
              style="opacity: 0.1"/>
        <path d="M1152.63,429c-12,4.84-25.45,21.45-24.93,24.57s-13,10.91-13,19.73-3.12,24.41,2.59,29.6,2.6,20.26,5.72,31.68,22.33,17.56,22.33,21.24,3.11,23.42,7.27,31.73,12.46,20.25,18.69,20.25,9.35,7.27,16.1,7.79,22.33,10.91,29.6,9.61,18.18-1.82,24.93-3.37,28.11-30.27,30.49-27.93,31.2,16,38.52,12.87,31.21-9.35,39-5.2,26.49,14,35.32,13,9.34-6.24,24.4-10.91,8.31-3.12,22.85-9.87,19.74-18.17,25.45-24.92,4.67-11.53,13.5-13,13.5-2.54,13.5-2.54,6.23,4.67,20.78-10.39,12.46-7.27,16.61-18.17,10.39-3.12,7.27-22.85,1-19.74-6.23-32.2,3.12-12.46-16.62-27.52-24.4-11.95-32.19-20.78-11.33-20.77-19.69-29.08a103.54,103.54,0,0,0-17.18-13.65s3.63-3.48-19.74-12.31-40.5-12.47-42.06-12.47-26.49,1-30.64-4.67S1325,324.76,1325,324.76s-5.72-16.62-12-17.13-22.33,6.23-30.12,8.3-27-.52-39.46,7.27-28,.52-37.91,4.68-19.74,2.08-26,9.87-24.41,9.34-30.12,19.21-7.27,34.27-2.6,46.22S1145.88,424.15,1152.63,429Z"
              style="fill: #51914e"/>
        <path d="M1529.64,501.85c-3.11-19.74,1-19.74-6.23-32.2s3.12-12.46-16.62-27.52-24.4-11.95-32.19-20.78-11.33-20.77-19.69-29.08a103.54,103.54,0,0,0-17.18-13.65s2.64-2.54-11.1-8.77h0c13.3,10.82-38.24,5.8-36.16,11s9.35,33.75,3.11,44.14-5.71,20.25-8.3,41.46-26.49,63.44-43.63,77.46-44.66,5.19-63.87,8.31S1256,564.68,1229,567.8s-40.5,7.27-45.69,8.83-34.8-18.7-37.91-20.83c0,3.69,3.11,23.42,7.27,31.73s12.46,20.25,18.69,20.25,9.35,7.27,16.1,7.79,22.33,10.91,29.6,9.61,18.18-1.82,24.93-3.37,28.11-30.27,30.49-27.93,31.2,16,38.52,12.87,31.21-9.35,39-5.2,26.49,14,35.32,13,9.34-6.24,24.4-10.91,8.31-3.12,22.85-9.87,19.74-18.17,25.45-24.92,4.67-11.53,13.5-13,13.5-2.54,13.5-2.54,6.23,4.67,20.78-10.39,12.46-7.27,16.61-18.17S1532.76,521.58,1529.64,501.85Z"
              style="opacity: 0.1"/>
        <g id="Sapin2-5" data-name="Sapin2">
            <path d="M41.87,805.1s3.9,38.16-3.5,63.09-35.83,40.5-33.89,44,24.93-10.13,31.94-4.67,34.27,21.81,38.17,20.25-7.4-15.19,0-14.8S110,923.49,112.76,918,91,899.74,85.1,885.72s-8.95-100.1-8.95-100.1Z"
                  style="fill: #423d32"/>
            <path d="M85.1,885.72c-5.84-14-8.95-100.1-8.95-100.1L41.87,805.1s.9,8.75,1,20.62l4.83-2.06c3.12-1.3,9.35,6.75,9.35,6.75s-2.34,71.4,0,71.92,21,22.07,17.53,25.45c3.89-1.56-7.4-15.19,0-14.8S110,923.49,112.76,918,91,899.74,85.1,885.72Z"
                  style="opacity: 0.1"/>
            <path d="M247.12,832.49c-107.07-15.58-156.76-107-156.76-107,18.2,21.81,109.17,50.38,109.17,50.38C134.45,752,99.46,676.18,99.46,676.18c28,20.77,73.48,23.89,73.48,23.89-50.39-27-81.18-100.22-81.18-100.22,24.5,13,42.69,18.17,42.69,18.17C107.86,603,69.37,532.86,69.37,532.86c13.29,5.19,49.68,10.9,49.68,10.9-21.69-7.27-75.58-72.7-75.58-72.7,14.7,68.55-60.88,148.52-60.88,148.52,10.5-2.08,51.79-27,51.79-27C33,612.31-20.51,679.3-20.51,679.3,3,674.62,30.88,657,30.88,657c-2.1,23.89-86.78,72.7-86.78,72.7,34.29,5.71,83.28-16.62,83.28-16.62,0,23.89-108.47,72.57-108.47,72.57,29.39,9.74,98.67-13.37,98.67-13.37C19,792.5-95.09,832-95.09,832c73.48,9.87,138.56-20.25,138.56-20.25,17.93,19.76,53.71,43.41,71.61,54.67-21.93-17.67-45.71-58.83-45.71-58.83C130.25,841.32,247.12,832.49,247.12,832.49Z"
                  style="fill: #466e44"/>
            <path d="M90.36,725.51c18.2,21.81,109.17,50.38,109.17,50.38C134.45,752,99.46,676.18,99.46,676.18c28,20.77,73.48,23.89,73.48,23.89-50.39-27-81.18-100.22-81.18-100.22,24.5,13,42.69,18.17,42.69,18.17C107.86,603,69.37,532.86,69.37,532.86c13.29,5.19,49.68,10.9,49.68,10.9-21.69-7.27-75.58-72.7-75.58-72.7q.35,1.62.63,3.24c3,15.43,16.61,81.61,29.32,96.73,0,0-11.3-2.34-19.47-9,0,0,19.08,73.22,39.33,86.46,0,0-34.66,0-41.67-10.13,0,0,33.49,72.44,59.59,87.24,0,0-52.19-7.4-59.2-19.47,0,0,29.13,76.89,78.28,101.65,0,0-50.63,0-68.16-15.19a82.27,82.27,0,0,0,7.25,14.93c60.88,33.76,177.75,24.93,177.75,24.93C140.05,816.91,90.36,725.51,90.36,725.51Z"
                  style="opacity: 0.1"/>
        </g>
        <path d="M1391.83,879c2.5-3.92,6.09-14.25,6.09-14.25s-4.5,10.91-8.09,11.75-10.91.08-10.91.08c-.34-2.5,6.92-3.92,6.92-3.92-5.07-2.59-15.13,1.92-15.13,1.92,3.13-9.5-.13-21.58-.13-21.58,1.17,8.41-5.91,21-5.91,21-1.75-3.92,2.53-13.86,2.53-13.86-3.21,1.88-8.45,13.27-8.45,13.27a13.06,13.06,0,0,1-4.42-6.33c-.1,3.89-20.58,1.67-20.58,1.67.17-.84,6.17-3.25,6.17-3.25-5.53-2-21.34,1.08-21.34,1.08-.08-4.67,10.09-18.33,10.09-18.33-2.75-.34-15.67,16.58-15.67,16.58,1.42-5.17-2.31-14.36-2.31-14.36s1.39,10.44-.44,12-13,1.33-13,1.33c0-1.95,7.33-4.42,7.33-4.42-2.08-1.33-27.75,2.84-27.75,2.84a4.44,4.44,0,0,0,1.67-3.75c-4.75,3.08-22.67,1.66-22.67,1.66-.41-3.25,6.92-9.91,6.92-9.91-5.83-.09-16.17,10.58-16.17,10.58,1.17-2.08-.58-7.33-.58-7.33-1.92,5.9-10,6.75-10,6.75-.84-1.63.5-12.34.5-12.34-4.58,3.25-5.33,13-5.33,13-1.59-.08-6.59-6.16-6.59-6.16-.58,3.16-10,6.33-10,6.33,1.17-3.42.65-11.24.65-11.24-.68,5.59-9.06,9.74-9.06,9.74,1.25-12.42-2.34-16-2.34-16s1.17,3,0,10.83-8.91,9.25-8.91,9.25c-1.84-2.33,1.41-9.41,1.41-9.41-3.8,2.51-7.33,10.25-7.33,10.25-3.25-8.09,4.58-21.17,4.58-21.17-4,1.5-8.75,18-8.75,18,0-12.08-9.5-19.58-9.5-19.58s7.25,10.16,6.6,15.55-9,8.86-9,8.86c2.66-4-1.34-6.66-1.34-6.66.84,4.91-6,7.66-6,7.66-1.43-2.5,2.59-6.83,2.59-6.83-2.92,0-8.22,7.61-8.22,7.61-4.93-5.4,1.92-9.94,1.92-9.94-7.83.46-7.74,10.7-7.74,10.7-1-.12-7-13.12-7-13.12s2.62,7.12,1.91,9.79a7.37,7.37,0,0,1-3.24,4.08c-1.33-1,0-3.53,0-3.53s-2.42,2.41-4.3,4.18-8.61.5-8.61.5c0-12.86-4.51-17.27-4.51-17.27,3.5,6.62-1.17,21-1.17,21-1.67-.84-2.08-15.28-2.08-15.28-2.38,2.25-4.63,19-4.63,19-3.5.75-12.77-1.9-12.77-1.9-.51,3.72-13.74,6.9-13.74,6.9,4.37-16.5-.24-23-.24-23,1.38,5.62-3.55,22.65-3.55,22.65s-1.94.16-5.28-6.38,3.2-10.79,3.2-10.79c-8.26,0-11.74,19.77-11.74,19.77-2.88.37-5.13-3.25-5.13-3.25-.52,4.19-6.9,6.91-6.9,6.91-4.28-4.59,1-15.41,1-15.41-3.42.47-8.88,17.75-8.88,17.75-3,.25-7.62-5.63-7.62-5.63-2,5.48-14.13,9.75-14.13,9.75-1.5-3.25,6-7.36,6-7.36-6.33-1.23-33.79,15.55-33.79,15.55,3.81-6,3.29-16.34,3.29-16.34-1.45,8.79-10.52,17.2-10.52,17.2-3.79-5,6.42-13.48,6.42-13.48-8.19-.19-14.06,15.68-14.06,15.68-1.07,0-1-4.12-1-4.12-1.45,2.74-12.25,7.37-12.25,7.37-2.63-4.25,8.64-9.16,8.64-9.16-6.77-1.67-20.26,11.41-20.26,11.41,2.38-10.12,0-16.12,0-16.12.25,3.75-4.62,14.75-4.62,14.75-1-12.38-7.25-15-7.25-15s5.75,7.67,4.75,12.25-15.46,9.89-15.94,10.06h0c3-3.55-.83-6-.83-6,1.7,1.8-14.54,8.75-14.83,8.87h0c.24-2.55-1.53-6.47-1.53-6.47-.29,3.44-10.56,8.4-10.79,8.51h0c-3.82-1.39,3-14.07,3-14.07-5.07.8-9.67,15-10.79,15.24h0c-1.12.11-4.34-3.43-4.34-3.43,1.62,3.17-12.16,5.46-13.83,5.72l-.15,0c11.32-7.09,4.63-13.57,4.63-13.57s2,3.83-2.48,6.56-21.17,8.42-21.49,8.53h0c-2.15-1.09,7-11.09,7-11.09-2.76.52-15.21,10.42-22.64,11.27l-2.23-.06c-6.79-1.45,4.7-5.55,4.7-5.55-5.45-2.64-32.81,2.77-33.29,2.87h0c1-.81,4.48-4.53,4.48-4.53-4.44,1.15-25.07,1.23-25.65,1.23h0c4.65-3.6,7.84-13.73,7.84-13.73s-1.66,2-5.33,6-16.11,5.2-16.32,5.23h0c4.83-3.6,0-6.06,0-6.06-1.17,2.84-27,0-27,0-1.42-2.58,2.5-6.08,2.5-6.08-2.25-.58-6.75,3.67-6.75,3.67,0-2.17,4.5-9.84,4.5-9.84-2.5,1.17-8.42,9.25-8.42,9.25s-4.64.92-5.08-2.25,5.08-3.25,5.08-3.25c-3.25-1.91-12.33,1.84-12.33,1.84,6.16-4.84,5.41-10.5,5.41-10.5-.83,5.08-12,9.41-12,9.41,3.42-4.5.59-6.5.59-6.5a3.6,3.6,0,0,1-.84,3.34c-1.41,1.75-7.5,2.5-7.5,2.5a6.56,6.56,0,0,0,3.25-6.25c-2.58,2.75-15.5,3.41-15.5,3.41-.83-3.66,8.59-7.83,8.59-7.83-2.75-1.25-15.84,6.08-15.84,6.08A6.59,6.59,0,0,0,710,896c-2.42,3.5-16.33,1.58-16.33,1.58,1.33-3.91,9.75-2.5,9.75-2.5-2.92-3.91-26-1.75-26-1.75,4.83-2.33,4.33-6,4.33-6l-1.92,1.92c-1.91,1.92-20.66.25-20.66.25l9.08-2.75c-3.92.67-21.25-1.58-21.25-1.58-.25-3.84,5.67-6.92,5.67-6.92-2.75-.83-12.84,3.5-12.84,3.5,5-5.5-3.66-7.25-3.66-7.25s4.5,1.83,1.58,4.83-39.37-2.83-39.37-2.83c1.75-7.38,12.37-9.38,12.37-9.38-5.62-1.75-18,7-18,7a11.75,11.75,0,0,0,.63-8.25s-.63,4.88-3.13,6.25-7.12.88-7.12.88a3.5,3.5,0,0,0,2.75-3.88c-.38,2.5-12.5,2.63-12.5,2.63,6.87-1.88,7.12-9.38,7.12-9.38-2.35,5.23-16.67,5.05-16.67,5.05a7.1,7.1,0,0,0-.73-7.15c.09.12.68,1,0,4.65-.75,3.91-11.33.75-11.33.75a8.59,8.59,0,0,0,3.75-1.17c-2.75.75-6.25-1.67-9.08-3.08s-13.09.75-13.09.75a9.25,9.25,0,0,0,1.06-4.81c-2,2.93-18.28,4.39-18.28,4.39-3.31-5.34,4.31-12.83,4.31-12.83-2.84-.92-9.42,8-9.42,8a11.08,11.08,0,0,0-1.46-10.67s1.36,3.8,0,7-5.71,4.45-5.71,4.45c2.09-1.59,2.59-6.42,2.59-6.42-.17,2.92-13.49,5.75-13.49,5.75,1.77-1.33,2.32-5.75,2.32-5.75-2.83,3.58-22,1.25-22,1.25a22.77,22.77,0,0,0,0-13.49c-.84,7.18-6.89,11.86-6.89,11.86,2.1-6.75,0-10.38,0-10.38-1.78,8.86-7.22,10.26-7.22,10.26a7.83,7.83,0,0,0,.87-4.13c-2.46,4.15-9.37,2.63-9.37,2.63,0-3.13,9.37-6.63,9.37-6.63-6.62-.37-20.37,5.75-20.37,5.75,1.49-1.22,2.48-7.12,2.48-7.12-2.19,3.11-13.36,5-13.36,5-.87-4.5,8.48-12.17,8.48-12.17-5.27.42-18.1,11.92-18.1,11.92,1.5-2.5,1.12-7,1.12-7-2.12,6.63-20.12,3.74-20.12,3.74.87-3.13,5-3,5-3-5.75-2.1-28.5.73-28.5.73,4.24-2,2.23-7,2.23-7-2.26,6-23.07.37-23.07.37a13.76,13.76,0,0,0-.88-10.31c.46,1,1,3.24-.41,6.67-2,5-10.52,6.27-10.52,6.27a13.88,13.88,0,0,0,1.15-4.77c-.88,2.75-11.13,5.12-11.13,5.12-1.12-2.62,7.38-6.25,7.38-6.25-8.13-1.87-26.25,4.25-26.25,4.25,1.37-1.62,1.74-6.34,1.74-6.34-.88,5.41-20.82,6.72-20.82,6.72,2-5.5,0-23.47,0-23.47.68,6.42-9.26,18-9.26,18C286.25,822.18,280,816,280,816s3.47,5.69,2.72,9.84-10.22,10-10.22,10l3-10c-3.37,4.41-45.25,13.26-45.25,13.26,1.25-2.74,8.2-8,8.2-8-5.72.79-61.45,19.28-61.45,19.28,2.5-2.5,6.54-10,6.54-10-2.7,5-58.84,20.2-58.84,20.2-1.64-1.56,4.8-9.34,4.8-9.34-3.49,1.36-43.17,21.65-43.17,21.65,1.34-1.5,3-11.67,3-11.67S84.8,866,75.86,870.86s-60.28,20.26-60.28,20.26l1.42-4.5c-2.5,3.67-17,12.13-17,12.13C0,898.91.08,1000,.08,1000h1400V890.62l0-13C1400.11,881,1391.83,879,1391.83,879Z"
              style="fill: #173023"/>
        <path d="M994,916.22c-77.5,20.44-158,24.07-226.5,8.57s-350.5-79-465-79C188.22,845.79.72,907.88,0,908.12,0,933.21.08,1000,.08,1000h1400V890.62S1361.5,879.29,1272,868.79,1071.5,895.79,994,916.22Z"
              style="opacity: 0.05"/>
    </g>
</svg>
