<svg width="0" height="0" class="hidden">
	<symbol fill="none" viewBox="0 0 213 238" xmlns="http://www.w3.org/2000/svg" id="monody">
		<path clip-rule="evenodd" d="M102.693 237.901C83.5841 237.901 64.4748 237.966 45.3665 237.882C25.0835 237.794 8.26559 225.498 2.0219 206.368C-3.57541 189.217 2.75135 169.075 17.2569 158.218C19.068 156.863 19.2681 155.931 18.0984 153.891C7.26202 135.002 1.94486 114.53 4.03209 92.9309C8.23858 49.4262 30.2056 18.2677 71.0977 1.15308C75.2832 -0.59841 79.2716 -0.559495 82.7646 2.70495C86.3528 6.05923 86.4498 10.0083 85.068 14.4923C74.3947 49.1218 81.2267 79.7783 106.901 105.62C112.368 111.122 119.423 115.06 125.777 119.675C127.388 120.845 129.066 120.886 131.079 120.26C143.539 116.387 154.187 119.44 163.166 128.834C164.062 129.77 165.721 130.426 167.036 130.445C177.795 130.604 188.266 128.922 198.466 125.41C204.964 123.172 210.979 126.643 212.233 133.3C212.543 134.95 212.217 136.911 211.61 138.512C207.225 150.047 201.15 160.616 192.849 169.816C191.299 171.533 191.174 172.655 192.663 174.569C210.299 197.236 197.217 231.643 168.933 236.977C165.429 237.638 161.794 237.844 158.218 237.861C139.711 237.947 121.202 237.901 102.693 237.901ZM145.312 171.927C147.824 165.447 150.212 159.463 152.458 153.427C153.743 149.972 153.958 146.42 152.339 142.977C148.9 135.664 140.265 133.357 133.069 137.922C128.04 141.112 123.135 144.5 118.123 147.834C115.316 143.014 112.531 138.417 109.926 133.721C104.288 123.561 95.8904 117.385 84.2715 115.819C66.1398 113.374 48.5094 127.008 47.5018 145.458C47.2306 150.425 47.4398 155.425 47.6319 160.403C47.7069 162.362 47.0295 163.28 45.2145 163.834C42.0756 164.792 38.9918 165.928 35.8929 167.013C24.3801 171.044 16.7726 181.772 16.9567 193.696C17.1428 205.697 25.2676 216.37 37.0466 219.764C39.6912 220.527 42.5359 220.921 45.2905 220.926C83.6051 221.001 121.921 220.993 160.235 220.973C176.258 220.965 187.393 206.394 182.632 191.455C179.563 181.828 172.365 177.009 162.625 175.372C156.952 174.416 151.337 173.137 145.312 171.927ZM60.0973 29.7228C42.0796 42.2107 30.914 59.1996 26.0711 80.1825C21.7165 99.0516 23.3065 117.527 31.5213 136.098C38.7066 114.439 53.1141 102.311 75.1681 98.6525C62.6227 77.2334 57.6318 54.3503 60.0973 29.7228ZM168.502 159.54C170.563 159.732 173.179 160.767 174.155 159.92C177.216 157.264 179.66 153.899 182.342 150.809C182.164 150.567 181.987 150.326 181.809 150.083C178.109 150.355 174.409 150.626 170.61 150.905C169.942 153.643 169.294 156.3 168.502 159.54Z" fill="currentColor" fill-rule="evenodd"/>
	</symbol>
	<symbol fill="none" viewBox="0 0 1080 1080" xmlns="http://www.w3.org/2000/svg" id="villager">
		<path
			d="M420,1013c5.49-5.31,11-10.59,16.46-15.94q9.57-9.4,19-18.89c8.32-8.33,16.55-16.76,24.95-25,8.19-8,16.61-15.88,24.79-23.95,6.35-6.26,12.43-12.81,18.75-19.12,9.93-9.91,20-19.65,29.93-29.59,6.28-6.31,12.2-13,18.49-19.27,8.24-8.23,16.75-16.2,25-24.38,6.27-6.19,12.35-12.56,18.55-18.8,8-8,16-16,24-24.06Q650,783.9,660.05,773.77q11.63-11.73,23.26-23.46c8.28-8.31,16.56-16.63,24.91-24.86s17-16.41,25.35-24.7c8.18-8.1,16.2-16.36,24.35-24.48,8.42-8.4,17-16.65,25.36-25.12,8-8,15.63-16.36,23.56-24.43s15.77-15.71,23.67-23.56c6.51-6.47,13-13,19.55-19.42,8.41-8.29,16.87-16.53,25.26-24.83q9.34-9.24,18.57-18.59c6-6.08,12-12.21,18.07-18.29q13-13.06,26-26.1c5-5,10-9.9,15.3-15.24-1.67-2.91-3.58-5.86-5.11-9-4.61-9.46-9.43-18.85-13.47-28.56-3.49-8.38-6.89-17-8.78-25.81-2.72-12.74-4.26-25.75-5.85-38.7a118.43,118.43,0,0,1-.94-21.28c.55-9.44,2.06-18.83,3.32-28.21.81-6,1.32-12.11,3-17.87,3-10.38,6.53-20.67,10.47-30.75a179.33,179.33,0,0,1,22.1-40.33,223,223,0,0,1,29-32.34c10.16-9.4,19.46-19.72,29.19-29.58,5.91-6,11.9-11.93,17.88-17.86q13.78-13.69,27.61-27.35c11.07-11,22.24-21.85,33.18-33s21.48-22.64,32.54-33.65c12.61-12.56,25.7-24.65,38.38-37.15,8.68-8.54,17-17.44,25.51-26.15C1192.49,2,1193.79,1,1195,0h2c4.55,4.72,9,9.49,13.66,14.14,14,14.11,28.19,28.14,42.2,42.29a102.08,102.08,0,0,1,6.52,8c-6.42,6-12,11-17.23,16.22-8.25,8.24-16.26,16.72-24.44,25-6.92,7-13.93,14-20.91,21q-8.85,8.88-17.73,17.72-12.63,12.58-25.28,25.15c-10,10-20.1,19.95-30,30-6.11,6.2-11.89,12.74-18,18.89-6.34,6.32-13,12.26-19.45,18.51-6.24,6.09-12.25,12.41-18.45,18.54-7.33,7.25-14.93,14.23-22.07,21.66a106.8,106.8,0,0,0-11,13.76c-7.35,10.8-13.63,22.23-17.86,34.64-5.66,16.65-7,33.9-5.66,51.25a98.08,98.08,0,0,0,9.48,34.44c7.17-6.61,14.46-13.25,21.65-20,6.31-5.9,12.58-11.83,18.73-17.88,6.38-6.28,12.55-12.75,18.88-19.06,10.23-10.22,20.59-20.31,30.77-30.58,6.08-6.13,11.83-12.58,17.88-18.75,7.84-8,15.79-15.85,23.77-23.7,6.46-6.37,13.07-12.6,19.55-19q12.75-12.53,25.38-25.15c6.21-6.19,12.33-12.47,18.52-18.69,8.3-8.34,16.69-16.6,25-25,8-8.15,15.83-16.51,23.93-24.59s16.79-16.13,25.07-24.3,16.1-16.28,24.2-24.38c6.28-6.28,12.72-12.39,19-18.71,6.48-6.57,13-13.13,19.13-20,2.51-2.82,4.32-3.15,6.88-.55q11.14,11.33,22.35,22.61c8.7,8.74,17.46,17.42,26.14,26.18,4.51,4.53,8.92,9.16,13.26,13.64L1086,477.49c9.92,2.89,19.17,6.48,28.74,8.11a113,113,0,0,0,26.89.93c9.27-.68,18.79-1.93,27.51-4.93,9.82-3.38,20-6.43,28.45-13.28,6.3-5.1,13.71-8.83,20.14-13.79,4.44-3.42,8.1-7.87,12-11.91,4.72-4.83,9.31-9.78,14.09-14.56,6.29-6.28,12.72-12.43,19.07-18.66,4.8-4.7,9.64-9.37,14.33-14.18,6-6.17,11.88-12.55,18-18.68,4.76-4.79,9.9-9.21,14.67-14,6.19-6.23,12.1-12.73,18.29-19,4.41-4.44,9.14-8.56,13.61-12.95,6.11-6,12.13-12.11,18.13-18.24,4.61-4.71,9-9.62,13.71-14.26,6.11-6.05,12.45-11.87,18.6-17.88,4.81-4.71,9.49-9.55,14.2-14.36,8.3-8.49,16.55-17,24.87-25.48a22.39,22.39,0,0,1,3.48-2.42l38.43,38.63c6.53,6.56,13.12,13.05,19.56,19.69,1.86,1.92,4.65,4.3,4.56,6.37s-3.06,4.25-5,6.18c-9.54,9.68-19.08,19.36-28.74,28.92-6.87,6.79-14.08,13.25-20.9,20.11-9.85,9.91-19.39,20.16-29.26,30.06-7.9,7.92-16.25,15.41-24.15,23.34-10.07,10.1-19.81,20.54-29.86,30.67-6.42,6.46-13.27,12.48-19.72,18.91-6.12,6.1-11.87,12.56-18,18.68-4.77,4.8-9.9,9.23-14.71,14-8,7.93-15.92,16-23.9,24-3.4,3.41-6.59,7.1-10.34,10.07-8.47,6.67-17,13.41-25.94,19.33-13.59,9-29,14.36-43.79,21-2.62,1.17-5.68,1.33-8.48,2.16-2.37.7-4.64,1.71-7,2.55a21.16,21.16,0,0,1-4.15,1.35c-8.36,1.1-16.73,2.23-25.12,3.06s-17,1.64-25.49,1.93c-8.91.31-17.73,0-26.54-2.56-6.76-1.94-14.18-1.44-21-3.1-9.33-2.25-18.48-5.31-27.56-8.44a177.25,177.25,0,0,1-19.41-8,148.63,148.63,0,0,1-16.2-9.4c-2.8-1.82-5.07-1.43-7.1.59-8.12,8.07-16.1,16.28-24.15,24.42q-7.05,7.13-14.13,14.22t-14,14.08c-7.75,7.76-15.56,15.44-23.24,23.25-10,10.16-19.81,20.5-29.88,30.59-6.85,6.87-14.11,13.33-21,20.19-7.72,7.72-15.11,15.8-22.83,23.53-4.43,4.43-9.39,8.33-13.83,12.74-8.43,8.37-16.62,17-25,25.41q-11.7,11.81-23.51,23.5c-9.51,9.4-19.15,18.66-28.6,28.12-10.41,10.4-20.63,21-31,31.44-10.59,10.68-21.3,21.26-31.88,32-9.76,9.87-19.28,20-29.13,29.73-7.55,7.48-15.58,14.46-23.18,21.89-9.05,8.84-17.83,18-26.79,26.9-12.76,12.73-25.64,25.34-38.36,38.13-8.73,8.77-17.24,17.75-25.88,26.62-7.2,7.39-14.37,14.81-21.67,22.09s-15,14.6-22.49,21.94c-9.22,9-18.45,18.1-27.55,27.27-4.47,4.49-8.65,9.27-13,13.92h-3a23.5,23.5,0,0,0-2.55-4c-4.32-4.49-8.75-8.86-13.17-13.24L420,1018Z"
			transform="translate(-420)" fill="currentColor" />
	</symbol>
	<symbol fill="none" xmlns="http://www.w3.org/2000/svg" viewBox="0 0 72 72" id="werewolves">
		<path
			d="M65.307 45.325c-2.59.339-4.616-.452-6.53-1.583a2.636 2.636 0 0 1-.788-.791l.788-.791 1.351-1.018c-3.827-.904-7.205-3.052-9.681-5.991 1.35-.566 2.701-.905 3.715-1.583 1.013-.678 1.688-1.809 2.702-2.94-.45-.112-.788-.225-1.239-.225-4.503.678-7.767-1.583-10.47-4.974a33.271 33.271 0 0 0-2.814-2.827c-1.013-1.017-2.589-1.47-4.052-1.356-2.364.339-3.94-1.13-5.517-2.487-2.026-1.583-4.052-3.279-6.191-4.861-1.238-.905-2.252-.453-2.702 1.017-.45 1.357-.563 2.713-.9 4.07-.113.452-.45.791-.563 1.243-.113.452 0 .905.225 1.244l.788-.905c.338.679.675 1.357 1.013 1.922l3.04 5.087c.45.792 1.013 1.583.337 2.374-.675.905-1.576.905-2.476.679-.563-.113-1.126-.113-1.576-.226-1.69-.113-3.378-.34-4.166-1.81-.563.34-1.013.68-1.576 1.131-.675.566-.337 1.13.113 1.583.675.565 1.35 1.017 2.139 1.47 4.052 2.035 5.966 5.539 6.867 9.722.563 1.921.788 3.843.9 5.878.113 2.374-.225 4.748-.45 7.122 0 .452 0 .791.113 1.13.563-.451 1.125-.79 1.8-1.243l1.69-1.017c.225.678.675 1.47.562 2.148-.45 2.374-1.125 4.634-1.688 7.008-.113.34-.226.566-.338.905 2.026-.565 3.377-1.696 4.953-3.052.225.904.563 1.582.563 2.374 0 2.6-.563 5.2-1.689 7.46-.337.792-1.013.792-1.688.792-5.967-.678-11.595-2.713-16.549-6.105C-.775 54.934-4.94 32.325 6.43 15.707c2.139-3.165 4.728-5.878 7.768-8.252C18.25 4.289 22.866 2.14 27.819 1.01 32.547-.12 37.501-.346 42.341.558c8.218 1.47 15.648 5.765 20.94 12.21 4.39 5.2 7.317 11.53 8.33 18.313 1.013 6.67 0 13-2.477 19.105-.225.452-.563.678-1.013.791-2.364.113-4.728-.339-6.867-1.47-.338-.225-.788-.678-.788-.79a2.213 2.213 0 0 1 1.013-1.018l3.377-1.696s.113-.113.45-.678z"
			fill="currentColor" />
	</symbol>
	<symbol fill="none" xmlns="http://www.w3.org/2000/svg" viewBox="0 0 600 600" id="loners">
		<path
			d="M600,293.93a17.53,17.53,0,0,0-11.29-11L385,215,317.06,11.25A17.52,17.52,0,0,0,306.14,0H293.83a17.49,17.49,0,0,0-10.92,11.25L215,215,11.26,282.9A17.51,17.51,0,0,0,0,293.84v12.28a17.51,17.51,0,0,0,11.26,10.94L215,385l67.92,203.74a17.48,17.48,0,0,0,11,11.29H306a17.48,17.48,0,0,0,11-11.29L385,385l203.74-67.91A17.53,17.53,0,0,0,600,306Z"
			fill="currentColor" />
		<path
			d="M487.85,51,457.1,40.76,446.84,10a5,5,0,0,0-9.49,0L427.11,40.76,396.36,51a5,5,0,0,0,0,9.48l30.75,10.25,10.26,30.75a5,5,0,0,0,9.49,0L457.1,70.74l30.75-10.25A5,5,0,0,0,487.85,51Z"
			fill="currentColor" />
		<path
			d="M592.53,144.23,546.88,129,531.65,83.37a7,7,0,0,0-13.28,0L503.16,129l-45.65,15.22a7,7,0,0,0,0,13.28l45.66,15.21,15.22,45.65a7,7,0,0,0,13.28,0l15.21-45.66,45.65-15.22A7,7,0,0,0,592.53,144.23Z"
			fill="currentColor" />
	</symbol>
	<symbol fill="none" xmlns="http://www.w3.org/2000/svg" viewBox="0 0 36 36" id="fr">
		<path d="M36 27C36 28.0609 35.5786 29.0783 34.8284 29.8284C34.0783 30.5786 33.0609 31 32 31H24V5H32C33.0609 5 34.0783 5.42143 34.8284 6.17157C35.5786 6.92172 36 7.93913 36 9V27Z" fill="#ED2939"/>
		<path d="M4 5C2.93913 5 1.92172 5.42143 1.17157 6.17157C0.421427 6.92172 0 7.93913 0 9L0 27C0 28.0609 0.421427 29.0783 1.17157 29.8284C1.92172 30.5786 2.93913 31 4 31H12V5H4Z" fill="#002495"/>
		<path d="M12 5H24V31H12V5Z" fill="#EEEEEE"/>
	</symbol>
	<symbol fill="none" xmlns="http://www.w3.org/2000/svg" viewBox="0 0 36 36" id="en">
		<path d="M0 9.059V13H5.628L0 9.059ZM4.664 31H13V25.163L4.664 31ZM23 25.164V31H31.335L23 25.164ZM0 23V26.941L5.63 23H0ZM31.337 5H23V10.837L31.337 5ZM36 26.942V23H30.369L36 26.942ZM36 13V9.059L30.371 13H36ZM13 5H4.664L13 10.837V5Z" fill="#00247D"/>
		<path d="M25.14 23L34.852 29.801C35.3263 29.3124 35.6672 28.7101 35.842 28.052L28.627 23H25.14ZM13 23H10.859L1.14798 29.8C1.66898 30.33 2.33698 30.709 3.08598 30.885L13 23.943V23ZM23 13H25.141L34.852 6.19999C34.322 5.66227 33.6503 5.28602 32.915 5.11499L23 12.057V13ZM10.859 13L1.14798 6.19999C0.673936 6.68896 0.332797 7.29103 0.156982 7.94899L7.37198 13H10.859Z" fill="#CF1B2B"/>
		<path d="M36 21H21V31H23V25.164L31.335 31H32C32.5313 31.0001 33.0572 30.8941 33.5469 30.6882C34.0367 30.4823 34.4804 30.1807 34.852 29.801L25.14 23H28.627L35.842 28.052C35.935 27.715 36 27.366 36 27V26.942L30.369 23H36V21ZM0 21V23H5.63L0 26.941V27C0 28.091 0.439 29.078 1.148 29.8L10.859 23H13V23.943L3.086 30.884C3.38 30.954 3.684 31 4 31H4.664L13 25.163V31H15V21H0ZM36 9C36.0006 7.95198 35.5881 6.94595 34.852 6.2L25.141 13H23V12.057L32.915 5.115C32.6155 5.04153 32.3084 5.00294 32 5H31.337L23 10.837V5H21V15H36V13H30.371L36 9.059V9ZM13 5V10.837L4.664 5H4C3.46862 4.99977 2.94257 5.10581 2.45278 5.3119C1.96299 5.51798 1.51936 5.81993 1.148 6.2L10.859 13H7.372L0.157 7.949C0.0577802 8.29071 0.00497341 8.64421 0 9L0 9.059L5.628 13H0V15H15V5H13Z" fill="#EEEEEE"/>
		<path d="M21 15V5H15V15H0V21H15V31H21V21H36V15H21Z" fill="#CF1B2B"/>
	</symbol>
	<symbol fill="none" xmlns="http://www.w3.org/2000/svg" viewBox="0 0 40 40" id="external">
		<path d="M35.5556 22.2222V35.5556C35.5556 36.7343 35.0873 37.8648 34.2538 38.6983C33.4203 39.5317 32.2899 40 31.1111 40H4.44444C3.2657 40 2.13524 39.5317 1.30175 38.6983C0.468252 37.8648 0 36.7343 0 35.5556V8.88889C0 7.71015 0.468252 6.57969 1.30175 5.74619C2.13524 4.9127 3.2657 4.44444 4.44444 4.44444H17.7778V8.88889H4.44444V35.5556H31.1111V22.2222H35.5556ZM22.2222 0V4.44444H32.4133L15.0956 21.7622L18.2378 24.9044L35.5556 7.58667V17.7778H40V0H22.2222Z" fill="currentColor"/>
	</symbol>

	<!-- Counter -->
    <symbol fill="none" xmlns="http://www.w3.org/2000/svg" viewBox="0 0 30.5 29.5" id="day">
		<path d="M15.0001 5.2583C15.2211 5.2583 15.4331 5.1705 15.5893 5.01422C15.7456 4.85794 15.8334 4.64598 15.8334 4.42497V1.59163C15.8334 1.37062 15.7456 1.15866 15.5893 1.00238C15.4331 0.846098 15.2211 0.758301 15.0001 0.758301C14.7791 0.758301 14.5671 0.846098 14.4108 1.00238C14.2545 1.15866 14.1667 1.37062 14.1667 1.59163V4.42497C14.1667 4.64598 14.2545 4.85794 14.4108 5.01422C14.5671 5.1705 14.7791 5.2583 15.0001 5.2583Z"
			  fill="currentColor"/>
		<path d="M15.0001 24.7417C14.7791 24.7417 14.5671 24.8295 14.4108 24.9858C14.2545 25.1421 14.1667 25.354 14.1667 25.575V28.4084C14.1667 28.6294 14.2545 28.8413 14.4108 28.9976C14.5671 29.1539 14.7791 29.2417 15.0001 29.2417C15.2211 29.2417 15.4331 29.1539 15.5893 28.9976C15.7456 28.8413 15.8334 28.6294 15.8334 28.4084V25.575C15.8334 25.354 15.7456 25.1421 15.5893 24.9858C15.4331 24.8295 15.2211 24.7417 15.0001 24.7417V24.7417Z"
			  fill="currentColor"/>
		<path d="M6.93329 8.11662C7.08825 8.25748 7.29056 8.33483 7.49996 8.33329C7.60963 8.33392 7.71835 8.3129 7.81988 8.27143C7.92141 8.22996 8.01376 8.16886 8.09162 8.09162C8.16973 8.01415 8.23173 7.92199 8.27403 7.82044C8.31634 7.71889 8.33812 7.60997 8.33812 7.49996C8.33812 7.38995 8.31634 7.28103 8.27403 7.17948C8.23173 7.07793 8.16973 6.98576 8.09162 6.90829L6.10829 4.93329C5.94887 4.79677 5.74381 4.72543 5.53408 4.73353C5.32435 4.74163 5.1254 4.82858 4.97699 4.97699C4.82858 5.1254 4.74163 5.32435 4.73353 5.53408C4.72543 5.74381 4.79677 5.94887 4.93329 6.10829L6.93329 8.11662Z"
			  fill="currentColor"/>
		<path d="M23.0666 21.8833C22.9889 21.8056 22.8967 21.7439 22.7951 21.7019C22.6936 21.6598 22.5848 21.6382 22.4749 21.6382C22.365 21.6382 22.2562 21.6598 22.1547 21.7019C22.0532 21.7439 21.961 21.8056 21.8833 21.8833C21.8056 21.961 21.7439 22.0532 21.7019 22.1547C21.6598 22.2562 21.6382 22.365 21.6382 22.4749C21.6382 22.5848 21.6598 22.6936 21.7019 22.7951C21.7439 22.8967 21.8056 22.9889 21.8833 23.0666L23.8916 25.0666C23.9688 25.1453 24.0608 25.208 24.1624 25.2509C24.2639 25.2938 24.373 25.3161 24.4833 25.3166C24.7031 25.3135 24.9127 25.2236 25.0666 25.0666C25.2218 24.9105 25.3089 24.6992 25.3089 24.4791C25.3089 24.2589 25.2218 24.0477 25.0666 23.8916L23.0666 21.8833Z"
			  fill="currentColor"/>
		<path d="M5.2583 15.0001C5.2583 14.7791 5.1705 14.5671 5.01422 14.4108C4.85794 14.2545 4.64598 14.1667 4.42497 14.1667H1.59163C1.37062 14.1667 1.15866 14.2545 1.00238 14.4108C0.846098 14.5671 0.758301 14.7791 0.758301 15.0001C0.758301 15.2211 0.846098 15.4331 1.00238 15.5893C1.15866 15.7456 1.37062 15.8334 1.59163 15.8334H4.42497C4.64598 15.8334 4.85794 15.7456 5.01422 15.5893C5.1705 15.4331 5.2583 15.2211 5.2583 15.0001Z"
			  fill="currentColor"/>
		<path d="M28.4084 14.1667H25.575C25.354 14.1667 25.1421 14.2545 24.9858 14.4108C24.8295 14.5671 24.7417 14.7791 24.7417 15.0001C24.7417 15.2211 24.8295 15.4331 24.9858 15.5893C25.1421 15.7456 25.354 15.8334 25.575 15.8334H28.4084C28.6294 15.8334 28.8413 15.7456 28.9976 15.5893C29.1539 15.4331 29.2417 15.2211 29.2417 15.0001C29.2417 14.7791 29.1539 14.5671 28.9976 14.4108C28.8413 14.2545 28.6294 14.1667 28.4084 14.1667Z"
			  fill="currentColor"/>
		<path d="M6.93327 21.8833L4.93327 23.8916C4.81626 24.0077 4.73628 24.1558 4.70346 24.3173C4.67064 24.4788 4.68645 24.6464 4.74888 24.799C4.81132 24.9515 4.91759 25.0821 5.05424 25.1742C5.19089 25.2664 5.3518 25.3159 5.51661 25.3166C5.62686 25.3161 5.73593 25.2938 5.8375 25.2509C5.93906 25.208 6.03109 25.1453 6.10827 25.0666L8.11661 23.0666C8.27353 22.9097 8.36168 22.6968 8.36168 22.4749C8.36168 22.253 8.27353 22.0402 8.11661 21.8833C7.95969 21.7263 7.74686 21.6382 7.52494 21.6382C7.30302 21.6382 7.09019 21.7263 6.93327 21.8833V21.8833Z"
			  fill="currentColor"/>
		<path d="M22.5 8.33334C22.6097 8.33398 22.7184 8.31296 22.82 8.27149C22.9215 8.23002 23.0138 8.16891 23.0917 8.09168L25.0917 6.08334C25.2469 5.92721 25.334 5.716 25.334 5.49584C25.334 5.27569 25.2469 5.06448 25.0917 4.90834C24.9356 4.75313 24.7244 4.66602 24.5042 4.66602C24.284 4.66602 24.0728 4.75313 23.9167 4.90834L21.9084 6.90834C21.8303 6.98581 21.7683 7.07798 21.726 7.17953C21.6836 7.28108 21.6619 7.39 21.6619 7.50001C21.6619 7.61002 21.6836 7.71894 21.726 7.82049C21.7683 7.92204 21.8303 8.01421 21.9084 8.09168C21.9862 8.16891 22.0786 8.23002 22.1801 8.27149C22.2816 8.31296 22.3904 8.33398 22.5 8.33334Z"
			  fill="currentColor"/>
		<path d="M15.1084 6.45846C13.4343 6.43697 11.7917 6.91375 10.3893 7.82817C8.98686 8.7426 7.88803 10.0534 7.23246 11.5939C6.57689 13.1344 6.39418 14.835 6.70757 16.4796C7.02095 18.1242 7.81628 19.6385 8.99244 20.8299C10.1686 22.0214 11.6725 22.8362 13.3129 23.1708C14.9533 23.5054 16.6561 23.3447 18.205 22.709C19.7538 22.0734 21.0787 20.9916 22.0111 19.6011C22.9436 18.2107 23.4415 16.5743 23.4417 14.9001C23.4528 12.6766 22.5818 10.5394 21.0197 8.95698C19.4576 7.37457 17.3318 6.47608 15.1084 6.45846V6.45846ZM15.1084 21.6668C13.7636 21.6883 12.4429 21.3091 11.3144 20.5775C10.1859 19.8458 9.30074 18.7949 8.77155 17.5585C8.24235 16.3221 8.09312 14.9562 8.34285 13.6346C8.59257 12.3131 9.22996 11.0958 10.1738 10.1378C11.1177 9.17976 12.3254 8.52432 13.643 8.25495C14.9607 7.98557 16.3287 8.11446 17.5728 8.62518C18.817 9.13591 19.881 10.0054 20.6293 11.1228C21.3777 12.2403 21.7765 13.5552 21.775 14.9001C21.7839 16.6802 21.0876 18.3914 19.8383 19.6594C18.589 20.9274 16.8884 21.6492 15.1084 21.6668V21.6668Z"
			  fill="currentColor"/>
    </symbol>
    <symbol fill="none" xmlns="http://www.w3.org/2000/svg" viewBox="0 0 30 30" id="night">
        <path d="M12.658 5.07563C12.2282 6.91052 12.1698 8.81284 12.4861 10.6707C12.8024 12.5285 13.4871 14.3043 14.4999 15.8936C15.5126 17.4829 16.833 18.8535 18.3834 19.925C19.9337 20.9964 21.6827 21.747 23.5274 22.1325C22.5575 23.136 21.396 23.9344 20.1116 24.4803C18.8273 25.0263 17.4464 25.3086 16.0508 25.3106C15.9214 25.3106 15.7902 25.3153 15.6589 25.3106C13.2293 25.225 10.9064 24.291 9.09381 22.6708C7.28122 21.0506 6.09349 18.8466 5.73695 16.4418C5.38041 14.0369 5.87759 11.5831 7.14212 9.50669C8.40666 7.43029 10.3586 5.86247 12.6589 5.07563H12.658ZM14.0436 2.8125C13.9886 2.81269 13.9337 2.8177 13.8796 2.8275C10.8951 3.35861 8.2127 4.97502 6.34871 7.3655C4.48472 9.75598 3.57096 12.7515 3.78337 15.7754C3.99578 18.7992 5.31933 21.6376 7.4992 23.744C9.67907 25.8505 12.5611 27.076 15.5905 27.1847C15.7442 27.1903 15.898 27.1847 16.0499 27.1847C18.0176 27.186 19.9568 26.7134 21.7033 25.8069C23.4498 24.9005 24.9524 23.5867 26.0839 21.9769C26.1756 21.8381 26.2291 21.6777 26.2391 21.5117C26.2491 21.3457 26.2151 21.18 26.1407 21.0312C26.0663 20.8825 25.954 20.756 25.8152 20.6644C25.6764 20.5729 25.5159 20.5195 25.3499 20.5097C23.477 20.3453 21.667 19.7525 20.0597 18.777C18.4525 17.8016 17.0911 16.4696 16.0807 14.8841C15.0703 13.2986 14.4381 11.502 14.2328 9.63315C14.0275 7.76431 14.2547 5.87329 14.8967 4.10625C14.9514 3.96481 14.9714 3.81237 14.9552 3.66162C14.939 3.51086 14.8869 3.36617 14.8035 3.2396C14.72 3.11302 14.6075 3.00822 14.4753 2.93393C14.3432 2.85964 14.1951 2.818 14.0436 2.8125V2.8125Z"
              fill="currentColor"/>
    </symbol>
	<symbol fill="none" xmlns="http://www.w3.org/2000/svg" viewBox="0 0 20 20" id="wait">
		<path fill-rule="evenodd" clip-rule="evenodd"
			  d="M3.95825 1.66663C3.79249 1.66663 3.63352 1.73247 3.51631 1.84968C3.3991 1.96689 3.33325 2.12587 3.33325 2.29163C3.33325 2.45739 3.3991 2.61636 3.51631 2.73357C3.63352 2.85078 3.79249 2.91663 3.95825 2.91663H4.58325V5.40163C4.58325 6.07006 4.75253 6.72762 5.07529 7.31296C5.39806 7.89831 5.8638 8.39239 6.42909 8.74913L8.13242 9.82413C8.16202 9.84294 8.18639 9.86891 8.20327 9.89965C8.22016 9.93039 8.22901 9.96489 8.22901 9.99996C8.22901 10.035 8.22016 10.0695 8.20327 10.1003C8.18639 10.131 8.16202 10.157 8.13242 10.1758L6.42909 11.2508C5.8638 11.6075 5.39806 12.1016 5.07529 12.687C4.75253 13.2723 4.58325 13.9299 4.58325 14.5983V17.0833H3.95825C3.79249 17.0833 3.63352 17.1491 3.51631 17.2664C3.3991 17.3836 3.33325 17.5425 3.33325 17.7083C3.33325 17.8741 3.3991 18.033 3.51631 18.1502C3.63352 18.2674 3.79249 18.3333 3.95825 18.3333H16.0416C16.2073 18.3333 16.3663 18.2674 16.4835 18.1502C16.6007 18.033 16.6666 17.8741 16.6666 17.7083C16.6666 17.5425 16.6007 17.3836 16.4835 17.2664C16.3663 17.1491 16.2073 17.0833 16.0416 17.0833H15.4166V14.5983C15.4166 13.9299 15.2473 13.2723 14.9245 12.687C14.6018 12.1016 14.136 11.6075 13.5708 11.2508L11.8674 10.1758C11.8378 10.157 11.8134 10.131 11.7966 10.1003C11.7797 10.0695 11.7708 10.035 11.7708 9.99996C11.7708 9.96489 11.7797 9.93039 11.7966 9.89965C11.8134 9.86891 11.8378 9.84294 11.8674 9.82413L13.5708 8.74913C14.136 8.39239 14.6018 7.89831 14.9245 7.31296C15.2473 6.72762 15.4166 6.07006 15.4166 5.40163V2.91663H16.0416C16.2073 2.91663 16.3663 2.85078 16.4835 2.73357C16.6007 2.61636 16.6666 2.45739 16.6666 2.29163C16.6666 2.12587 16.6007 1.96689 16.4835 1.84968C16.3663 1.73247 16.2073 1.66663 16.0416 1.66663H3.95825ZM14.1666 2.91663H5.83325V5.40163C5.83336 5.85895 5.94927 6.3088 6.17018 6.70923C6.39109 7.10966 6.70979 7.44763 7.09658 7.69163L8.79992 8.76663C9.0082 8.89805 9.17981 9.08008 9.29873 9.29575C9.41766 9.51141 9.48003 9.75368 9.48003 9.99996C9.48003 10.2462 9.41766 10.4885 9.29873 10.7042C9.17981 10.9198 9.0082 11.1019 8.79992 11.2333L7.09658 12.3083C6.70979 12.5523 6.39109 12.8903 6.17018 13.2907C5.94927 13.6911 5.83336 14.141 5.83325 14.5983V17.0833H14.1666V14.5983C14.1665 14.141 14.0506 13.6911 13.8297 13.2907C13.6088 12.8903 13.29 12.5523 12.9033 12.3083L11.1999 11.2333C10.9916 11.1019 10.82 10.9198 10.7011 10.7042C10.5822 10.4885 10.5198 10.2462 10.5198 9.99996C10.5198 9.75368 10.5822 9.51141 10.7011 9.29575C10.82 9.08008 10.9916 8.89805 11.1999 8.76663L12.9033 7.69163C13.29 7.44763 13.6088 7.10966 13.8297 6.70923C14.0506 6.3088 14.1665 5.85895 14.1666 5.40163V2.91663Z"
			  fill="white"/>
	</symbol>
	<symbol fill="none" xmlns="http://www.w3.org/2000/svg" viewBox="0 0 40 40" id="trophy">
		<path d="M10 7.5H3.75V8.75C3.75 13.0641 6.37109 17.5 10 17.5M30 7.5H36.25V8.75C36.25 13.0641 33.6289 17.5 30 17.5" stroke="currentColor" stroke-width="3" stroke-linecap="round" stroke-linejoin="round"/>
		<path d="M13.75 36.25H26.25M20 36.25V26.25M30 17.5C30 13.5438 29.9937 6.98203 29.9906 5C29.9906 4.66848 29.8589 4.35054 29.6245 4.11612C29.39 3.8817 29.0721 3.75 28.7406 3.75L11.257 3.77031C10.9261 3.77031 10.6088 3.90147 10.3745 4.13505C10.1402 4.36862 10.008 4.68556 10.007 5.01641C10.007 7.40547 9.99683 15.1078 9.99683 17.5C9.99683 22.5219 16.4812 26.25 19.9968 26.25C23.5125 26.25 30 22.5219 30 17.5Z" stroke="currentColor" stroke-width="3" stroke-linecap="round" stroke-linejoin="round"/>
	</symbol>
	<symbol fill="none" xmlns="http://www.w3.org/2000/svg" viewBox="0 0 40 40" id="death">
		<path d="M8.125 3.75C7.62772 3.75 7.15081 3.94754 6.79917 4.29917C6.44754 4.65081 6.25 5.12772 6.25 5.625C6.25 5.9175 6.32875 6.2 6.445 6.445C6.18956 6.31987 5.90943 6.25325 5.625 6.25C5.12772 6.25 4.65081 6.44754 4.29917 6.79917C3.94754 7.15081 3.75 7.62772 3.75 8.125C3.75 8.62228 3.94754 9.09919 4.29917 9.45083C4.65081 9.80246 5.12772 10 5.625 10C6.3375 10 6.94875 9.60875 7.26625 9.02375L10.6638 12.4613C9.76642 13.7885 9.16687 15.2942 8.90625 16.875C8.49625 19.365 8.98 21.7138 10 23.75V25C10 25.8875 10.3325 26.7 10.86 27.3438L7.265 30.9375C7.09858 30.6505 6.85922 30.4126 6.5712 30.248C6.28318 30.0833 5.95675 29.9978 5.625 30C5.12772 30 4.65081 30.1975 4.29917 30.5492C3.94754 30.9008 3.75 31.3777 3.75 31.875C3.75 32.3723 3.94754 32.8492 4.29917 33.2008C4.65081 33.5525 5.12772 33.75 5.625 33.75C5.9175 33.75 6.2 33.6712 6.445 33.555C6.31764 33.8096 6.2509 34.0903 6.25 34.375C6.25 34.8723 6.44754 35.3492 6.79917 35.7008C7.15081 36.0525 7.62772 36.25 8.125 36.25C8.62228 36.25 9.09919 36.0525 9.45083 35.7008C9.80246 35.3492 10 34.8723 10 34.375C10 33.6763 9.62875 33.0562 9.0625 32.7337L13.125 28.6712C13.33 28.7063 13.535 28.75 13.75 28.75C13.75 30.8062 15.4438 32.5 17.5 32.5H22.5C24.5562 32.5 26.25 30.8062 26.25 28.75C26.465 28.75 26.67 28.7063 26.875 28.6712L30.9375 32.7337C30.3713 33.0562 30 33.6763 30 34.375C30 34.8723 30.1975 35.3492 30.5492 35.7008C30.9008 36.0525 31.3777 36.25 31.875 36.25C32.3723 36.25 32.8492 36.0525 33.2008 35.7008C33.5525 35.3492 33.75 34.8723 33.75 34.375C33.75 34.0825 33.6712 33.8 33.555 33.555C33.7987 33.6712 34.0825 33.75 34.375 33.75C34.8723 33.75 35.3492 33.5525 35.7008 33.2008C36.0525 32.8492 36.25 32.3723 36.25 31.875C36.25 31.3777 36.0525 30.9008 35.7008 30.5492C35.3492 30.1975 34.8723 30 34.375 30C33.6763 30 33.0562 30.3713 32.7337 30.9375L29.14 27.3438C29.6899 26.6859 29.9939 25.8574 30 25V23.7887C30.7712 22.2663 31.25 20.5713 31.25 18.75C31.2481 16.5047 30.567 14.3124 29.2962 12.4613L32.7337 9.02375C33.0513 9.60875 33.6625 10 34.375 10C34.8723 10 35.3492 9.80246 35.7008 9.45083C36.0525 9.09919 36.25 8.62228 36.25 8.125C36.25 7.62772 36.0525 7.15081 35.7008 6.79917C35.3492 6.44754 34.8723 6.25 34.375 6.25C34.0825 6.25 33.8 6.32875 33.555 6.445C33.6712 6.20125 33.75 5.9175 33.75 5.625C33.75 5.12772 33.5525 4.65081 33.2008 4.29917C32.8492 3.94754 32.3723 3.75 31.875 3.75C31.3777 3.75 30.9008 3.94754 30.5492 4.29917C30.1975 4.65081 30 5.12772 30 5.625C30 6.3375 30.3913 6.94875 30.9762 7.26625L27.6562 10.5475C25.562 8.58064 22.7943 7.49017 19.9212 7.5C19.5063 7.5 19.0963 7.52875 18.6713 7.57875C16.2905 7.84865 14.059 8.8752 12.305 10.5075L9.02375 7.265C9.60875 6.95 10 6.3375 10 5.625C10 5.12772 9.80246 4.65081 9.45083 4.29917C9.09919 3.94754 8.62228 3.75 8.125 3.75ZM19.9613 10C21.1148 9.9904 22.2588 10.2099 23.3269 10.6457C24.395 11.0816 25.366 11.7251 26.1835 12.539C27.001 13.3529 27.6488 14.3211 28.0894 15.3872C28.53 16.4534 28.7545 17.5964 28.75 18.75C28.75 20.2875 28.355 21.7138 27.6562 22.9688L27.5 23.2812V25C27.5 25.7075 26.9575 26.25 26.25 26.25H23.75V28.75C23.75 29.4575 23.2075 30 22.5 30H17.5C16.7925 30 16.25 29.4575 16.25 28.75V26.25H13.75C13.0425 26.25 12.5 25.7075 12.5 25V23.2812L12.3438 22.9688C11.3778 21.2343 11.0334 19.2219 11.3675 17.265C11.9825 13.4963 15.185 10.5075 18.985 10.0775C19.3162 10.04 19.6338 10 19.96 10H19.9613ZM16.25 18.75C15.587 18.75 14.9511 19.0134 14.4822 19.4822C14.0134 19.9511 13.75 20.587 13.75 21.25C13.75 21.913 14.0134 22.5489 14.4822 23.0178C14.9511 23.4866 15.587 23.75 16.25 23.75C16.913 23.75 17.5489 23.4866 18.0178 23.0178C18.4866 22.5489 18.75 21.913 18.75 21.25C18.75 20.587 18.4866 19.9511 18.0178 19.4822C17.5489 19.0134 16.913 18.75 16.25 18.75ZM23.75 18.75C23.087 18.75 22.4511 19.0134 21.9822 19.4822C21.5134 19.9511 21.25 20.587 21.25 21.25C21.25 21.913 21.5134 22.5489 21.9822 23.0178C22.4511 23.4866 23.087 23.75 23.75 23.75C24.413 23.75 25.0489 23.4866 25.5178 23.0178C25.9866 22.5489 26.25 21.913 26.25 21.25C26.25 20.587 25.9866 19.9511 25.5178 19.4822C25.0489 19.0134 24.413 18.75 23.75 18.75ZM18.75 25V27.5H21.25V25H18.75Z" fill="white"/>
	</symbol>
	<symbol fill="none" xmlns="http://www.w3.org/2000/svg" viewBox="-2.5 -2.5 45 45" id="hunter">
		<path d="M25.3729 15.9754C27.1167 17.8467 28.2049 19.4994 26.3883 21.5892C24.4578 23.8111 23.5016 23.9887 19.6134 22.1766C20.3919 24.2983 20.9838 25.9101 21.7715 28.0591C21.0794 28.3232 20.137 28.9697 19.1899 28.9879C17.2412 29.0243 15.8935 29.7756 14.8554 31.3828C13.2938 33.8004 11.6774 36.1817 10.0338 38.5447C8.73618 40.4114 7.82102 40.457 6.23657 38.827C5.91786 38.4992 5.62647 38.1531 5.31686 37.8162C3.00848 35.2711 3.00848 35.0935 5.43525 32.6576C6.82392 31.2599 8.18981 29.8393 9.61946 28.4825C11.4407 26.7615 13.2209 25.1543 12.884 22.1902C12.7838 21.2978 13.7126 20.0958 14.4684 19.3264C20.5194 13.1616 26.6569 7.07877 32.7352 0.941291C33.6503 0.0170271 34.3424 -0.483808 35.5307 0.668107C36.7874 1.88832 36.3503 2.66687 35.3031 3.63211C33.9645 4.86143 32.7169 6.19092 31.433 7.47942C30.2264 8.69053 28.7558 9.71041 29.0836 11.8321C29.161 12.3375 28.5464 13.0478 28.0956 13.5122C27.267 14.3727 26.32 15.1194 25.3684 15.9663L25.3729 15.9754ZM21.5256 20.4055C22.4636 21.8215 23.3559 22.0081 24.5944 20.7424C25.8738 19.4311 25.4959 18.5888 23.9706 17.6463C23.192 18.5205 22.4135 19.4038 21.5256 20.4055Z" fill="currentColor"/>
	</symbol>

	<!-- Game page -->
    <symbol fill="none" xmlns="http://www.w3.org/2000/svg" viewBox="0 0 40 40" id="send">
        <path d="M5.44192 4.10199L36.1519 19.234C36.3194 19.3165 36.4604 19.4443 36.559 19.6028C36.6576 19.7613 36.7099 19.9443 36.7099 20.131C36.7099 20.3177 36.6576 20.5007 36.559 20.6592C36.4604 20.8177 36.3194 20.9455 36.1519 21.028L5.43992 36.16C5.26786 36.2445 5.07514 36.2778 4.8847 36.2559C4.69426 36.234 4.51413 36.1578 4.36577 36.0364C4.2174 35.915 4.10705 35.7535 4.04787 35.5712C3.98868 35.3889 3.98314 35.1934 4.03192 35.008L7.96992 20.14L4.02992 5.25599C3.98033 5.07022 3.98536 4.8741 4.04438 4.69111C4.10341 4.50812 4.21394 4.34603 4.36274 4.22425C4.51153 4.10247 4.69228 4.02617 4.88332 4.00449C5.07437 3.9828 5.26762 4.01666 5.43992 4.10199H5.44192ZM6.52792 6.86799L9.74792 19.032L9.87192 19.008L9.99992 19H23.9999C24.2498 18.9995 24.4908 19.0927 24.6755 19.261C24.8601 19.4294 24.9751 19.6608 24.9977 19.9096C25.0202 20.1585 24.9488 20.4068 24.7975 20.6057C24.6461 20.8045 24.4258 20.9395 24.1799 20.984L23.9999 21H9.99992C9.93823 21.0003 9.87664 20.9949 9.81592 20.984L6.52992 33.396L33.4459 20.132L6.52792 6.86799Z"
              fill="currentColor" fill-opacity="0.2"/>
    </symbol>
	<symbol fill="none" xmlns="http://www.w3.org/2000/svg" viewBox="0 0 40 40" id="lock">
		<path d="M20.1 22.8778C19.5018 22.8823 18.9223 23.0871 18.454 23.4593C17.9857 23.8316 17.6556 24.3499 17.5162 24.9317C17.3768 25.5134 17.4363 26.1251 17.6851 26.6692C17.9339 27.2132 18.3577 27.6583 18.8889 27.9334V31.1111H21.1111V28.0334C21.6848 27.7982 22.1592 27.3713 22.4532 26.8255C22.7472 26.2796 22.8427 25.6487 22.7234 25.0402C22.6041 24.4318 22.2773 23.8836 21.7989 23.4893C21.3205 23.0949 20.72 22.8788 20.1 22.8778Z"
			  fill="currentColor" />
		<path d="M28.8889 16.6666V11.9111C28.9366 9.50207 28.0281 7.17224 26.3623 5.4314C24.6964 3.69057 22.4088 2.68049 20 2.62219C17.5912 2.68049 15.3036 3.69057 13.6377 5.4314C11.9719 7.17224 11.0634 9.50207 11.1111 11.9111V16.6666H7.77777V35.5555C7.77777 36.1449 8.0119 36.7101 8.42864 37.1269C8.84539 37.5436 9.41062 37.7777 9.99999 37.7777H30C30.5894 37.7777 31.1546 37.5436 31.5713 37.1269C31.9881 36.7101 32.2222 36.1449 32.2222 35.5555V16.6666H28.8889ZM13.3333 11.9111C13.2854 10.0913 13.9597 8.32662 15.2089 7.0025C16.4581 5.67838 18.1806 4.90251 20 4.84441C21.8194 4.90251 23.5419 5.67838 24.7911 7.0025C26.0403 8.32662 26.7146 10.0913 26.6667 11.9111V16.6666H13.3333V11.9111ZM9.99999 35.5555V18.8889H30V35.5555H9.99999Z"
			  fill="currentColor" />
	</symbol>
	<symbol fill="currentColor" xmlns="http://www.w3.org/2000/svg" width="12" height="12" viewBox="0 0 12 12" id="arrow_down">
		<path d="M11 0.200822L5.78486 9.16776L0.588703 0.167764L11 0.200822Z" />
	</symbol>
	<symbol fill="none" xmlns="http://www.w3.org/2000/svg" viewBox="0 0 40 60" id="mayor">
		<rect x="6" y="6" width="28" height="26" fill="#FFFCF1"/>
		<path d="M28.46 32L20 26.9L11.54 32L13.78 22.38L6.32 15.92L16.16 15.08L20 6L23.84 15.06L33.68 15.9L26.22 22.36L28.46 32ZM20 0C8.94 0 0 9 0 20C0 25.3043 2.10714 30.3914 5.85786 34.1421C7.71504 35.9993 9.91982 37.4725 12.3463 38.4776C14.7728 39.4827 17.3736 40 20 40C25.3043 40 30.3914 37.8929 34.1421 34.1421C37.8929 30.3914 40 25.3043 40 20C40 17.3736 39.4827 14.7728 38.4776 12.3463C37.4725 9.91982 35.9993 7.71504 34.1421 5.85786C32.285 4.00069 30.0802 2.5275 27.6537 1.52241C25.2272 0.517315 22.6264 0 20 0Z" fill="#FFC700"/>
		<path d="M20 52L8 60V36H32V60L20 52Z" fill="#FFC700"/>
	</symbol>
	<symbol fill="none" xmlns="http://www.w3.org/2000/svg" viewBox="0 0 40 40" id="target">
		<circle cx="20" cy="20" r="15" stroke="currentColor" stroke-width="4"/>
		<circle cx="20" cy="20" r="1.5" stroke="currentColor" stroke-width="3"/>
		<rect y="18" width="12" height="4" fill="currentColor"/>
		<rect x="28" y="18" width="12" height="4" fill="currentColor"/>
		<rect x="18" y="12" width="12" height="4" transform="rotate(-90 18 12)" fill="currentColor"/>
		<rect x="18" y="40" width="12" height="4" transform="rotate(-90 18 40)" fill="currentColor"/>
	</symbol>
	<symbol fill="none" xmlns="http://www.w3.org/2000/svg" viewBox="0 0 24 24" id="leave">
		<path d="M19 19H13C12.45 19 12 19.45 12 20C12 20.55 12.45 21 13 21H19C20.1 21 21 20.1 21 19L21 5C21 3.9 20.1 3 19 3H13C12.45 3 12 3.45 12 4C12 4.55 12.45 5 13 5H19L19 19Z" fill="currentColor"/>
		<path d="M3.35 12.35L6.14 15.14C6.20955 15.2115 6.29884 15.2605 6.39643 15.2809C6.49403 15.3014 6.5955 15.2922 6.68786 15.2546C6.78021 15.217 6.85925 15.1527 6.91485 15.07C6.97046 14.9872 7.00011 14.8897 7 14.79V13H14C14.55 13 15 12.55 15 12C15 11.45 14.55 11 14 11H7V9.21001C7 8.76001 6.46 8.54001 6.15 8.86001L3.36 11.65C3.16 11.84 3.16 12.16 3.35 12.35V12.35Z" fill="currentColor"/>
	</symbol>
	<symbol fill="none" xmlns="http://www.w3.org/2000/svg" viewBox="0 0 24 24" id="enter">
		<path d="M19 19H13C12.45 19 12 19.45 12 20C12 20.55 12.45 21 13 21H19C20.1 21 21 20.1 21 19L21 5C21 3.9 20.1 3 19 3H13C12.45 3 12 3.45 12 4C12 4.55 12.45 5 13 5H19L19 19Z" fill="currentColor"/>
		<path d="M14.8587 11.65L12.0687 8.86001C11.9992 8.78856 11.9099 8.73949 11.8123 8.71908C11.7147 8.69866 11.6132 8.70784 11.5209 8.74542C11.4285 8.78301 11.3495 8.8473 11.2939 8.93006C11.2383 9.01283 11.2086 9.1103 11.2087 9.21001V11H4.20874C3.65874 11 3.20874 11.45 3.20874 12C3.20874 12.55 3.65874 13 4.20874 13H11.2087V14.79C11.2087 15.24 11.7487 15.46 12.0587 15.14L14.8487 12.35C15.0487 12.16 15.0487 11.84 14.8587 11.65V11.65Z" fill="currentColor"/>
	</symbol>
	<symbol fill="none" xmlns="http://www.w3.org/2000/svg" viewBox="0 0 600 600" id="parasite">
		<path
			d="M1027,597.74c-7.18,7.37-13.69,14.7-20.91,21.27-7,6.32-14.57,12-22.07,17.66-2.3,1.75-3.25,3.25-2.37,6.21,3.53,11.8,6.79,23.68,10.23,35.51,2,7-.48,12.66-7.25,15.32q-23.24,9.13-46.6,18c-3.29,1.23-4.68,2.77-4.44,6.5.46,7.46.61,15,.38,22.44-.28,8.8-5.4,12.9-14.14,11.95-4.37-.47-11.23-7.89-11.42-13-.38-10,.3-20.05-.79-29.94-1.3-11.9,4.3-16.89,14.84-20.28,14.06-4.51,27.62-10.57,41.92-16.18-2-7.19-4-14.18-6.1-21.81-3.54,1.23-6.77,2.31-10,3.45-19.34,6.93-39,9.72-59.37,5.2-28.31-6.28-48.16-27.08-53-55.72-3-18-1-35.48,4.77-52.65.79-2.34,1.43-4.72,2.09-6.91-.42-.52-.57-.91-.84-1-10.08-3.79-10.19-3.69-14,6.44q-7.17,19.19-14.53,38.3c-2.74,7.12-6.24,9.21-13.73,9-10.65-.28-21.31-.61-32-.39-7.41.16-11.47-4.66-14.53-9.77-4.45-7.41,2.39-16.38,11.94-16.33,6.82,0,13.66,0,20.44.6,4.33.38,6.49-.73,8.06-5,5.55-15.17,11.57-30.17,17.43-45.22,3-7.69,8.17-10.24,16.27-8,7.55,2.1,15.13,4.06,22.57,6.5,3.36,1.1,5.09.3,6.86-2.58a186.22,186.22,0,0,1,29.76-36.51c3.87-3.74,8.31-6.88,13-10.75-9.78-4.46-18.44-7.93-29.13-5-17.18,4.62-34.72,7.91-52.13,11.65-10.33,2.22-18.08-4.23-17.6-14.58.21-4.7,2-8.29,7.17-9.43,18.7-4.1,37.67-7.32,56-12.81,14-4.2,26.06-1.14,38.55,4,8.91,3.68,17.87,7.42,27.11,10,5.75,1.63,12.07,1.31,18.14,1.53.36,0,1.57-3.24,1.12-4.54-3.06-8.8-6.16-17.62-9.85-26.18a24.28,24.28,0,0,1-.76-17.48c3.8-12.61,7.53-25.23,10.94-37.94a16.58,16.58,0,0,0-.31-8.64c-1.74-5.72-4.18-11.24-6.28-16.86-2.55-6.83-.08-13.23,6.08-15.88,5.78-2.49,14,.3,16.47,6.38,4.08,9.83,8.35,19.72,10.92,30,1.2,4.82-1,10.7-2.32,15.9-3,11.41-6.63,22.65-9.74,34a12.43,12.43,0,0,0,.24,6.73c2,6,4.51,11.84,6.49,17.84,1,2.87,2.24,3.26,5.13,2.84,7.37-1.06,14.83-1.45,22.23-2.31a11.87,11.87,0,0,0,5.76-1.93c7.17-5.68,15.12-9.22,24.34-8.64,3.7.24,4.8-1,5.75-4.26,2.36-8,5.6-15.68,7.72-23.7,3.06-11.6.21-22-7.71-31.1-7.12-8.16-4.15-19.5,5.66-21a11.55,11.55,0,0,1,8.1,2.22c25.23,20.42,23.19,48.89,15.87,69.37-2.12,5.92-4.42,11.77-7.11,18.92,2.95-.77,4.75-1.18,6.5-1.71,9.53-2.91,18.9-6.54,28.6-8.63a53.6,53.6,0,0,1,40.34,7.21c5.67,3.51,10.18,9,14.81,14,2.28,2.46.79,9.66-1.92,12.57-3.42,3.67-10.25,4.68-14.76,1.91-3.54-2.17-6.71-4.94-10.3-7-10.53-6.1-21.44-4.86-32.34-1.05-5.49,1.92-11,3.83-16.33,6.16a5.48,5.48,0,0,0-2.69,4.19c.5,10-3.16,18.51-8.94,26.4a11.36,11.36,0,0,0-1.83,5.34c-.82,7.42-1.16,14.9-2.2,22.28-.4,2.82.15,4.08,2.77,4.62a3.54,3.54,0,0,1,.93.37c13.28,7.49,26.58,7.15,40.5,1.29,7.78-3.27,16.2-5.1,24.46-7.08a18.92,18.92,0,0,1,9.77.07c8.56,2.74,16.9,6.16,25.31,9.35a14.7,14.7,0,0,1,9.13,9.23,11.5,11.5,0,0,1-2.31,12.14,11.09,11.09,0,0,1-11.92,3.11,37.41,37.41,0,0,1-7-2.69c-11.21-6.12-22.33-5.51-34-1-9.14,3.51-18.75,5.92-28.3,8.19a20.94,20.94,0,0,1-10.66-.7c-9.5-3.06-18.81-6.73-28.2-10.13-1.21-.44-2.48-.67-5-1.33.64,7.83,0,15.32,2,22,4.46,14.44,10.38,28.43,15.49,42.68a15.08,15.08,0,0,1,.78,7.79q-7.15,33.7-14.82,67.3c-1.84,8-5.2,10.17-12.68,9.45-6.93-.66-11.92-5.4-12.27-12.21a36.71,36.71,0,0,1,1.07-9.36c3.62-16.77,7.16-33.55,11.19-50.22,1.57-6.5,1.27-12.42-1.65-18.36C1028.77,603,1028,600.39,1027,597.74Z"
			transform="translate(-660 -240)"
			fill="currentColor" />
	</symbol>
	<symbol fill="none" xmlns="http://www.w3.org/2000/svg" viewBox="0 0 40 40" id="guard">
		<path fill-rule="evenodd" clip-rule="evenodd" d="M20.0334 37.3325C20.1184 37.3187 20.202 37.2978 20.2834 37.27C20.4734 37.2125 20.7184 37.1175 21.0184 36.975C21.6184 36.6925 22.3859 36.25 23.2509 35.6425C25.4249 34.0777 27.3521 32.196 28.9684 30.06C32.7859 25.0675 35.9859 17.4825 34.6009 7.09C34.5696 6.86689 34.476 6.65712 34.331 6.4847C34.186 6.31227 33.9954 6.18415 33.7809 6.115C32.1534 5.5825 29.4059 4.715 26.6884 3.9775C23.9134 3.225 21.3609 2.6675 20.0334 2.6675V37.3325ZM12.7135 1.4C15.426 0.6625 18.3084 0 20.0334 0C21.7584 0 24.6409 0.6625 27.3534 1.4C30.1284 2.15 32.9259 3.0375 34.5709 3.575C35.2587 3.80213 35.8685 4.21866 36.3301 4.77675C36.7918 5.33484 37.0867 6.01185 37.1809 6.73C38.6709 17.9225 35.2134 26.2175 31.0184 31.705C29.2395 34.0525 27.1184 36.1196 24.7259 37.8375C23.8987 38.4319 23.0222 38.9547 22.1059 39.4C21.4059 39.73 20.6534 40 20.0334 40C19.4134 40 18.6634 39.73 17.9609 39.4C17.0447 38.9547 16.1682 38.432 15.341 37.8375C12.9485 36.1196 10.8274 34.0524 9.04846 31.705C4.85346 26.2175 1.39596 17.9225 2.88596 6.73C2.98018 6.01185 3.27507 5.33484 3.73675 4.77675C4.19844 4.21866 4.80819 3.80213 5.49596 3.575C7.88394 2.79202 10.2905 2.06681 12.7135 1.4Z" fill="currentColor"/>
	</symbol>
	<symbol fill="none" xmlns="http://www.w3.org/2000/svg" viewBox="0 0 40 40" id="heart">
		<path d="M20.0002 35.5833L17.5835 33.3833C9.00016 25.6 3.3335 20.45 3.3335 14.1667C3.3335 9.01667 7.36683 5 12.5002 5C15.4002 5 18.1835 6.35 20.0002 8.46667C21.8168 6.35 24.6002 5 27.5002 5C32.6335 5 36.6668 9.01667 36.6668 14.1667C36.6668 20.45 31.0002 25.6 22.4168 33.3833L20.0002 35.5833Z" fill="currentColor"/>
	</symbol>
	<symbol fill="none" xmlns="http://www.w3.org/2000/svg" viewBox="0 0 40 40" id="crown">
		<path d="M4.44444 28.6667L0 4.22222L12.2222 15.3333L20 2L27.7778 15.3333L40 4.22222L35.5556 28.6667H4.44444ZM35.5556 35.3333C35.5556 36.6667 34.6667 37.5556 33.3333 37.5556H6.66667C5.33333 37.5556 4.44444 36.6667 4.44444 35.3333V33.1111H35.5556V35.3333Z" fill="currentColor"/>
	</symbol>
	<symbol fill="none" xmlns="http://www.w3.org/2000/svg" viewBox="0 0 40 40" id="muted">
		<path d="M20 2.22222L15.3556 6.86667L20 11.5111M2.82222 0L0 2.82222L10.5111 13.3333H0V26.6667H8.88889L20 37.7778V22.8222L29.4444 32.2889C27.9556 33.4222 26.2889 34.3556 24.4444 34.8889V39.4889C27.5111 38.7778 30.2889 37.3778 32.6222 35.4667L37.1778 40L40 37.1778L20 17.1778M35.5556 20C35.5556 22.0889 35.1111 24.0444 34.3556 25.8667L37.7111 29.2222C39.2108 26.3793 39.9964 23.2142 40 20C40 10.4889 33.3333 2.53333 24.4444 0.511111V5.08889C30.8667 7 35.5556 12.9556 35.5556 20ZM30 20C30 16.0667 27.7778 12.6889 24.4444 11.0444V15.9556L29.8889 21.4C30 20.9556 30 20.4667 30 20Z" fill="currentColor"/>
	</symbol>
	<symbol fill="none" xmlns="http://www.w3.org/2000/svg" viewBox="-5 -5 50 50" id="investigator">
		<path d="M14.3333 25.6667L3 37M10.5556 16.2222C10.5556 14.4859 10.8976 12.7665 11.562 11.1623C12.2265 9.5581 13.2005 8.1005 14.4283 6.8727C15.6561 5.6449 17.1137 4.67096 18.7179 4.00648C20.322 3.342 22.0414 3 23.7778 3C25.5141 3 27.2335 3.342 28.8377 4.00648C30.4419 4.67096 31.8995 5.6449 33.1273 6.8727C34.3551 8.1005 35.329 9.5581 35.9935 11.1623C36.658 12.7665 37 14.4859 37 16.2222C37 19.729 35.6069 23.0921 33.1273 25.5717C30.6477 28.0514 27.2845 29.4444 23.7778 29.4444C20.271 29.4444 16.9079 28.0514 14.4283 25.5717C11.9486 23.0921 10.5556 19.729 10.5556 16.2222Z" stroke-width="5" stroke-linecap="round" stroke-linejoin="round" stroke="currentColor"/>
	</symbol>
	<symbol fill="none" xmlns="http://www.w3.org/2000/svg" viewBox="0 0 40 40" id="investigator_crossed">
		<path d="M2 2L38 38" stroke="currentColor" stroke-width="4"/>
		<path fill-rule="evenodd" clip-rule="evenodd" d="M35.0307 27.2022C37.8943 24.2675 39.5 20.3277 39.5 16.2222C39.5 14.1576 39.0933 12.1131 38.3032 10.2056C37.5131 8.29808 36.355 6.56488 34.8951 5.10493C33.4351 3.64499 31.7019 2.4869 29.7944 1.69678C27.8869 0.906667 25.8424 0.5 23.7778 0.5C21.7131 0.5 19.6686 0.906667 17.7611 1.69678C15.9131 2.46228 14.2286 3.57317 12.7978 4.96933L16.3337 8.50526C17.3 7.57315 18.4331 6.8304 19.6746 6.31618C20.9754 5.77734 22.3697 5.5 23.7778 5.5C25.1858 5.5 26.5801 5.77734 27.881 6.31618C29.1819 6.85502 30.3639 7.64482 31.3595 8.64047C32.3552 9.63612 33.145 10.8181 33.6838 12.119C34.2227 13.4199 34.5 14.8142 34.5 16.2222C34.5 19.0016 33.4209 21.6696 31.4947 23.6663L35.0307 27.2022ZM13.998 11.8265C13.9545 11.9233 13.9124 12.0208 13.8717 12.119C13.3329 13.4199 13.0556 14.8142 13.0556 16.2222C13.0556 19.0659 14.1852 21.7932 16.196 23.804C18.2068 25.8148 20.9341 26.9444 23.7778 26.9444C25.3079 26.9444 26.8043 26.6174 28.1735 26.002L31.8723 29.7007C29.4477 31.1567 26.6533 31.9444 23.7778 31.9444C20.4507 31.9444 17.2324 30.8899 14.5697 28.9659L4.76777 38.7678C3.79146 39.7441 2.20854 39.7441 1.23223 38.7678C0.255922 37.7915 0.255922 36.2085 1.23223 35.2322L11.0341 25.4303C9.11011 22.7676 8.05555 19.5493 8.05555 16.2222C8.05555 14.1576 8.46222 12.1131 9.25234 10.2056C9.55022 9.48644 9.9004 8.79207 10.2993 8.12777L13.998 11.8265Z" fill="currentColor"/>
	</symbol>

	<!-- Play page -->
	<symbol fill="none" xmlns="http://www.w3.org/2000/svg" viewBox="0 0 40 40" id="logout">
        <path d="M8.33333 8.33333H18.3333C19.25 8.33333 20 7.58333 20 6.66667C20 5.75 19.25 5 18.3333 5H8.33333C6.5 5 5 6.5 5 8.33333V31.6667C5 33.5 6.5 35 8.33333 35H18.3333C19.25 35 20 34.25 20 33.3333C20 32.4167 19.25 31.6667 18.3333 31.6667H8.33333V8.33333Z" fill="currentColor" />
        <path d="M34.4167 19.4167L29.7667 14.7667C29.6508 14.6476 29.5019 14.5658 29.3393 14.5318C29.1766 14.4978 29.0075 14.5131 28.8536 14.5757C28.6997 14.6383 28.5679 14.7455 28.4752 14.8834C28.3826 15.0214 28.3332 15.1838 28.3333 15.35V18.3333H16.6667C15.75 18.3333 15 19.0833 15 20C15 20.9167 15.75 21.6667 16.6667 21.6667H28.3333V24.65C28.3333 25.4 29.2333 25.7667 29.75 25.2333L34.4 20.5833C34.7333 20.2667 34.7333 19.7333 34.4167 19.4167Z" fill="currentColor" />
    </symbol>
    <symbol fill="none" xmlns="http://www.w3.org/2000/svg" viewBox="0 0 44 44" id="wheel">
        <path d="M17.7143 2V7.71429L14.8571 9.14286L10.5714 4.85714L4.85714 10.5714L9.14286 14.8571L7.71429 17.7143H2V26.2857H7.71429L9.14286 29.1429L4.85714 33.4286L10.5714 39.1429L14.8571 34.8571L17.7143 36.2857V42H26.2857V36.2857L29.1429 34.8571L33.4286 39.1429L39.1429 33.4286L34.8571 29.1429L36.2857 26.2857H42V17.7143H36.2857L34.8571 14.8571L39.1429 10.5714L33.4286 4.85714L29.1429 9.14286L26.2857 7.71429V2H17.7143Z" stroke="currentColor" stroke-width="2.5" stroke-linecap="round" stroke-linejoin="round" />
        <path d="M21.9999 27.7143C25.1558 27.7143 27.7142 25.1559 27.7142 22C27.7142 18.8441 25.1558 16.2857 21.9999 16.2857C18.844 16.2857 16.2856 18.8441 16.2856 22C16.2856 25.1559 18.844 27.7143 21.9999 27.7143Z" stroke="currentColor" stroke-width="2.5" stroke-linecap="round" stroke-linejoin="round" />
    </symbol>
	<symbol fill="none" xmlns="http://www.w3.org/2000/svg" viewBox="0 0 44 44" id="share">
		<path d="M9.2 29.2C13.1764 29.2 16.4 25.9765 16.4 22C16.4 18.0236 13.1764 14.8 9.2 14.8C5.22355 14.8 2 18.0236 2 22C2 25.9765 5.22355 29.2 9.2 29.2Z" stroke="currentColor" stroke-width="3" stroke-linecap="round" stroke-linejoin="round"/>
		<path d="M34.8001 42C38.7765 42 42.0001 38.7764 42.0001 34.8C42.0001 30.8235 38.7765 27.6 34.8001 27.6C30.8236 27.6 27.6001 30.8235 27.6001 34.8C27.6001 38.7764 30.8236 42 34.8001 42Z" stroke="currentColor" stroke-width="3" stroke-linecap="round" stroke-linejoin="round"/>
		<path d="M34.8001 16.4C38.7765 16.4 42.0001 13.1764 42.0001 9.2C42.0001 5.22355 38.7765 2 34.8001 2C30.8236 2 27.6001 5.22355 27.6001 9.2C27.6001 13.1764 30.8236 16.4 34.8001 16.4Z" stroke="currentColor" stroke-width="3" stroke-linecap="round" stroke-linejoin="round"/>
		<path d="M15.6001 18.8L28.4001 12.4M15.6001 25.2L28.4001 31.6L15.6001 25.2Z" stroke="currentColor" stroke-width="3" stroke-linecap="round" stroke-linejoin="round"/>
	</symbol>
	<symbol fill="none" xmlns="http://www.w3.org/2000/svg" viewBox="0 0 12 12" id="plus">
		<path d="M11.1429 6.85714H6.85714V11.1429C6.85714 11.3702 6.76684 11.5882 6.60609 11.7489C6.44535 11.9097 6.22733 12 6 12C5.77267 12 5.55465 11.9097 5.39391 11.7489C5.23316 11.5882 5.14286 11.3702 5.14286 11.1429V6.85714H0.857143C0.629814 6.85714 0.411797 6.76684 0.251051 6.60609C0.090306 6.44535 0 6.22733 0 6C0 5.77267 0.090306 5.55465 0.251051 5.39391C0.411797 5.23316 0.629814 5.14286 0.857143 5.14286H5.14286V0.857143C5.14286 0.629814 5.23316 0.411797 5.39391 0.251051C5.55465 0.0903056 5.77267 0 6 0C6.22733 0 6.44535 0.0903056 6.60609 0.251051C6.76684 0.411797 6.85714 0.629814 6.85714 0.857143V5.14286H11.1429C11.3702 5.14286 11.5882 5.23316 11.7489 5.39391C11.9097 5.55465 12 5.77267 12 6C12 6.22733 11.9097 6.44535 11.7489 6.60609C11.5882 6.76684 11.3702 6.85714 11.1429 6.85714Z" fill="currentColor"/>
	</symbol>
	<symbol fill="none" xmlns="http://www.w3.org/2000/svg" viewBox="0 0 12 12" id="minus">
		<path d="M11.1429 6.81438H0.857143C0.629814 6.81438 0.411797 6.72408 0.251051 6.56333C0.090306 6.40259 0 6.18457 0 5.95724C0 5.72991 0.090306 5.51189 0.251051 5.35115C0.411797 5.1904 0.629814 5.1001 0.857143 5.1001H11.1429C11.3702 5.1001 11.5882 5.1904 11.7489 5.35115C11.9097 5.51189 12 5.72991 12 5.95724C12 6.18457 11.9097 6.40259 11.7489 6.56333C11.5882 6.72408 11.3702 6.81438 11.1429 6.81438Z" fill="currentColor"/>
	</symbol>
	<symbol fill="none" xmlns="http://www.w3.org/2000/svg" viewBox="0 0 40 40" id="edit">
		<path d="M35.6751 13.5342L26.3733 4.32877L29.4374 1.26027C30.2764 0.420091 31.3073 0 32.53 0C33.7513 0 34.7814 0.420091 35.6204 1.26027L38.6845 4.32877C39.5235 5.16895 39.9612 6.18301 39.9977 7.37096C40.0342 8.55744 39.6329 9.57078 38.794 10.411L35.6751 13.5342ZM32.5016 16.7671L9.3018 40H0V30.6849L23.1998 7.45205L32.5016 16.7671Z" fill="#FFFCF1"/>
	</symbol>
	<symbol fill="none" xmlns="http://www.w3.org/2000/svg" viewBox="0 0 290 272" id="badges_light">
		<path d="M91.6899 78.37L131.712 19.3907C137.857 10.3346 151.318 10.6955 156.969 20.068L191.716 77.6961C193.686 80.9637 196.827 83.3577 200.5 84.3907L265.569 102.691C276.413 105.741 280.151 119.209 272.431 127.412L227.213 175.456C224.284 178.568 222.821 182.782 223.193 187.04L228.531 248.197C229.493 259.214 218.608 267.448 208.268 263.526L150.189 241.496C146.762 240.196 142.977 240.196 139.55 241.496L81.378 263.561C71.0609 267.475 60.1921 259.284 61.1101 248.288L66.2265 187.009C66.5804 182.769 65.1173 178.578 62.2015 175.48L16.6341 127.065C8.99183 118.945 12.5664 105.621 23.2469 102.417L83.588 84.3149C86.8918 83.3238 89.7531 81.2243 91.6899 78.37Z" fill="#FFF5CF"/>
		<path d="M99.9646 83.985L139.986 25.0057C142.035 21.987 146.522 22.1073 148.406 25.2315L183.152 82.8596C186.436 88.3055 191.671 92.2955 197.793 94.0172L262.862 112.318C266.476 113.334 267.722 117.824 265.149 120.558L219.931 168.602C215.049 173.789 212.611 180.813 213.231 187.91L218.569 249.066C218.889 252.739 215.261 255.483 211.814 254.176L153.736 232.146C148.024 229.979 141.716 229.979 136.003 232.146L77.8314 254.211C74.3924 255.516 70.7694 252.786 71.0755 249.12L76.1918 187.841C76.7818 180.775 74.3433 173.79 69.4835 168.627L23.9161 120.211C21.3687 117.505 22.5603 113.064 26.1204 111.995L86.4614 93.8932C91.9678 92.2413 96.7367 88.7421 99.9646 83.985Z" stroke="#0F1127" stroke-opacity="0.25" stroke-width="20"/>
		<path fill-rule="evenodd" clip-rule="evenodd" d="M142.972 208.159C133.52 208.159 124.068 208.191 114.616 208.15C104.583 208.106 96.2643 202.056 93.1759 192.644C90.4072 184.205 93.5367 174.295 100.712 168.953C101.608 168.286 101.707 167.827 101.128 166.824C95.7679 157.53 93.1378 147.457 94.1702 136.83C96.2509 115.424 107.117 100.093 127.344 91.6723C129.414 90.8105 131.387 90.8297 133.115 92.4359C134.89 94.0863 134.938 96.0293 134.254 98.2356C128.975 115.274 132.354 130.358 145.054 143.073C147.758 145.78 151.247 147.718 154.39 149.988C155.187 150.564 156.017 150.584 157.013 150.276C163.176 148.371 168.443 149.873 172.885 154.495C173.328 154.955 174.148 155.278 174.799 155.288C180.121 155.366 185.3 154.538 190.345 152.81C193.56 151.709 196.535 153.417 197.155 156.692C197.309 157.504 197.147 158.469 196.847 159.257C194.678 164.932 191.673 170.133 187.567 174.659C186.8 175.504 186.739 176.056 187.475 176.998C196.199 188.151 189.728 205.08 175.737 207.704C174.004 208.029 172.206 208.131 170.437 208.139C161.283 208.181 152.127 208.159 142.972 208.159ZM164.053 175.698C165.296 172.509 166.477 169.565 167.588 166.595C168.224 164.895 168.33 163.148 167.529 161.454C165.828 157.855 161.557 156.72 157.997 158.966C155.51 160.536 153.084 162.203 150.604 163.843C149.216 161.472 147.838 159.21 146.55 156.899C143.761 151.9 139.607 148.862 133.86 148.091C124.891 146.888 116.171 153.596 115.672 162.674C115.538 165.118 115.642 167.578 115.737 170.028C115.774 170.992 115.439 171.443 114.541 171.716C112.988 172.187 111.463 172.746 109.93 173.28C104.235 175.263 100.472 180.542 100.563 186.409C100.655 192.314 104.674 197.565 110.501 199.235C111.809 199.61 113.216 199.804 114.578 199.807C133.53 199.844 152.483 199.84 171.435 199.83C179.36 199.826 184.868 192.657 182.513 185.306C180.995 180.569 177.435 178.198 172.617 177.393C169.811 176.922 167.033 176.293 164.053 175.698ZM121.902 105.729C112.99 111.874 107.467 120.233 105.072 130.557C102.918 139.841 103.704 148.932 107.768 158.069C111.322 147.412 118.448 141.445 129.357 139.645C123.152 129.106 120.683 117.847 121.902 105.729ZM175.524 169.603C176.543 169.698 177.837 170.207 178.32 169.79C179.834 168.483 181.043 166.828 182.37 165.307C182.282 165.188 182.194 165.07 182.106 164.95C180.276 165.084 178.446 165.217 176.567 165.354C176.236 166.702 175.916 168.009 175.524 169.603Z" fill="#0F1127"/>
	</symbol>
	<symbol fill="none" xmlns="http://www.w3.org/2000/svg" viewBox="0 0 290 272" id="badges_dark">
		<path d="M91.6899 78.37L131.712 19.3907C137.857 10.3346 151.318 10.6955 156.969 20.068L191.716 77.6961C193.686 80.9637 196.827 83.3577 200.5 84.3907L265.569 102.691C276.413 105.741 280.151 119.209 272.431 127.412L227.213 175.456C224.284 178.568 222.821 182.782 223.193 187.04L228.531 248.197C229.493 259.214 218.608 267.448 208.268 263.526L150.189 241.496C146.762 240.196 142.977 240.196 139.55 241.496L81.378 263.561C71.0609 267.475 60.1921 259.284 61.1101 248.288L66.2265 187.009C66.5804 182.769 65.1173 178.578 62.2015 175.48L16.6341 127.065C8.99183 118.945 12.5664 105.621 23.2469 102.417L83.588 84.3149C86.8918 83.3238 89.7531 81.2243 91.6899 78.37Z" fill="#151840"/>
		<path d="M99.9646 83.985L139.986 25.0057C142.035 21.987 146.522 22.1073 148.406 25.2315L183.152 82.8596C186.436 88.3055 191.671 92.2955 197.793 94.0172L262.862 112.318C266.476 113.334 267.722 117.824 265.149 120.558L219.931 168.602C215.049 173.789 212.611 180.813 213.231 187.91L218.569 249.066C218.889 252.739 215.261 255.483 211.814 254.176L153.736 232.146C148.024 229.979 141.716 229.979 136.003 232.146L77.8314 254.211C74.3924 255.516 70.7694 252.786 71.0755 249.12L76.1918 187.841C76.7818 180.775 74.3433 173.79 69.4835 168.627L23.9161 120.211C21.3687 117.505 22.5603 113.064 26.1204 111.995L86.4614 93.8932C91.9678 92.2413 96.7367 88.7421 99.9646 83.985Z" stroke="#FFFCF1" stroke-opacity="0.25" stroke-width="20"/>
		<path fill-rule="evenodd" clip-rule="evenodd" d="M142.972 208.159C133.52 208.159 124.068 208.191 114.616 208.15C104.583 208.106 96.2643 202.056 93.1759 192.644C90.4072 184.205 93.5367 174.295 100.712 168.953C101.608 168.286 101.707 167.827 101.128 166.824C95.7679 157.53 93.1378 147.457 94.1702 136.83C96.2509 115.424 107.117 100.093 127.344 91.6723C129.414 90.8105 131.387 90.8297 133.115 92.4359C134.89 94.0863 134.938 96.0293 134.254 98.2356C128.975 115.274 132.354 130.358 145.054 143.073C147.758 145.78 151.247 147.718 154.39 149.988C155.187 150.564 156.017 150.584 157.013 150.276C163.176 148.371 168.443 149.873 172.885 154.495C173.328 154.955 174.148 155.278 174.799 155.288C180.121 155.366 185.3 154.538 190.345 152.81C193.56 151.709 196.535 153.417 197.155 156.692C197.309 157.504 197.147 158.469 196.847 159.257C194.678 164.932 191.673 170.133 187.567 174.659C186.8 175.504 186.739 176.056 187.475 176.998C196.199 188.151 189.728 205.08 175.737 207.704C174.004 208.029 172.206 208.131 170.437 208.139C161.283 208.181 152.127 208.159 142.972 208.159ZM164.053 175.698C165.296 172.509 166.477 169.565 167.588 166.595C168.224 164.895 168.33 163.148 167.529 161.454C165.828 157.855 161.557 156.72 157.997 158.966C155.51 160.536 153.084 162.203 150.604 163.843C149.216 161.472 147.838 159.21 146.55 156.899C143.761 151.9 139.607 148.862 133.86 148.091C124.891 146.888 116.171 153.596 115.672 162.674C115.538 165.118 115.642 167.578 115.737 170.028C115.774 170.992 115.439 171.443 114.541 171.716C112.988 172.187 111.463 172.746 109.93 173.28C104.235 175.263 100.472 180.542 100.563 186.409C100.655 192.314 104.674 197.565 110.501 199.235C111.809 199.61 113.216 199.804 114.578 199.807C133.53 199.844 152.483 199.84 171.435 199.83C179.36 199.826 184.868 192.657 182.513 185.306C180.995 180.569 177.435 178.198 172.617 177.393C169.811 176.922 167.033 176.293 164.053 175.698ZM121.902 105.729C112.99 111.874 107.467 120.233 105.072 130.557C102.918 139.841 103.704 148.932 107.768 158.069C111.322 147.412 118.448 141.445 129.357 139.645C123.152 129.106 120.683 117.847 121.902 105.729ZM175.524 169.603C176.543 169.698 177.837 170.207 178.32 169.79C179.834 168.483 181.043 166.828 182.37 165.307C182.282 165.188 182.194 165.07 182.106 164.95C180.276 165.084 178.446 165.217 176.567 165.354C176.236 166.702 175.916 168.009 175.524 169.603Z" fill="#FFFCF1"/>
	</symbol>
	<symbol fill="none" xmlns="http://www.w3.org/2000/svg" viewBox="0 0 40 40" id="vocal">
		<path d="M24.4444 1V5.57778C30.8667 7.48889 35.5556 13.4444 35.5556 20.4889C35.5556 27.5333 30.8667 33.4667 24.4444 35.3778V39.9778C33.3333 37.9556 40 30 40 20.4889C40 10.9778 33.3333 3.02222 24.4444 1ZM30 20.4889C30 16.5556 27.7778 13.1778 24.4444 11.5333V29.3778C27.7778 27.8 30 24.4 30 20.4889ZM0 13.8222V27.1556H8.88889L20 38.2667V2.71111L8.88889 13.8222H0Z" fill="currentColor"/>
	</symbol>
	<symbol fill="none" xmlns="http://www.w3.org/2000/svg" viewBox="0 0 48 48" id="private">
		<path d="M24.7619 35.5238C23.6505 35.5238 22.5847 35.0823 21.7988 34.2964C21.0129 33.5106 20.5714 32.4447 20.5714 31.3333C20.5714 29.0076 22.4362 27.1429 24.7619 27.1429C25.8733 27.1429 26.9392 27.5844 27.725 28.3702C28.5109 29.1561 28.9524 30.222 28.9524 31.3333C28.9524 32.4447 28.5109 33.5106 27.725 34.2964C26.9392 35.0823 25.8733 35.5238 24.7619 35.5238ZM37.3333 41.8095V20.8571H12.1905V41.8095H37.3333ZM37.3333 16.6667C38.4447 16.6667 39.5106 17.1082 40.2964 17.894C41.0823 18.6799 41.5238 19.7458 41.5238 20.8571V41.8095C41.5238 42.9209 41.0823 43.9868 40.2964 44.7726C39.5106 45.5585 38.4447 46 37.3333 46H12.1905C11.0791 46 10.0132 45.5585 9.22736 44.7726C8.4415 43.9868 8 42.9209 8 41.8095V20.8571C8 18.5314 9.86476 16.6667 12.1905 16.6667H14.2857V12.4762C14.2857 9.69773 15.3895 7.03307 17.3541 5.06841C19.3188 3.10374 21.9834 2 24.7619 2C26.1377 2 27.4999 2.27097 28.771 2.79745C30.042 3.32393 31.1969 4.0956 32.1697 5.06841C33.1425 6.04121 33.9142 7.1961 34.4406 8.46713C34.9671 9.73816 35.2381 11.1004 35.2381 12.4762V16.6667H37.3333ZM24.7619 6.19048C23.0948 6.19048 21.496 6.85272 20.3172 8.03152C19.1384 9.21032 18.4762 10.8091 18.4762 12.4762V16.6667H31.0476V12.4762C31.0476 10.8091 30.3854 9.21032 29.2066 8.03152C28.0278 6.85272 26.429 6.19048 24.7619 6.19048Z" fill="currentColor"/>
	</symbol>
	<symbol fill="none" xmlns="http://www.w3.org/2000/svg" viewBox="0 0 48 48" id="random_couple">
		<path d="M39.4 28.2C42.678 24.988 46 21.138 46 16.1C46 12.8909 44.7252 9.8132 42.456 7.54401C40.1868 5.27482 37.1091 4 33.9 4C30.028 4 27.3 5.1 24 8.4C20.7 5.1 17.972 4 14.1 4C10.8909 4 7.8132 5.27482 5.54401 7.54401C3.27482 9.8132 2 12.8909 2 16.1C2 21.16 5.3 25.01 8.6 28.2L24 43.6L39.4 28.2Z" stroke="currentColor" stroke-width="3" stroke-linecap="round" stroke-linejoin="round"/>
		<path d="M24.3105 11.9316C25.4824 11.9316 26.5469 12.1758 27.5039 12.6641C28.4609 13.1523 29.2129 13.8262 29.7598 14.6855C30.3262 15.5449 30.6094 16.5312 30.6094 17.6445C30.6094 18.3672 30.4238 19.0215 30.0527 19.6074C29.7012 20.1738 29.252 20.6914 28.7051 21.1602C28.1777 21.6289 27.6504 22.0684 27.123 22.4785C26.5957 22.8887 26.1562 23.2988 25.8047 23.709C25.4531 24.1191 25.2871 24.5488 25.3066 24.998L25.3359 25.6133H22.4941V24.4414C22.4941 24.0117 22.6602 23.6016 22.9922 23.2109C23.3438 22.8008 23.7734 22.4004 24.2812 22.0098C24.7891 21.5996 25.2969 21.1895 25.8047 20.7793C26.332 20.3496 26.7617 19.9102 27.0938 19.4609C27.4453 19.0117 27.6211 18.5332 27.6211 18.0254C27.6211 17.0684 27.3086 16.2773 26.6836 15.6523C26.0781 15.0273 25.1895 14.7148 24.0176 14.7148C22.8457 14.7148 21.8691 14.9492 21.0879 15.418C20.3262 15.8672 19.5938 16.541 18.8906 17.4395V14.2461C19.418 13.6016 20.1699 13.0547 21.1465 12.6055C22.123 12.1562 23.1777 11.9316 24.3105 11.9316ZM24.0469 28.4258C24.6133 28.4258 25.0918 28.6309 25.4824 29.041C25.8926 29.4316 26.0977 29.9102 26.0977 30.4766C26.0977 31.0234 25.8926 31.502 25.4824 31.9121C25.0918 32.3223 24.6133 32.5273 24.0469 32.5273C23.4805 32.5273 22.9922 32.3223 22.582 31.9121C22.1914 31.502 21.9961 31.0234 21.9961 30.4766C21.9961 29.9102 22.1914 29.4316 22.582 29.041C22.9922 28.6309 23.4805 28.4258 24.0469 28.4258Z" fill="currentColor"/>
	</symbol>
	<symbol fill="none" xmlns="http://www.w3.org/2000/svg" viewBox="0 0 40 40" id="trouple">
		<path d="M10.8568 16.8145L9.44274 15.8691C4.4225 12.527 1.10734 10.3147 0.656996 7.11032C0.287884 4.48395 2.09689 2.14085 4.76567 1.76578C6.27335 1.55389 7.81714 2.03898 8.91331 2.9857C9.70607 1.77351 11.0563 0.881679 12.564 0.669788C15.2328 0.294717 17.6176 2.04842 17.9867 4.67479C18.437 7.87913 15.8601 10.9195 11.9555 15.516L10.8568 16.8145Z" fill="currentColor"/>
		<path d="M27.5701 15.9814L26.8767 14.7917C24.4101 10.5784 22.7831 7.79227 23.5925 5.30099C24.256 3.25907 26.4037 2.19621 28.4786 2.87038C29.6508 3.25125 30.6019 4.15205 31.0635 5.22987C32.0705 4.62922 33.3694 4.4595 34.5416 4.84037C36.6165 5.51454 37.7293 7.63681 37.0658 9.67873C36.2564 12.17 33.3024 13.4677 28.8304 15.4265L27.5701 15.9814Z" fill="currentColor"/>
		<path d="M18.1222 39.4158L16.9801 37.4563C12.9174 30.5168 10.2376 25.9279 11.5708 21.8246C12.6636 18.4614 16.201 16.7108 19.6185 17.8212C21.5491 18.4485 23.1157 19.9322 23.8759 21.7075C25.5345 20.7181 27.6739 20.4386 29.6046 21.0659C33.022 22.1763 34.8549 25.6718 33.7621 29.035C32.4289 33.1383 27.5636 35.2757 20.1978 38.5018L18.1222 39.4158Z" fill="currentColor"/>
	</symbol>

	<!-- Stats -->
	<symbol fill="none" xmlns="http://www.w3.org/2000/svg" viewBox="0 0 32 32" id="win_rate">
		<path d="M8 6H3V7C3 10.4513 5.09687 14 8 14M24 6H29V7C29 10.4513 26.9031 14 24 14" stroke="currentColor" stroke-width="2.5" stroke-linecap="round" stroke-linejoin="round"/>
		<path d="M11.0001 29H21.0001M16.0001 29V21M24.0001 14C24.0001 10.835 23.9951 5.58563 23.9926 4C23.9926 3.73478 23.8872 3.48043 23.6997 3.29289C23.5121 3.10536 23.2578 3 22.9926 3L9.00568 3.01625C8.74101 3.01625 8.48713 3.12118 8.29968 3.30804C8.11223 3.4949 8.00651 3.74845 8.00568 4.01312C8.00568 5.92437 7.99756 12.0862 7.99756 14C7.99756 18.0175 13.1851 21 15.9976 21C18.8101 21 24.0001 18.0175 24.0001 14Z" stroke="currentColor" stroke-width="2.5" stroke-linecap="round" stroke-linejoin="round"/>
		<path d="M14.2761 9.27609C14.7967 8.75547 14.7967 7.91109 14.2761 7.39047C13.7555 6.86984 12.9111 6.86984 12.3905 7.39047C11.8698 7.91109 11.8698 8.75547 12.3905 9.27609C12.9113 9.79693 13.7555 9.79693 14.2761 9.27609ZM19.6094 12.7238C19.0888 12.2032 18.2444 12.2032 17.7238 12.7238C17.2032 13.2444 17.2032 14.0888 17.7238 14.6094C18.2444 15.1301 19.0888 15.1301 19.6094 14.6094C20.1303 14.0888 20.1303 13.2446 19.6094 12.7238ZM19.569 7.90234L19.0978 7.43109C18.8373 7.17068 18.4153 7.17068 18.1551 7.43109L12.4311 13.1551C12.1707 13.4155 12.1707 13.8376 12.4311 14.0978L12.9023 14.569C13.1628 14.8294 13.5848 14.8294 13.8451 14.569L19.569 8.84505C19.8294 8.58484 19.8294 8.16276 19.569 7.90234Z" fill="currentColor"/>
	</symbol>
	<symbol fill="none" xmlns="http://www.w3.org/2000/svg" viewBox="0 0 32 32" id="elo">
		<path d="M16.328 6.20429C16.3001 6.14346 16.2552 6.09193 16.1989 6.05581C16.1425 6.01969 16.077 6.00049 16.01 6.00049C15.9431 6.00049 15.8775 6.01969 15.8212 6.05581C15.7648 6.09193 15.72 6.14346 15.692 6.20429L14.26 9.31029C14.2349 9.36438 14.1963 9.41115 14.148 9.44616C14.0997 9.48116 14.0433 9.50324 13.984 9.51029L10.586 9.91429C10.5198 9.92232 10.4572 9.94912 10.4056 9.99154C10.3541 10.034 10.3158 10.0902 10.2952 10.1537C10.2746 10.2172 10.2726 10.2853 10.2894 10.3498C10.3062 10.4144 10.3411 10.4729 10.39 10.5183L12.902 12.8403C12.9462 12.881 12.9791 12.9323 12.9977 12.9894C13.0162 13.0465 13.0198 13.1074 13.008 13.1663L12.34 16.5203C12.3269 16.5859 12.3329 16.6538 12.3572 16.7161C12.3816 16.7784 12.4232 16.8324 12.4773 16.8718C12.5314 16.9111 12.5956 16.9342 12.6624 16.9382C12.7291 16.9422 12.7956 16.9269 12.854 16.8943L15.84 15.2243C15.892 15.1954 15.9505 15.1802 16.01 15.1802C16.0695 15.1802 16.128 15.1954 16.18 15.2243L19.166 16.8943C19.426 17.0403 19.738 16.8143 19.68 16.5203L19.014 13.1663C19.0023 13.1074 19.0058 13.0465 19.0244 12.9894C19.0429 12.9323 19.0759 12.881 19.12 12.8403L21.63 10.5183C21.6789 10.4729 21.7139 10.4144 21.7307 10.3498C21.7475 10.2853 21.7454 10.2172 21.7248 10.1537C21.7042 10.0902 21.6659 10.034 21.6144 9.99154C21.5629 9.94912 21.5003 9.92232 21.434 9.91429L18.038 9.51029C17.9784 9.50356 17.9216 9.48164 17.8729 9.44661C17.8242 9.41159 17.7853 9.36465 17.76 9.31029L16.328 6.20429ZM28 12.0003C28.0019 13.6889 27.6464 15.3588 26.9571 16.9003C26.2677 18.4418 25.2599 19.82 24 20.9443V31.0003C24 31.1754 23.9539 31.3475 23.8665 31.4992C23.7791 31.6509 23.6534 31.7771 23.5019 31.865C23.3504 31.9528 23.1785 31.9994 23.0034 32C22.8283 32.0006 22.6561 31.9552 22.504 31.8683L16 28.1523L9.49601 31.8683C9.34395 31.9552 9.17175 32.0006 8.99663 32C8.82151 31.9994 8.64962 31.9528 8.49815 31.865C8.34668 31.7771 8.22095 31.6509 8.13353 31.4992C8.04611 31.3475 8.00007 31.1754 8.00001 31.0003V20.9443C6.50804 19.6098 5.37358 17.9234 4.69995 16.0384C4.02631 14.1535 3.83489 12.13 4.14313 10.1522C4.45136 8.17436 5.24946 6.30506 6.46473 4.71451C7.68001 3.12395 9.27386 1.86266 11.1012 1.0455C12.9285 0.228332 14.9311 -0.118753 16.9268 0.0358484C18.9226 0.19045 20.8479 0.841827 22.5275 1.93066C24.2072 3.0195 25.5878 4.51121 26.5436 6.26995C27.4994 8.0287 28.0001 9.9986 28 12.0003ZM16 24.0003C13.8934 24.0034 11.8234 23.4493 10 22.3943V29.2783L15.504 26.1323C15.6551 26.046 15.826 26.0006 16 26.0006C16.174 26.0006 16.345 26.046 16.496 26.1323L22 29.2803V22.3963C20.1765 23.4507 18.1065 24.0041 16 24.0003ZM16 22.0003C18.6522 22.0003 21.1957 20.9467 23.0711 19.0714C24.9465 17.196 26 14.6525 26 12.0003C26 9.34812 24.9465 6.80458 23.0711 4.92921C21.1957 3.05385 18.6522 2.00028 16 2.00028C13.3479 2.00028 10.8043 3.05385 8.92894 4.92921C7.05358 6.80458 6.00001 9.34812 6.00001 12.0003C6.00001 14.6525 7.05358 17.196 8.92894 19.0714C10.8043 20.9467 13.3479 22.0003 16 22.0003Z" fill="currentColor"/>
	</symbol>
	<symbol fill="none" xmlns="http://www.w3.org/2000/svg" viewBox="0 0 32 32" id="level">
		<path d="M20.8 9L23.548 11.748L17.692 17.604L12.892 12.804L4 21.708L5.692 23.4L12.892 16.2L17.692 21L25.252 13.452L28 16.2V9H20.8Z" fill="currentColor"/>
	</symbol>
	<symbol fill="none" xmlns="http://www.w3.org/2000/svg" viewBox="0 0 34 31" id="ranking">
		<path d="M12 11H2V29.4615H12V11Z" stroke="currentColor" stroke-width="2.5" stroke-linecap="round" stroke-linejoin="round"/>
		<path d="M22 1.77002H12V29.4623H22V1.77002Z" stroke="currentColor" stroke-width="2.5" stroke-linejoin="round"/>
		<path d="M32 17.155H22V29.4627H32V17.155Z" stroke="currentColor" stroke-width="2.5" stroke-linecap="round" stroke-linejoin="round"/>
	</symbol>
	<symbol fill="none" xmlns="http://www.w3.org/2000/svg" viewBox="0 0 32 32" id="losses">
		<path d="M21.2 23.6L24.177 20.623L17.833 14.279L12.633 19.479L3 9.833L4.833 8L12.633 15.8L17.833 10.6L26.023 18.777L29 15.8V23.6H21.2Z" fill="currentColor"/>
	</symbol>
	<symbol fill="none" xmlns="http://www.w3.org/2000/svg" viewBox="0 0 32 32" id="win_streak">
		<path d="M26.5291 14.5782C26.1202 14.0448 25.6224 13.5826 25.1602 13.1204C23.969 12.0537 22.6179 11.2892 21.4801 10.1692C18.8311 7.57355 18.2444 3.28898 19.9334 0C18.2444 0.408901 16.7688 1.33337 15.5066 2.34673C10.902 6.04462 9.0886 12.5692 11.2576 18.1694C11.3287 18.3472 11.3998 18.525 11.3998 18.7561C11.3998 19.1472 11.1331 19.5028 10.7775 19.645C10.3686 19.8228 9.94196 19.7161 9.60417 19.4317C9.50267 19.3477 9.41818 19.2451 9.35528 19.1294C7.34633 16.5871 7.02632 12.9426 8.37747 10.027C5.4085 12.4448 3.79067 16.5338 4.02179 20.3917C4.12846 21.2806 4.23513 22.1695 4.53736 23.0584C4.78626 24.1251 5.26627 25.1918 5.79962 26.1341C7.71967 29.2097 11.0442 31.4142 14.6176 31.8587C18.4222 32.3387 22.4934 31.6453 25.4091 29.0142C28.6625 26.063 29.8003 21.3339 28.1291 17.2805L27.898 16.8183C27.5247 16.0005 26.5291 14.5782 26.5291 14.5782ZM20.9112 25.7785C20.4134 26.2052 19.5956 26.6674 18.9555 26.8452C16.9644 27.5563 14.9732 26.5608 13.7998 25.3874C15.9155 24.8896 17.1777 23.3251 17.5511 21.7428C17.8533 20.3206 17.2844 19.1472 17.0533 17.7783C16.8399 16.4627 16.8755 15.3427 17.3555 14.116C17.6933 14.7915 18.0489 15.4671 18.4755 16.0005C19.8445 17.7783 21.9956 18.5605 22.4579 20.9784C22.529 21.2273 22.5645 21.4762 22.5645 21.7428C22.6179 23.2007 21.9779 24.8007 20.9112 25.7785Z" fill="currentColor"/>
	</symbol>
	<symbol fill="none" xmlns="http://www.w3.org/2000/svg" viewBox="0 0 34 31" id="ranking">
		<path d="M12 11H2V29.4615H12V11Z" stroke="currentColor" stroke-width="2.5" stroke-linecap="round" stroke-linejoin="round"/>
		<path d="M22 1.77002H12V29.4623H22V1.77002Z" stroke="currentColor" stroke-width="2.5" stroke-linejoin="round"/>
		<path d="M32 17.155H22V29.4627H32V17.155Z" stroke="currentColor" stroke-width="2.5" stroke-linecap="round" stroke-linejoin="round"/>
	</symbol>

	<!-- Alerts -->
	<symbol fill="none" xmlns="http://www.w3.org/2000/svg" viewBox="0 0 40 40" id="success">
		<path d="M15.9982 23.1739L11.4002 18.5839L8.57617 21.4159L16.0022 28.8259L29.4142 15.4139L26.5862 12.5859L15.9982 23.1739Z" fill="currentColor"/>
		<path d="M20 0C8.972 0 0 8.972 0 20C0 31.028 8.972 40 20 40C31.028 40 40 31.028 40 20C40 8.972 31.028 0 20 0ZM20 36C11.178 36 4 28.822 4 20C4 11.178 11.178 4 20 4C28.822 4 36 11.178 36 20C36 28.822 28.822 36 20 36Z" fill="currentColor"/>
	</symbol>
	<symbol fill="none" xmlns="http://www.w3.org/2000/svg" viewBox="0 0 40 40" id="info">
		<path d="M20 0C31.0458 0 40 8.95421 40 20C40 31.0438 31.0458 39.998 20 39.998C8.95421 39.998 0 31.0438 0 20C0 8.95421 8.95421 0 20 0ZM20 2.9994C17.7521 2.97502 15.5216 3.39672 13.4377 4.2401C11.3539 5.08347 9.45797 6.33177 7.85975 7.91275C6.26153 9.49373 4.99274 11.376 4.12682 13.4506C3.26089 15.5252 2.81503 17.7509 2.81503 19.999C2.81503 22.2471 3.26089 24.4728 4.12682 26.5474C4.99274 28.622 6.26153 30.5043 7.85975 32.0852C9.45797 33.6662 11.3539 34.9145 13.4377 35.7579C15.5216 36.6013 17.7521 37.023 20 36.9986C24.4632 36.9301 28.7203 35.1091 31.8523 31.9287C34.9843 28.7483 36.7399 24.4637 36.7399 20C36.7399 15.5363 34.9843 11.2517 31.8523 8.0713C28.7203 4.89089 24.4632 3.06986 20 3.0014V2.9994ZM19.992 16.9966C20.3547 16.9961 20.7054 17.1272 20.9789 17.3654C21.2525 17.6036 21.4304 17.933 21.4797 18.2923L21.4937 18.4963L21.4997 29.4981C21.4996 29.8781 21.3552 30.2438 21.0958 30.5215C20.8364 30.7991 20.4813 30.968 20.1022 30.9939C19.7231 31.0197 19.3483 30.9008 19.0536 30.661C18.7588 30.4212 18.5661 30.0785 18.5143 29.7021L18.5003 29.5001L18.4943 18.4983C18.4943 18.1006 18.6523 17.7191 18.9336 17.4379C19.2148 17.1566 19.5963 16.9986 19.994 16.9986L19.992 16.9966ZM20 10.006C20.2675 9.99753 20.534 10.0429 20.7836 10.1394C21.0333 10.236 21.261 10.3817 21.4532 10.5679C21.6454 10.7542 21.7983 10.9771 21.9026 11.2236C22.007 11.47 22.0608 11.735 22.0608 12.0026C22.0608 12.2702 22.007 12.5352 21.9026 12.7816C21.7983 13.0281 21.6454 13.251 21.4532 13.4373C21.261 13.6235 21.0333 13.7692 20.7836 13.8658C20.534 13.9623 20.2675 14.0077 20 13.9992C19.4814 13.9828 18.9895 13.7652 18.6285 13.3926C18.2675 13.0199 18.0656 12.5215 18.0656 12.0026C18.0656 11.4837 18.2675 10.9852 18.6285 10.6126C18.9895 10.24 19.4814 10.0224 20 10.006V10.006Z" fill="currentColor"/>
	</symbol>
	<symbol fill="none" xmlns="http://www.w3.org/2000/svg" viewBox="0 0 40 40" id="warn">
		<path d="M20 40C8.954 40 0 31.046 0 20C0 8.954 8.954 0 20 0C31.046 0 40 8.954 40 20C40 31.046 31.046 40 20 40ZM20 36C24.2435 36 28.3131 34.3143 31.3137 31.3137C34.3143 28.3131 36 24.2435 36 20C36 15.7565 34.3143 11.6869 31.3137 8.68629C28.3131 5.68571 24.2435 4 20 4C15.7565 4 11.6869 5.68571 8.68629 8.68629C5.68571 11.6869 4 15.7565 4 20C4 24.2435 5.68571 28.3131 8.68629 31.3137C11.6869 34.3143 15.7565 36 20 36V36ZM18 26H22V30H18V26ZM18 10H22V22H18V10Z" fill="currentColor"/>
	</symbol>
	<symbol fill="none" xmlns="http://www.w3.org/2000/svg" viewBox="0 0 40 40" id="error">
		<path d="M20 4C15.7565 4 11.6869 5.68571 8.68629 8.68629C5.68571 11.6869 4 15.7565 4 20C4 24.2435 5.68571 28.3131 8.68629 31.3137C11.6869 34.3143 15.7565 36 20 36C24.2435 36 28.3131 34.3143 31.3137 31.3137C34.3143 28.3131 36 24.2435 36 20C36 15.7565 34.3143 11.6869 31.3137 8.68629C28.3131 5.68571 24.2435 4 20 4V4ZM0 20C0 8.954 8.954 0 20 0C31.046 0 40 8.954 40 20C40 31.046 31.046 40 20 40C8.954 40 0 31.046 0 20ZM11.586 11.586C11.9611 11.2111 12.4697 11.0004 13 11.0004C13.5303 11.0004 14.0389 11.2111 14.414 11.586L20 17.172L25.586 11.586C25.7705 11.395 25.9912 11.2426 26.2352 11.1378C26.4792 11.033 26.7416 10.9778 27.0072 10.9755C27.2728 10.9732 27.5361 11.0238 27.7819 11.1244C28.0277 11.2249 28.251 11.3734 28.4388 11.5612C28.6266 11.749 28.7751 11.9723 28.8756 12.2181C28.9762 12.4639 29.0268 12.7272 29.0245 12.9928C29.0222 13.2584 28.967 13.5208 28.8622 13.7648C28.7574 14.0088 28.605 14.2295 28.414 14.414L22.828 20L28.414 25.586C28.7783 25.9632 28.9799 26.4684 28.9753 26.9928C28.9708 27.5172 28.7605 28.0188 28.3896 28.3896C28.0188 28.7605 27.5172 28.9708 26.9928 28.9753C26.4684 28.9799 25.9632 28.7783 25.586 28.414L20 22.828L14.414 28.414C14.0368 28.7783 13.5316 28.9799 13.0072 28.9753C12.4828 28.9708 11.9812 28.7605 11.6104 28.3896C11.2395 28.0188 11.0292 27.5172 11.0247 26.9928C11.0201 26.4684 11.2217 25.9632 11.586 25.586L17.172 20L11.586 14.414C11.2111 14.0389 11.0004 13.5303 11.0004 13C11.0004 12.4697 11.2111 11.9611 11.586 11.586V11.586Z" fill="currentColor"/>
	</symbol>
	<symbol fill="none" xmlns="http://www.w3.org/2000/svg" viewBox="0 0 40 40" id="cross">
		<path d="M5.96405 0.981789L20 15.0177L33.9632 1.05451C34.2717 0.726224 34.6432 0.463603 35.0556 0.2824C35.468 0.101196 35.9127 0.00514292 36.3632 0C37.3276 0 38.2524 0.383104 38.9344 1.06503C39.6163 1.74696 39.9994 2.67186 39.9994 3.63626C40.0079 4.08207 39.9252 4.52491 39.7563 4.93761C39.5875 5.3503 39.3361 5.72414 39.0176 6.03619L24.8726 19.9994L39.0176 34.1444C39.6169 34.7308 39.9684 35.5247 39.9994 36.3626C39.9994 37.327 39.6163 38.2519 38.9344 38.9338C38.2524 39.6157 37.3276 39.9988 36.3632 39.9988C35.8997 40.018 35.4374 39.9407 35.0054 39.7717C34.5735 39.6027 34.1814 39.3457 33.8541 39.017L20 24.9811L6.00041 38.9807C5.69317 39.298 5.32612 39.5514 4.92045 39.7261C4.51478 39.9009 4.07852 39.9936 3.63685 39.9988C2.67245 39.9988 1.74756 39.6157 1.06563 38.9338C0.383696 38.2519 0.000591643 37.327 0.000591643 36.3626C-0.00788627 35.9168 0.0748273 35.4739 0.243657 35.0612C0.412487 34.6485 0.663871 34.2747 0.982381 33.9626L15.1274 19.9994L0.982381 5.85437C0.383071 5.26806 0.0316439 4.47409 0.000591643 3.63626C0.000591643 2.67186 0.383696 1.74696 1.06563 1.06503C1.74756 0.383104 2.67245 0 3.63685 0C4.50955 0.0109088 5.34589 0.363626 5.96405 0.981789Z" fill="currentColor"/>
	</symbol>

	<!-- Socials -->
	<symbol fill="none" xmlns="http://www.w3.org/2000/svg" viewBox="0 0 40 40" id="chain">
		<path d="M34.9999 29.2307C34.9999 28.5897 34.7755 28.0448 34.3268 27.5961L29.3268 22.5961C28.8781 22.1473 28.3332 21.923 27.6922 21.923C27.0191 21.923 26.4422 22.1794 25.9614 22.6922C26.0095 22.7403 26.1618 22.8885 26.4182 23.1369C26.6746 23.3853 26.8469 23.5576 26.935 23.6538C27.0231 23.7499 27.1433 23.9022 27.2956 24.1105C27.4478 24.3188 27.552 24.5231 27.6081 24.7235C27.6642 24.9238 27.6922 25.1441 27.6922 25.3845C27.6922 26.0255 27.4679 26.5704 27.0191 27.0191C26.5704 27.4679 26.0255 27.6922 25.3845 27.6922C25.1441 27.6922 24.9238 27.6642 24.7235 27.6081C24.5231 27.552 24.3188 27.4478 24.1105 27.2956C23.9022 27.1433 23.7499 27.0231 23.6538 26.935C23.5576 26.8469 23.3853 26.6746 23.1369 26.4182C22.8885 26.1618 22.7403 26.0095 22.6922 25.9614C22.1634 26.4582 21.8989 27.0432 21.8989 27.7163C21.8989 28.3573 22.1233 28.9022 22.572 29.3509L27.5239 34.3268C27.9566 34.7595 28.5015 34.9759 29.1586 34.9759C29.7996 34.9759 30.3445 34.7675 30.7932 34.3509L34.3268 30.8413C34.7755 30.3925 34.9999 29.8557 34.9999 29.2307ZM18.1009 12.2836C18.1009 11.6425 17.8765 11.0977 17.4278 10.6489L12.4759 5.67298C12.0271 5.22427 11.4823 4.99991 10.8413 4.99991C10.2163 4.99991 9.67138 5.21625 9.20664 5.64894L5.67298 9.15856C5.22427 9.60728 4.99991 10.1441 4.99991 10.7691C4.99991 11.4102 5.22427 11.955 5.67298 12.4038L10.673 17.4038C11.1057 17.8364 11.6505 18.0528 12.3076 18.0528C12.9807 18.0528 13.5576 17.8044 14.0384 17.3076C13.9903 17.2595 13.838 17.1113 13.5816 16.8629C13.3252 16.6145 13.153 16.4422 13.0648 16.3461C12.9767 16.2499 12.8565 16.0977 12.7042 15.8893C12.552 15.681 12.4478 15.4767 12.3917 15.2763C12.3356 15.076 12.3076 14.8557 12.3076 14.6153C12.3076 13.9743 12.532 13.4294 12.9807 12.9807C13.4294 12.532 13.9743 12.3076 14.6153 12.3076C14.8557 12.3076 15.076 12.3356 15.2763 12.3917C15.4767 12.4478 15.681 12.552 15.8893 12.7042C16.0977 12.8565 16.2499 12.9767 16.3461 13.0648C16.4422 13.153 16.6145 13.3252 16.8629 13.5816C17.1113 13.838 17.2595 13.9903 17.3076 14.0384C17.8364 13.5416 18.1009 12.9566 18.1009 12.2836ZM39.6153 29.2307C39.6153 31.1538 38.9342 32.7804 37.572 34.1105L34.0384 37.6201C32.7082 38.9502 31.0816 39.6153 29.1586 39.6153C27.2195 39.6153 25.5848 38.9342 24.2547 37.572L19.3028 32.5961C17.9727 31.2659 17.3076 29.6393 17.3076 27.7163C17.3076 25.7451 18.0127 24.0704 19.423 22.6922L17.3076 20.5768C15.9294 21.9871 14.2627 22.6922 12.3076 22.6922C10.3845 22.6922 8.74991 22.0191 7.40375 20.673L2.40375 15.673C1.0576 14.3268 0.384521 12.6922 0.384521 10.7691C0.384521 8.84606 1.06561 7.21946 2.42779 5.88933L5.96144 2.37971C7.29157 1.04959 8.91818 0.384521 10.8413 0.384521C12.7804 0.384521 14.415 1.06561 15.7451 2.42779L20.697 7.40375C22.0272 8.73388 22.6922 10.3605 22.6922 12.2836C22.6922 14.2547 21.9871 15.9294 20.5768 17.3076L22.6922 19.423C24.0704 18.0127 25.7371 17.3076 27.6922 17.3076C29.6153 17.3076 31.2499 17.9807 32.5961 19.3268L37.5961 24.3268C38.9422 25.673 39.6153 27.3076 39.6153 29.2307Z" fill="currentColor"/>
	</symbol>
	<symbol fill="none" xmlns="http://www.w3.org/2000/svg" viewBox="0 0 40 40" id="discord">
		<path d="M33.845 7.53349C31.3116 6.35251 28.5687 5.49534 25.7115 5.00009C25.6864 4.99929 25.6615 5.00399 25.6385 5.01386C25.6154 5.02373 25.5949 5.03854 25.5782 5.05723C25.2353 5.68582 24.8353 6.50489 24.5686 7.13348C21.538 6.67632 18.4561 6.67632 15.4255 7.13348C15.1588 6.48584 14.7588 5.68582 14.3969 5.05723C14.3779 5.01914 14.3207 5.00009 14.2636 5.00009C11.4063 5.49534 8.68246 6.35251 6.13 7.53349C6.11096 7.53349 6.09191 7.55254 6.07286 7.57159C0.891766 15.3242 -0.536845 22.8672 0.167936 30.3341C0.167936 30.3722 0.186984 30.4103 0.225081 30.4294C3.65375 32.9437 6.94907 34.4676 10.2063 35.4771C10.2635 35.4962 10.3206 35.4771 10.3396 35.439C11.1016 34.3914 11.7873 33.2866 12.3778 32.1246C12.4159 32.0484 12.3778 31.9723 12.3016 31.9532C11.2159 31.5341 10.1873 31.0389 9.17771 30.4675C9.10151 30.4294 9.10151 30.3151 9.15866 30.2579C9.36819 30.1055 9.57772 29.9341 9.78725 29.7817C9.82534 29.7436 9.88249 29.7436 9.92058 29.7627C16.4731 32.7532 23.54 32.7532 30.0164 29.7627C30.0545 29.7436 30.1116 29.7436 30.1497 29.7817C30.3592 29.9532 30.5688 30.1055 30.7783 30.277C30.8545 30.3341 30.8545 30.4484 30.7592 30.4865C29.7687 31.077 28.7211 31.5532 27.6354 31.9723C27.5592 31.9913 27.5401 32.0865 27.5592 32.1437C28.1687 33.3056 28.8544 34.4104 29.5973 35.4581C29.6545 35.4771 29.7116 35.4962 29.7687 35.4771C33.045 34.4676 36.3404 32.9437 39.769 30.4294C39.8071 30.4103 39.8262 30.3722 39.8262 30.3341C40.6643 21.7053 38.4356 14.2194 33.9212 7.57159C33.9022 7.55254 33.8831 7.53349 33.845 7.53349ZM13.3683 25.7816C11.4063 25.7816 9.7682 23.972 9.7682 21.7434C9.7682 19.5148 11.3682 17.7052 13.3683 17.7052C15.3874 17.7052 16.9874 19.5338 16.9684 21.7434C16.9684 23.972 15.3684 25.7816 13.3683 25.7816ZM26.6449 25.7816C24.6829 25.7816 23.0448 23.972 23.0448 21.7434C23.0448 19.5148 24.6448 17.7052 26.6449 17.7052C28.664 17.7052 30.264 19.5338 30.2449 21.7434C30.2449 23.972 28.664 25.7816 26.6449 25.7816Z" fill="currentColor"/>
	</symbol>
	<symbol fill="none" xmlns="http://www.w3.org/2000/svg" viewBox="0 0 40 40" id="twitter">
		<path d="M40 7.82409C38.5277 8.49331 36.9407 8.93308 35.2964 9.1434C36.979 8.13002 38.2792 6.5239 38.891 4.59273C37.304 5.54876 35.5449 6.21797 33.6902 6.60038C32.1797 4.95602 30.0574 4 27.6482 4C23.1549 4 19.4837 7.67113 19.4837 12.2027C19.4837 12.8528 19.5602 13.4837 19.6941 14.0765C12.8872 13.7323 6.826 10.4627 2.79159 5.51052C2.08413 6.71511 1.6826 8.13002 1.6826 9.62142C1.6826 12.4704 3.11664 14.9943 5.33461 16.4283C3.97706 16.4283 2.71511 16.0459 1.60612 15.4723V15.5296C1.60612 19.5067 4.43595 22.8337 8.18356 23.5794C6.98036 23.9086 5.7172 23.9544 4.49331 23.7132C5.01263 25.3432 6.02971 26.7694 7.40156 27.7915C8.77342 28.8135 10.4311 29.3799 12.1415 29.4111C9.24212 31.7064 5.64818 32.9471 1.95029 32.9293C1.30019 32.9293 0.650096 32.891 0 32.8145C3.63289 35.1472 7.95411 36.5048 12.5813 36.5048C27.6482 36.5048 35.9273 24 35.9273 13.1587C35.9273 12.7954 35.9273 12.4512 35.9082 12.088C37.5143 10.9407 38.891 9.48757 40 7.82409Z" fill="currentColor"/>
	</symbol>
	<symbol fill="none" xmlns="http://www.w3.org/2000/svg" viewBox="0 0 40 40" id="image">
		<path d="M8.88889 31.1111H31.1111C31.5556 31.1111 31.8889 30.9074 32.1111 30.5C32.3333 30.0926 32.2963 29.7037 32 29.3333L25.8889 21.1667C25.6667 20.8704 25.3704 20.7222 25 20.7222C24.6296 20.7222 24.3333 20.8704 24.1111 21.1667L18.3333 28.8889L14.2222 23.3889C14 23.0926 13.7037 22.9444 13.3333 22.9444C12.963 22.9444 12.6667 23.0926 12.4444 23.3889L8 29.3333C7.70371 29.7037 7.66667 30.0926 7.88889 30.5C8.11111 30.9074 8.44445 31.1111 8.88889 31.1111ZM4.44445 40C3.22223 40 2.17556 39.5644 1.30445 38.6933C0.433337 37.8222 -0.00147771 36.7763 3.77287e-06 35.5556V4.44445C3.77287e-06 3.22223 0.435559 2.17556 1.30667 1.30445C2.17778 0.433337 3.22371 -0.00147771 4.44445 3.77287e-06H35.5556C36.7778 3.77287e-06 37.8244 0.435559 38.6956 1.30667C39.5667 2.17778 40.0015 3.22371 40 4.44445V35.5556C40 36.7778 39.5644 37.8244 38.6933 38.6956C37.8222 39.5667 36.7763 40.0015 35.5556 40H4.44445ZM4.44445 35.5556H35.5556V4.44445H4.44445V35.5556Z" fill="currentColor"/>
	</symbol>
	<symbol fill="none" xmlns="http://www.w3.org/2000/svg" viewBox="0 0 40 40" id="instagram">
		<path d="M20 0C14.5725 0 13.89 0.025 11.7575 0.12C9.625 0.22 8.1725 0.555 6.9 1.05C5.56523 1.55205 4.35623 2.33957 3.3575 3.3575C2.34019 4.35674 1.55277 5.5656 1.05 6.9C0.555 8.17 0.2175 9.625 0.12 11.75C0.025 13.8875 0 14.5675 0 20.0025C0 25.4325 0.025 26.1125 0.12 28.245C0.22 30.375 0.555 31.8275 1.05 33.1C1.5625 34.415 2.245 35.53 3.3575 36.6425C4.4675 37.755 5.5825 38.44 6.8975 38.95C8.1725 39.445 9.6225 39.7825 11.7525 39.88C13.8875 39.975 14.5675 40 20 40C25.4325 40 26.11 39.975 28.245 39.88C30.3725 39.78 31.83 39.445 33.1025 38.95C34.4364 38.4477 35.6445 37.6602 36.6425 36.6425C37.755 35.53 38.4375 34.415 38.95 33.1C39.4425 31.8275 39.78 30.375 39.88 28.245C39.975 26.1125 40 25.4325 40 20C40 14.5675 39.975 13.8875 39.88 11.7525C39.78 9.625 39.4425 8.17 38.95 6.9C38.4473 5.56556 37.6599 4.35669 36.6425 3.3575C35.6441 2.33919 34.435 1.55161 33.1 1.05C31.825 0.555 30.37 0.2175 28.2425 0.12C26.1075 0.025 25.43 0 19.995 0H20.0025H20ZM18.2075 3.605H20.0025C25.3425 3.605 25.975 3.6225 28.0825 3.72C30.0325 3.8075 31.0925 4.135 31.7975 4.4075C32.73 4.77 33.3975 5.205 34.0975 5.905C34.7975 6.605 35.23 7.27 35.5925 8.205C35.8675 8.9075 36.1925 9.9675 36.28 11.9175C36.3775 14.025 36.3975 14.6575 36.3975 19.995C36.3975 25.3325 36.3775 25.9675 36.28 28.075C36.1925 30.025 35.865 31.0825 35.5925 31.7875C35.2719 32.6559 34.7601 33.4411 34.095 34.085C33.395 34.785 32.73 35.2175 31.795 35.58C31.095 35.855 30.035 36.18 28.0825 36.27C25.975 36.365 25.3425 36.3875 20.0025 36.3875C14.6625 36.3875 14.0275 36.365 11.92 36.27C9.97 36.18 8.9125 35.855 8.2075 35.58C7.33875 35.2598 6.55281 34.7489 5.9075 34.085C5.24188 33.4401 4.72931 32.6541 4.4075 31.785C4.135 31.0825 3.8075 30.0225 3.72 28.0725C3.625 25.965 3.605 25.3325 3.605 19.99C3.605 14.65 3.625 14.02 3.72 11.9125C3.81 9.9625 4.135 8.9025 4.41 8.1975C4.7725 7.265 5.2075 6.5975 5.9075 5.8975C6.6075 5.1975 7.2725 4.765 8.2075 4.4025C8.9125 4.1275 9.97 3.8025 11.92 3.7125C13.765 3.6275 14.48 3.6025 18.2075 3.6V3.605ZM30.6775 6.925C30.3623 6.925 30.0502 6.98708 29.7591 7.10769C29.4679 7.2283 29.2033 7.40508 28.9804 7.62794C28.7576 7.8508 28.5808 8.11538 28.4602 8.40656C28.3396 8.69774 28.2775 9.00983 28.2775 9.325C28.2775 9.64017 28.3396 9.95226 28.4602 10.2434C28.5808 10.5346 28.7576 10.7992 28.9804 11.0221C29.2033 11.2449 29.4679 11.4217 29.7591 11.5423C30.0502 11.6629 30.3623 11.725 30.6775 11.725C31.314 11.725 31.9245 11.4721 32.3746 11.0221C32.8246 10.572 33.0775 9.96152 33.0775 9.325C33.0775 8.68848 32.8246 8.07803 32.3746 7.62794C31.9245 7.17786 31.314 6.925 30.6775 6.925ZM20.0025 9.73C18.6402 9.70875 17.2872 9.95871 16.0224 10.4654C14.7577 10.972 13.6063 11.7252 12.6354 12.6811C11.6645 13.6369 10.8934 14.7764 10.3671 16.0331C9.8408 17.2899 9.56975 18.6388 9.56975 20.0012C9.56975 21.3637 9.8408 22.7126 10.3671 23.9693C10.8934 25.2261 11.6645 26.3656 12.6354 27.3214C13.6063 28.2773 14.7577 29.0305 16.0224 29.5371C17.2872 30.0438 18.6402 30.2938 20.0025 30.2725C22.6989 30.2304 25.2705 29.1298 27.1624 27.2081C29.0544 25.2865 30.1148 22.6979 30.1148 20.0012C30.1148 17.3046 29.0544 14.716 27.1624 12.7944C25.2705 10.8727 22.6989 9.77207 20.0025 9.73ZM20.0025 13.3325C21.7708 13.3325 23.4667 14.035 24.7171 15.2854C25.9675 16.5358 26.67 18.2317 26.67 20C26.67 21.7683 25.9675 23.4642 24.7171 24.7146C23.4667 25.965 21.7708 26.6675 20.0025 26.6675C18.2342 26.6675 16.5383 25.965 15.2879 24.7146C14.0375 23.4642 13.335 21.7683 13.335 20C13.335 18.2317 14.0375 16.5358 15.2879 15.2854C16.5383 14.035 18.2342 13.3325 20.0025 13.3325Z" fill="currentColor"/>
	</symbol>

	<!-- Form -->
	<symbol fill="none" xmlns="http://www.w3.org/2000/svg" viewBox="0 0 21 21" id="question">
		<path d="M10 20C4.477 20 0 15.523 0 10C0 4.477 4.477 0 10 0C15.523 0 20 4.477 20 10C20 15.523 15.523 20 10 20ZM10 18C12.1217 18 14.1566 17.1571 15.6569 15.6569C17.1571 14.1566 18 12.1217 18 10C18 7.87827 17.1571 5.84344 15.6569 4.34315C14.1566 2.84285 12.1217 2 10 2C7.87827 2 5.84344 2.84285 4.34315 4.34315C2.84285 5.84344 2 7.87827 2 10C2 12.1217 2.84285 14.1566 4.34315 15.6569C5.84344 17.1571 7.87827 18 10 18ZM9 13H11V15H9V13ZM11 11.355V12H9V10.5C9 10.2348 9.10536 9.98043 9.29289 9.79289C9.48043 9.60536 9.73478 9.5 10 9.5C10.2841 9.49998 10.5623 9.4193 10.8023 9.26733C11.0423 9.11536 11.2343 8.89837 11.3558 8.64158C11.4773 8.3848 11.5234 8.0988 11.4887 7.81684C11.454 7.53489 11.34 7.26858 11.1598 7.04891C10.9797 6.82924 10.7409 6.66523 10.4712 6.57597C10.2015 6.48671 9.91204 6.47587 9.63643 6.54471C9.36081 6.61354 9.11042 6.75923 8.91437 6.96482C8.71832 7.1704 8.58468 7.42743 8.529 7.706L6.567 7.313C6.68863 6.70508 6.96951 6.14037 7.38092 5.67659C7.79233 5.2128 8.31952 4.86658 8.90859 4.67332C9.49766 4.48006 10.1275 4.44669 10.7337 4.57661C11.3399 4.70654 11.9007 4.99511 12.3588 5.41282C12.8169 5.83054 13.1559 6.36241 13.3411 6.95406C13.5263 7.54572 13.5511 8.17594 13.4129 8.78031C13.2747 9.38467 12.9785 9.9415 12.5545 10.3939C12.1306 10.8462 11.5941 11.1779 11 11.355Z" fill="currentColor"/>
	</symbol>
	<symbol xmlns="http://www.w3.org/2000/svg" viewBox="0 0 40 40" id="eye">
		<path d="M20 14.1818C21.4466 14.1818 22.834 14.7565 23.8569 15.7794C24.8799 16.8023 25.4545 18.1897 25.4545 19.6364C25.4545 21.083 24.8799 22.4704 23.8569 23.4933C22.834 24.5162 21.4466 25.0909 20 25.0909C18.5534 25.0909 17.166 24.5162 16.1431 23.4933C15.1201 22.4704 14.5455 21.083 14.5455 19.6364C14.5455 18.1897 15.1201 16.8023 16.1431 15.7794C17.166 14.7565 18.5534 14.1818 20 14.1818M20 6C29.0909 6 36.8545 11.6545 40 19.6364C36.8545 27.6182 29.0909 33.2727 20 33.2727C10.9091 33.2727 3.14545 27.6182 0 19.6364C3.14545 11.6545 10.9091 6 20 6ZM3.96364 19.6364C5.43319 22.6369 7.7151 25.165 10.55 26.9332C13.3848 28.7014 16.6589 29.6388 20 29.6388C23.3411 29.6388 26.6152 28.7014 29.45 26.9332C32.2849 25.165 34.5668 22.6369 36.0364 19.6364C34.5668 16.6358 32.2849 14.1077 29.45 12.3395C26.6152 10.5713 23.3411 9.63396 20 9.63396C16.6589 9.63396 13.3848 10.5713 10.55 12.3395C7.7151 14.1077 5.43319 16.6358 3.96364 19.6364V19.6364Z" fill="currentColor"/>
	</symbol>
	<symbol xmlns="http://www.w3.org/2000/svg" viewBox="0 0 40 40" id="closed_eye">
		<path d="M1.81818 6.30909L4.14545 4L34.5455 34.4L32.2364 36.7273L26.6364 31.1273C24.5455 31.8182 22.3273 32.1818 20 32.1818C10.9091 32.1818 3.14545 26.5273 0 18.5455C1.25455 15.3455 3.25455 12.5273 5.8 10.2909L1.81818 6.30909ZM20 13.0909C21.4466 13.0909 22.834 13.6656 23.8569 14.6885C24.8799 15.7114 25.4545 17.0988 25.4545 18.5455C25.4555 19.1647 25.3509 19.7795 25.1455 20.3636L18.1818 13.4C18.7659 13.1945 19.3808 13.09 20 13.0909M20 4.90909C29.0909 4.90909 36.8545 10.5636 40 18.5455C38.5161 22.3149 35.9945 25.5867 32.7273 27.9818L30.1455 25.3818C32.6598 23.6425 34.6877 21.2892 36.0364 18.5455C34.5665 15.5453 32.2844 13.0178 29.4496 11.25C26.6147 9.48225 23.3408 8.54523 20 8.54545C18.0182 8.54545 16.0727 8.87273 14.2545 9.45455L11.4545 6.67273C14.0727 5.54545 16.9636 4.90909 20 4.90909ZM3.96364 18.5455C5.43353 21.5456 7.71558 24.0731 10.5504 25.8409C13.3853 27.6087 16.6592 28.5457 20 28.5455C21.2545 28.5455 22.4909 28.4182 23.6364 28.1636L19.4909 24C18.2258 23.8644 17.0451 23.2998 16.1454 22.4C15.2457 21.5003 14.6811 20.3197 14.5455 19.0545L8.36364 12.8545C6.56364 14.4 5.05455 16.3273 3.96364 18.5455V18.5455Z" fill="currentColor"/>
	</symbol>
	<symbol fill="none" xmlns="http://www.w3.org/2000/svg" viewBox="0 0 35 35" id="back_chevron">
		<path d="M17.5625 2.25C9.10872 2.25 2.25 9.10872 2.25 17.5625C2.25 26.0163 9.10872 32.875 17.5625 32.875C26.0163 32.875 32.875 26.0163 32.875 17.5625C32.875 9.10872 26.0163 2.25 17.5625 2.25Z" stroke="currentColor" stroke-width="3" stroke-miterlimit="10"/>
		<path d="M19.25 24.5L12.25 17.5L19.25 10.5" stroke="currentColor" stroke-width="3" stroke-linecap="round" stroke-linejoin="round"/>
	</symbol>
	<symbol fill="none" xmlns="http://www.w3.org/2000/svg" viewBox="0 0 36 40" id="delete">
		<path d="M6.66667 40C5.44444 40 4.39778 39.5644 3.52667 38.6933C2.65556 37.8222 2.22074 36.7763 2.22222 35.5556V6.66667H0V2.22222H11.1111V0H24.4444V2.22222H35.5556V6.66667H33.3333V35.5556C33.3333 36.7778 32.8978 37.8244 32.0267 38.6956C31.1556 39.5667 30.1096 40.0015 28.8889 40H6.66667ZM28.8889 6.66667H6.66667V35.5556H28.8889V6.66667ZM11.1111 31.1111H15.5556V11.1111H11.1111V31.1111ZM20 31.1111H24.4444V11.1111H20V31.1111Z" fill="currentColor"/>
	</symbol>

	<!-- Debug bar -->
	<symbol fill="none" xmlns="http://www.w3.org/2000/svg" viewBox="0 0 40 40" id="beta">
		<path d="M13.3333 36.6666V13.3333C13.3333 11.5652 14.0356 9.86949 15.2859 8.61925C16.5361 7.369 18.2318 6.66663 19.9999 6.66663H20.8333C22.3803 6.66663 23.8641 7.28121 24.958 8.37517C26.052 9.46913 26.6666 10.9529 26.6666 12.5C26.6666 14.0471 26.052 15.5308 24.958 16.6247C23.8641 17.7187 22.3803 18.3333 20.8333 18.3333H19.9999H20.8333C22.3166 18.3333 23.7667 18.7732 25 19.5973C26.2334 20.4214 27.1947 21.5927 27.7623 22.9632C28.33 24.3336 28.4785 25.8416 28.1891 27.2965C27.8998 28.7513 27.1854 30.0877 26.1366 31.1366C25.0877 32.1855 23.7513 32.8998 22.2964 33.1892C20.8416 33.4786 19.3336 33.33 17.9631 32.7624C16.5927 32.1947 15.4213 31.2334 14.5972 30.0001C13.7731 28.7667 13.3333 27.3167 13.3333 25.8333V25" stroke="currentColor" stroke-width="3.5" stroke-linecap="round" stroke-linejoin="round"/>
	</symbol>
	<symbol fill="none" xmlns="http://www.w3.org/2000/svg" viewBox="0 0 32 32" id="api">
		<path d="M16.0223 0C8.16449 0 1.80005 3.18222 1.80005 7.11111V24.8889C1.80005 28.8178 8.18227 32 16.0223 32C23.8623 32 30.2445 28.8178 30.2445 24.8889V7.11111C30.2445 3.18222 23.8801 0 16.0223 0ZM26.6889 24.8889C26.6889 25.7778 22.9023 28.4444 16.0223 28.4444C9.14227 28.4444 5.3556 25.7778 5.3556 24.8889V20.9244C8.21783 22.3111 11.9689 23.1111 16.0223 23.1111C20.0756 23.1111 23.8267 22.3111 26.6889 20.9244V24.8889ZM26.6889 16.8C24.3778 18.4889 20.3245 19.5556 16.0223 19.5556C11.72 19.5556 7.66672 18.4889 5.3556 16.8V11.8044C7.96894 13.28 11.7734 14.2222 16.0223 14.2222C20.2712 14.2222 24.0756 13.28 26.6889 11.8044V16.8ZM16.0223 10.6667C9.14227 10.6667 5.3556 8 5.3556 7.11111C5.3556 6.22222 9.14227 3.55556 16.0223 3.55556C22.9023 3.55556 26.6889 6.22222 26.6889 7.11111C26.6889 8 22.9023 10.6667 16.0223 10.6667Z" fill="currentColor"/>
	</symbol>
	<symbol fill="none" xmlns="http://www.w3.org/2000/svg" viewBox="0 0 32 32" id="websockets">
		<path d="M31.9088 1.75359L30.246 0.0902294C30.1832 0.0274612 30.1048 0 30.0224 0C29.9401 0 29.8616 0.0313842 29.7989 0.0902294L26.8144 3.07564C25.517 2.19631 23.9852 1.72749 22.418 1.73005C20.4101 1.73005 18.4021 2.49504 16.8687 4.02893L12.8723 8.02648C12.8139 8.08547 12.7812 8.16512 12.7812 8.24813C12.7812 8.33114 12.8139 8.41079 12.8723 8.46978L23.5279 19.1286C23.5907 19.1914 23.6691 19.2188 23.7514 19.2188C23.8299 19.2188 23.9122 19.1874 23.975 19.1286L27.9713 15.1311C30.6734 12.4242 30.9911 8.23832 28.9243 5.18622L31.9088 2.20081C32.0304 2.07527 32.0304 1.8752 31.9088 1.75359ZM26.081 13.2441L23.7514 15.5744L16.4255 8.24617L18.7551 5.9159C19.7316 4.93907 21.0336 4.3977 22.418 4.3977C23.8024 4.3977 25.1005 4.93515 26.081 5.9159C27.0575 6.89273 27.5987 8.19517 27.5987 9.57999C27.5987 10.9648 27.0575 12.2633 26.081 13.2441ZM18.6217 17.3632C18.5627 17.3048 18.4831 17.2721 18.4001 17.2721C18.3171 17.2721 18.2375 17.3048 18.1785 17.3632L15.5666 19.976L12.0252 16.4335L14.6411 13.8168C14.7626 13.6952 14.7626 13.4952 14.6411 13.3735L13.2135 11.9456C13.1546 11.8872 13.0749 11.8544 12.9919 11.8544C12.909 11.8544 12.8293 11.8872 12.7704 11.9456L10.1545 14.5622L8.46814 12.8753C8.43886 12.846 8.40397 12.8229 8.36556 12.8074C8.32715 12.7919 8.28601 12.7843 8.24459 12.7851C8.16616 12.7851 8.0838 12.8165 8.02105 12.8753L4.02864 16.8729C1.32651 19.5797 1.00885 23.7656 3.07564 26.8177L0.0911431 29.8031C0.0327544 29.8621 0 29.9418 0 30.0248C0 30.1078 0.0327544 30.1874 0.0911431 30.2464L1.75399 31.9098C1.81674 31.9725 1.89518 32 1.97754 32C2.05989 32 2.13833 31.9686 2.20108 31.9098L5.18558 28.9244C6.50723 29.8227 8.04458 30.27 9.58193 30.27C11.5899 30.27 13.5979 29.505 15.1313 27.9711L19.1276 23.9735C19.2492 23.8519 19.2492 23.6518 19.1276 23.5302L17.4412 21.8433L20.0571 19.2267C20.1787 19.1051 20.1787 18.905 20.0571 18.7834L18.6217 17.3632ZM13.241 26.088C12.761 26.5706 12.1901 26.9533 11.5614 27.2139C10.9327 27.4745 10.2586 27.6078 9.57801 27.6062C8.19361 27.6062 6.89549 27.0688 5.91504 26.088C5.43258 25.6079 5.05004 25.0368 4.78953 24.4079C4.52903 23.779 4.39571 23.1047 4.39729 22.4239C4.39729 21.0391 4.93458 19.7406 5.91504 18.7598L8.24459 16.4296L15.5705 23.7578L13.241 26.088Z" fill="currentColor"/>
	</symbol>
	<symbol fill="none" xmlns="http://www.w3.org/2000/svg" viewBox="0 0 32 32" id="requests">
		<path d="M21.28 18.12L15.52 12.36C15.36 12.2 15.2469 12.0267 15.1808 11.84C15.1136 11.6533 15.08 11.4533 15.08 11.24C15.08 11.0267 15.1136 10.8267 15.1808 10.64C15.2469 10.4533 15.36 10.28 15.52 10.12L21.28 4.36C21.6 4.04 21.9733 3.88 22.4 3.88C22.8267 3.88 23.2 4.04 23.52 4.36C23.84 4.68 24 5.05974 24 5.4992C24 5.93974 23.84 6.32 23.52 6.64L20.52 9.64H30.4C30.8533 9.64 31.2331 9.79307 31.5392 10.0992C31.8464 10.4064 32 10.7867 32 11.24C32 11.6933 31.8464 12.0731 31.5392 12.3792C31.2331 12.6864 30.8533 12.84 30.4 12.84H20.52L23.52 15.84C23.84 16.16 24 16.5333 24 16.96C24 17.3867 23.84 17.76 23.52 18.08C23.2 18.4 22.8336 18.5733 22.4208 18.6C22.0069 18.6267 21.6267 18.4667 21.28 18.12ZM8.48 27.68C8.8 28 9.17333 28.1664 9.6 28.1792C10.0267 28.1931 10.4 28.04 10.72 27.72L16.48 21.96C16.64 21.8 16.7536 21.6267 16.8208 21.44C16.8869 21.2533 16.92 21.0533 16.92 20.84C16.92 20.6267 16.8869 20.4267 16.8208 20.24C16.7536 20.0533 16.64 19.88 16.48 19.72L10.72 13.96C10.4 13.64 10.0267 13.48 9.6 13.48C9.17333 13.48 8.8 13.64 8.48 13.96C8.16 14.28 8 14.6597 8 15.0992C8 15.5397 8.16 15.92 8.48 16.24L11.48 19.24H1.6C1.14667 19.24 0.766934 19.3931 0.4608 19.6992C0.1536 20.0064 0 20.3867 0 20.84C0 21.2933 0.1536 21.6731 0.4608 21.9792C0.766934 22.2864 1.14667 22.44 1.6 22.44H11.48L8.48 25.44C8.16 25.76 8 26.1333 8 26.56C8 26.9867 8.16 27.36 8.48 27.68Z" fill="currentColor"/>
	</symbol>
	<symbol fill="none" xmlns="http://www.w3.org/2000/svg" viewBox="0 0 40 40" id="copy">
		<path d="M15 30C14.0833 30 13.2989 29.6739 12.6467 29.0217C11.9933 28.3684 11.6667 27.5834 11.6667 26.6667V6.66671C11.6667 5.75004 11.9933 4.96504 12.6467 4.31171C13.2989 3.65948 14.0833 3.33337 15 3.33337H30C30.9167 3.33337 31.7017 3.65948 32.355 4.31171C33.0072 4.96504 33.3333 5.75004 33.3333 6.66671V26.6667C33.3333 27.5834 33.0072 28.3684 32.355 29.0217C31.7017 29.6739 30.9167 30 30 30H15ZM15 26.6667H30V6.66671H15V26.6667ZM8.33333 36.6667C7.41667 36.6667 6.63167 36.3406 5.97833 35.6884C5.32611 35.035 5 34.25 5 33.3334V11.6667C5 11.1945 5.16 10.7984 5.48 10.4784C5.79889 10.1595 6.19444 10 6.66667 10C7.13889 10 7.535 10.1595 7.855 10.4784C8.17389 10.7984 8.33333 11.1945 8.33333 11.6667V33.3334H25C25.4722 33.3334 25.8683 33.4934 26.1883 33.8134C26.5072 34.1323 26.6667 34.5278 26.6667 35C26.6667 35.4723 26.5072 35.8678 26.1883 36.1867C25.8683 36.5067 25.4722 36.6667 25 36.6667H8.33333ZM15 6.66671V26.6667V6.66671Z" fill="currentColor"/>
	</symbol>
	<symbol fill="none" xmlns="http://www.w3.org/2000/svg" viewBox="0 0 32 32" id="loading">
		<path d="M4.71868 20.0851C4.46651 19.4295 4.28394 18.7673 4.17097 18.0985C4.05699 17.4308 4 16.7565 4 16.0756C4 12.6966 5.17258 9.82191 7.51773 7.45154C9.86288 5.08117 12.725 3.89598 16.104 3.89598H16.3688L15.0071 2.53428C14.7297 2.25689 14.591 1.90386 14.591 1.47518C14.591 1.04649 14.7297 0.69346 15.0071 0.416076C15.2845 0.138692 15.6375 0 16.0662 0C16.4949 0 16.8479 0.138692 17.1253 0.416076L21.0591 4.34988C21.2104 4.50118 21.3178 4.66509 21.3814 4.84161C21.4439 5.01812 21.4752 5.20725 21.4752 5.40898C21.4752 5.61072 21.4439 5.79984 21.3814 5.97636C21.3178 6.15288 21.2104 6.31678 21.0591 6.46808L17.1253 10.4019C16.8479 10.6793 16.4949 10.818 16.0662 10.818C15.6375 10.818 15.2845 10.6793 15.0071 10.4019C14.7297 10.1245 14.591 9.77147 14.591 9.34279C14.591 8.91411 14.7297 8.56107 15.0071 8.28369L16.3688 6.92199H16.104C13.5823 6.92199 11.4389 7.81062 9.67376 9.5879C7.90859 11.3662 7.026 13.5288 7.026 16.0756C7.026 16.58 7.07039 17.0717 7.15915 17.5508C7.2469 18.0299 7.37904 18.5091 7.55555 18.9882C7.65642 19.2403 7.68164 19.5112 7.63121 19.8007C7.58077 20.0912 7.45469 20.3373 7.25295 20.539C6.79905 20.9929 6.31388 21.176 5.79745 21.0882C5.28 20.9995 4.92041 20.6651 4.71868 20.0851ZM15.0827 31.5839L11.1489 27.6501C10.9976 27.4988 10.8907 27.3349 10.8282 27.1584C10.7646 26.9819 10.7329 26.7927 10.7329 26.591C10.7329 26.3893 10.7646 26.2002 10.8282 26.0236C10.8907 25.8471 10.9976 25.6832 11.1489 25.5319L15.0827 21.5981C15.3601 21.3207 15.7132 21.182 16.1418 21.182C16.5705 21.182 16.9236 21.3207 17.2009 21.5981C17.4783 21.8755 17.617 22.2285 17.617 22.6572C17.617 23.0859 17.4783 23.4389 17.2009 23.7163L15.8392 25.078H16.104C18.6257 25.078 20.7691 24.1894 22.5343 22.4121C24.2994 20.6338 25.182 18.4712 25.182 15.9243C25.182 15.42 25.1382 14.9283 25.0504 14.4492C24.9616 13.9701 24.829 13.4909 24.6525 13.0118C24.5516 12.7597 24.5264 12.4883 24.5768 12.1978C24.6273 11.9083 24.7533 11.6627 24.9551 11.461C25.409 11.0071 25.8942 10.824 26.4106 10.9118C26.928 11.0005 27.2876 11.3349 27.4894 11.9149C27.7415 12.5705 27.9246 13.2322 28.0386 13.9C28.1515 14.5687 28.208 15.2435 28.208 15.9243C28.208 19.3034 27.0355 22.1781 24.6903 24.5485C22.3452 26.9188 19.4831 28.104 16.104 28.104H15.8392L17.2009 29.4657C17.4783 29.7431 17.617 30.0961 17.617 30.5248C17.617 30.9535 17.4783 31.3065 17.2009 31.5839C16.9236 31.8613 16.5705 32 16.1418 32C15.7132 32 15.3601 31.8613 15.0827 31.5839V31.5839Z" fill="currentColor"/>
	</symbol>
</svg>
