<svg width="0" height="0" class="hidden">
	<symbol fill="none" viewBox="0 0 213 238" xmlns="http://www.w3.org/2000/svg" id="monody">
		<path clip-rule="evenodd" d="M102.693 237.901C83.5841 237.901 64.4748 237.966 45.3665 237.882C25.0835 237.794 8.26559 225.498 2.0219 206.368C-3.57541 189.217 2.75135 169.075 17.2569 158.218C19.068 156.863 19.2681 155.931 18.0984 153.891C7.26202 135.002 1.94486 114.53 4.03209 92.9309C8.23858 49.4262 30.2056 18.2677 71.0977 1.15308C75.2832 -0.59841 79.2716 -0.559495 82.7646 2.70495C86.3528 6.05923 86.4498 10.0083 85.068 14.4923C74.3947 49.1218 81.2267 79.7783 106.901 105.62C112.368 111.122 119.423 115.06 125.777 119.675C127.388 120.845 129.066 120.886 131.079 120.26C143.539 116.387 154.187 119.44 163.166 128.834C164.062 129.77 165.721 130.426 167.036 130.445C177.795 130.604 188.266 128.922 198.466 125.41C204.964 123.172 210.979 126.643 212.233 133.3C212.543 134.95 212.217 136.911 211.61 138.512C207.225 150.047 201.15 160.616 192.849 169.816C191.299 171.533 191.174 172.655 192.663 174.569C210.299 197.236 197.217 231.643 168.933 236.977C165.429 237.638 161.794 237.844 158.218 237.861C139.711 237.947 121.202 237.901 102.693 237.901ZM145.312 171.927C147.824 165.447 150.212 159.463 152.458 153.427C153.743 149.972 153.958 146.42 152.339 142.977C148.9 135.664 140.265 133.357 133.069 137.922C128.04 141.112 123.135 144.5 118.123 147.834C115.316 143.014 112.531 138.417 109.926 133.721C104.288 123.561 95.8904 117.385 84.2715 115.819C66.1398 113.374 48.5094 127.008 47.5018 145.458C47.2306 150.425 47.4398 155.425 47.6319 160.403C47.7069 162.362 47.0295 163.28 45.2145 163.834C42.0756 164.792 38.9918 165.928 35.8929 167.013C24.3801 171.044 16.7726 181.772 16.9567 193.696C17.1428 205.697 25.2676 216.37 37.0466 219.764C39.6912 220.527 42.5359 220.921 45.2905 220.926C83.6051 221.001 121.921 220.993 160.235 220.973C176.258 220.965 187.393 206.394 182.632 191.455C179.563 181.828 172.365 177.009 162.625 175.372C156.952 174.416 151.337 173.137 145.312 171.927ZM60.0973 29.7228C42.0796 42.2107 30.914 59.1996 26.0711 80.1825C21.7165 99.0516 23.3065 117.527 31.5213 136.098C38.7066 114.439 53.1141 102.311 75.1681 98.6525C62.6227 77.2334 57.6318 54.3503 60.0973 29.7228ZM168.502 159.54C170.563 159.732 173.179 160.767 174.155 159.92C177.216 157.264 179.66 153.899 182.342 150.809C182.164 150.567 181.987 150.326 181.809 150.083C178.109 150.355 174.409 150.626 170.61 150.905C169.942 153.643 169.294 156.3 168.502 159.54Z" fill="currentColor" fill-rule="evenodd"/>
	</symbol>

	<!-- Counter -->
    <symbol fill="none" xmlns="http://www.w3.org/2000/svg" viewBox="0 0 30 30" id="day">
        <g id="day">
            <path id="Vector"
                  d="M15.0001 5.2583C15.2211 5.2583 15.4331 5.1705 15.5893 5.01422C15.7456 4.85794 15.8334 4.64598 15.8334 4.42497V1.59163C15.8334 1.37062 15.7456 1.15866 15.5893 1.00238C15.4331 0.846098 15.2211 0.758301 15.0001 0.758301C14.7791 0.758301 14.5671 0.846098 14.4108 1.00238C14.2545 1.15866 14.1667 1.37062 14.1667 1.59163V4.42497C14.1667 4.64598 14.2545 4.85794 14.4108 5.01422C14.5671 5.1705 14.7791 5.2583 15.0001 5.2583Z"
                  fill="white"/>
            <path id="Vector_2"
                  d="M15.0001 24.7417C14.7791 24.7417 14.5671 24.8295 14.4108 24.9858C14.2545 25.1421 14.1667 25.354 14.1667 25.575V28.4084C14.1667 28.6294 14.2545 28.8413 14.4108 28.9976C14.5671 29.1539 14.7791 29.2417 15.0001 29.2417C15.2211 29.2417 15.4331 29.1539 15.5893 28.9976C15.7456 28.8413 15.8334 28.6294 15.8334 28.4084V25.575C15.8334 25.354 15.7456 25.1421 15.5893 24.9858C15.4331 24.8295 15.2211 24.7417 15.0001 24.7417V24.7417Z"
                  fill="white"/>
            <path id="Vector_3"
                  d="M6.93329 8.11662C7.08825 8.25748 7.29056 8.33483 7.49996 8.33329C7.60963 8.33392 7.71835 8.3129 7.81988 8.27143C7.92141 8.22996 8.01376 8.16886 8.09162 8.09162C8.16973 8.01415 8.23173 7.92199 8.27403 7.82044C8.31634 7.71889 8.33812 7.60997 8.33812 7.49996C8.33812 7.38995 8.31634 7.28103 8.27403 7.17948C8.23173 7.07793 8.16973 6.98576 8.09162 6.90829L6.10829 4.93329C5.94887 4.79677 5.74381 4.72543 5.53408 4.73353C5.32435 4.74163 5.1254 4.82858 4.97699 4.97699C4.82858 5.1254 4.74163 5.32435 4.73353 5.53408C4.72543 5.74381 4.79677 5.94887 4.93329 6.10829L6.93329 8.11662Z"
                  fill="white"/>
            <path id="Vector_4"
                  d="M23.0666 21.8833C22.9889 21.8056 22.8967 21.7439 22.7951 21.7019C22.6936 21.6598 22.5848 21.6382 22.4749 21.6382C22.365 21.6382 22.2562 21.6598 22.1547 21.7019C22.0532 21.7439 21.961 21.8056 21.8833 21.8833C21.8056 21.961 21.7439 22.0532 21.7019 22.1547C21.6598 22.2562 21.6382 22.365 21.6382 22.4749C21.6382 22.5848 21.6598 22.6936 21.7019 22.7951C21.7439 22.8967 21.8056 22.9889 21.8833 23.0666L23.8916 25.0666C23.9688 25.1453 24.0608 25.208 24.1624 25.2509C24.2639 25.2938 24.373 25.3161 24.4833 25.3166C24.7031 25.3135 24.9127 25.2236 25.0666 25.0666C25.2218 24.9105 25.3089 24.6992 25.3089 24.4791C25.3089 24.2589 25.2218 24.0477 25.0666 23.8916L23.0666 21.8833Z"
                  fill="white"/>
            <path id="Vector_5"
                  d="M5.2583 15.0001C5.2583 14.7791 5.1705 14.5671 5.01422 14.4108C4.85794 14.2545 4.64598 14.1667 4.42497 14.1667H1.59163C1.37062 14.1667 1.15866 14.2545 1.00238 14.4108C0.846098 14.5671 0.758301 14.7791 0.758301 15.0001C0.758301 15.2211 0.846098 15.4331 1.00238 15.5893C1.15866 15.7456 1.37062 15.8334 1.59163 15.8334H4.42497C4.64598 15.8334 4.85794 15.7456 5.01422 15.5893C5.1705 15.4331 5.2583 15.2211 5.2583 15.0001Z"
                  fill="white"/>
            <path id="Vector_6"
                  d="M28.4084 14.1667H25.575C25.354 14.1667 25.1421 14.2545 24.9858 14.4108C24.8295 14.5671 24.7417 14.7791 24.7417 15.0001C24.7417 15.2211 24.8295 15.4331 24.9858 15.5893C25.1421 15.7456 25.354 15.8334 25.575 15.8334H28.4084C28.6294 15.8334 28.8413 15.7456 28.9976 15.5893C29.1539 15.4331 29.2417 15.2211 29.2417 15.0001C29.2417 14.7791 29.1539 14.5671 28.9976 14.4108C28.8413 14.2545 28.6294 14.1667 28.4084 14.1667Z"
                  fill="white"/>
            <path id="Vector_7"
                  d="M6.93327 21.8833L4.93327 23.8916C4.81626 24.0077 4.73628 24.1558 4.70346 24.3173C4.67064 24.4788 4.68645 24.6464 4.74888 24.799C4.81132 24.9515 4.91759 25.0821 5.05424 25.1742C5.19089 25.2664 5.3518 25.3159 5.51661 25.3166C5.62686 25.3161 5.73593 25.2938 5.8375 25.2509C5.93906 25.208 6.03109 25.1453 6.10827 25.0666L8.11661 23.0666C8.27353 22.9097 8.36168 22.6968 8.36168 22.4749C8.36168 22.253 8.27353 22.0402 8.11661 21.8833C7.95969 21.7263 7.74686 21.6382 7.52494 21.6382C7.30302 21.6382 7.09019 21.7263 6.93327 21.8833V21.8833Z"
                  fill="white"/>
            <path id="Vector_8"
                  d="M22.5 8.33334C22.6097 8.33398 22.7184 8.31296 22.82 8.27149C22.9215 8.23002 23.0138 8.16891 23.0917 8.09168L25.0917 6.08334C25.2469 5.92721 25.334 5.716 25.334 5.49584C25.334 5.27569 25.2469 5.06448 25.0917 4.90834C24.9356 4.75313 24.7244 4.66602 24.5042 4.66602C24.284 4.66602 24.0728 4.75313 23.9167 4.90834L21.9084 6.90834C21.8303 6.98581 21.7683 7.07798 21.726 7.17953C21.6836 7.28108 21.6619 7.39 21.6619 7.50001C21.6619 7.61002 21.6836 7.71894 21.726 7.82049C21.7683 7.92204 21.8303 8.01421 21.9084 8.09168C21.9862 8.16891 22.0786 8.23002 22.1801 8.27149C22.2816 8.31296 22.3904 8.33398 22.5 8.33334Z"
                  fill="white"/>
            <path id="Vector_9"
                  d="M15.1084 6.45846C13.4343 6.43697 11.7917 6.91375 10.3893 7.82817C8.98686 8.7426 7.88803 10.0534 7.23246 11.5939C6.57689 13.1344 6.39418 14.835 6.70757 16.4796C7.02095 18.1242 7.81628 19.6385 8.99244 20.8299C10.1686 22.0214 11.6725 22.8362 13.3129 23.1708C14.9533 23.5054 16.6561 23.3447 18.205 22.709C19.7538 22.0734 21.0787 20.9916 22.0111 19.6011C22.9436 18.2107 23.4415 16.5743 23.4417 14.9001C23.4528 12.6766 22.5818 10.5394 21.0197 8.95698C19.4576 7.37457 17.3318 6.47608 15.1084 6.45846V6.45846ZM15.1084 21.6668C13.7636 21.6883 12.4429 21.3091 11.3144 20.5775C10.1859 19.8458 9.30074 18.7949 8.77155 17.5585C8.24235 16.3221 8.09312 14.9562 8.34285 13.6346C8.59257 12.3131 9.22996 11.0958 10.1738 10.1378C11.1177 9.17976 12.3254 8.52432 13.643 8.25495C14.9607 7.98557 16.3287 8.11446 17.5728 8.62518C18.817 9.13591 19.881 10.0054 20.6293 11.1228C21.3777 12.2403 21.7765 13.5552 21.775 14.9001C21.7839 16.6802 21.0876 18.3914 19.8383 19.6594C18.589 20.9274 16.8884 21.6492 15.1084 21.6668V21.6668Z"
                  fill="white"/>
        </g>
    </symbol>
    <symbol fill="none" xmlns="http://www.w3.org/2000/svg" viewBox="0 0 30 30" id="night">
        <path d="M12.658 5.07563C12.2282 6.91052 12.1698 8.81284 12.4861 10.6707C12.8024 12.5285 13.4871 14.3043 14.4999 15.8936C15.5126 17.4829 16.833 18.8535 18.3834 19.925C19.9337 20.9964 21.6827 21.747 23.5274 22.1325C22.5575 23.136 21.396 23.9344 20.1116 24.4803C18.8273 25.0263 17.4464 25.3086 16.0508 25.3106C15.9214 25.3106 15.7902 25.3153 15.6589 25.3106C13.2293 25.225 10.9064 24.291 9.09381 22.6708C7.28122 21.0506 6.09349 18.8466 5.73695 16.4418C5.38041 14.0369 5.87759 11.5831 7.14212 9.50669C8.40666 7.43029 10.3586 5.86247 12.6589 5.07563H12.658ZM14.0436 2.8125C13.9886 2.81269 13.9337 2.8177 13.8796 2.8275C10.8951 3.35861 8.2127 4.97502 6.34871 7.3655C4.48472 9.75598 3.57096 12.7515 3.78337 15.7754C3.99578 18.7992 5.31933 21.6376 7.4992 23.744C9.67907 25.8505 12.5611 27.076 15.5905 27.1847C15.7442 27.1903 15.898 27.1847 16.0499 27.1847C18.0176 27.186 19.9568 26.7134 21.7033 25.8069C23.4498 24.9005 24.9524 23.5867 26.0839 21.9769C26.1756 21.8381 26.2291 21.6777 26.2391 21.5117C26.2491 21.3457 26.2151 21.18 26.1407 21.0312C26.0663 20.8825 25.954 20.756 25.8152 20.6644C25.6764 20.5729 25.5159 20.5195 25.3499 20.5097C23.477 20.3453 21.667 19.7525 20.0597 18.777C18.4525 17.8016 17.0911 16.4696 16.0807 14.8841C15.0703 13.2986 14.4381 11.502 14.2328 9.63315C14.0275 7.76431 14.2547 5.87329 14.8967 4.10625C14.9514 3.96481 14.9714 3.81237 14.9552 3.66162C14.939 3.51086 14.8869 3.36617 14.8035 3.2396C14.72 3.11302 14.6075 3.00822 14.4753 2.93393C14.3432 2.85964 14.1951 2.818 14.0436 2.8125V2.8125Z"
              fill="white"/>
    </symbol>
	<symbol fill="none" xmlns="http://www.w3.org/2000/svg" viewBox="0 0 20 20" id="wait">
		<path fill-rule="evenodd" clip-rule="evenodd"
			  d="M3.95825 1.66663C3.79249 1.66663 3.63352 1.73247 3.51631 1.84968C3.3991 1.96689 3.33325 2.12587 3.33325 2.29163C3.33325 2.45739 3.3991 2.61636 3.51631 2.73357C3.63352 2.85078 3.79249 2.91663 3.95825 2.91663H4.58325V5.40163C4.58325 6.07006 4.75253 6.72762 5.07529 7.31296C5.39806 7.89831 5.8638 8.39239 6.42909 8.74913L8.13242 9.82413C8.16202 9.84294 8.18639 9.86891 8.20327 9.89965C8.22016 9.93039 8.22901 9.96489 8.22901 9.99996C8.22901 10.035 8.22016 10.0695 8.20327 10.1003C8.18639 10.131 8.16202 10.157 8.13242 10.1758L6.42909 11.2508C5.8638 11.6075 5.39806 12.1016 5.07529 12.687C4.75253 13.2723 4.58325 13.9299 4.58325 14.5983V17.0833H3.95825C3.79249 17.0833 3.63352 17.1491 3.51631 17.2664C3.3991 17.3836 3.33325 17.5425 3.33325 17.7083C3.33325 17.8741 3.3991 18.033 3.51631 18.1502C3.63352 18.2674 3.79249 18.3333 3.95825 18.3333H16.0416C16.2073 18.3333 16.3663 18.2674 16.4835 18.1502C16.6007 18.033 16.6666 17.8741 16.6666 17.7083C16.6666 17.5425 16.6007 17.3836 16.4835 17.2664C16.3663 17.1491 16.2073 17.0833 16.0416 17.0833H15.4166V14.5983C15.4166 13.9299 15.2473 13.2723 14.9245 12.687C14.6018 12.1016 14.136 11.6075 13.5708 11.2508L11.8674 10.1758C11.8378 10.157 11.8134 10.131 11.7966 10.1003C11.7797 10.0695 11.7708 10.035 11.7708 9.99996C11.7708 9.96489 11.7797 9.93039 11.7966 9.89965C11.8134 9.86891 11.8378 9.84294 11.8674 9.82413L13.5708 8.74913C14.136 8.39239 14.6018 7.89831 14.9245 7.31296C15.2473 6.72762 15.4166 6.07006 15.4166 5.40163V2.91663H16.0416C16.2073 2.91663 16.3663 2.85078 16.4835 2.73357C16.6007 2.61636 16.6666 2.45739 16.6666 2.29163C16.6666 2.12587 16.6007 1.96689 16.4835 1.84968C16.3663 1.73247 16.2073 1.66663 16.0416 1.66663H3.95825ZM14.1666 2.91663H5.83325V5.40163C5.83336 5.85895 5.94927 6.3088 6.17018 6.70923C6.39109 7.10966 6.70979 7.44763 7.09658 7.69163L8.79992 8.76663C9.0082 8.89805 9.17981 9.08008 9.29873 9.29575C9.41766 9.51141 9.48003 9.75368 9.48003 9.99996C9.48003 10.2462 9.41766 10.4885 9.29873 10.7042C9.17981 10.9198 9.0082 11.1019 8.79992 11.2333L7.09658 12.3083C6.70979 12.5523 6.39109 12.8903 6.17018 13.2907C5.94927 13.6911 5.83336 14.141 5.83325 14.5983V17.0833H14.1666V14.5983C14.1665 14.141 14.0506 13.6911 13.8297 13.2907C13.6088 12.8903 13.29 12.5523 12.9033 12.3083L11.1999 11.2333C10.9916 11.1019 10.82 10.9198 10.7011 10.7042C10.5822 10.4885 10.5198 10.2462 10.5198 9.99996C10.5198 9.75368 10.5822 9.51141 10.7011 9.29575C10.82 9.08008 10.9916 8.89805 11.1999 8.76663L12.9033 7.69163C13.29 7.44763 13.6088 7.10966 13.8297 6.70923C14.0506 6.3088 14.1665 5.85895 14.1666 5.40163V2.91663Z"
			  fill="white"/>
	</symbol>
	<symbol fill="none" xmlns="http://www.w3.org/2000/svg" viewBox="0 0 40 40" id="trophy">
		<path d="M10 7.5H3.75V8.75C3.75 13.0641 6.37109 17.5 10 17.5M30 7.5H36.25V8.75C36.25 13.0641 33.6289 17.5 30 17.5" stroke="currentColor" stroke-width="3" stroke-linecap="round" stroke-linejoin="round"/>
		<path d="M13.75 36.25H26.25M20 36.25V26.25M30 17.5C30 13.5438 29.9937 6.98203 29.9906 5C29.9906 4.66848 29.8589 4.35054 29.6245 4.11612C29.39 3.8817 29.0721 3.75 28.7406 3.75L11.257 3.77031C10.9261 3.77031 10.6088 3.90147 10.3745 4.13505C10.1402 4.36862 10.008 4.68556 10.007 5.01641C10.007 7.40547 9.99683 15.1078 9.99683 17.5C9.99683 22.5219 16.4812 26.25 19.9968 26.25C23.5125 26.25 30 22.5219 30 17.5Z" stroke="currentColor" stroke-width="3" stroke-linecap="round" stroke-linejoin="round"/>
	</symbol>
	<symbol fill="none" xmlns="http://www.w3.org/2000/svg" viewBox="0 0 40 40" id="death">
		<path d="M8.125 3.75C7.62772 3.75 7.15081 3.94754 6.79917 4.29917C6.44754 4.65081 6.25 5.12772 6.25 5.625C6.25 5.9175 6.32875 6.2 6.445 6.445C6.18956 6.31987 5.90943 6.25325 5.625 6.25C5.12772 6.25 4.65081 6.44754 4.29917 6.79917C3.94754 7.15081 3.75 7.62772 3.75 8.125C3.75 8.62228 3.94754 9.09919 4.29917 9.45083C4.65081 9.80246 5.12772 10 5.625 10C6.3375 10 6.94875 9.60875 7.26625 9.02375L10.6638 12.4613C9.76642 13.7885 9.16687 15.2942 8.90625 16.875C8.49625 19.365 8.98 21.7138 10 23.75V25C10 25.8875 10.3325 26.7 10.86 27.3438L7.265 30.9375C7.09858 30.6505 6.85922 30.4126 6.5712 30.248C6.28318 30.0833 5.95675 29.9978 5.625 30C5.12772 30 4.65081 30.1975 4.29917 30.5492C3.94754 30.9008 3.75 31.3777 3.75 31.875C3.75 32.3723 3.94754 32.8492 4.29917 33.2008C4.65081 33.5525 5.12772 33.75 5.625 33.75C5.9175 33.75 6.2 33.6712 6.445 33.555C6.31764 33.8096 6.2509 34.0903 6.25 34.375C6.25 34.8723 6.44754 35.3492 6.79917 35.7008C7.15081 36.0525 7.62772 36.25 8.125 36.25C8.62228 36.25 9.09919 36.0525 9.45083 35.7008C9.80246 35.3492 10 34.8723 10 34.375C10 33.6763 9.62875 33.0562 9.0625 32.7337L13.125 28.6712C13.33 28.7063 13.535 28.75 13.75 28.75C13.75 30.8062 15.4438 32.5 17.5 32.5H22.5C24.5562 32.5 26.25 30.8062 26.25 28.75C26.465 28.75 26.67 28.7063 26.875 28.6712L30.9375 32.7337C30.3713 33.0562 30 33.6763 30 34.375C30 34.8723 30.1975 35.3492 30.5492 35.7008C30.9008 36.0525 31.3777 36.25 31.875 36.25C32.3723 36.25 32.8492 36.0525 33.2008 35.7008C33.5525 35.3492 33.75 34.8723 33.75 34.375C33.75 34.0825 33.6712 33.8 33.555 33.555C33.7987 33.6712 34.0825 33.75 34.375 33.75C34.8723 33.75 35.3492 33.5525 35.7008 33.2008C36.0525 32.8492 36.25 32.3723 36.25 31.875C36.25 31.3777 36.0525 30.9008 35.7008 30.5492C35.3492 30.1975 34.8723 30 34.375 30C33.6763 30 33.0562 30.3713 32.7337 30.9375L29.14 27.3438C29.6899 26.6859 29.9939 25.8574 30 25V23.7887C30.7712 22.2663 31.25 20.5713 31.25 18.75C31.2481 16.5047 30.567 14.3124 29.2962 12.4613L32.7337 9.02375C33.0513 9.60875 33.6625 10 34.375 10C34.8723 10 35.3492 9.80246 35.7008 9.45083C36.0525 9.09919 36.25 8.62228 36.25 8.125C36.25 7.62772 36.0525 7.15081 35.7008 6.79917C35.3492 6.44754 34.8723 6.25 34.375 6.25C34.0825 6.25 33.8 6.32875 33.555 6.445C33.6712 6.20125 33.75 5.9175 33.75 5.625C33.75 5.12772 33.5525 4.65081 33.2008 4.29917C32.8492 3.94754 32.3723 3.75 31.875 3.75C31.3777 3.75 30.9008 3.94754 30.5492 4.29917C30.1975 4.65081 30 5.12772 30 5.625C30 6.3375 30.3913 6.94875 30.9762 7.26625L27.6562 10.5475C25.562 8.58064 22.7943 7.49017 19.9212 7.5C19.5063 7.5 19.0963 7.52875 18.6713 7.57875C16.2905 7.84865 14.059 8.8752 12.305 10.5075L9.02375 7.265C9.60875 6.95 10 6.3375 10 5.625C10 5.12772 9.80246 4.65081 9.45083 4.29917C9.09919 3.94754 8.62228 3.75 8.125 3.75ZM19.9613 10C21.1148 9.9904 22.2588 10.2099 23.3269 10.6457C24.395 11.0816 25.366 11.7251 26.1835 12.539C27.001 13.3529 27.6488 14.3211 28.0894 15.3872C28.53 16.4534 28.7545 17.5964 28.75 18.75C28.75 20.2875 28.355 21.7138 27.6562 22.9688L27.5 23.2812V25C27.5 25.7075 26.9575 26.25 26.25 26.25H23.75V28.75C23.75 29.4575 23.2075 30 22.5 30H17.5C16.7925 30 16.25 29.4575 16.25 28.75V26.25H13.75C13.0425 26.25 12.5 25.7075 12.5 25V23.2812L12.3438 22.9688C11.3778 21.2343 11.0334 19.2219 11.3675 17.265C11.9825 13.4963 15.185 10.5075 18.985 10.0775C19.3162 10.04 19.6338 10 19.96 10H19.9613ZM16.25 18.75C15.587 18.75 14.9511 19.0134 14.4822 19.4822C14.0134 19.9511 13.75 20.587 13.75 21.25C13.75 21.913 14.0134 22.5489 14.4822 23.0178C14.9511 23.4866 15.587 23.75 16.25 23.75C16.913 23.75 17.5489 23.4866 18.0178 23.0178C18.4866 22.5489 18.75 21.913 18.75 21.25C18.75 20.587 18.4866 19.9511 18.0178 19.4822C17.5489 19.0134 16.913 18.75 16.25 18.75ZM23.75 18.75C23.087 18.75 22.4511 19.0134 21.9822 19.4822C21.5134 19.9511 21.25 20.587 21.25 21.25C21.25 21.913 21.5134 22.5489 21.9822 23.0178C22.4511 23.4866 23.087 23.75 23.75 23.75C24.413 23.75 25.0489 23.4866 25.5178 23.0178C25.9866 22.5489 26.25 21.913 26.25 21.25C26.25 20.587 25.9866 19.9511 25.5178 19.4822C25.0489 19.0134 24.413 18.75 23.75 18.75ZM18.75 25V27.5H21.25V25H18.75Z" fill="white"/>
	</symbol>

	<!-- Game page -->
    <symbol fill="none" xmlns="http://www.w3.org/2000/svg" viewBox="0 0 40 40" id="send">
        <path d="M5.44192 4.10199L36.1519 19.234C36.3194 19.3165 36.4604 19.4443 36.559 19.6028C36.6576 19.7613 36.7099 19.9443 36.7099 20.131C36.7099 20.3177 36.6576 20.5007 36.559 20.6592C36.4604 20.8177 36.3194 20.9455 36.1519 21.028L5.43992 36.16C5.26786 36.2445 5.07514 36.2778 4.8847 36.2559C4.69426 36.234 4.51413 36.1578 4.36577 36.0364C4.2174 35.915 4.10705 35.7535 4.04787 35.5712C3.98868 35.3889 3.98314 35.1934 4.03192 35.008L7.96992 20.14L4.02992 5.25599C3.98033 5.07022 3.98536 4.8741 4.04438 4.69111C4.10341 4.50812 4.21394 4.34603 4.36274 4.22425C4.51153 4.10247 4.69228 4.02617 4.88332 4.00449C5.07437 3.9828 5.26762 4.01666 5.43992 4.10199H5.44192ZM6.52792 6.86799L9.74792 19.032L9.87192 19.008L9.99992 19H23.9999C24.2498 18.9995 24.4908 19.0927 24.6755 19.261C24.8601 19.4294 24.9751 19.6608 24.9977 19.9096C25.0202 20.1585 24.9488 20.4068 24.7975 20.6057C24.6461 20.8045 24.4258 20.9395 24.1799 20.984L23.9999 21H9.99992C9.93823 21.0003 9.87664 20.9949 9.81592 20.984L6.52992 33.396L33.4459 20.132L6.52792 6.86799Z"
              fill="black" fill-opacity="0.2"/>
    </symbol>
	<symbol fill="none" xmlns="http://www.w3.org/2000/svg" viewBox="0 0 40 40" id="lock">
		<path d="M20.1 22.8778C19.5018 22.8823 18.9223 23.0871 18.454 23.4593C17.9857 23.8316 17.6556 24.3499 17.5162 24.9317C17.3768 25.5134 17.4363 26.1251 17.6851 26.6692C17.9339 27.2132 18.3577 27.6583 18.8889 27.9334V31.1111H21.1111V28.0334C21.6848 27.7982 22.1592 27.3713 22.4532 26.8255C22.7472 26.2796 22.8427 25.6487 22.7234 25.0402C22.6041 24.4318 22.2773 23.8836 21.7989 23.4893C21.3205 23.0949 20.72 22.8788 20.1 22.8778Z"
			  fill="currentColor" />
		<path d="M28.8889 16.6666V11.9111C28.9366 9.50207 28.0281 7.17224 26.3623 5.4314C24.6964 3.69057 22.4088 2.68049 20 2.62219C17.5912 2.68049 15.3036 3.69057 13.6377 5.4314C11.9719 7.17224 11.0634 9.50207 11.1111 11.9111V16.6666H7.77777V35.5555C7.77777 36.1449 8.0119 36.7101 8.42864 37.1269C8.84539 37.5436 9.41062 37.7777 9.99999 37.7777H30C30.5894 37.7777 31.1546 37.5436 31.5713 37.1269C31.9881 36.7101 32.2222 36.1449 32.2222 35.5555V16.6666H28.8889ZM13.3333 11.9111C13.2854 10.0913 13.9597 8.32662 15.2089 7.0025C16.4581 5.67838 18.1806 4.90251 20 4.84441C21.8194 4.90251 23.5419 5.67838 24.7911 7.0025C26.0403 8.32662 26.7146 10.0913 26.6667 11.9111V16.6666H13.3333V11.9111ZM9.99999 35.5555V18.8889H30V35.5555H9.99999Z"
			  fill="currentColor" />
	</symbol>
	<symbol fill="currentColor" xmlns="http://www.w3.org/2000/svg" width="12" height="12" viewBox="0 0 12 12" id="arrow_down">
		<path d="M11 0.200822L5.78486 9.16776L0.588703 0.167764L11 0.200822Z" />
	</symbol>
	<symbol fill="none" xmlns="http://www.w3.org/2000/svg" viewBox="0 0 40 60" id="mayor">
		<rect x="6" y="6" width="28" height="26" fill="#FFFCF1"/>
		<path d="M28.46 32L20 26.9L11.54 32L13.78 22.38L6.32 15.92L16.16 15.08L20 6L23.84 15.06L33.68 15.9L26.22 22.36L28.46 32ZM20 0C8.94 0 0 9 0 20C0 25.3043 2.10714 30.3914 5.85786 34.1421C7.71504 35.9993 9.91982 37.4725 12.3463 38.4776C14.7728 39.4827 17.3736 40 20 40C25.3043 40 30.3914 37.8929 34.1421 34.1421C37.8929 30.3914 40 25.3043 40 20C40 17.3736 39.4827 14.7728 38.4776 12.3463C37.4725 9.91982 35.9993 7.71504 34.1421 5.85786C32.285 4.00069 30.0802 2.5275 27.6537 1.52241C25.2272 0.517315 22.6264 0 20 0Z" fill="#FFC700"/>
		<path d="M20 52L8 60V36H32V60L20 52Z" fill="#FFC700"/>
	</symbol>
	<symbol fill="none" xmlns="http://www.w3.org/2000/svg" viewBox="0 0 40 40" id="target">
		<circle cx="20" cy="20" r="15" stroke="currentColor" stroke-width="4"/>
		<circle cx="20" cy="20" r="1.5" stroke="currentColor" stroke-width="3"/>
		<rect y="18" width="12" height="4" fill="currentColor"/>
		<rect x="28" y="18" width="12" height="4" fill="currentColor"/>
		<rect x="18" y="12" width="12" height="4" transform="rotate(-90 18 12)" fill="currentColor"/>
		<rect x="18" y="40" width="12" height="4" transform="rotate(-90 18 40)" fill="currentColor"/>
	</symbol>


	<!-- Play page -->
	<symbol fill="none" xmlns="http://www.w3.org/2000/svg" viewBox="0 0 40 40" id="logout">
        <path d="M8.33333 8.33333H18.3333C19.25 8.33333 20 7.58333 20 6.66667C20 5.75 19.25 5 18.3333 5H8.33333C6.5 5 5 6.5 5 8.33333V31.6667C5 33.5 6.5 35 8.33333 35H18.3333C19.25 35 20 34.25 20 33.3333C20 32.4167 19.25 31.6667 18.3333 31.6667H8.33333V8.33333Z" fill="currentColor" />
        <path d="M34.4167 19.4167L29.7667 14.7667C29.6508 14.6476 29.5019 14.5658 29.3393 14.5318C29.1766 14.4978 29.0075 14.5131 28.8536 14.5757C28.6997 14.6383 28.5679 14.7455 28.4752 14.8834C28.3826 15.0214 28.3332 15.1838 28.3333 15.35V18.3333H16.6667C15.75 18.3333 15 19.0833 15 20C15 20.9167 15.75 21.6667 16.6667 21.6667H28.3333V24.65C28.3333 25.4 29.2333 25.7667 29.75 25.2333L34.4 20.5833C34.7333 20.2667 34.7333 19.7333 34.4167 19.4167Z" fill="currentColor" />
    </symbol>
    <symbol fill="none" xmlns="http://www.w3.org/2000/svg" viewBox="0 0 44 44" id="wheel">
        <path d="M17.7143 2V7.71429L14.8571 9.14286L10.5714 4.85714L4.85714 10.5714L9.14286 14.8571L7.71429 17.7143H2V26.2857H7.71429L9.14286 29.1429L4.85714 33.4286L10.5714 39.1429L14.8571 34.8571L17.7143 36.2857V42H26.2857V36.2857L29.1429 34.8571L33.4286 39.1429L39.1429 33.4286L34.8571 29.1429L36.2857 26.2857H42V17.7143H36.2857L34.8571 14.8571L39.1429 10.5714L33.4286 4.85714L29.1429 9.14286L26.2857 7.71429V2H17.7143Z" stroke="currentColor" stroke-width="2.5" stroke-linecap="round" stroke-linejoin="round" />
        <path d="M21.9999 27.7143C25.1558 27.7143 27.7142 25.1559 27.7142 22C27.7142 18.8441 25.1558 16.2857 21.9999 16.2857C18.844 16.2857 16.2856 18.8441 16.2856 22C16.2856 25.1559 18.844 27.7143 21.9999 27.7143Z" stroke="currentColor" stroke-width="2.5" stroke-linecap="round" stroke-linejoin="round" />
    </symbol>
	<symbol fill="none" xmlns="http://www.w3.org/2000/svg" viewBox="0 0 44 44" id="share">
		<path d="M9.2 29.2C13.1764 29.2 16.4 25.9765 16.4 22C16.4 18.0236 13.1764 14.8 9.2 14.8C5.22355 14.8 2 18.0236 2 22C2 25.9765 5.22355 29.2 9.2 29.2Z" stroke="currentColor" stroke-width="3" stroke-linecap="round" stroke-linejoin="round"/>
		<path d="M34.8001 42C38.7765 42 42.0001 38.7764 42.0001 34.8C42.0001 30.8235 38.7765 27.6 34.8001 27.6C30.8236 27.6 27.6001 30.8235 27.6001 34.8C27.6001 38.7764 30.8236 42 34.8001 42Z" stroke="currentColor" stroke-width="3" stroke-linecap="round" stroke-linejoin="round"/>
		<path d="M34.8001 16.4C38.7765 16.4 42.0001 13.1764 42.0001 9.2C42.0001 5.22355 38.7765 2 34.8001 2C30.8236 2 27.6001 5.22355 27.6001 9.2C27.6001 13.1764 30.8236 16.4 34.8001 16.4Z" stroke="currentColor" stroke-width="3" stroke-linecap="round" stroke-linejoin="round"/>
		<path d="M15.6001 18.8L28.4001 12.4M15.6001 25.2L28.4001 31.6L15.6001 25.2Z" stroke="currentColor" stroke-width="3" stroke-linecap="round" stroke-linejoin="round"/>
	</symbol>
	<symbol fill="none" xmlns="http://www.w3.org/2000/svg" viewBox="0 0 12 12" id="plus">
		<path d="M11.1429 6.85714H6.85714V11.1429C6.85714 11.3702 6.76684 11.5882 6.60609 11.7489C6.44535 11.9097 6.22733 12 6 12C5.77267 12 5.55465 11.9097 5.39391 11.7489C5.23316 11.5882 5.14286 11.3702 5.14286 11.1429V6.85714H0.857143C0.629814 6.85714 0.411797 6.76684 0.251051 6.60609C0.090306 6.44535 0 6.22733 0 6C0 5.77267 0.090306 5.55465 0.251051 5.39391C0.411797 5.23316 0.629814 5.14286 0.857143 5.14286H5.14286V0.857143C5.14286 0.629814 5.23316 0.411797 5.39391 0.251051C5.55465 0.0903056 5.77267 0 6 0C6.22733 0 6.44535 0.0903056 6.60609 0.251051C6.76684 0.411797 6.85714 0.629814 6.85714 0.857143V5.14286H11.1429C11.3702 5.14286 11.5882 5.23316 11.7489 5.39391C11.9097 5.55465 12 5.77267 12 6C12 6.22733 11.9097 6.44535 11.7489 6.60609C11.5882 6.76684 11.3702 6.85714 11.1429 6.85714Z" fill="currentColor"/>
	</symbol>
	<symbol fill="none" xmlns="http://www.w3.org/2000/svg" viewBox="0 0 12 12" id="minus">
		<path d="M11.1429 6.81438H0.857143C0.629814 6.81438 0.411797 6.72408 0.251051 6.56333C0.090306 6.40259 0 6.18457 0 5.95724C0 5.72991 0.090306 5.51189 0.251051 5.35115C0.411797 5.1904 0.629814 5.1001 0.857143 5.1001H11.1429C11.3702 5.1001 11.5882 5.1904 11.7489 5.35115C11.9097 5.51189 12 5.72991 12 5.95724C12 6.18457 11.9097 6.40259 11.7489 6.56333C11.5882 6.72408 11.3702 6.81438 11.1429 6.81438Z" fill="currentColor"/>
	</symbol>
	<symbol fill="none" xmlns="http://www.w3.org/2000/svg" viewBox="0 0 40 40" id="edit">
		<path d="M35.6751 13.5342L26.3733 4.32877L29.4374 1.26027C30.2764 0.420091 31.3073 0 32.53 0C33.7513 0 34.7814 0.420091 35.6204 1.26027L38.6845 4.32877C39.5235 5.16895 39.9612 6.18301 39.9977 7.37096C40.0342 8.55744 39.6329 9.57078 38.794 10.411L35.6751 13.5342ZM32.5016 16.7671L9.3018 40H0V30.6849L23.1998 7.45205L32.5016 16.7671Z" fill="#FFFCF1"/>
	</symbol>

	<!-- Stats -->
	<symbol fill="none" xmlns="http://www.w3.org/2000/svg" viewBox="0 0 32 32" id="win_rate">
		<path d="M8 6H3V7C3 10.4513 5.09687 14 8 14M24 6H29V7C29 10.4513 26.9031 14 24 14" stroke="currentColor" stroke-width="2.5" stroke-linecap="round" stroke-linejoin="round"/>
		<path d="M11.0001 29H21.0001M16.0001 29V21M24.0001 14C24.0001 10.835 23.9951 5.58563 23.9926 4C23.9926 3.73478 23.8872 3.48043 23.6997 3.29289C23.5121 3.10536 23.2578 3 22.9926 3L9.00568 3.01625C8.74101 3.01625 8.48713 3.12118 8.29968 3.30804C8.11223 3.4949 8.00651 3.74845 8.00568 4.01312C8.00568 5.92437 7.99756 12.0862 7.99756 14C7.99756 18.0175 13.1851 21 15.9976 21C18.8101 21 24.0001 18.0175 24.0001 14Z" stroke="currentColor" stroke-width="2.5" stroke-linecap="round" stroke-linejoin="round"/>
		<path d="M14.2761 9.27609C14.7967 8.75547 14.7967 7.91109 14.2761 7.39047C13.7555 6.86984 12.9111 6.86984 12.3905 7.39047C11.8698 7.91109 11.8698 8.75547 12.3905 9.27609C12.9113 9.79693 13.7555 9.79693 14.2761 9.27609ZM19.6094 12.7238C19.0888 12.2032 18.2444 12.2032 17.7238 12.7238C17.2032 13.2444 17.2032 14.0888 17.7238 14.6094C18.2444 15.1301 19.0888 15.1301 19.6094 14.6094C20.1303 14.0888 20.1303 13.2446 19.6094 12.7238ZM19.569 7.90234L19.0978 7.43109C18.8373 7.17068 18.4153 7.17068 18.1551 7.43109L12.4311 13.1551C12.1707 13.4155 12.1707 13.8376 12.4311 14.0978L12.9023 14.569C13.1628 14.8294 13.5848 14.8294 13.8451 14.569L19.569 8.84505C19.8294 8.58484 19.8294 8.16276 19.569 7.90234Z" fill="currentColor"/>
	</symbol>
	<symbol fill="none" xmlns="http://www.w3.org/2000/svg" viewBox="0 0 32 32" id="elo">
		<path d="M16.328 6.20429C16.3001 6.14346 16.2552 6.09193 16.1989 6.05581C16.1425 6.01969 16.077 6.00049 16.01 6.00049C15.9431 6.00049 15.8775 6.01969 15.8212 6.05581C15.7648 6.09193 15.72 6.14346 15.692 6.20429L14.26 9.31029C14.2349 9.36438 14.1963 9.41115 14.148 9.44616C14.0997 9.48116 14.0433 9.50324 13.984 9.51029L10.586 9.91429C10.5198 9.92232 10.4572 9.94912 10.4056 9.99154C10.3541 10.034 10.3158 10.0902 10.2952 10.1537C10.2746 10.2172 10.2726 10.2853 10.2894 10.3498C10.3062 10.4144 10.3411 10.4729 10.39 10.5183L12.902 12.8403C12.9462 12.881 12.9791 12.9323 12.9977 12.9894C13.0162 13.0465 13.0198 13.1074 13.008 13.1663L12.34 16.5203C12.3269 16.5859 12.3329 16.6538 12.3572 16.7161C12.3816 16.7784 12.4232 16.8324 12.4773 16.8718C12.5314 16.9111 12.5956 16.9342 12.6624 16.9382C12.7291 16.9422 12.7956 16.9269 12.854 16.8943L15.84 15.2243C15.892 15.1954 15.9505 15.1802 16.01 15.1802C16.0695 15.1802 16.128 15.1954 16.18 15.2243L19.166 16.8943C19.426 17.0403 19.738 16.8143 19.68 16.5203L19.014 13.1663C19.0023 13.1074 19.0058 13.0465 19.0244 12.9894C19.0429 12.9323 19.0759 12.881 19.12 12.8403L21.63 10.5183C21.6789 10.4729 21.7139 10.4144 21.7307 10.3498C21.7475 10.2853 21.7454 10.2172 21.7248 10.1537C21.7042 10.0902 21.6659 10.034 21.6144 9.99154C21.5629 9.94912 21.5003 9.92232 21.434 9.91429L18.038 9.51029C17.9784 9.50356 17.9216 9.48164 17.8729 9.44661C17.8242 9.41159 17.7853 9.36465 17.76 9.31029L16.328 6.20429ZM28 12.0003C28.0019 13.6889 27.6464 15.3588 26.9571 16.9003C26.2677 18.4418 25.2599 19.82 24 20.9443V31.0003C24 31.1754 23.9539 31.3475 23.8665 31.4992C23.7791 31.6509 23.6534 31.7771 23.5019 31.865C23.3504 31.9528 23.1785 31.9994 23.0034 32C22.8283 32.0006 22.6561 31.9552 22.504 31.8683L16 28.1523L9.49601 31.8683C9.34395 31.9552 9.17175 32.0006 8.99663 32C8.82151 31.9994 8.64962 31.9528 8.49815 31.865C8.34668 31.7771 8.22095 31.6509 8.13353 31.4992C8.04611 31.3475 8.00007 31.1754 8.00001 31.0003V20.9443C6.50804 19.6098 5.37358 17.9234 4.69995 16.0384C4.02631 14.1535 3.83489 12.13 4.14313 10.1522C4.45136 8.17436 5.24946 6.30506 6.46473 4.71451C7.68001 3.12395 9.27386 1.86266 11.1012 1.0455C12.9285 0.228332 14.9311 -0.118753 16.9268 0.0358484C18.9226 0.19045 20.8479 0.841827 22.5275 1.93066C24.2072 3.0195 25.5878 4.51121 26.5436 6.26995C27.4994 8.0287 28.0001 9.9986 28 12.0003ZM16 24.0003C13.8934 24.0034 11.8234 23.4493 10 22.3943V29.2783L15.504 26.1323C15.6551 26.046 15.826 26.0006 16 26.0006C16.174 26.0006 16.345 26.046 16.496 26.1323L22 29.2803V22.3963C20.1765 23.4507 18.1065 24.0041 16 24.0003ZM16 22.0003C18.6522 22.0003 21.1957 20.9467 23.0711 19.0714C24.9465 17.196 26 14.6525 26 12.0003C26 9.34812 24.9465 6.80458 23.0711 4.92921C21.1957 3.05385 18.6522 2.00028 16 2.00028C13.3479 2.00028 10.8043 3.05385 8.92894 4.92921C7.05358 6.80458 6.00001 9.34812 6.00001 12.0003C6.00001 14.6525 7.05358 17.196 8.92894 19.0714C10.8043 20.9467 13.3479 22.0003 16 22.0003Z" fill="currentColor"/>
	</symbol>
	<symbol fill="none" xmlns="http://www.w3.org/2000/svg" viewBox="0 0 32 32" id="level">
		<path d="M20.8 9L23.548 11.748L17.692 17.604L12.892 12.804L4 21.708L5.692 23.4L12.892 16.2L17.692 21L25.252 13.452L28 16.2V9H20.8Z" fill="currentColor"/>
	</symbol>
	<symbol fill="none" xmlns="http://www.w3.org/2000/svg" viewBox="0 0 34 31" id="ranking">
		<path d="M12 11H2V29.4615H12V11Z" stroke="currentColor" stroke-width="2.5" stroke-linecap="round" stroke-linejoin="round"/>
		<path d="M22 1.77002H12V29.4623H22V1.77002Z" stroke="currentColor" stroke-width="2.5" stroke-linejoin="round"/>
		<path d="M32 17.155H22V29.4627H32V17.155Z" stroke="currentColor" stroke-width="2.5" stroke-linecap="round" stroke-linejoin="round"/>
	</symbol>
	<symbol fill="none" xmlns="http://www.w3.org/2000/svg" viewBox="0 0 32 32" id="losses">
		<path d="M21.2 23.6L24.177 20.623L17.833 14.279L12.633 19.479L3 9.833L4.833 8L12.633 15.8L17.833 10.6L26.023 18.777L29 15.8V23.6H21.2Z" fill="currentColor"/>
	</symbol>
	<symbol fill="none" xmlns="http://www.w3.org/2000/svg" viewBox="0 0 32 32" id="win_streak">
		<path d="M26.5291 14.5782C26.1202 14.0448 25.6224 13.5826 25.1602 13.1204C23.969 12.0537 22.6179 11.2892 21.4801 10.1692C18.8311 7.57355 18.2444 3.28898 19.9334 0C18.2444 0.408901 16.7688 1.33337 15.5066 2.34673C10.902 6.04462 9.0886 12.5692 11.2576 18.1694C11.3287 18.3472 11.3998 18.525 11.3998 18.7561C11.3998 19.1472 11.1331 19.5028 10.7775 19.645C10.3686 19.8228 9.94196 19.7161 9.60417 19.4317C9.50267 19.3477 9.41818 19.2451 9.35528 19.1294C7.34633 16.5871 7.02632 12.9426 8.37747 10.027C5.4085 12.4448 3.79067 16.5338 4.02179 20.3917C4.12846 21.2806 4.23513 22.1695 4.53736 23.0584C4.78626 24.1251 5.26627 25.1918 5.79962 26.1341C7.71967 29.2097 11.0442 31.4142 14.6176 31.8587C18.4222 32.3387 22.4934 31.6453 25.4091 29.0142C28.6625 26.063 29.8003 21.3339 28.1291 17.2805L27.898 16.8183C27.5247 16.0005 26.5291 14.5782 26.5291 14.5782ZM20.9112 25.7785C20.4134 26.2052 19.5956 26.6674 18.9555 26.8452C16.9644 27.5563 14.9732 26.5608 13.7998 25.3874C15.9155 24.8896 17.1777 23.3251 17.5511 21.7428C17.8533 20.3206 17.2844 19.1472 17.0533 17.7783C16.8399 16.4627 16.8755 15.3427 17.3555 14.116C17.6933 14.7915 18.0489 15.4671 18.4755 16.0005C19.8445 17.7783 21.9956 18.5605 22.4579 20.9784C22.529 21.2273 22.5645 21.4762 22.5645 21.7428C22.6179 23.2007 21.9779 24.8007 20.9112 25.7785Z" fill="currentColor"/>
	</symbol>

	<!-- Alerts -->
	<symbol fill="none" xmlns="http://www.w3.org/2000/svg" viewBox="0 0 40 40" id="success">
		<path d="M15.9982 23.1739L11.4002 18.5839L8.57617 21.4159L16.0022 28.8259L29.4142 15.4139L26.5862 12.5859L15.9982 23.1739Z" fill="currentColor"/>
		<path d="M20 0C8.972 0 0 8.972 0 20C0 31.028 8.972 40 20 40C31.028 40 40 31.028 40 20C40 8.972 31.028 0 20 0ZM20 36C11.178 36 4 28.822 4 20C4 11.178 11.178 4 20 4C28.822 4 36 11.178 36 20C36 28.822 28.822 36 20 36Z" fill="currentColor"/>
	</symbol>
	<symbol fill="none" xmlns="http://www.w3.org/2000/svg" viewBox="0 0 40 40" id="info">
        <path d="M20.0001 3.3317C29.2067 3.3317 36.6701 10.795 36.6701 20.0017C36.6701 29.2067 29.2067 36.67 20.0001 36.67C10.7934 36.67 3.33008 29.2067 3.33008 20.0017C3.33008 10.795 10.7934 3.3317 20.0001 3.3317ZM20.0001 5.8317C18.1264 5.81137 16.2673 6.16286 14.5304 6.86582C12.7935 7.56877 11.2133 8.60923 9.88118 9.92697C8.54907 11.2447 7.49153 12.8136 6.76978 14.5428C6.04803 16.2719 5.6764 18.1271 5.6764 20.0009C5.6764 21.8746 6.04803 23.7298 6.76978 25.459C7.49153 27.1881 8.54907 28.757 9.88118 30.0748C11.2133 31.3925 12.7935 32.433 14.5304 33.1359C16.2673 33.8389 18.1264 34.1903 20.0001 34.17C23.7201 34.113 27.2685 32.5951 29.879 29.9443C32.4895 27.2934 33.9528 23.7222 33.9528 20.0017C33.9528 16.2812 32.4895 12.71 29.879 10.0591C27.2685 7.40825 23.7201 5.89042 20.0001 5.83336V5.8317ZM19.9934 17.4984C20.2958 17.498 20.588 17.6072 20.816 17.8058C21.044 18.0043 21.1923 18.2788 21.2334 18.5784L21.2451 18.7484L21.2501 27.9184C21.25 28.2351 21.1297 28.5399 20.9135 28.7713C20.6972 29.0028 20.4012 29.1435 20.0853 29.1651C19.7693 29.1867 19.4569 29.0875 19.2112 28.8876C18.9656 28.6878 18.8049 28.4021 18.7617 28.0884L18.7501 27.92L18.7451 18.75C18.7451 18.4185 18.8768 18.1006 19.1112 17.8661C19.3456 17.6317 19.6636 17.5 19.9951 17.5L19.9934 17.4984ZM20.0001 11.6717C20.2231 11.6646 20.4452 11.7025 20.6532 11.7829C20.8613 11.8634 21.0511 11.9848 21.2113 12.1401C21.3715 12.2953 21.4989 12.4811 21.5859 12.6865C21.6729 12.892 21.7178 13.1128 21.7178 13.3359C21.7178 13.5589 21.6729 13.7798 21.5859 13.9852C21.4989 14.1906 21.3715 14.3764 21.2113 14.5317C21.0511 14.6869 20.8613 14.8083 20.6532 14.8888C20.4452 14.9693 20.2231 15.0071 20.0001 15C19.5678 14.9863 19.1579 14.805 18.8569 14.4944C18.556 14.1838 18.3878 13.7683 18.3878 13.3359C18.3878 12.9034 18.556 12.4879 18.8569 12.1773C19.1579 11.8667 19.5678 11.6854 20.0001 11.6717Z" fill="currentColor"/>
    </symbol>
	<symbol fill="none" xmlns="http://www.w3.org/2000/svg" viewBox="0 0 40 40" id="warn">
		<path d="M20 40C8.954 40 0 31.046 0 20C0 8.954 8.954 0 20 0C31.046 0 40 8.954 40 20C40 31.046 31.046 40 20 40ZM20 36C24.2435 36 28.3131 34.3143 31.3137 31.3137C34.3143 28.3131 36 24.2435 36 20C36 15.7565 34.3143 11.6869 31.3137 8.68629C28.3131 5.68571 24.2435 4 20 4C15.7565 4 11.6869 5.68571 8.68629 8.68629C5.68571 11.6869 4 15.7565 4 20C4 24.2435 5.68571 28.3131 8.68629 31.3137C11.6869 34.3143 15.7565 36 20 36V36ZM18 26H22V30H18V26ZM18 10H22V22H18V10Z" fill="currentColor"/>
	</symbol>
	<symbol fill="none" xmlns="http://www.w3.org/2000/svg" viewBox="0 0 40 40" id="error">
		<path d="M20 4C15.7565 4 11.6869 5.68571 8.68629 8.68629C5.68571 11.6869 4 15.7565 4 20C4 24.2435 5.68571 28.3131 8.68629 31.3137C11.6869 34.3143 15.7565 36 20 36C24.2435 36 28.3131 34.3143 31.3137 31.3137C34.3143 28.3131 36 24.2435 36 20C36 15.7565 34.3143 11.6869 31.3137 8.68629C28.3131 5.68571 24.2435 4 20 4V4ZM0 20C0 8.954 8.954 0 20 0C31.046 0 40 8.954 40 20C40 31.046 31.046 40 20 40C8.954 40 0 31.046 0 20ZM11.586 11.586C11.9611 11.2111 12.4697 11.0004 13 11.0004C13.5303 11.0004 14.0389 11.2111 14.414 11.586L20 17.172L25.586 11.586C25.7705 11.395 25.9912 11.2426 26.2352 11.1378C26.4792 11.033 26.7416 10.9778 27.0072 10.9755C27.2728 10.9732 27.5361 11.0238 27.7819 11.1244C28.0277 11.2249 28.251 11.3734 28.4388 11.5612C28.6266 11.749 28.7751 11.9723 28.8756 12.2181C28.9762 12.4639 29.0268 12.7272 29.0245 12.9928C29.0222 13.2584 28.967 13.5208 28.8622 13.7648C28.7574 14.0088 28.605 14.2295 28.414 14.414L22.828 20L28.414 25.586C28.7783 25.9632 28.9799 26.4684 28.9753 26.9928C28.9708 27.5172 28.7605 28.0188 28.3896 28.3896C28.0188 28.7605 27.5172 28.9708 26.9928 28.9753C26.4684 28.9799 25.9632 28.7783 25.586 28.414L20 22.828L14.414 28.414C14.0368 28.7783 13.5316 28.9799 13.0072 28.9753C12.4828 28.9708 11.9812 28.7605 11.6104 28.3896C11.2395 28.0188 11.0292 27.5172 11.0247 26.9928C11.0201 26.4684 11.2217 25.9632 11.586 25.586L17.172 20L11.586 14.414C11.2111 14.0389 11.0004 13.5303 11.0004 13C11.0004 12.4697 11.2111 11.9611 11.586 11.586V11.586Z" fill="currentColor"/>
	</symbol>
	<symbol fill="none" xmlns="http://www.w3.org/2000/svg" viewBox="0 0 40 40" id="cross">
		<path d="M5.96405 0.981789L20 15.0177L33.9632 1.05451C34.2717 0.726224 34.6432 0.463603 35.0556 0.2824C35.468 0.101196 35.9127 0.00514292 36.3632 0C37.3276 0 38.2524 0.383104 38.9344 1.06503C39.6163 1.74696 39.9994 2.67186 39.9994 3.63626C40.0079 4.08207 39.9252 4.52491 39.7563 4.93761C39.5875 5.3503 39.3361 5.72414 39.0176 6.03619L24.8726 19.9994L39.0176 34.1444C39.6169 34.7308 39.9684 35.5247 39.9994 36.3626C39.9994 37.327 39.6163 38.2519 38.9344 38.9338C38.2524 39.6157 37.3276 39.9988 36.3632 39.9988C35.8997 40.018 35.4374 39.9407 35.0054 39.7717C34.5735 39.6027 34.1814 39.3457 33.8541 39.017L20 24.9811L6.00041 38.9807C5.69317 39.298 5.32612 39.5514 4.92045 39.7261C4.51478 39.9009 4.07852 39.9936 3.63685 39.9988C2.67245 39.9988 1.74756 39.6157 1.06563 38.9338C0.383696 38.2519 0.000591643 37.327 0.000591643 36.3626C-0.00788627 35.9168 0.0748273 35.4739 0.243657 35.0612C0.412487 34.6485 0.663871 34.2747 0.982381 33.9626L15.1274 19.9994L0.982381 5.85437C0.383071 5.26806 0.0316439 4.47409 0.000591643 3.63626C0.000591643 2.67186 0.383696 1.74696 1.06563 1.06503C1.74756 0.383104 2.67245 0 3.63685 0C4.50955 0.0109088 5.34589 0.363626 5.96405 0.981789Z" fill="currentColor"/>
	</symbol>

	<!-- Socials -->
	<symbol fill="none" xmlns="http://www.w3.org/2000/svg" viewBox="0 0 40 40" id="chain">
		<path d="M34.9999 29.2307C34.9999 28.5897 34.7755 28.0448 34.3268 27.5961L29.3268 22.5961C28.8781 22.1473 28.3332 21.923 27.6922 21.923C27.0191 21.923 26.4422 22.1794 25.9614 22.6922C26.0095 22.7403 26.1618 22.8885 26.4182 23.1369C26.6746 23.3853 26.8469 23.5576 26.935 23.6538C27.0231 23.7499 27.1433 23.9022 27.2956 24.1105C27.4478 24.3188 27.552 24.5231 27.6081 24.7235C27.6642 24.9238 27.6922 25.1441 27.6922 25.3845C27.6922 26.0255 27.4679 26.5704 27.0191 27.0191C26.5704 27.4679 26.0255 27.6922 25.3845 27.6922C25.1441 27.6922 24.9238 27.6642 24.7235 27.6081C24.5231 27.552 24.3188 27.4478 24.1105 27.2956C23.9022 27.1433 23.7499 27.0231 23.6538 26.935C23.5576 26.8469 23.3853 26.6746 23.1369 26.4182C22.8885 26.1618 22.7403 26.0095 22.6922 25.9614C22.1634 26.4582 21.8989 27.0432 21.8989 27.7163C21.8989 28.3573 22.1233 28.9022 22.572 29.3509L27.5239 34.3268C27.9566 34.7595 28.5015 34.9759 29.1586 34.9759C29.7996 34.9759 30.3445 34.7675 30.7932 34.3509L34.3268 30.8413C34.7755 30.3925 34.9999 29.8557 34.9999 29.2307ZM18.1009 12.2836C18.1009 11.6425 17.8765 11.0977 17.4278 10.6489L12.4759 5.67298C12.0271 5.22427 11.4823 4.99991 10.8413 4.99991C10.2163 4.99991 9.67138 5.21625 9.20664 5.64894L5.67298 9.15856C5.22427 9.60728 4.99991 10.1441 4.99991 10.7691C4.99991 11.4102 5.22427 11.955 5.67298 12.4038L10.673 17.4038C11.1057 17.8364 11.6505 18.0528 12.3076 18.0528C12.9807 18.0528 13.5576 17.8044 14.0384 17.3076C13.9903 17.2595 13.838 17.1113 13.5816 16.8629C13.3252 16.6145 13.153 16.4422 13.0648 16.3461C12.9767 16.2499 12.8565 16.0977 12.7042 15.8893C12.552 15.681 12.4478 15.4767 12.3917 15.2763C12.3356 15.076 12.3076 14.8557 12.3076 14.6153C12.3076 13.9743 12.532 13.4294 12.9807 12.9807C13.4294 12.532 13.9743 12.3076 14.6153 12.3076C14.8557 12.3076 15.076 12.3356 15.2763 12.3917C15.4767 12.4478 15.681 12.552 15.8893 12.7042C16.0977 12.8565 16.2499 12.9767 16.3461 13.0648C16.4422 13.153 16.6145 13.3252 16.8629 13.5816C17.1113 13.838 17.2595 13.9903 17.3076 14.0384C17.8364 13.5416 18.1009 12.9566 18.1009 12.2836ZM39.6153 29.2307C39.6153 31.1538 38.9342 32.7804 37.572 34.1105L34.0384 37.6201C32.7082 38.9502 31.0816 39.6153 29.1586 39.6153C27.2195 39.6153 25.5848 38.9342 24.2547 37.572L19.3028 32.5961C17.9727 31.2659 17.3076 29.6393 17.3076 27.7163C17.3076 25.7451 18.0127 24.0704 19.423 22.6922L17.3076 20.5768C15.9294 21.9871 14.2627 22.6922 12.3076 22.6922C10.3845 22.6922 8.74991 22.0191 7.40375 20.673L2.40375 15.673C1.0576 14.3268 0.384521 12.6922 0.384521 10.7691C0.384521 8.84606 1.06561 7.21946 2.42779 5.88933L5.96144 2.37971C7.29157 1.04959 8.91818 0.384521 10.8413 0.384521C12.7804 0.384521 14.415 1.06561 15.7451 2.42779L20.697 7.40375C22.0272 8.73388 22.6922 10.3605 22.6922 12.2836C22.6922 14.2547 21.9871 15.9294 20.5768 17.3076L22.6922 19.423C24.0704 18.0127 25.7371 17.3076 27.6922 17.3076C29.6153 17.3076 31.2499 17.9807 32.5961 19.3268L37.5961 24.3268C38.9422 25.673 39.6153 27.3076 39.6153 29.2307Z" fill="currentColor"/>
	</symbol>
	<symbol fill="none" xmlns="http://www.w3.org/2000/svg" viewBox="0 0 40 40" id="discord">
		<path d="M33.845 7.53349C31.3116 6.35251 28.5687 5.49534 25.7115 5.00009C25.6864 4.99929 25.6615 5.00399 25.6385 5.01386C25.6154 5.02373 25.5949 5.03854 25.5782 5.05723C25.2353 5.68582 24.8353 6.50489 24.5686 7.13348C21.538 6.67632 18.4561 6.67632 15.4255 7.13348C15.1588 6.48584 14.7588 5.68582 14.3969 5.05723C14.3779 5.01914 14.3207 5.00009 14.2636 5.00009C11.4063 5.49534 8.68246 6.35251 6.13 7.53349C6.11096 7.53349 6.09191 7.55254 6.07286 7.57159C0.891766 15.3242 -0.536845 22.8672 0.167936 30.3341C0.167936 30.3722 0.186984 30.4103 0.225081 30.4294C3.65375 32.9437 6.94907 34.4676 10.2063 35.4771C10.2635 35.4962 10.3206 35.4771 10.3396 35.439C11.1016 34.3914 11.7873 33.2866 12.3778 32.1246C12.4159 32.0484 12.3778 31.9723 12.3016 31.9532C11.2159 31.5341 10.1873 31.0389 9.17771 30.4675C9.10151 30.4294 9.10151 30.3151 9.15866 30.2579C9.36819 30.1055 9.57772 29.9341 9.78725 29.7817C9.82534 29.7436 9.88249 29.7436 9.92058 29.7627C16.4731 32.7532 23.54 32.7532 30.0164 29.7627C30.0545 29.7436 30.1116 29.7436 30.1497 29.7817C30.3592 29.9532 30.5688 30.1055 30.7783 30.277C30.8545 30.3341 30.8545 30.4484 30.7592 30.4865C29.7687 31.077 28.7211 31.5532 27.6354 31.9723C27.5592 31.9913 27.5401 32.0865 27.5592 32.1437C28.1687 33.3056 28.8544 34.4104 29.5973 35.4581C29.6545 35.4771 29.7116 35.4962 29.7687 35.4771C33.045 34.4676 36.3404 32.9437 39.769 30.4294C39.8071 30.4103 39.8262 30.3722 39.8262 30.3341C40.6643 21.7053 38.4356 14.2194 33.9212 7.57159C33.9022 7.55254 33.8831 7.53349 33.845 7.53349ZM13.3683 25.7816C11.4063 25.7816 9.7682 23.972 9.7682 21.7434C9.7682 19.5148 11.3682 17.7052 13.3683 17.7052C15.3874 17.7052 16.9874 19.5338 16.9684 21.7434C16.9684 23.972 15.3684 25.7816 13.3683 25.7816ZM26.6449 25.7816C24.6829 25.7816 23.0448 23.972 23.0448 21.7434C23.0448 19.5148 24.6448 17.7052 26.6449 17.7052C28.664 17.7052 30.264 19.5338 30.2449 21.7434C30.2449 23.972 28.664 25.7816 26.6449 25.7816Z" fill="currentColor"/>
	</symbol>
	<symbol fill="none" xmlns="http://www.w3.org/2000/svg" viewBox="0 0 40 40" id="twitter">
		<path d="M40 7.82409C38.5277 8.49331 36.9407 8.93308 35.2964 9.1434C36.979 8.13002 38.2792 6.5239 38.891 4.59273C37.304 5.54876 35.5449 6.21797 33.6902 6.60038C32.1797 4.95602 30.0574 4 27.6482 4C23.1549 4 19.4837 7.67113 19.4837 12.2027C19.4837 12.8528 19.5602 13.4837 19.6941 14.0765C12.8872 13.7323 6.826 10.4627 2.79159 5.51052C2.08413 6.71511 1.6826 8.13002 1.6826 9.62142C1.6826 12.4704 3.11664 14.9943 5.33461 16.4283C3.97706 16.4283 2.71511 16.0459 1.60612 15.4723V15.5296C1.60612 19.5067 4.43595 22.8337 8.18356 23.5794C6.98036 23.9086 5.7172 23.9544 4.49331 23.7132C5.01263 25.3432 6.02971 26.7694 7.40156 27.7915C8.77342 28.8135 10.4311 29.3799 12.1415 29.4111C9.24212 31.7064 5.64818 32.9471 1.95029 32.9293C1.30019 32.9293 0.650096 32.891 0 32.8145C3.63289 35.1472 7.95411 36.5048 12.5813 36.5048C27.6482 36.5048 35.9273 24 35.9273 13.1587C35.9273 12.7954 35.9273 12.4512 35.9082 12.088C37.5143 10.9407 38.891 9.48757 40 7.82409Z" fill="currentColor"/>
	</symbol>

	<!-- Form -->
	<symbol fill="none" xmlns="http://www.w3.org/2000/svg" viewBox="0 0 21 21" id="question">
		<path d="M10 20C4.477 20 0 15.523 0 10C0 4.477 4.477 0 10 0C15.523 0 20 4.477 20 10C20 15.523 15.523 20 10 20ZM10 18C12.1217 18 14.1566 17.1571 15.6569 15.6569C17.1571 14.1566 18 12.1217 18 10C18 7.87827 17.1571 5.84344 15.6569 4.34315C14.1566 2.84285 12.1217 2 10 2C7.87827 2 5.84344 2.84285 4.34315 4.34315C2.84285 5.84344 2 7.87827 2 10C2 12.1217 2.84285 14.1566 4.34315 15.6569C5.84344 17.1571 7.87827 18 10 18ZM9 13H11V15H9V13ZM11 11.355V12H9V10.5C9 10.2348 9.10536 9.98043 9.29289 9.79289C9.48043 9.60536 9.73478 9.5 10 9.5C10.2841 9.49998 10.5623 9.4193 10.8023 9.26733C11.0423 9.11536 11.2343 8.89837 11.3558 8.64158C11.4773 8.3848 11.5234 8.0988 11.4887 7.81684C11.454 7.53489 11.34 7.26858 11.1598 7.04891C10.9797 6.82924 10.7409 6.66523 10.4712 6.57597C10.2015 6.48671 9.91204 6.47587 9.63643 6.54471C9.36081 6.61354 9.11042 6.75923 8.91437 6.96482C8.71832 7.1704 8.58468 7.42743 8.529 7.706L6.567 7.313C6.68863 6.70508 6.96951 6.14037 7.38092 5.67659C7.79233 5.2128 8.31952 4.86658 8.90859 4.67332C9.49766 4.48006 10.1275 4.44669 10.7337 4.57661C11.3399 4.70654 11.9007 4.99511 12.3588 5.41282C12.8169 5.83054 13.1559 6.36241 13.3411 6.95406C13.5263 7.54572 13.5511 8.17594 13.4129 8.78031C13.2747 9.38467 12.9785 9.9415 12.5545 10.3939C12.1306 10.8462 11.5941 11.1779 11 11.355Z" fill="currentColor"/>
	</symbol>
	<symbol xmlns="http://www.w3.org/2000/svg" viewBox="0 0 40 40" id="eye">
		<path d="M20 14.1818C21.4466 14.1818 22.834 14.7565 23.8569 15.7794C24.8799 16.8023 25.4545 18.1897 25.4545 19.6364C25.4545 21.083 24.8799 22.4704 23.8569 23.4933C22.834 24.5162 21.4466 25.0909 20 25.0909C18.5534 25.0909 17.166 24.5162 16.1431 23.4933C15.1201 22.4704 14.5455 21.083 14.5455 19.6364C14.5455 18.1897 15.1201 16.8023 16.1431 15.7794C17.166 14.7565 18.5534 14.1818 20 14.1818M20 6C29.0909 6 36.8545 11.6545 40 19.6364C36.8545 27.6182 29.0909 33.2727 20 33.2727C10.9091 33.2727 3.14545 27.6182 0 19.6364C3.14545 11.6545 10.9091 6 20 6ZM3.96364 19.6364C5.43319 22.6369 7.7151 25.165 10.55 26.9332C13.3848 28.7014 16.6589 29.6388 20 29.6388C23.3411 29.6388 26.6152 28.7014 29.45 26.9332C32.2849 25.165 34.5668 22.6369 36.0364 19.6364C34.5668 16.6358 32.2849 14.1077 29.45 12.3395C26.6152 10.5713 23.3411 9.63396 20 9.63396C16.6589 9.63396 13.3848 10.5713 10.55 12.3395C7.7151 14.1077 5.43319 16.6358 3.96364 19.6364V19.6364Z" fill="currentColor"/>
	</symbol>
	<symbol xmlns="http://www.w3.org/2000/svg" viewBox="0 0 40 40" id="closed_eye">
		<path d="M1.81818 6.30909L4.14545 4L34.5455 34.4L32.2364 36.7273L26.6364 31.1273C24.5455 31.8182 22.3273 32.1818 20 32.1818C10.9091 32.1818 3.14545 26.5273 0 18.5455C1.25455 15.3455 3.25455 12.5273 5.8 10.2909L1.81818 6.30909ZM20 13.0909C21.4466 13.0909 22.834 13.6656 23.8569 14.6885C24.8799 15.7114 25.4545 17.0988 25.4545 18.5455C25.4555 19.1647 25.3509 19.7795 25.1455 20.3636L18.1818 13.4C18.7659 13.1945 19.3808 13.09 20 13.0909M20 4.90909C29.0909 4.90909 36.8545 10.5636 40 18.5455C38.5161 22.3149 35.9945 25.5867 32.7273 27.9818L30.1455 25.3818C32.6598 23.6425 34.6877 21.2892 36.0364 18.5455C34.5665 15.5453 32.2844 13.0178 29.4496 11.25C26.6147 9.48225 23.3408 8.54523 20 8.54545C18.0182 8.54545 16.0727 8.87273 14.2545 9.45455L11.4545 6.67273C14.0727 5.54545 16.9636 4.90909 20 4.90909ZM3.96364 18.5455C5.43353 21.5456 7.71558 24.0731 10.5504 25.8409C13.3853 27.6087 16.6592 28.5457 20 28.5455C21.2545 28.5455 22.4909 28.4182 23.6364 28.1636L19.4909 24C18.2258 23.8644 17.0451 23.2998 16.1454 22.4C15.2457 21.5003 14.6811 20.3197 14.5455 19.0545L8.36364 12.8545C6.56364 14.4 5.05455 16.3273 3.96364 18.5455V18.5455Z" fill="currentColor"/>
	</symbol>
	<symbol fill="none" xmlns="http://www.w3.org/2000/svg" viewBox="0 0 35 35" id="back_chevron">
		<path d="M17.5625 2.25C9.10872 2.25 2.25 9.10872 2.25 17.5625C2.25 26.0163 9.10872 32.875 17.5625 32.875C26.0163 32.875 32.875 26.0163 32.875 17.5625C32.875 9.10872 26.0163 2.25 17.5625 2.25Z" stroke="currentColor" stroke-width="3" stroke-miterlimit="10"/>
		<path d="M19.25 24.5L12.25 17.5L19.25 10.5" stroke="currentColor" stroke-width="3" stroke-linecap="round" stroke-linejoin="round"/>
	</symbol>

	<!-- Debug bar -->
	<symbol fill="none" xmlns="http://www.w3.org/2000/svg" viewBox="0 0 40 40" id="beta">
		<path d="M13.3333 36.6666V13.3333C13.3333 11.5652 14.0356 9.86949 15.2859 8.61925C16.5361 7.369 18.2318 6.66663 19.9999 6.66663H20.8333C22.3803 6.66663 23.8641 7.28121 24.958 8.37517C26.052 9.46913 26.6666 10.9529 26.6666 12.5C26.6666 14.0471 26.052 15.5308 24.958 16.6247C23.8641 17.7187 22.3803 18.3333 20.8333 18.3333H19.9999H20.8333C22.3166 18.3333 23.7667 18.7732 25 19.5973C26.2334 20.4214 27.1947 21.5927 27.7623 22.9632C28.33 24.3336 28.4785 25.8416 28.1891 27.2965C27.8998 28.7513 27.1854 30.0877 26.1366 31.1366C25.0877 32.1855 23.7513 32.8998 22.2964 33.1892C20.8416 33.4786 19.3336 33.33 17.9631 32.7624C16.5927 32.1947 15.4213 31.2334 14.5972 30.0001C13.7731 28.7667 13.3333 27.3167 13.3333 25.8333V25" stroke="currentColor" stroke-width="3.5" stroke-linecap="round" stroke-linejoin="round"/>
	</symbol>
	<symbol fill="none" xmlns="http://www.w3.org/2000/svg" viewBox="0 0 32 32" id="api">
		<path d="M16.0223 0C8.16449 0 1.80005 3.18222 1.80005 7.11111V24.8889C1.80005 28.8178 8.18227 32 16.0223 32C23.8623 32 30.2445 28.8178 30.2445 24.8889V7.11111C30.2445 3.18222 23.8801 0 16.0223 0ZM26.6889 24.8889C26.6889 25.7778 22.9023 28.4444 16.0223 28.4444C9.14227 28.4444 5.3556 25.7778 5.3556 24.8889V20.9244C8.21783 22.3111 11.9689 23.1111 16.0223 23.1111C20.0756 23.1111 23.8267 22.3111 26.6889 20.9244V24.8889ZM26.6889 16.8C24.3778 18.4889 20.3245 19.5556 16.0223 19.5556C11.72 19.5556 7.66672 18.4889 5.3556 16.8V11.8044C7.96894 13.28 11.7734 14.2222 16.0223 14.2222C20.2712 14.2222 24.0756 13.28 26.6889 11.8044V16.8ZM16.0223 10.6667C9.14227 10.6667 5.3556 8 5.3556 7.11111C5.3556 6.22222 9.14227 3.55556 16.0223 3.55556C22.9023 3.55556 26.6889 6.22222 26.6889 7.11111C26.6889 8 22.9023 10.6667 16.0223 10.6667Z" fill="currentColor"/>
	</symbol>
	<symbol fill="none" xmlns="http://www.w3.org/2000/svg" viewBox="0 0 32 32" id="websockets">
		<path d="M31.9088 1.75359L30.246 0.0902294C30.1832 0.0274612 30.1048 0 30.0224 0C29.9401 0 29.8616 0.0313842 29.7989 0.0902294L26.8144 3.07564C25.517 2.19631 23.9852 1.72749 22.418 1.73005C20.4101 1.73005 18.4021 2.49504 16.8687 4.02893L12.8723 8.02648C12.8139 8.08547 12.7812 8.16512 12.7812 8.24813C12.7812 8.33114 12.8139 8.41079 12.8723 8.46978L23.5279 19.1286C23.5907 19.1914 23.6691 19.2188 23.7514 19.2188C23.8299 19.2188 23.9122 19.1874 23.975 19.1286L27.9713 15.1311C30.6734 12.4242 30.9911 8.23832 28.9243 5.18622L31.9088 2.20081C32.0304 2.07527 32.0304 1.8752 31.9088 1.75359ZM26.081 13.2441L23.7514 15.5744L16.4255 8.24617L18.7551 5.9159C19.7316 4.93907 21.0336 4.3977 22.418 4.3977C23.8024 4.3977 25.1005 4.93515 26.081 5.9159C27.0575 6.89273 27.5987 8.19517 27.5987 9.57999C27.5987 10.9648 27.0575 12.2633 26.081 13.2441ZM18.6217 17.3632C18.5627 17.3048 18.4831 17.2721 18.4001 17.2721C18.3171 17.2721 18.2375 17.3048 18.1785 17.3632L15.5666 19.976L12.0252 16.4335L14.6411 13.8168C14.7626 13.6952 14.7626 13.4952 14.6411 13.3735L13.2135 11.9456C13.1546 11.8872 13.0749 11.8544 12.9919 11.8544C12.909 11.8544 12.8293 11.8872 12.7704 11.9456L10.1545 14.5622L8.46814 12.8753C8.43886 12.846 8.40397 12.8229 8.36556 12.8074C8.32715 12.7919 8.28601 12.7843 8.24459 12.7851C8.16616 12.7851 8.0838 12.8165 8.02105 12.8753L4.02864 16.8729C1.32651 19.5797 1.00885 23.7656 3.07564 26.8177L0.0911431 29.8031C0.0327544 29.8621 0 29.9418 0 30.0248C0 30.1078 0.0327544 30.1874 0.0911431 30.2464L1.75399 31.9098C1.81674 31.9725 1.89518 32 1.97754 32C2.05989 32 2.13833 31.9686 2.20108 31.9098L5.18558 28.9244C6.50723 29.8227 8.04458 30.27 9.58193 30.27C11.5899 30.27 13.5979 29.505 15.1313 27.9711L19.1276 23.9735C19.2492 23.8519 19.2492 23.6518 19.1276 23.5302L17.4412 21.8433L20.0571 19.2267C20.1787 19.1051 20.1787 18.905 20.0571 18.7834L18.6217 17.3632ZM13.241 26.088C12.761 26.5706 12.1901 26.9533 11.5614 27.2139C10.9327 27.4745 10.2586 27.6078 9.57801 27.6062C8.19361 27.6062 6.89549 27.0688 5.91504 26.088C5.43258 25.6079 5.05004 25.0368 4.78953 24.4079C4.52903 23.779 4.39571 23.1047 4.39729 22.4239C4.39729 21.0391 4.93458 19.7406 5.91504 18.7598L8.24459 16.4296L15.5705 23.7578L13.241 26.088Z" fill="currentColor"/>
	</symbol>
	<symbol fill="none" xmlns="http://www.w3.org/2000/svg" viewBox="0 0 32 32" id="requests">
		<path d="M21.28 18.12L15.52 12.36C15.36 12.2 15.2469 12.0267 15.1808 11.84C15.1136 11.6533 15.08 11.4533 15.08 11.24C15.08 11.0267 15.1136 10.8267 15.1808 10.64C15.2469 10.4533 15.36 10.28 15.52 10.12L21.28 4.36C21.6 4.04 21.9733 3.88 22.4 3.88C22.8267 3.88 23.2 4.04 23.52 4.36C23.84 4.68 24 5.05974 24 5.4992C24 5.93974 23.84 6.32 23.52 6.64L20.52 9.64H30.4C30.8533 9.64 31.2331 9.79307 31.5392 10.0992C31.8464 10.4064 32 10.7867 32 11.24C32 11.6933 31.8464 12.0731 31.5392 12.3792C31.2331 12.6864 30.8533 12.84 30.4 12.84H20.52L23.52 15.84C23.84 16.16 24 16.5333 24 16.96C24 17.3867 23.84 17.76 23.52 18.08C23.2 18.4 22.8336 18.5733 22.4208 18.6C22.0069 18.6267 21.6267 18.4667 21.28 18.12ZM8.48 27.68C8.8 28 9.17333 28.1664 9.6 28.1792C10.0267 28.1931 10.4 28.04 10.72 27.72L16.48 21.96C16.64 21.8 16.7536 21.6267 16.8208 21.44C16.8869 21.2533 16.92 21.0533 16.92 20.84C16.92 20.6267 16.8869 20.4267 16.8208 20.24C16.7536 20.0533 16.64 19.88 16.48 19.72L10.72 13.96C10.4 13.64 10.0267 13.48 9.6 13.48C9.17333 13.48 8.8 13.64 8.48 13.96C8.16 14.28 8 14.6597 8 15.0992C8 15.5397 8.16 15.92 8.48 16.24L11.48 19.24H1.6C1.14667 19.24 0.766934 19.3931 0.4608 19.6992C0.1536 20.0064 0 20.3867 0 20.84C0 21.2933 0.1536 21.6731 0.4608 21.9792C0.766934 22.2864 1.14667 22.44 1.6 22.44H11.48L8.48 25.44C8.16 25.76 8 26.1333 8 26.56C8 26.9867 8.16 27.36 8.48 27.68Z" fill="currentColor"/>
	</symbol>
	<symbol fill="none" xmlns="http://www.w3.org/2000/svg" viewBox="0 0 40 40" id="copy">
		<path d="M15 30C14.0833 30 13.2989 29.6739 12.6467 29.0217C11.9933 28.3684 11.6667 27.5834 11.6667 26.6667V6.66671C11.6667 5.75004 11.9933 4.96504 12.6467 4.31171C13.2989 3.65948 14.0833 3.33337 15 3.33337H30C30.9167 3.33337 31.7017 3.65948 32.355 4.31171C33.0072 4.96504 33.3333 5.75004 33.3333 6.66671V26.6667C33.3333 27.5834 33.0072 28.3684 32.355 29.0217C31.7017 29.6739 30.9167 30 30 30H15ZM15 26.6667H30V6.66671H15V26.6667ZM8.33333 36.6667C7.41667 36.6667 6.63167 36.3406 5.97833 35.6884C5.32611 35.035 5 34.25 5 33.3334V11.6667C5 11.1945 5.16 10.7984 5.48 10.4784C5.79889 10.1595 6.19444 10 6.66667 10C7.13889 10 7.535 10.1595 7.855 10.4784C8.17389 10.7984 8.33333 11.1945 8.33333 11.6667V33.3334H25C25.4722 33.3334 25.8683 33.4934 26.1883 33.8134C26.5072 34.1323 26.6667 34.5278 26.6667 35C26.6667 35.4723 26.5072 35.8678 26.1883 36.1867C25.8683 36.5067 25.4722 36.6667 25 36.6667H8.33333ZM15 6.66671V26.6667V6.66671Z" fill="currentColor"/>
	</symbol>
	<symbol fill="none" xmlns="http://www.w3.org/2000/svg" viewBox="0 0 32 32" id="loading">
		<path d="M4.71868 20.0851C4.46651 19.4295 4.28394 18.7673 4.17097 18.0985C4.05699 17.4308 4 16.7565 4 16.0756C4 12.6966 5.17258 9.82191 7.51773 7.45154C9.86288 5.08117 12.725 3.89598 16.104 3.89598H16.3688L15.0071 2.53428C14.7297 2.25689 14.591 1.90386 14.591 1.47518C14.591 1.04649 14.7297 0.69346 15.0071 0.416076C15.2845 0.138692 15.6375 0 16.0662 0C16.4949 0 16.8479 0.138692 17.1253 0.416076L21.0591 4.34988C21.2104 4.50118 21.3178 4.66509 21.3814 4.84161C21.4439 5.01812 21.4752 5.20725 21.4752 5.40898C21.4752 5.61072 21.4439 5.79984 21.3814 5.97636C21.3178 6.15288 21.2104 6.31678 21.0591 6.46808L17.1253 10.4019C16.8479 10.6793 16.4949 10.818 16.0662 10.818C15.6375 10.818 15.2845 10.6793 15.0071 10.4019C14.7297 10.1245 14.591 9.77147 14.591 9.34279C14.591 8.91411 14.7297 8.56107 15.0071 8.28369L16.3688 6.92199H16.104C13.5823 6.92199 11.4389 7.81062 9.67376 9.5879C7.90859 11.3662 7.026 13.5288 7.026 16.0756C7.026 16.58 7.07039 17.0717 7.15915 17.5508C7.2469 18.0299 7.37904 18.5091 7.55555 18.9882C7.65642 19.2403 7.68164 19.5112 7.63121 19.8007C7.58077 20.0912 7.45469 20.3373 7.25295 20.539C6.79905 20.9929 6.31388 21.176 5.79745 21.0882C5.28 20.9995 4.92041 20.6651 4.71868 20.0851ZM15.0827 31.5839L11.1489 27.6501C10.9976 27.4988 10.8907 27.3349 10.8282 27.1584C10.7646 26.9819 10.7329 26.7927 10.7329 26.591C10.7329 26.3893 10.7646 26.2002 10.8282 26.0236C10.8907 25.8471 10.9976 25.6832 11.1489 25.5319L15.0827 21.5981C15.3601 21.3207 15.7132 21.182 16.1418 21.182C16.5705 21.182 16.9236 21.3207 17.2009 21.5981C17.4783 21.8755 17.617 22.2285 17.617 22.6572C17.617 23.0859 17.4783 23.4389 17.2009 23.7163L15.8392 25.078H16.104C18.6257 25.078 20.7691 24.1894 22.5343 22.4121C24.2994 20.6338 25.182 18.4712 25.182 15.9243C25.182 15.42 25.1382 14.9283 25.0504 14.4492C24.9616 13.9701 24.829 13.4909 24.6525 13.0118C24.5516 12.7597 24.5264 12.4883 24.5768 12.1978C24.6273 11.9083 24.7533 11.6627 24.9551 11.461C25.409 11.0071 25.8942 10.824 26.4106 10.9118C26.928 11.0005 27.2876 11.3349 27.4894 11.9149C27.7415 12.5705 27.9246 13.2322 28.0386 13.9C28.1515 14.5687 28.208 15.2435 28.208 15.9243C28.208 19.3034 27.0355 22.1781 24.6903 24.5485C22.3452 26.9188 19.4831 28.104 16.104 28.104H15.8392L17.2009 29.4657C17.4783 29.7431 17.617 30.0961 17.617 30.5248C17.617 30.9535 17.4783 31.3065 17.2009 31.5839C16.9236 31.8613 16.5705 32 16.1418 32C15.7132 32 15.3601 31.8613 15.0827 31.5839V31.5839Z" fill="currentColor"/>
	</symbol>
</svg>
