<svg width="0" height="0" class="hidden">
	<!-- Counter -->
    <symbol fill="none" xmlns="http://www.w3.org/2000/svg" viewBox="0 0 30 30" id="day">
        <g id="day">
            <path id="Vector"
                  d="M15.0001 5.2583C15.2211 5.2583 15.4331 5.1705 15.5893 5.01422C15.7456 4.85794 15.8334 4.64598 15.8334 4.42497V1.59163C15.8334 1.37062 15.7456 1.15866 15.5893 1.00238C15.4331 0.846098 15.2211 0.758301 15.0001 0.758301C14.7791 0.758301 14.5671 0.846098 14.4108 1.00238C14.2545 1.15866 14.1667 1.37062 14.1667 1.59163V4.42497C14.1667 4.64598 14.2545 4.85794 14.4108 5.01422C14.5671 5.1705 14.7791 5.2583 15.0001 5.2583Z"
                  fill="white"/>
            <path id="Vector_2"
                  d="M15.0001 24.7417C14.7791 24.7417 14.5671 24.8295 14.4108 24.9858C14.2545 25.1421 14.1667 25.354 14.1667 25.575V28.4084C14.1667 28.6294 14.2545 28.8413 14.4108 28.9976C14.5671 29.1539 14.7791 29.2417 15.0001 29.2417C15.2211 29.2417 15.4331 29.1539 15.5893 28.9976C15.7456 28.8413 15.8334 28.6294 15.8334 28.4084V25.575C15.8334 25.354 15.7456 25.1421 15.5893 24.9858C15.4331 24.8295 15.2211 24.7417 15.0001 24.7417V24.7417Z"
                  fill="white"/>
            <path id="Vector_3"
                  d="M6.93329 8.11662C7.08825 8.25748 7.29056 8.33483 7.49996 8.33329C7.60963 8.33392 7.71835 8.3129 7.81988 8.27143C7.92141 8.22996 8.01376 8.16886 8.09162 8.09162C8.16973 8.01415 8.23173 7.92199 8.27403 7.82044C8.31634 7.71889 8.33812 7.60997 8.33812 7.49996C8.33812 7.38995 8.31634 7.28103 8.27403 7.17948C8.23173 7.07793 8.16973 6.98576 8.09162 6.90829L6.10829 4.93329C5.94887 4.79677 5.74381 4.72543 5.53408 4.73353C5.32435 4.74163 5.1254 4.82858 4.97699 4.97699C4.82858 5.1254 4.74163 5.32435 4.73353 5.53408C4.72543 5.74381 4.79677 5.94887 4.93329 6.10829L6.93329 8.11662Z"
                  fill="white"/>
            <path id="Vector_4"
                  d="M23.0666 21.8833C22.9889 21.8056 22.8967 21.7439 22.7951 21.7019C22.6936 21.6598 22.5848 21.6382 22.4749 21.6382C22.365 21.6382 22.2562 21.6598 22.1547 21.7019C22.0532 21.7439 21.961 21.8056 21.8833 21.8833C21.8056 21.961 21.7439 22.0532 21.7019 22.1547C21.6598 22.2562 21.6382 22.365 21.6382 22.4749C21.6382 22.5848 21.6598 22.6936 21.7019 22.7951C21.7439 22.8967 21.8056 22.9889 21.8833 23.0666L23.8916 25.0666C23.9688 25.1453 24.0608 25.208 24.1624 25.2509C24.2639 25.2938 24.373 25.3161 24.4833 25.3166C24.7031 25.3135 24.9127 25.2236 25.0666 25.0666C25.2218 24.9105 25.3089 24.6992 25.3089 24.4791C25.3089 24.2589 25.2218 24.0477 25.0666 23.8916L23.0666 21.8833Z"
                  fill="white"/>
            <path id="Vector_5"
                  d="M5.2583 15.0001C5.2583 14.7791 5.1705 14.5671 5.01422 14.4108C4.85794 14.2545 4.64598 14.1667 4.42497 14.1667H1.59163C1.37062 14.1667 1.15866 14.2545 1.00238 14.4108C0.846098 14.5671 0.758301 14.7791 0.758301 15.0001C0.758301 15.2211 0.846098 15.4331 1.00238 15.5893C1.15866 15.7456 1.37062 15.8334 1.59163 15.8334H4.42497C4.64598 15.8334 4.85794 15.7456 5.01422 15.5893C5.1705 15.4331 5.2583 15.2211 5.2583 15.0001Z"
                  fill="white"/>
            <path id="Vector_6"
                  d="M28.4084 14.1667H25.575C25.354 14.1667 25.1421 14.2545 24.9858 14.4108C24.8295 14.5671 24.7417 14.7791 24.7417 15.0001C24.7417 15.2211 24.8295 15.4331 24.9858 15.5893C25.1421 15.7456 25.354 15.8334 25.575 15.8334H28.4084C28.6294 15.8334 28.8413 15.7456 28.9976 15.5893C29.1539 15.4331 29.2417 15.2211 29.2417 15.0001C29.2417 14.7791 29.1539 14.5671 28.9976 14.4108C28.8413 14.2545 28.6294 14.1667 28.4084 14.1667Z"
                  fill="white"/>
            <path id="Vector_7"
                  d="M6.93327 21.8833L4.93327 23.8916C4.81626 24.0077 4.73628 24.1558 4.70346 24.3173C4.67064 24.4788 4.68645 24.6464 4.74888 24.799C4.81132 24.9515 4.91759 25.0821 5.05424 25.1742C5.19089 25.2664 5.3518 25.3159 5.51661 25.3166C5.62686 25.3161 5.73593 25.2938 5.8375 25.2509C5.93906 25.208 6.03109 25.1453 6.10827 25.0666L8.11661 23.0666C8.27353 22.9097 8.36168 22.6968 8.36168 22.4749C8.36168 22.253 8.27353 22.0402 8.11661 21.8833C7.95969 21.7263 7.74686 21.6382 7.52494 21.6382C7.30302 21.6382 7.09019 21.7263 6.93327 21.8833V21.8833Z"
                  fill="white"/>
            <path id="Vector_8"
                  d="M22.5 8.33334C22.6097 8.33398 22.7184 8.31296 22.82 8.27149C22.9215 8.23002 23.0138 8.16891 23.0917 8.09168L25.0917 6.08334C25.2469 5.92721 25.334 5.716 25.334 5.49584C25.334 5.27569 25.2469 5.06448 25.0917 4.90834C24.9356 4.75313 24.7244 4.66602 24.5042 4.66602C24.284 4.66602 24.0728 4.75313 23.9167 4.90834L21.9084 6.90834C21.8303 6.98581 21.7683 7.07798 21.726 7.17953C21.6836 7.28108 21.6619 7.39 21.6619 7.50001C21.6619 7.61002 21.6836 7.71894 21.726 7.82049C21.7683 7.92204 21.8303 8.01421 21.9084 8.09168C21.9862 8.16891 22.0786 8.23002 22.1801 8.27149C22.2816 8.31296 22.3904 8.33398 22.5 8.33334Z"
                  fill="white"/>
            <path id="Vector_9"
                  d="M15.1084 6.45846C13.4343 6.43697 11.7917 6.91375 10.3893 7.82817C8.98686 8.7426 7.88803 10.0534 7.23246 11.5939C6.57689 13.1344 6.39418 14.835 6.70757 16.4796C7.02095 18.1242 7.81628 19.6385 8.99244 20.8299C10.1686 22.0214 11.6725 22.8362 13.3129 23.1708C14.9533 23.5054 16.6561 23.3447 18.205 22.709C19.7538 22.0734 21.0787 20.9916 22.0111 19.6011C22.9436 18.2107 23.4415 16.5743 23.4417 14.9001C23.4528 12.6766 22.5818 10.5394 21.0197 8.95698C19.4576 7.37457 17.3318 6.47608 15.1084 6.45846V6.45846ZM15.1084 21.6668C13.7636 21.6883 12.4429 21.3091 11.3144 20.5775C10.1859 19.8458 9.30074 18.7949 8.77155 17.5585C8.24235 16.3221 8.09312 14.9562 8.34285 13.6346C8.59257 12.3131 9.22996 11.0958 10.1738 10.1378C11.1177 9.17976 12.3254 8.52432 13.643 8.25495C14.9607 7.98557 16.3287 8.11446 17.5728 8.62518C18.817 9.13591 19.881 10.0054 20.6293 11.1228C21.3777 12.2403 21.7765 13.5552 21.775 14.9001C21.7839 16.6802 21.0876 18.3914 19.8383 19.6594C18.589 20.9274 16.8884 21.6492 15.1084 21.6668V21.6668Z"
                  fill="white"/>
        </g>
    </symbol>
    <symbol fill="none" xmlns="http://www.w3.org/2000/svg" viewBox="0 0 30 30" id="night">
        <path d="M12.658 5.07563C12.2282 6.91052 12.1698 8.81284 12.4861 10.6707C12.8024 12.5285 13.4871 14.3043 14.4999 15.8936C15.5126 17.4829 16.833 18.8535 18.3834 19.925C19.9337 20.9964 21.6827 21.747 23.5274 22.1325C22.5575 23.136 21.396 23.9344 20.1116 24.4803C18.8273 25.0263 17.4464 25.3086 16.0508 25.3106C15.9214 25.3106 15.7902 25.3153 15.6589 25.3106C13.2293 25.225 10.9064 24.291 9.09381 22.6708C7.28122 21.0506 6.09349 18.8466 5.73695 16.4418C5.38041 14.0369 5.87759 11.5831 7.14212 9.50669C8.40666 7.43029 10.3586 5.86247 12.6589 5.07563H12.658ZM14.0436 2.8125C13.9886 2.81269 13.9337 2.8177 13.8796 2.8275C10.8951 3.35861 8.2127 4.97502 6.34871 7.3655C4.48472 9.75598 3.57096 12.7515 3.78337 15.7754C3.99578 18.7992 5.31933 21.6376 7.4992 23.744C9.67907 25.8505 12.5611 27.076 15.5905 27.1847C15.7442 27.1903 15.898 27.1847 16.0499 27.1847C18.0176 27.186 19.9568 26.7134 21.7033 25.8069C23.4498 24.9005 24.9524 23.5867 26.0839 21.9769C26.1756 21.8381 26.2291 21.6777 26.2391 21.5117C26.2491 21.3457 26.2151 21.18 26.1407 21.0312C26.0663 20.8825 25.954 20.756 25.8152 20.6644C25.6764 20.5729 25.5159 20.5195 25.3499 20.5097C23.477 20.3453 21.667 19.7525 20.0597 18.777C18.4525 17.8016 17.0911 16.4696 16.0807 14.8841C15.0703 13.2986 14.4381 11.502 14.2328 9.63315C14.0275 7.76431 14.2547 5.87329 14.8967 4.10625C14.9514 3.96481 14.9714 3.81237 14.9552 3.66162C14.939 3.51086 14.8869 3.36617 14.8035 3.2396C14.72 3.11302 14.6075 3.00822 14.4753 2.93393C14.3432 2.85964 14.1951 2.818 14.0436 2.8125V2.8125Z"
              fill="white"/>
    </symbol>
	<symbol fill="none" xmlns="http://www.w3.org/2000/svg" viewBox="0 0 20 20" id="wait">
		<path fill-rule="evenodd" clip-rule="evenodd"
			  d="M3.95825 1.66663C3.79249 1.66663 3.63352 1.73247 3.51631 1.84968C3.3991 1.96689 3.33325 2.12587 3.33325 2.29163C3.33325 2.45739 3.3991 2.61636 3.51631 2.73357C3.63352 2.85078 3.79249 2.91663 3.95825 2.91663H4.58325V5.40163C4.58325 6.07006 4.75253 6.72762 5.07529 7.31296C5.39806 7.89831 5.8638 8.39239 6.42909 8.74913L8.13242 9.82413C8.16202 9.84294 8.18639 9.86891 8.20327 9.89965C8.22016 9.93039 8.22901 9.96489 8.22901 9.99996C8.22901 10.035 8.22016 10.0695 8.20327 10.1003C8.18639 10.131 8.16202 10.157 8.13242 10.1758L6.42909 11.2508C5.8638 11.6075 5.39806 12.1016 5.07529 12.687C4.75253 13.2723 4.58325 13.9299 4.58325 14.5983V17.0833H3.95825C3.79249 17.0833 3.63352 17.1491 3.51631 17.2664C3.3991 17.3836 3.33325 17.5425 3.33325 17.7083C3.33325 17.8741 3.3991 18.033 3.51631 18.1502C3.63352 18.2674 3.79249 18.3333 3.95825 18.3333H16.0416C16.2073 18.3333 16.3663 18.2674 16.4835 18.1502C16.6007 18.033 16.6666 17.8741 16.6666 17.7083C16.6666 17.5425 16.6007 17.3836 16.4835 17.2664C16.3663 17.1491 16.2073 17.0833 16.0416 17.0833H15.4166V14.5983C15.4166 13.9299 15.2473 13.2723 14.9245 12.687C14.6018 12.1016 14.136 11.6075 13.5708 11.2508L11.8674 10.1758C11.8378 10.157 11.8134 10.131 11.7966 10.1003C11.7797 10.0695 11.7708 10.035 11.7708 9.99996C11.7708 9.96489 11.7797 9.93039 11.7966 9.89965C11.8134 9.86891 11.8378 9.84294 11.8674 9.82413L13.5708 8.74913C14.136 8.39239 14.6018 7.89831 14.9245 7.31296C15.2473 6.72762 15.4166 6.07006 15.4166 5.40163V2.91663H16.0416C16.2073 2.91663 16.3663 2.85078 16.4835 2.73357C16.6007 2.61636 16.6666 2.45739 16.6666 2.29163C16.6666 2.12587 16.6007 1.96689 16.4835 1.84968C16.3663 1.73247 16.2073 1.66663 16.0416 1.66663H3.95825ZM14.1666 2.91663H5.83325V5.40163C5.83336 5.85895 5.94927 6.3088 6.17018 6.70923C6.39109 7.10966 6.70979 7.44763 7.09658 7.69163L8.79992 8.76663C9.0082 8.89805 9.17981 9.08008 9.29873 9.29575C9.41766 9.51141 9.48003 9.75368 9.48003 9.99996C9.48003 10.2462 9.41766 10.4885 9.29873 10.7042C9.17981 10.9198 9.0082 11.1019 8.79992 11.2333L7.09658 12.3083C6.70979 12.5523 6.39109 12.8903 6.17018 13.2907C5.94927 13.6911 5.83336 14.141 5.83325 14.5983V17.0833H14.1666V14.5983C14.1665 14.141 14.0506 13.6911 13.8297 13.2907C13.6088 12.8903 13.29 12.5523 12.9033 12.3083L11.1999 11.2333C10.9916 11.1019 10.82 10.9198 10.7011 10.7042C10.5822 10.4885 10.5198 10.2462 10.5198 9.99996C10.5198 9.75368 10.5822 9.51141 10.7011 9.29575C10.82 9.08008 10.9916 8.89805 11.1999 8.76663L12.9033 7.69163C13.29 7.44763 13.6088 7.10966 13.8297 6.70923C14.0506 6.3088 14.1665 5.85895 14.1666 5.40163V2.91663Z"
			  fill="white"/>
	</symbol>
	<symbol fill="none" xmlns="http://www.w3.org/2000/svg" viewBox="0 0 40 40" id="trophy">
		<path d="M10 7.5H3.75V8.75C3.75 13.0641 6.37109 17.5 10 17.5M30 7.5H36.25V8.75C36.25 13.0641 33.6289 17.5 30 17.5" stroke="white" stroke-width="2.5" stroke-linecap="round" stroke-linejoin="round"/>
		<path d="M13.75 36.25H26.25M20 36.25V26.25M30 17.5C30 13.5438 29.9937 6.98203 29.9906 5C29.9906 4.66848 29.8589 4.35054 29.6245 4.11612C29.39 3.8817 29.0721 3.75 28.7406 3.75L11.257 3.77031C10.9261 3.77031 10.6088 3.90147 10.3745 4.13505C10.1402 4.36862 10.008 4.68556 10.007 5.01641C10.007 7.40547 9.99683 15.1078 9.99683 17.5C9.99683 22.5219 16.4812 26.25 19.9968 26.25C23.5125 26.25 30 22.5219 30 17.5Z" stroke="white" stroke-width="2.5" stroke-linecap="round" stroke-linejoin="round"/>
	</symbol>
	<symbol fill="none" xmlns="http://www.w3.org/2000/svg" viewBox="0 0 40 40" id="death">
		<path d="M8.125 3.75C7.62772 3.75 7.15081 3.94754 6.79917 4.29917C6.44754 4.65081 6.25 5.12772 6.25 5.625C6.25 5.9175 6.32875 6.2 6.445 6.445C6.18956 6.31987 5.90943 6.25325 5.625 6.25C5.12772 6.25 4.65081 6.44754 4.29917 6.79917C3.94754 7.15081 3.75 7.62772 3.75 8.125C3.75 8.62228 3.94754 9.09919 4.29917 9.45083C4.65081 9.80246 5.12772 10 5.625 10C6.3375 10 6.94875 9.60875 7.26625 9.02375L10.6638 12.4613C9.76642 13.7885 9.16687 15.2942 8.90625 16.875C8.49625 19.365 8.98 21.7138 10 23.75V25C10 25.8875 10.3325 26.7 10.86 27.3438L7.265 30.9375C7.09858 30.6505 6.85922 30.4126 6.5712 30.248C6.28318 30.0833 5.95675 29.9978 5.625 30C5.12772 30 4.65081 30.1975 4.29917 30.5492C3.94754 30.9008 3.75 31.3777 3.75 31.875C3.75 32.3723 3.94754 32.8492 4.29917 33.2008C4.65081 33.5525 5.12772 33.75 5.625 33.75C5.9175 33.75 6.2 33.6712 6.445 33.555C6.31764 33.8096 6.2509 34.0903 6.25 34.375C6.25 34.8723 6.44754 35.3492 6.79917 35.7008C7.15081 36.0525 7.62772 36.25 8.125 36.25C8.62228 36.25 9.09919 36.0525 9.45083 35.7008C9.80246 35.3492 10 34.8723 10 34.375C10 33.6763 9.62875 33.0562 9.0625 32.7337L13.125 28.6712C13.33 28.7063 13.535 28.75 13.75 28.75C13.75 30.8062 15.4438 32.5 17.5 32.5H22.5C24.5562 32.5 26.25 30.8062 26.25 28.75C26.465 28.75 26.67 28.7063 26.875 28.6712L30.9375 32.7337C30.3713 33.0562 30 33.6763 30 34.375C30 34.8723 30.1975 35.3492 30.5492 35.7008C30.9008 36.0525 31.3777 36.25 31.875 36.25C32.3723 36.25 32.8492 36.0525 33.2008 35.7008C33.5525 35.3492 33.75 34.8723 33.75 34.375C33.75 34.0825 33.6712 33.8 33.555 33.555C33.7987 33.6712 34.0825 33.75 34.375 33.75C34.8723 33.75 35.3492 33.5525 35.7008 33.2008C36.0525 32.8492 36.25 32.3723 36.25 31.875C36.25 31.3777 36.0525 30.9008 35.7008 30.5492C35.3492 30.1975 34.8723 30 34.375 30C33.6763 30 33.0562 30.3713 32.7337 30.9375L29.14 27.3438C29.6899 26.6859 29.9939 25.8574 30 25V23.7887C30.7712 22.2663 31.25 20.5713 31.25 18.75C31.2481 16.5047 30.567 14.3124 29.2962 12.4613L32.7337 9.02375C33.0513 9.60875 33.6625 10 34.375 10C34.8723 10 35.3492 9.80246 35.7008 9.45083C36.0525 9.09919 36.25 8.62228 36.25 8.125C36.25 7.62772 36.0525 7.15081 35.7008 6.79917C35.3492 6.44754 34.8723 6.25 34.375 6.25C34.0825 6.25 33.8 6.32875 33.555 6.445C33.6712 6.20125 33.75 5.9175 33.75 5.625C33.75 5.12772 33.5525 4.65081 33.2008 4.29917C32.8492 3.94754 32.3723 3.75 31.875 3.75C31.3777 3.75 30.9008 3.94754 30.5492 4.29917C30.1975 4.65081 30 5.12772 30 5.625C30 6.3375 30.3913 6.94875 30.9762 7.26625L27.6562 10.5475C25.562 8.58064 22.7943 7.49017 19.9212 7.5C19.5063 7.5 19.0963 7.52875 18.6713 7.57875C16.2905 7.84865 14.059 8.8752 12.305 10.5075L9.02375 7.265C9.60875 6.95 10 6.3375 10 5.625C10 5.12772 9.80246 4.65081 9.45083 4.29917C9.09919 3.94754 8.62228 3.75 8.125 3.75ZM19.9613 10C21.1148 9.9904 22.2588 10.2099 23.3269 10.6457C24.395 11.0816 25.366 11.7251 26.1835 12.539C27.001 13.3529 27.6488 14.3211 28.0894 15.3872C28.53 16.4534 28.7545 17.5964 28.75 18.75C28.75 20.2875 28.355 21.7138 27.6562 22.9688L27.5 23.2812V25C27.5 25.7075 26.9575 26.25 26.25 26.25H23.75V28.75C23.75 29.4575 23.2075 30 22.5 30H17.5C16.7925 30 16.25 29.4575 16.25 28.75V26.25H13.75C13.0425 26.25 12.5 25.7075 12.5 25V23.2812L12.3438 22.9688C11.3778 21.2343 11.0334 19.2219 11.3675 17.265C11.9825 13.4963 15.185 10.5075 18.985 10.0775C19.3162 10.04 19.6338 10 19.96 10H19.9613ZM16.25 18.75C15.587 18.75 14.9511 19.0134 14.4822 19.4822C14.0134 19.9511 13.75 20.587 13.75 21.25C13.75 21.913 14.0134 22.5489 14.4822 23.0178C14.9511 23.4866 15.587 23.75 16.25 23.75C16.913 23.75 17.5489 23.4866 18.0178 23.0178C18.4866 22.5489 18.75 21.913 18.75 21.25C18.75 20.587 18.4866 19.9511 18.0178 19.4822C17.5489 19.0134 16.913 18.75 16.25 18.75ZM23.75 18.75C23.087 18.75 22.4511 19.0134 21.9822 19.4822C21.5134 19.9511 21.25 20.587 21.25 21.25C21.25 21.913 21.5134 22.5489 21.9822 23.0178C22.4511 23.4866 23.087 23.75 23.75 23.75C24.413 23.75 25.0489 23.4866 25.5178 23.0178C25.9866 22.5489 26.25 21.913 26.25 21.25C26.25 20.587 25.9866 19.9511 25.5178 19.4822C25.0489 19.0134 24.413 18.75 23.75 18.75ZM18.75 25V27.5H21.25V25H18.75Z" fill="white"/>
	</symbol>

	<!-- Game page -->
    <symbol fill="none" xmlns="http://www.w3.org/2000/svg" viewBox="0 0 40 40" id="send">
        <path d="M5.44192 4.10199L36.1519 19.234C36.3194 19.3165 36.4604 19.4443 36.559 19.6028C36.6576 19.7613 36.7099 19.9443 36.7099 20.131C36.7099 20.3177 36.6576 20.5007 36.559 20.6592C36.4604 20.8177 36.3194 20.9455 36.1519 21.028L5.43992 36.16C5.26786 36.2445 5.07514 36.2778 4.8847 36.2559C4.69426 36.234 4.51413 36.1578 4.36577 36.0364C4.2174 35.915 4.10705 35.7535 4.04787 35.5712C3.98868 35.3889 3.98314 35.1934 4.03192 35.008L7.96992 20.14L4.02992 5.25599C3.98033 5.07022 3.98536 4.8741 4.04438 4.69111C4.10341 4.50812 4.21394 4.34603 4.36274 4.22425C4.51153 4.10247 4.69228 4.02617 4.88332 4.00449C5.07437 3.9828 5.26762 4.01666 5.43992 4.10199H5.44192ZM6.52792 6.86799L9.74792 19.032L9.87192 19.008L9.99992 19H23.9999C24.2498 18.9995 24.4908 19.0927 24.6755 19.261C24.8601 19.4294 24.9751 19.6608 24.9977 19.9096C25.0202 20.1585 24.9488 20.4068 24.7975 20.6057C24.6461 20.8045 24.4258 20.9395 24.1799 20.984L23.9999 21H9.99992C9.93823 21.0003 9.87664 20.9949 9.81592 20.984L6.52992 33.396L33.4459 20.132L6.52792 6.86799Z"
              fill="black" fill-opacity="0.2"/>
    </symbol>
	<symbol fill="none" xmlns="http://www.w3.org/2000/svg" viewBox="0 0 40 40" id="lock">
		<path d="M20.1 22.8778C19.5018 22.8823 18.9223 23.0871 18.454 23.4593C17.9857 23.8316 17.6556 24.3499 17.5162 24.9317C17.3768 25.5134 17.4363 26.1251 17.6851 26.6692C17.9339 27.2132 18.3577 27.6583 18.8889 27.9334V31.1111H21.1111V28.0334C21.6848 27.7982 22.1592 27.3713 22.4532 26.8255C22.7472 26.2796 22.8427 25.6487 22.7234 25.0402C22.6041 24.4318 22.2773 23.8836 21.7989 23.4893C21.3205 23.0949 20.72 22.8788 20.1 22.8778Z"
			  fill="white" fill-opacity="0.3"/>
		<path d="M28.8889 16.6666V11.9111C28.9366 9.50207 28.0281 7.17224 26.3623 5.4314C24.6964 3.69057 22.4088 2.68049 20 2.62219C17.5912 2.68049 15.3036 3.69057 13.6377 5.4314C11.9719 7.17224 11.0634 9.50207 11.1111 11.9111V16.6666H7.77777V35.5555C7.77777 36.1449 8.0119 36.7101 8.42864 37.1269C8.84539 37.5436 9.41062 37.7777 9.99999 37.7777H30C30.5894 37.7777 31.1546 37.5436 31.5713 37.1269C31.9881 36.7101 32.2222 36.1449 32.2222 35.5555V16.6666H28.8889ZM13.3333 11.9111C13.2854 10.0913 13.9597 8.32662 15.2089 7.0025C16.4581 5.67838 18.1806 4.90251 20 4.84441C21.8194 4.90251 23.5419 5.67838 24.7911 7.0025C26.0403 8.32662 26.7146 10.0913 26.6667 11.9111V16.6666H13.3333V11.9111ZM9.99999 35.5555V18.8889H30V35.5555H9.99999Z"
			  fill="white" fill-opacity="0.3"/>
	</symbol>
	<symbol fill="currentColor" xmlns="http://www.w3.org/2000/svg" width="12" height="12" viewBox="0 0 12 12" id="arrow_down">
		<path d="M11 0.200822L5.78486 9.16776L0.588703 0.167764L11 0.200822Z" />
	</symbol>

	<!-- Play page -->
	<symbol fill="none" xmlns="http://www.w3.org/2000/svg" viewBox="0 0 40 40" id="logout">
        <path d="M8.33333 8.33333H18.3333C19.25 8.33333 20 7.58333 20 6.66667C20 5.75 19.25 5 18.3333 5H8.33333C6.5 5 5 6.5 5 8.33333V31.6667C5 33.5 6.5 35 8.33333 35H18.3333C19.25 35 20 34.25 20 33.3333C20 32.4167 19.25 31.6667 18.3333 31.6667H8.33333V8.33333Z" fill="white" />
        <path d="M34.4167 19.4167L29.7667 14.7667C29.6508 14.6476 29.5019 14.5658 29.3393 14.5318C29.1766 14.4978 29.0075 14.5131 28.8536 14.5757C28.6997 14.6383 28.5679 14.7455 28.4752 14.8834C28.3826 15.0214 28.3332 15.1838 28.3333 15.35V18.3333H16.6667C15.75 18.3333 15 19.0833 15 20C15 20.9167 15.75 21.6667 16.6667 21.6667H28.3333V24.65C28.3333 25.4 29.2333 25.7667 29.75 25.2333L34.4 20.5833C34.7333 20.2667 34.7333 19.7333 34.4167 19.4167Z" fill="white" />
    </symbol>
    <symbol fill="none" xmlns="http://www.w3.org/2000/svg" viewBox="0 0 44 44" id="wheel">
        <path d="M17.7143 2V7.71429L14.8571 9.14286L10.5714 4.85714L4.85714 10.5714L9.14286 14.8571L7.71429 17.7143H2V26.2857H7.71429L9.14286 29.1429L4.85714 33.4286L10.5714 39.1429L14.8571 34.8571L17.7143 36.2857V42H26.2857V36.2857L29.1429 34.8571L33.4286 39.1429L39.1429 33.4286L34.8571 29.1429L36.2857 26.2857H42V17.7143H36.2857L34.8571 14.8571L39.1429 10.5714L33.4286 4.85714L29.1429 9.14286L26.2857 7.71429V2H17.7143Z" stroke="white" stroke-width="2.5" stroke-linecap="round" stroke-linejoin="round" />
        <path d="M21.9999 27.7143C25.1558 27.7143 27.7142 25.1559 27.7142 22C27.7142 18.8441 25.1558 16.2857 21.9999 16.2857C18.844 16.2857 16.2856 18.8441 16.2856 22C16.2856 25.1559 18.844 27.7143 21.9999 27.7143Z" stroke="white" stroke-width="2.5" stroke-linecap="round" stroke-linejoin="round" />
    </symbol>

	<!-- Alerts -->
	<symbol fill="none" xmlns="http://www.w3.org/2000/svg" viewBox="0 0 40 40" id="success">
		<path d="M15.9982 23.1739L11.4002 18.5839L8.57617 21.4159L16.0022 28.8259L29.4142 15.4139L26.5862 12.5859L15.9982 23.1739Z" fill="currentColor"/>
		<path d="M20 0C8.972 0 0 8.972 0 20C0 31.028 8.972 40 20 40C31.028 40 40 31.028 40 20C40 8.972 31.028 0 20 0ZM20 36C11.178 36 4 28.822 4 20C4 11.178 11.178 4 20 4C28.822 4 36 11.178 36 20C36 28.822 28.822 36 20 36Z" fill="currentColor"/>
	</symbol>
	<symbol fill="none" xmlns="http://www.w3.org/2000/svg" viewBox="0 0 40 40" id="info">
        <path d="M20.0001 3.3317C29.2067 3.3317 36.6701 10.795 36.6701 20.0017C36.6701 29.2067 29.2067 36.67 20.0001 36.67C10.7934 36.67 3.33008 29.2067 3.33008 20.0017C3.33008 10.795 10.7934 3.3317 20.0001 3.3317ZM20.0001 5.8317C18.1264 5.81137 16.2673 6.16286 14.5304 6.86582C12.7935 7.56877 11.2133 8.60923 9.88118 9.92697C8.54907 11.2447 7.49153 12.8136 6.76978 14.5428C6.04803 16.2719 5.6764 18.1271 5.6764 20.0009C5.6764 21.8746 6.04803 23.7298 6.76978 25.459C7.49153 27.1881 8.54907 28.757 9.88118 30.0748C11.2133 31.3925 12.7935 32.433 14.5304 33.1359C16.2673 33.8389 18.1264 34.1903 20.0001 34.17C23.7201 34.113 27.2685 32.5951 29.879 29.9443C32.4895 27.2934 33.9528 23.7222 33.9528 20.0017C33.9528 16.2812 32.4895 12.71 29.879 10.0591C27.2685 7.40825 23.7201 5.89042 20.0001 5.83336V5.8317ZM19.9934 17.4984C20.2958 17.498 20.588 17.6072 20.816 17.8058C21.044 18.0043 21.1923 18.2788 21.2334 18.5784L21.2451 18.7484L21.2501 27.9184C21.25 28.2351 21.1297 28.5399 20.9135 28.7713C20.6972 29.0028 20.4012 29.1435 20.0853 29.1651C19.7693 29.1867 19.4569 29.0875 19.2112 28.8876C18.9656 28.6878 18.8049 28.4021 18.7617 28.0884L18.7501 27.92L18.7451 18.75C18.7451 18.4185 18.8768 18.1006 19.1112 17.8661C19.3456 17.6317 19.6636 17.5 19.9951 17.5L19.9934 17.4984ZM20.0001 11.6717C20.2231 11.6646 20.4452 11.7025 20.6532 11.7829C20.8613 11.8634 21.0511 11.9848 21.2113 12.1401C21.3715 12.2953 21.4989 12.4811 21.5859 12.6865C21.6729 12.892 21.7178 13.1128 21.7178 13.3359C21.7178 13.5589 21.6729 13.7798 21.5859 13.9852C21.4989 14.1906 21.3715 14.3764 21.2113 14.5317C21.0511 14.6869 20.8613 14.8083 20.6532 14.8888C20.4452 14.9693 20.2231 15.0071 20.0001 15C19.5678 14.9863 19.1579 14.805 18.8569 14.4944C18.556 14.1838 18.3878 13.7683 18.3878 13.3359C18.3878 12.9034 18.556 12.4879 18.8569 12.1773C19.1579 11.8667 19.5678 11.6854 20.0001 11.6717Z" fill="currentColor"/>
    </symbol>
	<symbol fill="none" xmlns="http://www.w3.org/2000/svg" viewBox="0 0 40 40" id="warn">
		<path d="M20 40C8.954 40 0 31.046 0 20C0 8.954 8.954 0 20 0C31.046 0 40 8.954 40 20C40 31.046 31.046 40 20 40ZM20 36C24.2435 36 28.3131 34.3143 31.3137 31.3137C34.3143 28.3131 36 24.2435 36 20C36 15.7565 34.3143 11.6869 31.3137 8.68629C28.3131 5.68571 24.2435 4 20 4C15.7565 4 11.6869 5.68571 8.68629 8.68629C5.68571 11.6869 4 15.7565 4 20C4 24.2435 5.68571 28.3131 8.68629 31.3137C11.6869 34.3143 15.7565 36 20 36V36ZM18 26H22V30H18V26ZM18 10H22V22H18V10Z" fill="currentColor"/>
	</symbol>
	<symbol fill="none" xmlns="http://www.w3.org/2000/svg" viewBox="0 0 40 40" id="error">
		<path d="M20 4C15.7565 4 11.6869 5.68571 8.68629 8.68629C5.68571 11.6869 4 15.7565 4 20C4 24.2435 5.68571 28.3131 8.68629 31.3137C11.6869 34.3143 15.7565 36 20 36C24.2435 36 28.3131 34.3143 31.3137 31.3137C34.3143 28.3131 36 24.2435 36 20C36 15.7565 34.3143 11.6869 31.3137 8.68629C28.3131 5.68571 24.2435 4 20 4V4ZM0 20C0 8.954 8.954 0 20 0C31.046 0 40 8.954 40 20C40 31.046 31.046 40 20 40C8.954 40 0 31.046 0 20ZM11.586 11.586C11.9611 11.2111 12.4697 11.0004 13 11.0004C13.5303 11.0004 14.0389 11.2111 14.414 11.586L20 17.172L25.586 11.586C25.7705 11.395 25.9912 11.2426 26.2352 11.1378C26.4792 11.033 26.7416 10.9778 27.0072 10.9755C27.2728 10.9732 27.5361 11.0238 27.7819 11.1244C28.0277 11.2249 28.251 11.3734 28.4388 11.5612C28.6266 11.749 28.7751 11.9723 28.8756 12.2181C28.9762 12.4639 29.0268 12.7272 29.0245 12.9928C29.0222 13.2584 28.967 13.5208 28.8622 13.7648C28.7574 14.0088 28.605 14.2295 28.414 14.414L22.828 20L28.414 25.586C28.7783 25.9632 28.9799 26.4684 28.9753 26.9928C28.9708 27.5172 28.7605 28.0188 28.3896 28.3896C28.0188 28.7605 27.5172 28.9708 26.9928 28.9753C26.4684 28.9799 25.9632 28.7783 25.586 28.414L20 22.828L14.414 28.414C14.0368 28.7783 13.5316 28.9799 13.0072 28.9753C12.4828 28.9708 11.9812 28.7605 11.6104 28.3896C11.2395 28.0188 11.0292 27.5172 11.0247 26.9928C11.0201 26.4684 11.2217 25.9632 11.586 25.586L17.172 20L11.586 14.414C11.2111 14.0389 11.0004 13.5303 11.0004 13C11.0004 12.4697 11.2111 11.9611 11.586 11.586V11.586Z" fill="currentColor"/>
	</symbol>
	<symbol fill="none" xmlns="http://www.w3.org/2000/svg" viewBox="0 0 40 40" id="cross">
		<path d="M5.96405 0.981789L20 15.0177L33.9632 1.05451C34.2717 0.726224 34.6432 0.463603 35.0556 0.2824C35.468 0.101196 35.9127 0.00514292 36.3632 0C37.3276 0 38.2524 0.383104 38.9344 1.06503C39.6163 1.74696 39.9994 2.67186 39.9994 3.63626C40.0079 4.08207 39.9252 4.52491 39.7563 4.93761C39.5875 5.3503 39.3361 5.72414 39.0176 6.03619L24.8726 19.9994L39.0176 34.1444C39.6169 34.7308 39.9684 35.5247 39.9994 36.3626C39.9994 37.327 39.6163 38.2519 38.9344 38.9338C38.2524 39.6157 37.3276 39.9988 36.3632 39.9988C35.8997 40.018 35.4374 39.9407 35.0054 39.7717C34.5735 39.6027 34.1814 39.3457 33.8541 39.017L20 24.9811L6.00041 38.9807C5.69317 39.298 5.32612 39.5514 4.92045 39.7261C4.51478 39.9009 4.07852 39.9936 3.63685 39.9988C2.67245 39.9988 1.74756 39.6157 1.06563 38.9338C0.383696 38.2519 0.000591643 37.327 0.000591643 36.3626C-0.00788627 35.9168 0.0748273 35.4739 0.243657 35.0612C0.412487 34.6485 0.663871 34.2747 0.982381 33.9626L15.1274 19.9994L0.982381 5.85437C0.383071 5.26806 0.0316439 4.47409 0.000591643 3.63626C0.000591643 2.67186 0.383696 1.74696 1.06563 1.06503C1.74756 0.383104 2.67245 0 3.63685 0C4.50955 0.0109088 5.34589 0.363626 5.96405 0.981789Z" fill="currentColor"/>
	</symbol>

	<!-- Socials -->
	<symbol fill="none" xmlns="http://www.w3.org/2000/svg" viewBox="0 0 32 27" id="twitter">
		<path d="M32 3.18161C30.8017 3.73023 29.5307 4.09035 28.2292 4.24998C29.5849 3.41027 30.6258 2.08055 31.1159 0.496206C29.8272 1.28655 28.4173 1.8434 26.947 2.14269C25.7494 0.824082 24.0432 0 22.1549 0C18.5291 0 15.5895 3.03795 15.5895 6.78488C15.5895 7.31674 15.6476 7.83452 15.7595 8.33124C10.3032 8.0482 5.46575 5.34703 2.22762 1.242C1.66262 2.2441 1.33888 3.40975 1.33888 4.65304C1.33888 7.00708 2.498 9.08376 4.2595 10.3006C3.21694 10.2668 2.19731 9.9758 1.28575 9.45181C1.28538 9.48023 1.28537 9.50865 1.28537 9.5372C1.28537 12.8246 3.54837 15.567 6.55162 16.1903C5.58486 16.462 4.57079 16.5018 3.58687 16.3066C4.42225 19.0022 6.84688 20.9638 9.71963 21.0187C7.47275 22.8384 4.64188 23.9232 1.56613 23.9232C1.03613 23.9232 0.513625 23.891 0 23.8283C2.90538 25.7535 6.35625 26.8768 10.0638 26.8768C22.1396 26.8768 28.743 16.5378 28.743 7.57176C28.743 7.27747 28.7368 6.98486 28.724 6.69393C30.0093 5.73367 31.1186 4.54429 32 3.18161" fill="white"/>
	</symbol>

	<!-- Form -->
	<symbol fill="none" xmlns="http://www.w3.org/2000/svg" viewBox="0 0 21 21" id="question">
		<path d="M10 20C4.477 20 0 15.523 0 10C0 4.477 4.477 0 10 0C15.523 0 20 4.477 20 10C20 15.523 15.523 20 10 20ZM10 18C12.1217 18 14.1566 17.1571 15.6569 15.6569C17.1571 14.1566 18 12.1217 18 10C18 7.87827 17.1571 5.84344 15.6569 4.34315C14.1566 2.84285 12.1217 2 10 2C7.87827 2 5.84344 2.84285 4.34315 4.34315C2.84285 5.84344 2 7.87827 2 10C2 12.1217 2.84285 14.1566 4.34315 15.6569C5.84344 17.1571 7.87827 18 10 18ZM9 13H11V15H9V13ZM11 11.355V12H9V10.5C9 10.2348 9.10536 9.98043 9.29289 9.79289C9.48043 9.60536 9.73478 9.5 10 9.5C10.2841 9.49998 10.5623 9.4193 10.8023 9.26733C11.0423 9.11536 11.2343 8.89837 11.3558 8.64158C11.4773 8.3848 11.5234 8.0988 11.4887 7.81684C11.454 7.53489 11.34 7.26858 11.1598 7.04891C10.9797 6.82924 10.7409 6.66523 10.4712 6.57597C10.2015 6.48671 9.91204 6.47587 9.63643 6.54471C9.36081 6.61354 9.11042 6.75923 8.91437 6.96482C8.71832 7.1704 8.58468 7.42743 8.529 7.706L6.567 7.313C6.68863 6.70508 6.96951 6.14037 7.38092 5.67659C7.79233 5.2128 8.31952 4.86658 8.90859 4.67332C9.49766 4.48006 10.1275 4.44669 10.7337 4.57661C11.3399 4.70654 11.9007 4.99511 12.3588 5.41282C12.8169 5.83054 13.1559 6.36241 13.3411 6.95406C13.5263 7.54572 13.5511 8.17594 13.4129 8.78031C13.2747 9.38467 12.9785 9.9415 12.5545 10.3939C12.1306 10.8462 11.5941 11.1779 11 11.355Z" fill="#0f1127"/>
	</symbol>
	<symbol xmlns="http://www.w3.org/2000/svg" viewBox="0 0 40 40" id="eye">
		<path d="M20 14.1818C21.4466 14.1818 22.834 14.7565 23.8569 15.7794C24.8799 16.8023 25.4545 18.1897 25.4545 19.6364C25.4545 21.083 24.8799 22.4704 23.8569 23.4933C22.834 24.5162 21.4466 25.0909 20 25.0909C18.5534 25.0909 17.166 24.5162 16.1431 23.4933C15.1201 22.4704 14.5455 21.083 14.5455 19.6364C14.5455 18.1897 15.1201 16.8023 16.1431 15.7794C17.166 14.7565 18.5534 14.1818 20 14.1818M20 6C29.0909 6 36.8545 11.6545 40 19.6364C36.8545 27.6182 29.0909 33.2727 20 33.2727C10.9091 33.2727 3.14545 27.6182 0 19.6364C3.14545 11.6545 10.9091 6 20 6ZM3.96364 19.6364C5.43319 22.6369 7.7151 25.165 10.55 26.9332C13.3848 28.7014 16.6589 29.6388 20 29.6388C23.3411 29.6388 26.6152 28.7014 29.45 26.9332C32.2849 25.165 34.5668 22.6369 36.0364 19.6364C34.5668 16.6358 32.2849 14.1077 29.45 12.3395C26.6152 10.5713 23.3411 9.63396 20 9.63396C16.6589 9.63396 13.3848 10.5713 10.55 12.3395C7.7151 14.1077 5.43319 16.6358 3.96364 19.6364V19.6364Z" fill="#0f1127"/>
	</symbol>
	<symbol xmlns="http://www.w3.org/2000/svg" viewBox="0 0 40 40" id="closed_eye">
		<path d="M1.81818 6.30909L4.14545 4L34.5455 34.4L32.2364 36.7273L26.6364 31.1273C24.5455 31.8182 22.3273 32.1818 20 32.1818C10.9091 32.1818 3.14545 26.5273 0 18.5455C1.25455 15.3455 3.25455 12.5273 5.8 10.2909L1.81818 6.30909ZM20 13.0909C21.4466 13.0909 22.834 13.6656 23.8569 14.6885C24.8799 15.7114 25.4545 17.0988 25.4545 18.5455C25.4555 19.1647 25.3509 19.7795 25.1455 20.3636L18.1818 13.4C18.7659 13.1945 19.3808 13.09 20 13.0909M20 4.90909C29.0909 4.90909 36.8545 10.5636 40 18.5455C38.5161 22.3149 35.9945 25.5867 32.7273 27.9818L30.1455 25.3818C32.6598 23.6425 34.6877 21.2892 36.0364 18.5455C34.5665 15.5453 32.2844 13.0178 29.4496 11.25C26.6147 9.48225 23.3408 8.54523 20 8.54545C18.0182 8.54545 16.0727 8.87273 14.2545 9.45455L11.4545 6.67273C14.0727 5.54545 16.9636 4.90909 20 4.90909ZM3.96364 18.5455C5.43353 21.5456 7.71558 24.0731 10.5504 25.8409C13.3853 27.6087 16.6592 28.5457 20 28.5455C21.2545 28.5455 22.4909 28.4182 23.6364 28.1636L19.4909 24C18.2258 23.8644 17.0451 23.2998 16.1454 22.4C15.2457 21.5003 14.6811 20.3197 14.5455 19.0545L8.36364 12.8545C6.56364 14.4 5.05455 16.3273 3.96364 18.5455V18.5455Z" fill="#0f1127"/>
	</symbol>
	<symbol fill="none" xmlns="http://www.w3.org/2000/svg" viewBox="0 0 35 35" id="back_chevron">
		<path d="M17.5625 2.25C9.10872 2.25 2.25 9.10872 2.25 17.5625C2.25 26.0163 9.10872 32.875 17.5625 32.875C26.0163 32.875 32.875 26.0163 32.875 17.5625C32.875 9.10872 26.0163 2.25 17.5625 2.25Z" stroke="#0F1127" stroke-width="3" stroke-miterlimit="10"/>
		<path d="M19.25 24.5L12.25 17.5L19.25 10.5" stroke="#0F1127" stroke-width="3" stroke-linecap="round" stroke-linejoin="round"/>
	</symbol>
</svg>
